%TF.GenerationSoftware,KiCad,Pcbnew,8.0.0*%
%TF.CreationDate,2024-08-24T04:45:33-07:00*%
%TF.ProjectId,sled,736c6564-2e6b-4696-9361-645f70636258,rev?*%
%TF.SameCoordinates,Original*%
%TF.FileFunction,Legend,Bot*%
%TF.FilePolarity,Positive*%
%FSLAX46Y46*%
G04 Gerber Fmt 4.6, Leading zero omitted, Abs format (unit mm)*
G04 Created by KiCad (PCBNEW 8.0.0) date 2024-08-24 04:45:33*
%MOMM*%
%LPD*%
G01*
G04 APERTURE LIST*
G04 Aperture macros list*
%AMHorizOval*
0 Thick line with rounded ends*
0 $1 width*
0 $2 $3 position (X,Y) of the first rounded end (center of the circle)*
0 $4 $5 position (X,Y) of the second rounded end (center of the circle)*
0 Add line between two ends*
20,1,$1,$2,$3,$4,$5,0*
0 Add two circle primitives to create the rounded ends*
1,1,$1,$2,$3*
1,1,$1,$4,$5*%
%AMRotRect*
0 Rectangle, with rotation*
0 The origin of the aperture is its center*
0 $1 length*
0 $2 width*
0 $3 Rotation angle, in degrees counterclockwise*
0 Add horizontal line*
21,1,$1,$2,0,0,$3*%
G04 Aperture macros list end*
%ADD10C,0.120000*%
%ADD11C,0.250000*%
%ADD12RotRect,1.700000X1.700000X268.000000*%
%ADD13HorizOval,1.700000X0.000000X0.000000X0.000000X0.000000X0*%
%ADD14R,1.700000X1.700000*%
%ADD15O,1.700000X1.700000*%
%ADD16R,1.000000X1.000000*%
%ADD17O,1.000000X1.000000*%
%ADD18C,3.800000*%
%ADD19C,1.600000*%
%ADD20R,1.600000X1.600000*%
%ADD21C,6.400000*%
G04 APERTURE END LIST*
D10*
%TO.C,SW3*%
X179476400Y-67806800D02*
X179476400Y-66536800D01*
X179476400Y-66536800D02*
X180746400Y-66536800D01*
X180366400Y-69303871D02*
X180366400Y-68916800D01*
X181126400Y-69303871D02*
X181126400Y-68916800D01*
X180366400Y-71786800D02*
X180366400Y-71389729D01*
X181126400Y-71786800D02*
X181126400Y-71389729D01*
X182076400Y-71786800D02*
X179416400Y-71786800D01*
X182076400Y-74446800D02*
X182076400Y-71786800D01*
X179416400Y-71786800D02*
X179416400Y-74446800D01*
X180366400Y-80446800D02*
X180366400Y-74446800D01*
X180426400Y-80446800D02*
X180426400Y-74446800D01*
X180546400Y-80446800D02*
X180546400Y-74446800D01*
X180666400Y-80446800D02*
X180666400Y-74446800D01*
X180786400Y-80446800D02*
X180786400Y-74446800D01*
X180906400Y-80446800D02*
X180906400Y-74446800D01*
X181026400Y-80446800D02*
X181026400Y-74446800D01*
X179416400Y-74446800D02*
X182076400Y-74446800D01*
X181126400Y-80446800D02*
X180366400Y-80446800D01*
X181126400Y-74446800D02*
X181126400Y-80446800D01*
%TO.C,SW2*%
X163068000Y-67857600D02*
X163068000Y-66587600D01*
X163068000Y-66587600D02*
X164338000Y-66587600D01*
X163958000Y-69354671D02*
X163958000Y-68967600D01*
X164718000Y-69354671D02*
X164718000Y-68967600D01*
X163958000Y-71837600D02*
X163958000Y-71440529D01*
X164718000Y-71837600D02*
X164718000Y-71440529D01*
X165668000Y-71837600D02*
X163008000Y-71837600D01*
X165668000Y-74497600D02*
X165668000Y-71837600D01*
X163008000Y-71837600D02*
X163008000Y-74497600D01*
X163958000Y-80497600D02*
X163958000Y-74497600D01*
X164018000Y-80497600D02*
X164018000Y-74497600D01*
X164138000Y-80497600D02*
X164138000Y-74497600D01*
X164258000Y-80497600D02*
X164258000Y-74497600D01*
X164378000Y-80497600D02*
X164378000Y-74497600D01*
X164498000Y-80497600D02*
X164498000Y-74497600D01*
X164618000Y-80497600D02*
X164618000Y-74497600D01*
X163008000Y-74497600D02*
X165668000Y-74497600D01*
X164718000Y-80497600D02*
X163958000Y-80497600D01*
X164718000Y-74497600D02*
X164718000Y-80497600D01*
D11*
%TO.C,BT3*%
X188635600Y-46559600D02*
X188125600Y-46559600D01*
X188635600Y-45789600D02*
X188125600Y-45789600D01*
X182925600Y-45859600D02*
X183425600Y-45859600D01*
X188725600Y-48749600D02*
X188735600Y-45829600D01*
X182835600Y-48749600D02*
X182835600Y-44059600D01*
X182835600Y-48749600D02*
X188725600Y-48749600D01*
X182835600Y-44059600D02*
X188735600Y-44049600D01*
X184575600Y-44559600D02*
X184575600Y-44049600D01*
X182925600Y-46619600D02*
X183425600Y-46619600D01*
X186605600Y-44559600D02*
X186605600Y-44049600D01*
X188735600Y-44049600D02*
X188735600Y-46079600D01*
%TD*%
%LPC*%
D12*
%TO.C,GPS1*%
X108971000Y-55626000D03*
D13*
X106432547Y-55537355D03*
%TD*%
D14*
%TO.C,BR1*%
X175920400Y-65176400D03*
D15*
X175920400Y-62636400D03*
X175920400Y-60096400D03*
X175920400Y-57556400D03*
X175920400Y-55016400D03*
X175920400Y-52476400D03*
%TD*%
D16*
%TO.C,BT2*%
X159461200Y-47498000D03*
D17*
X158191200Y-47498000D03*
%TD*%
D16*
%TO.C,BT1*%
X157327600Y-72644000D03*
D17*
X158597600Y-72644000D03*
%TD*%
D14*
%TO.C,SW4*%
X184404000Y-70351800D03*
%TD*%
%TO.C,SW3*%
X180746400Y-67806800D03*
D15*
X180746400Y-70346800D03*
%TD*%
D14*
%TO.C,SW2*%
X164338000Y-67857600D03*
D15*
X164338000Y-70397600D03*
%TD*%
D14*
%TO.C,SW1*%
X167995600Y-67857600D03*
D15*
X167995600Y-70397600D03*
%TD*%
%TO.C,LYRA1*%
X163128800Y-56581200D03*
X160588800Y-56581200D03*
X158048800Y-56581200D03*
D14*
X155508800Y-56581200D03*
%TD*%
%TO.C,J2*%
X232105200Y-67716400D03*
D15*
X232105200Y-70256400D03*
%TD*%
D14*
%TO.C,J1*%
X180746400Y-46837600D03*
D15*
X180746400Y-49377600D03*
%TD*%
D18*
%TO.C,H11*%
X210515200Y-73406000D03*
%TD*%
%TO.C,H10*%
X206146400Y-73406000D03*
%TD*%
%TO.C,H9*%
X221945200Y-73406000D03*
%TD*%
%TO.C,H8*%
X217474800Y-73406000D03*
%TD*%
%TO.C,H7*%
X199339200Y-73406000D03*
%TD*%
%TO.C,H6*%
X194919600Y-73406000D03*
%TD*%
D19*
%TO.C,BT3*%
X184725600Y-45869600D03*
D20*
X186725600Y-45869600D03*
%TD*%
D21*
%TO.C,H5*%
X121500000Y-67750000D03*
%TD*%
%TO.C,H4*%
X139416333Y-65335328D03*
%TD*%
%TO.C,H3*%
X113780646Y-53142541D03*
%TD*%
%TO.C,H2*%
X150532490Y-52126007D03*
%TD*%
%TO.C,H1*%
X168427502Y-52393444D03*
%TD*%
%LPD*%
M02*
