%TF.GenerationSoftware,KiCad,Pcbnew,8.0.0*%
%TF.CreationDate,2024-08-29T00:31:50-07:00*%
%TF.ProjectId,sled,736c6564-2e6b-4696-9361-645f70636258,rev?*%
%TF.SameCoordinates,Original*%
%TF.FileFunction,Soldermask,Bot*%
%TF.FilePolarity,Negative*%
%FSLAX46Y46*%
G04 Gerber Fmt 4.6, Leading zero omitted, Abs format (unit mm)*
G04 Created by KiCad (PCBNEW 8.0.0) date 2024-08-29 00:31:50*
%MOMM*%
%LPD*%
G01*
G04 APERTURE LIST*
G04 Aperture macros list*
%AMHorizOval*
0 Thick line with rounded ends*
0 $1 width*
0 $2 $3 position (X,Y) of the first rounded end (center of the circle)*
0 $4 $5 position (X,Y) of the second rounded end (center of the circle)*
0 Add line between two ends*
20,1,$1,$2,$3,$4,$5,0*
0 Add two circle primitives to create the rounded ends*
1,1,$1,$2,$3*
1,1,$1,$4,$5*%
%AMRotRect*
0 Rectangle, with rotation*
0 The origin of the aperture is its center*
0 $1 length*
0 $2 width*
0 $3 Rotation angle, in degrees counterclockwise*
0 Add horizontal line*
21,1,$1,$2,0,0,$3*%
G04 Aperture macros list end*
%ADD10R,3.000000X3.000000*%
%ADD11C,3.000000*%
%ADD12C,6.400000*%
%ADD13R,1.000000X1.000000*%
%ADD14O,1.000000X1.000000*%
%ADD15R,1.700000X1.700000*%
%ADD16O,1.700000X1.700000*%
%ADD17C,3.800000*%
%ADD18RotRect,1.700000X1.700000X268.000000*%
%ADD19HorizOval,1.700000X0.000000X0.000000X0.000000X0.000000X0*%
%ADD20R,1.600000X1.600000*%
%ADD21C,1.600000*%
G04 APERTURE END LIST*
D10*
%TO.C,SW5*%
X241681000Y-65532000D03*
D11*
X241681000Y-60452000D03*
X241681000Y-55372000D03*
%TD*%
D12*
%TO.C,H1*%
X168427502Y-52393444D03*
%TD*%
D13*
%TO.C,BT2*%
X159461200Y-47498000D03*
D14*
X158191200Y-47498000D03*
%TD*%
D15*
%TO.C,SW1*%
X168021000Y-70931000D03*
D16*
X168021000Y-73471000D03*
%TD*%
D13*
%TO.C,BT1*%
X157327600Y-72644000D03*
D14*
X158597600Y-72644000D03*
%TD*%
D12*
%TO.C,H5*%
X121500000Y-67750000D03*
%TD*%
D17*
%TO.C,H6*%
X237236000Y-45466000D03*
%TD*%
%TO.C,H8*%
X237998000Y-74168000D03*
%TD*%
D15*
%TO.C,BR1*%
X175920400Y-65176400D03*
D16*
X175920400Y-62636400D03*
X175920400Y-60096400D03*
X175920400Y-57556400D03*
X175920400Y-55016400D03*
X175920400Y-52476400D03*
%TD*%
D15*
%TO.C,J2*%
X240152000Y-69723000D03*
D16*
X242692000Y-69723000D03*
%TD*%
D15*
%TO.C,LYRA1*%
X155508800Y-56581200D03*
D16*
X158048800Y-56581200D03*
X160588800Y-56581200D03*
X163128800Y-56581200D03*
%TD*%
D17*
%TO.C,H9*%
X242316000Y-74168000D03*
%TD*%
%TO.C,H11*%
X241808000Y-50165000D03*
%TD*%
D12*
%TO.C,H3*%
X113780646Y-53142541D03*
%TD*%
D15*
%TO.C,SW4*%
X184531000Y-71063000D03*
%TD*%
D12*
%TO.C,H4*%
X139416333Y-65335328D03*
%TD*%
D17*
%TO.C,H10*%
X241808000Y-45796200D03*
%TD*%
D12*
%TO.C,H2*%
X150532490Y-52126007D03*
%TD*%
D18*
%TO.C,GPS1*%
X108971000Y-55626000D03*
D19*
X106432547Y-55537355D03*
%TD*%
D15*
%TO.C,SW3*%
X181864000Y-70931000D03*
D16*
X181864000Y-73471000D03*
%TD*%
D20*
%TO.C,BT3*%
X100235000Y-52959000D03*
D21*
X102235000Y-52959000D03*
%TD*%
D15*
%TO.C,SW2*%
X165862000Y-70931000D03*
D16*
X165862000Y-73471000D03*
%TD*%
M02*
