%TF.GenerationSoftware,KiCad,Pcbnew,8.0.0*%
%TF.CreationDate,2024-08-24T04:45:33-07:00*%
%TF.ProjectId,sled,736c6564-2e6b-4696-9361-645f70636258,rev?*%
%TF.SameCoordinates,Original*%
%TF.FileFunction,Other,Comment*%
%FSLAX46Y46*%
G04 Gerber Fmt 4.6, Leading zero omitted, Abs format (unit mm)*
G04 Created by KiCad (PCBNEW 8.0.0) date 2024-08-24 04:45:33*
%MOMM*%
%LPD*%
G01*
G04 APERTURE LIST*
%ADD10C,0.150000*%
G04 APERTURE END LIST*
D10*
%TO.C,H11*%
X212415200Y-73406000D02*
G75*
G02*
X208615200Y-73406000I-1900000J0D01*
G01*
X208615200Y-73406000D02*
G75*
G02*
X212415200Y-73406000I1900000J0D01*
G01*
%TO.C,H10*%
X208046400Y-73406000D02*
G75*
G02*
X204246400Y-73406000I-1900000J0D01*
G01*
X204246400Y-73406000D02*
G75*
G02*
X208046400Y-73406000I1900000J0D01*
G01*
%TO.C,H9*%
X223845200Y-73406000D02*
G75*
G02*
X220045200Y-73406000I-1900000J0D01*
G01*
X220045200Y-73406000D02*
G75*
G02*
X223845200Y-73406000I1900000J0D01*
G01*
%TO.C,H8*%
X219374800Y-73406000D02*
G75*
G02*
X215574800Y-73406000I-1900000J0D01*
G01*
X215574800Y-73406000D02*
G75*
G02*
X219374800Y-73406000I1900000J0D01*
G01*
%TO.C,H7*%
X201239200Y-73406000D02*
G75*
G02*
X197439200Y-73406000I-1900000J0D01*
G01*
X197439200Y-73406000D02*
G75*
G02*
X201239200Y-73406000I1900000J0D01*
G01*
%TO.C,H6*%
X196819600Y-73406000D02*
G75*
G02*
X193019600Y-73406000I-1900000J0D01*
G01*
X193019600Y-73406000D02*
G75*
G02*
X196819600Y-73406000I1900000J0D01*
G01*
%TO.C,H5*%
X124700000Y-67750000D02*
G75*
G02*
X118300000Y-67750000I-3200000J0D01*
G01*
X118300000Y-67750000D02*
G75*
G02*
X124700000Y-67750000I3200000J0D01*
G01*
%TO.C,H4*%
X142616333Y-65335328D02*
G75*
G02*
X136216333Y-65335328I-3200000J0D01*
G01*
X136216333Y-65335328D02*
G75*
G02*
X142616333Y-65335328I3200000J0D01*
G01*
%TO.C,H3*%
X116980646Y-53142541D02*
G75*
G02*
X110580646Y-53142541I-3200000J0D01*
G01*
X110580646Y-53142541D02*
G75*
G02*
X116980646Y-53142541I3200000J0D01*
G01*
%TO.C,H2*%
X153732490Y-52126007D02*
G75*
G02*
X147332490Y-52126007I-3200000J0D01*
G01*
X147332490Y-52126007D02*
G75*
G02*
X153732490Y-52126007I3200000J0D01*
G01*
%TO.C,H1*%
X171627502Y-52393444D02*
G75*
G02*
X165227502Y-52393444I-3200000J0D01*
G01*
X165227502Y-52393444D02*
G75*
G02*
X171627502Y-52393444I3200000J0D01*
G01*
%TD*%
M02*
