M48
; DRILL file {KiCad 8.0.0} date 2024-08-24T04:45:33-0700
; FORMAT={-:-/ absolute / inch / decimal}
; #@! TF.CreationDate,2024-08-24T04:45:33-07:00
; #@! TF.GenerationSoftware,Kicad,Pcbnew,8.0.0
; #@! TF.FileFunction,Plated,1,2,PTH
FMAT,2
INCH
; #@! TA.AperFunction,Plated,PTH,ViaDrill
T1C0.0118
; #@! TA.AperFunction,Plated,PTH,ComponentDrill
T2C0.0256
; #@! TA.AperFunction,Plated,PTH,ComponentDrill
T3C0.0354
; #@! TA.AperFunction,Plated,PTH,ComponentDrill
T4C0.0394
; #@! TA.AperFunction,Plated,PTH,ComponentDrill
T5C0.0866
; #@! TA.AperFunction,Plated,PTH,ComponentDrill
T6C0.1260
%
G90
G05
T1
X4.6233Y-2.2707
T2
X6.194Y-2.86
X6.228Y-1.87
X6.244Y-2.86
X6.278Y-1.87
T3
X7.2727Y-1.8059
X7.3514Y-1.8059
T4
X4.1903Y-2.1865
X4.2902Y-2.19
X6.1224Y-2.2276
X6.2224Y-2.2276
X6.3224Y-2.2276
X6.4224Y-2.2276
X6.47Y-2.6716
X6.47Y-2.7716
X6.614Y-2.6716
X6.614Y-2.7716
X6.926Y-2.066
X6.926Y-2.166
X6.926Y-2.266
X6.926Y-2.366
X6.926Y-2.466
X6.926Y-2.566
X7.116Y-1.844
X7.116Y-1.944
X7.116Y-2.6696
X7.116Y-2.7696
X7.26Y-2.7698
X9.138Y-2.666
X9.138Y-2.766
T5
X7.674Y-2.89
X7.848Y-2.89
X8.116Y-2.89
X8.288Y-2.89
X8.562Y-2.89
X8.738Y-2.89
T6
X4.4796Y-2.0922
X4.7835Y-2.6673
X5.4888Y-2.5723
X5.9265Y-2.0522
X6.631Y-2.0627
M30
