%TF.GenerationSoftware,KiCad,Pcbnew,8.0.0*%
%TF.CreationDate,2024-08-24T04:45:33-07:00*%
%TF.ProjectId,sled,736c6564-2e6b-4696-9361-645f70636258,rev?*%
%TF.SameCoordinates,Original*%
%TF.FileFunction,Copper,L2,Bot*%
%TF.FilePolarity,Positive*%
%FSLAX46Y46*%
G04 Gerber Fmt 4.6, Leading zero omitted, Abs format (unit mm)*
G04 Created by KiCad (PCBNEW 8.0.0) date 2024-08-24 04:45:33*
%MOMM*%
%LPD*%
G01*
G04 APERTURE LIST*
G04 Aperture macros list*
%AMHorizOval*
0 Thick line with rounded ends*
0 $1 width*
0 $2 $3 position (X,Y) of the first rounded end (center of the circle)*
0 $4 $5 position (X,Y) of the second rounded end (center of the circle)*
0 Add line between two ends*
20,1,$1,$2,$3,$4,$5,0*
0 Add two circle primitives to create the rounded ends*
1,1,$1,$2,$3*
1,1,$1,$4,$5*%
%AMRotRect*
0 Rectangle, with rotation*
0 The origin of the aperture is its center*
0 $1 length*
0 $2 width*
0 $3 Rotation angle, in degrees counterclockwise*
0 Add horizontal line*
21,1,$1,$2,0,0,$3*%
G04 Aperture macros list end*
%TA.AperFunction,ComponentPad*%
%ADD10RotRect,1.700000X1.700000X268.000000*%
%TD*%
%TA.AperFunction,ComponentPad*%
%ADD11HorizOval,1.700000X0.000000X0.000000X0.000000X0.000000X0*%
%TD*%
%TA.AperFunction,ComponentPad*%
%ADD12R,1.700000X1.700000*%
%TD*%
%TA.AperFunction,ComponentPad*%
%ADD13O,1.700000X1.700000*%
%TD*%
%TA.AperFunction,ComponentPad*%
%ADD14R,1.000000X1.000000*%
%TD*%
%TA.AperFunction,ComponentPad*%
%ADD15O,1.000000X1.000000*%
%TD*%
%TA.AperFunction,ComponentPad*%
%ADD16C,3.800000*%
%TD*%
%TA.AperFunction,ComponentPad*%
%ADD17C,1.600000*%
%TD*%
%TA.AperFunction,ComponentPad*%
%ADD18R,1.600000X1.600000*%
%TD*%
%TA.AperFunction,ComponentPad*%
%ADD19C,6.400000*%
%TD*%
%TA.AperFunction,ViaPad*%
%ADD20C,0.600000*%
%TD*%
%TA.AperFunction,Conductor*%
%ADD21C,0.500000*%
%TD*%
G04 APERTURE END LIST*
D10*
%TO.P,GPS1,1,GND*%
%TO.N,Net-(BT3--)*%
X108971000Y-55626000D03*
D11*
%TO.P,GPS1,2,VIN*%
%TO.N,Net-(GPS1-VIN)*%
X106432547Y-55537355D03*
%TD*%
D12*
%TO.P,BR1,1,4TH*%
%TO.N,/HEI*%
X175920400Y-65176400D03*
D13*
%TO.P,BR1,2,3RD*%
%TO.N,/APO_BACKUP*%
X175920400Y-62636400D03*
%TO.P,BR1,3,MAIN*%
%TO.N,/MAIN*%
X175920400Y-60096400D03*
%TO.P,BR1,4,APO*%
%TO.N,/APOGEE*%
X175920400Y-57556400D03*
%TO.P,BR1,5,GND*%
%TO.N,/BR_NEG*%
X175920400Y-55016400D03*
%TO.P,BR1,6,IN*%
%TO.N,/BR_POS*%
X175920400Y-52476400D03*
%TD*%
D14*
%TO.P,BT2,1,+*%
%TO.N,Net-(BT2-+)*%
X159461200Y-47498000D03*
D15*
%TO.P,BT2,2,-*%
%TO.N,Net-(BT2--)*%
X158191200Y-47498000D03*
%TD*%
D14*
%TO.P,BT1,1,+*%
%TO.N,Net-(BT1-+)*%
X157327600Y-72644000D03*
D15*
%TO.P,BT1,2,-*%
%TO.N,/BR_NEG*%
X158597600Y-72644000D03*
%TD*%
D12*
%TO.P,SW4,1*%
%TO.N,unconnected-(SW4-Pad1)*%
X184404000Y-70351800D03*
%TD*%
%TO.P,SW3,1*%
%TO.N,Net-(BT3-+)*%
X180746400Y-67806800D03*
D13*
%TO.P,SW3,2*%
%TO.N,Net-(GPS1-VIN)*%
X180746400Y-70346800D03*
%TD*%
D12*
%TO.P,SW2,1*%
%TO.N,Net-(LYRA1-SW-)*%
X164338000Y-67857600D03*
D13*
%TO.P,SW2,2*%
%TO.N,Net-(LYRA1-SW+)*%
X164338000Y-70397600D03*
%TD*%
D12*
%TO.P,SW1,1*%
%TO.N,Net-(BT1-+)*%
X167995600Y-67857600D03*
D13*
%TO.P,SW1,2*%
%TO.N,/BR_POS*%
X167995600Y-70397600D03*
%TD*%
%TO.P,LYRA1,4,SW-*%
%TO.N,Net-(LYRA1-SW-)*%
X163128800Y-56581200D03*
%TO.P,LYRA1,3,SW+*%
%TO.N,Net-(LYRA1-SW+)*%
X160588800Y-56581200D03*
%TO.P,LYRA1,2,BATT+*%
%TO.N,Net-(BT2-+)*%
X158048800Y-56581200D03*
D12*
%TO.P,LYRA1,1,BATT-*%
%TO.N,Net-(BT2--)*%
X155508800Y-56581200D03*
%TD*%
%TO.P,J2,1,Pin_1*%
%TO.N,/HEI*%
X232105200Y-67716400D03*
D13*
%TO.P,J2,2,Pin_2*%
%TO.N,/BR_POS*%
X232105200Y-70256400D03*
%TD*%
D12*
%TO.P,J1,1,Pin_1*%
%TO.N,/HEI*%
X180746400Y-46837600D03*
D13*
%TO.P,J1,2,Pin_2*%
%TO.N,/BR_POS*%
X180746400Y-49377600D03*
%TD*%
D16*
%TO.P,H11,1,1*%
%TO.N,/BR_POS*%
X210515200Y-73406000D03*
%TD*%
%TO.P,H10,1,1*%
%TO.N,/APO_BACKUP*%
X206146400Y-73406000D03*
%TD*%
%TO.P,H9,1,1*%
%TO.N,/BR_POS*%
X221945200Y-73406000D03*
%TD*%
%TO.P,H8,1,1*%
%TO.N,/MAIN*%
X217474800Y-73406000D03*
%TD*%
%TO.P,H7,1,1*%
%TO.N,/BR_POS*%
X199339200Y-73406000D03*
%TD*%
%TO.P,H6,1,1*%
%TO.N,/APOGEE*%
X194919600Y-73406000D03*
%TD*%
D17*
%TO.P,BT3,2,-*%
%TO.N,Net-(BT3--)*%
X184725600Y-45869600D03*
D18*
%TO.P,BT3,1,+*%
%TO.N,Net-(BT3-+)*%
X186725600Y-45869600D03*
%TD*%
D19*
%TO.P,H5,1,1*%
%TO.N,unconnected-(H5-Pad1)*%
X121500000Y-67750000D03*
%TD*%
%TO.P,H4,1,1*%
%TO.N,unconnected-(H4-Pad1)*%
X139416333Y-65335328D03*
%TD*%
%TO.P,H3,1,1*%
%TO.N,unconnected-(H3-Pad1)*%
X113780646Y-53142541D03*
%TD*%
%TO.P,H2,1,1*%
%TO.N,unconnected-(H2-Pad1)*%
X150532490Y-52126007D03*
%TD*%
%TO.P,H1,1,1*%
%TO.N,unconnected-(H1-Pad1)*%
X168427502Y-52393444D03*
%TD*%
D20*
%TO.N,Net-(GPS1-VIN)*%
X117430646Y-57676954D03*
%TD*%
D21*
%TO.N,/BR_POS*%
X178816000Y-72593200D02*
X176620400Y-70397600D01*
X178816000Y-75220247D02*
X178816000Y-72593200D01*
X179351753Y-75756000D02*
X178816000Y-75220247D01*
X199542400Y-75756000D02*
X179351753Y-75756000D01*
X176620400Y-70397600D02*
X167995600Y-70397600D01*
%TO.N,Net-(BT2-+)*%
X159471600Y-55158400D02*
X159471600Y-47498000D01*
X158048800Y-56581200D02*
X159471600Y-55158400D01*
%TO.N,Net-(LYRA1-SW+)*%
X160588800Y-66648400D02*
X164338000Y-70397600D01*
X160588800Y-56581200D02*
X160588800Y-66648400D01*
%TO.N,Net-(LYRA1-SW-)*%
X164338000Y-57790400D02*
X163128800Y-56581200D01*
X164338000Y-67857600D02*
X164338000Y-57790400D01*
%TO.N,/HEI*%
X179578000Y-46837600D02*
X180746400Y-46837600D01*
X174620400Y-63876400D02*
X174620400Y-51795200D01*
X174620400Y-51795200D02*
X179578000Y-46837600D01*
X175920400Y-65176400D02*
X174620400Y-63876400D01*
X232419129Y-67402471D02*
X232105200Y-67716400D01*
X232419129Y-53261142D02*
X232419129Y-67402471D01*
X223777587Y-44619600D02*
X232419129Y-53261142D01*
X182964400Y-44619600D02*
X223777587Y-44619600D01*
X180746400Y-46837600D02*
X182964400Y-44619600D01*
%TO.N,/APOGEE*%
X177241200Y-58877200D02*
X175920400Y-57556400D01*
X181967122Y-73406000D02*
X177241200Y-68680078D01*
X194919600Y-73406000D02*
X181967122Y-73406000D01*
X177241200Y-68680078D02*
X177241200Y-58877200D01*
%TO.N,/BR_POS*%
X228955600Y-73406000D02*
X232105200Y-70256400D01*
X221945200Y-73406000D02*
X228955600Y-73406000D01*
%TO.N,Net-(BT3-+)*%
X180715063Y-51880137D02*
X186725600Y-45869600D01*
X180715063Y-61444627D02*
X180715063Y-51880137D01*
X180746400Y-61909908D02*
X180715063Y-61444627D01*
X180746400Y-67806800D02*
X180746400Y-61909908D01*
%TO.N,/BR_POS*%
X199339200Y-75552800D02*
X199542400Y-75756000D01*
X199339200Y-73406000D02*
X199339200Y-75552800D01*
X210515200Y-75756000D02*
X199542400Y-75756000D01*
X210515200Y-73406000D02*
X210515200Y-75756000D01*
X219595200Y-75756000D02*
X210515200Y-75756000D01*
X221945200Y-73406000D02*
X219595200Y-75756000D01*
%TO.N,Net-(GPS1-VIN)*%
X112268766Y-49492541D02*
X106432547Y-55328760D01*
X117430646Y-51630661D02*
X115292526Y-49492541D01*
X106432547Y-55328760D02*
X106432547Y-55537355D01*
X117430646Y-57676954D02*
X117430646Y-51630661D01*
X115292526Y-49492541D02*
X112268766Y-49492541D01*
%TD*%
M02*
