%TF.GenerationSoftware,KiCad,Pcbnew,8.0.0*%
%TF.CreationDate,2024-08-29T00:31:50-07:00*%
%TF.ProjectId,sled,736c6564-2e6b-4696-9361-645f70636258,rev?*%
%TF.SameCoordinates,Original*%
%TF.FileFunction,Copper,L2,Bot*%
%TF.FilePolarity,Positive*%
%FSLAX46Y46*%
G04 Gerber Fmt 4.6, Leading zero omitted, Abs format (unit mm)*
G04 Created by KiCad (PCBNEW 8.0.0) date 2024-08-29 00:31:50*
%MOMM*%
%LPD*%
G01*
G04 APERTURE LIST*
G04 Aperture macros list*
%AMHorizOval*
0 Thick line with rounded ends*
0 $1 width*
0 $2 $3 position (X,Y) of the first rounded end (center of the circle)*
0 $4 $5 position (X,Y) of the second rounded end (center of the circle)*
0 Add line between two ends*
20,1,$1,$2,$3,$4,$5,0*
0 Add two circle primitives to create the rounded ends*
1,1,$1,$2,$3*
1,1,$1,$4,$5*%
%AMRotRect*
0 Rectangle, with rotation*
0 The origin of the aperture is its center*
0 $1 length*
0 $2 width*
0 $3 Rotation angle, in degrees counterclockwise*
0 Add horizontal line*
21,1,$1,$2,0,0,$3*%
G04 Aperture macros list end*
%TA.AperFunction,ComponentPad*%
%ADD10R,3.000000X3.000000*%
%TD*%
%TA.AperFunction,ComponentPad*%
%ADD11C,3.000000*%
%TD*%
%TA.AperFunction,ComponentPad*%
%ADD12C,6.400000*%
%TD*%
%TA.AperFunction,ComponentPad*%
%ADD13R,1.000000X1.000000*%
%TD*%
%TA.AperFunction,ComponentPad*%
%ADD14O,1.000000X1.000000*%
%TD*%
%TA.AperFunction,ComponentPad*%
%ADD15R,1.700000X1.700000*%
%TD*%
%TA.AperFunction,ComponentPad*%
%ADD16O,1.700000X1.700000*%
%TD*%
%TA.AperFunction,ComponentPad*%
%ADD17C,3.800000*%
%TD*%
%TA.AperFunction,ComponentPad*%
%ADD18RotRect,1.700000X1.700000X268.000000*%
%TD*%
%TA.AperFunction,ComponentPad*%
%ADD19HorizOval,1.700000X0.000000X0.000000X0.000000X0.000000X0*%
%TD*%
%TA.AperFunction,ComponentPad*%
%ADD20R,1.600000X1.600000*%
%TD*%
%TA.AperFunction,ComponentPad*%
%ADD21C,1.600000*%
%TD*%
%TA.AperFunction,ViaPad*%
%ADD22C,0.600000*%
%TD*%
%TA.AperFunction,Conductor*%
%ADD23C,0.300000*%
%TD*%
%TA.AperFunction,Conductor*%
%ADD24C,0.500000*%
%TD*%
%TA.AperFunction,Conductor*%
%ADD25C,1.000000*%
%TD*%
G04 APERTURE END LIST*
D10*
%TO.P,SW5,1,A*%
%TO.N,unconnected-(SW5-A-Pad1)*%
X241681000Y-65532000D03*
D11*
%TO.P,SW5,2,B*%
%TO.N,/HEI*%
X241681000Y-60452000D03*
%TO.P,SW5,3,C*%
%TO.N,/BR_POS*%
X241681000Y-55372000D03*
%TD*%
D12*
%TO.P,H1,1,1*%
%TO.N,unconnected-(H1-Pad1)*%
X168427502Y-52393444D03*
%TD*%
D13*
%TO.P,BT2,1,+*%
%TO.N,Net-(BT2-+)*%
X159461200Y-47498000D03*
D14*
%TO.P,BT2,2,-*%
%TO.N,Net-(BT2--)*%
X158191200Y-47498000D03*
%TD*%
D15*
%TO.P,SW1,1*%
%TO.N,Net-(BT1-+)*%
X168021000Y-70931000D03*
D16*
%TO.P,SW1,2*%
%TO.N,/BR_POS*%
X168021000Y-73471000D03*
%TD*%
D13*
%TO.P,BT1,1,+*%
%TO.N,Net-(BT1-+)*%
X157327600Y-72644000D03*
D14*
%TO.P,BT1,2,-*%
%TO.N,/BR_NEG*%
X158597600Y-72644000D03*
%TD*%
D12*
%TO.P,H5,1,1*%
%TO.N,unconnected-(H5-Pad1)*%
X121500000Y-67750000D03*
%TD*%
D17*
%TO.P,H6,1,1*%
%TO.N,/APOGEE*%
X237236000Y-45466000D03*
%TD*%
%TO.P,H8,1,1*%
%TO.N,/MAIN*%
X237998000Y-74168000D03*
%TD*%
D15*
%TO.P,BR1,1,4TH*%
%TO.N,/HEI*%
X175920400Y-65176400D03*
D16*
%TO.P,BR1,2,3RD*%
%TO.N,/APO_BACKUP*%
X175920400Y-62636400D03*
%TO.P,BR1,3,MAIN*%
%TO.N,/MAIN*%
X175920400Y-60096400D03*
%TO.P,BR1,4,APO*%
%TO.N,/APOGEE*%
X175920400Y-57556400D03*
%TO.P,BR1,5,GND*%
%TO.N,/BR_NEG*%
X175920400Y-55016400D03*
%TO.P,BR1,6,IN*%
%TO.N,/BR_POS*%
X175920400Y-52476400D03*
%TD*%
D15*
%TO.P,J2,1,Pin_1*%
%TO.N,/HEI*%
X240152000Y-69723000D03*
D16*
%TO.P,J2,2,Pin_2*%
%TO.N,/BR_POS*%
X242692000Y-69723000D03*
%TD*%
D15*
%TO.P,LYRA1,1,BATT-*%
%TO.N,Net-(BT2--)*%
X155508800Y-56581200D03*
D16*
%TO.P,LYRA1,2,BATT+*%
%TO.N,Net-(BT2-+)*%
X158048800Y-56581200D03*
%TO.P,LYRA1,3,SW+*%
%TO.N,Net-(LYRA1-SW+)*%
X160588800Y-56581200D03*
%TO.P,LYRA1,4,SW-*%
%TO.N,Net-(LYRA1-SW-)*%
X163128800Y-56581200D03*
%TD*%
D17*
%TO.P,H9,1,1*%
%TO.N,/BR_POS*%
X242316000Y-74168000D03*
%TD*%
%TO.P,H11,1,1*%
%TO.N,/BR_POS*%
X241808000Y-50165000D03*
%TD*%
D12*
%TO.P,H3,1,1*%
%TO.N,unconnected-(H3-Pad1)*%
X113780646Y-53142541D03*
%TD*%
D15*
%TO.P,SW4,1*%
%TO.N,unconnected-(SW4-Pad1)*%
X184531000Y-71063000D03*
%TD*%
D12*
%TO.P,H4,1,1*%
%TO.N,unconnected-(H4-Pad1)*%
X139416333Y-65335328D03*
%TD*%
D17*
%TO.P,H10,1,1*%
%TO.N,/APO_BACKUP*%
X241808000Y-45796200D03*
%TD*%
D12*
%TO.P,H2,1,1*%
%TO.N,unconnected-(H2-Pad1)*%
X150532490Y-52126007D03*
%TD*%
D18*
%TO.P,GPS1,1,GND*%
%TO.N,Net-(BT3--)*%
X108971000Y-55626000D03*
D19*
%TO.P,GPS1,2,VIN*%
%TO.N,Net-(GPS1-VIN)*%
X106432547Y-55537355D03*
%TD*%
D15*
%TO.P,SW3,1*%
%TO.N,Net-(BT3-+)*%
X181864000Y-70931000D03*
D16*
%TO.P,SW3,2*%
%TO.N,Net-(GPS1-VIN)*%
X181864000Y-73471000D03*
%TD*%
D20*
%TO.P,BT3,1,+*%
%TO.N,Net-(BT3-+)*%
X100235000Y-52959000D03*
D21*
%TO.P,BT3,2,-*%
%TO.N,Net-(BT3--)*%
X102235000Y-52959000D03*
%TD*%
D15*
%TO.P,SW2,1*%
%TO.N,Net-(LYRA1-SW-)*%
X165862000Y-70931000D03*
D16*
%TO.P,SW2,2*%
%TO.N,Net-(LYRA1-SW+)*%
X165862000Y-73471000D03*
%TD*%
D22*
%TO.N,Net-(BT3--)*%
X133731000Y-58674000D03*
X107315000Y-52832000D03*
%TO.N,Net-(GPS1-VIN)*%
X154686000Y-59690000D03*
%TO.N,/MAIN*%
X171958000Y-70485000D03*
X178689000Y-67945000D03*
%TO.N,/HEI*%
X171958000Y-68453000D03*
%TO.N,/BR_NEG*%
X170484800Y-60756800D03*
%TO.N,Net-(GPS1-VIN)*%
X164592000Y-59690000D03*
%TD*%
D23*
%TO.N,Net-(BT3--)*%
X124649541Y-49592541D02*
X133731000Y-58674000D01*
X110737572Y-49592541D02*
X124649541Y-49592541D01*
X107498113Y-52832000D02*
X110737572Y-49592541D01*
X107315000Y-52832000D02*
X107498113Y-52832000D01*
D24*
%TO.N,Net-(GPS1-VIN)*%
X107740902Y-54229000D02*
X106432547Y-55537355D01*
X110300147Y-55309147D02*
X110300147Y-54619785D01*
X109909362Y-54229000D02*
X107740902Y-54229000D01*
X111732882Y-56741882D02*
X110300147Y-55309147D01*
X110300147Y-54619785D02*
X109909362Y-54229000D01*
X112568246Y-56803574D02*
X111732882Y-56741882D01*
X130729203Y-56803574D02*
X112568246Y-56803574D01*
X133615629Y-59690000D02*
X130729203Y-56803574D01*
X164592000Y-59690000D02*
X133615629Y-59690000D01*
D25*
%TO.N,/BR_POS*%
X178816000Y-73025000D02*
X180848000Y-75057000D01*
X178816000Y-72390000D02*
X178816000Y-73025000D01*
X176110730Y-72390000D02*
X178816000Y-72390000D01*
X176109270Y-72388540D02*
X176110730Y-72390000D01*
X180848000Y-75057000D02*
X233432044Y-75057000D01*
X233432044Y-75057000D02*
X236988044Y-71501000D01*
X238633000Y-71501000D02*
X238760000Y-71628000D01*
X238760000Y-71628000D02*
X241347000Y-71628000D01*
X170305540Y-72388540D02*
X176109270Y-72388540D01*
X236988044Y-71501000D02*
X238633000Y-71501000D01*
D24*
%TO.N,/APO_BACKUP*%
X188722000Y-44450000D02*
X177220400Y-55951600D01*
X177220400Y-55951600D02*
X177220400Y-61336400D01*
X232896598Y-44450000D02*
X188722000Y-44450000D01*
X177220400Y-61336400D02*
X175920400Y-62636400D01*
X236262598Y-47816000D02*
X232896598Y-44450000D01*
X239788200Y-47816000D02*
X236262598Y-47816000D01*
X241808000Y-45796200D02*
X239788200Y-47816000D01*
%TO.N,/MAIN*%
X176149000Y-70485000D02*
X171958000Y-70485000D01*
X178689000Y-67945000D02*
X176149000Y-70485000D01*
%TO.N,/HEI*%
X172212000Y-68326000D02*
X172085000Y-68326000D01*
X172085000Y-68326000D02*
X171958000Y-68453000D01*
X175361600Y-65176400D02*
X172212000Y-68326000D01*
X175920400Y-65176400D02*
X175361600Y-65176400D01*
D25*
%TO.N,/BR_POS*%
X173659800Y-54737000D02*
X175920400Y-52476400D01*
X172339000Y-54737000D02*
X173659800Y-54737000D01*
X169418000Y-65151000D02*
X172339000Y-62230000D01*
X169418000Y-68580000D02*
X169418000Y-65151000D01*
X172339000Y-62230000D02*
X172339000Y-54737000D01*
X170180000Y-72263000D02*
X170180000Y-69342000D01*
X170305540Y-72388540D02*
X170180000Y-72263000D01*
X170180000Y-69342000D02*
X169418000Y-68580000D01*
X169223081Y-73471000D02*
X170305540Y-72388540D01*
X168021000Y-73471000D02*
X169223081Y-73471000D01*
X243881000Y-57572000D02*
X243881000Y-63160000D01*
X241681000Y-55372000D02*
X243881000Y-57572000D01*
D24*
X243967000Y-68448000D02*
X243967000Y-63246000D01*
X242692000Y-69723000D02*
X243967000Y-68448000D01*
D25*
X241808000Y-55245000D02*
X241681000Y-55372000D01*
X241808000Y-50165000D02*
X241808000Y-55245000D01*
X241347000Y-73199000D02*
X242316000Y-74168000D01*
X241347000Y-71628000D02*
X241347000Y-73199000D01*
X241347000Y-71628000D02*
X242692000Y-70283000D01*
X242692000Y-70283000D02*
X242692000Y-69723000D01*
D24*
X174620400Y-53776400D02*
X175920400Y-52476400D01*
%TO.N,/BR_NEG*%
X159766000Y-72644000D02*
X158597600Y-72644000D01*
X170484800Y-61925200D02*
X159766000Y-72644000D01*
X170484800Y-60756800D02*
X170484800Y-61925200D01*
X175920400Y-55321200D02*
X175920400Y-55016400D01*
%TO.N,Net-(BT1-+)*%
X168021000Y-70490000D02*
X168021000Y-70931000D01*
X167162000Y-69631000D02*
X168021000Y-70490000D01*
X164562000Y-69631000D02*
X167162000Y-69631000D01*
X160549000Y-73644000D02*
X164562000Y-69631000D01*
X157327600Y-73644000D02*
X160549000Y-73644000D01*
X157327600Y-72644000D02*
X157327600Y-73644000D01*
%TO.N,Net-(BT2-+)*%
X159461200Y-55168800D02*
X159461200Y-47498000D01*
X158048800Y-56581200D02*
X159461200Y-55168800D01*
%TO.N,Net-(BT2--)*%
X158191200Y-53898800D02*
X155508800Y-56581200D01*
X158191200Y-47498000D02*
X158191200Y-53898800D01*
%TD*%
M02*
