M48
; DRILL file {KiCad 8.0.0} date 2024-08-29T00:31:50-0700
; FORMAT={-:-/ absolute / inch / decimal}
; #@! TF.CreationDate,2024-08-29T00:31:50-07:00
; #@! TF.GenerationSoftware,Kicad,Pcbnew,8.0.0
; #@! TF.FileFunction,Plated,1,2,PTH
FMAT,2
INCH
; #@! TA.AperFunction,Plated,PTH,ViaDrill
T1C0.0118
; #@! TA.AperFunction,Plated,PTH,ComponentDrill
T2C0.0256
; #@! TA.AperFunction,Plated,PTH,ComponentDrill
T3C0.0354
; #@! TA.AperFunction,Plated,PTH,ComponentDrill
T4C0.0394
; #@! TA.AperFunction,Plated,PTH,ComponentDrill
T5C0.0598
; #@! TA.AperFunction,Plated,PTH,ComponentDrill
T6C0.0866
; #@! TA.AperFunction,Plated,PTH,ComponentDrill
T7C0.1260
%
G90
G05
T1
X4.225Y-2.08
X5.265Y-2.31
X6.09Y-2.35
X6.48Y-2.35
X6.712Y-2.392
X6.77Y-2.695
X6.77Y-2.775
X7.035Y-2.675
T2
X6.194Y-2.86
X6.228Y-1.87
X6.244Y-2.86
X6.278Y-1.87
T3
X3.9463Y-2.085
X4.025Y-2.085
T4
X4.1903Y-2.1865
X4.2902Y-2.19
X6.1224Y-2.2276
X6.2224Y-2.2276
X6.3224Y-2.2276
X6.4224Y-2.2276
X6.53Y-2.7926
X6.53Y-2.8926
X6.615Y-2.7926
X6.615Y-2.8926
X6.926Y-2.066
X6.926Y-2.166
X6.926Y-2.266
X6.926Y-2.366
X6.926Y-2.466
X6.926Y-2.566
X7.16Y-2.7926
X7.16Y-2.8926
X7.265Y-2.7978
X9.4548Y-2.745
X9.5548Y-2.745
T5
X9.515Y-2.18
X9.515Y-2.38
X9.515Y-2.58
T6
X9.34Y-1.79
X9.37Y-2.92
X9.52Y-1.803
X9.52Y-1.975
X9.54Y-2.92
T7
X4.4796Y-2.0922
X4.7835Y-2.6673
X5.4888Y-2.5723
X5.9265Y-2.0522
X6.631Y-2.0627
M30
