%TF.GenerationSoftware,KiCad,Pcbnew,8.0.0*%
%TF.CreationDate,2024-08-24T04:45:33-07:00*%
%TF.ProjectId,sled,736c6564-2e6b-4696-9361-645f70636258,rev?*%
%TF.SameCoordinates,Original*%
%TF.FileFunction,Profile,NP*%
%FSLAX46Y46*%
G04 Gerber Fmt 4.6, Leading zero omitted, Abs format (unit mm)*
G04 Created by KiCad (PCBNEW 8.0.0) date 2024-08-24 04:45:33*
%MOMM*%
%LPD*%
G01*
G04 APERTURE LIST*
%TA.AperFunction,Profile*%
%ADD10C,0.100000*%
%TD*%
G04 APERTURE END LIST*
D10*
X191325992Y-48361672D02*
X221805992Y-48361600D01*
X233235983Y-53441600D02*
X236486954Y-53441600D01*
X177355957Y-76301600D02*
X233235983Y-76301600D01*
X233235983Y-43281575D02*
X233235983Y-53441600D01*
X177355957Y-45186575D02*
X177355957Y-43281575D01*
X155581731Y-45186575D02*
X177355957Y-45186575D01*
X155581731Y-45186575D02*
X75742800Y-52171600D01*
X181165957Y-59791600D02*
X181165957Y-58499094D01*
X181165958Y-58499094D02*
G75*
G02*
X191325992Y-48361673I10159934J-22538D01*
G01*
X221805992Y-48361600D02*
G75*
G02*
X231965924Y-58521600I0J-10159932D01*
G01*
X75742800Y-52171600D02*
X75742800Y-54398012D01*
X111644735Y-70552615D02*
X112631906Y-57122289D01*
X155581731Y-74396600D02*
X177355957Y-74396600D01*
X177355957Y-74396600D02*
X177355957Y-76301600D01*
X233235983Y-76301600D02*
X233235983Y-66141600D01*
X233235983Y-66141600D02*
X236486954Y-66141600D01*
X236486954Y-66141600D02*
X236486954Y-59791600D01*
X236486954Y-53441600D02*
X236486954Y-59791600D01*
X177355957Y-43281575D02*
X233235983Y-43281575D01*
X231965983Y-58521600D02*
X231965957Y-59791600D01*
X231965957Y-61038994D02*
X231965957Y-59791600D01*
X231965956Y-61038994D02*
G75*
G02*
X221826549Y-71221600I-10160164J-22438D01*
G01*
X191325931Y-71221575D02*
X221826549Y-71221600D01*
X191325931Y-71221575D02*
G75*
G02*
X181165956Y-61108260I-39J10160043D01*
G01*
X181165957Y-59791600D02*
X181165957Y-61108260D01*
X155581731Y-74396600D02*
X111644735Y-70552615D01*
X112631906Y-57122289D02*
X75742800Y-54398012D01*
M02*
