<?xml version='1.0' encoding='UTF-8' ?>
<!DOCTYPE svg PUBLIC "-//W3C//DTD SVG 1.1//EN" "http://www.w3.org/Graphics/SVG/1.1/DTD/svg11.dtd" [ 
 <!ATTLIST svg 
                                               xmlns:dsy CDATA #FIXED "http://www.3ds.com/print"  
                                               dsy:text-version CDATA #IMPLIED > 

                                               <!ATTLIST text 
                                               xmlns:dsy CDATA #FIXED "http://www.3ds.com/print" 
                                               dsy:text-version CDATA #IMPLIED > 
                                                ]>
<svg style = "background : rgb(255,255,255)" width = "279.4mm" xmlns = "http://www.w3.org/2000/svg" height = "215.9mm" version = "1.1" viewBox = "0 0 279.4 215.9" xmlns:dsy = "http://www.3ds.com/print" xmlns:xlink = "http://www.w3.org/1999/xlink" dsy:text-version = "21000"><g fill = "none" stroke = "rgb(0, 0, 0)" stroke-width = "0.35" stroke-linecap = "butt" stroke-linejoin = "miter"><path d = "M 132.631 122.555 L 154.406 122.555"/><path d = "M 154.406 122.555 L 154.406 124.777"/><path d = "M 154.406 124.777 L 221.716 124.777"/><path d = "M 221.716 124.777 L 221.716 114.3"/><path d = "M 221.716 114.3 L 224.967 114.3"/><path d = "M 224.967 114.3 L 224.967 107.95"/><path d = "M 224.967 101.6 L 224.967 107.95"/><path d = "M 221.716 101.6 L 224.967 101.6"/><path d = "M 221.716 91.1225 L 221.716 101.6"/><path d = "M 154.406 91.1225 L 221.716 91.1225"/><path d = "M 154.406 93.345 L 154.406 91.1225"/><path d = "M 132.631 93.345 L 154.406 93.345"/><path d = "M 132.631 93.345 L 52.7924 100.33"/><path d = "M 160.756 107.95 L 160.756 104.14"/><path d = "M 170.91551 93.979996 A 10.160004 10.160004 0 0 0 160.75551 104.14"/><path d = "M 170.916 93.98 L 206.476 93.98"/><path d = "M 216.63553 104.14 A 10.160004 10.160004 0 0 0 206.47552 93.979996"/><path d = "M 216.636 104.14 L 216.636 107.95"/><path d = "M 216.636 111.76 L 216.636 107.95"/><path d = "M 206.47552 121.92 A 10.160004 10.160004 0 0 0 216.63553 111.75999"/><path d = "M 170.916 121.92 L 206.476 121.92"/><path d = "M 160.75551 111.75999 A 10.160004 10.160004 0 0 0 170.91551 121.92"/><path d = "M 160.756 107.95 L 160.756 111.76"/><path d = "M 132.631 122.555 L 88.6943 118.711"/><path d = "M 52.7924 100.33 L 52.7924 102.556"/><path d = "M 88.6943 118.711 L 89.6814 105.281"/><path d = "M 89.6814 105.281 L 52.7924 102.556"/><circle r = "1.2700043" cx = "127.582" cy = "100.28442"/><circle r = "1.2700043" cx = "98.533371" cy = "115.91321"/><circle r = "1.2700043" cx = "90.830177" cy = "101.30094"/><circle r = "1.2700043" cx = "145.47705" cy = "100.55183"/><circle r = "1.2700043" cx = "116.4659" cy = "113.49374"/><path d = "M 153.099 112.649 L 153.137 112.651"/><path d = "M 153.09958 113.91908 A 0.63453674 0.63453674 0 0 0 153.1368 112.65098"/><path d = "M 152.99644 113.91072 A 0.63442993 0.63442993 0 0 0 153.07086 112.65037"/><path d = "M 153.1 113.919 L 153.062 113.918"/><path d = "M 153.09909 112.64977 A 0.63453674 0.63453674 0 0 0 153.06187 113.91787"/><path d = "M 153.078 110.109 L 153.116 110.111"/><path d = "M 153.07843 111.37914 A 0.63453674 0.63453674 0 0 0 153.11565 110.11103"/><path d = "M 152.97528 111.37078 A 0.63442993 0.63442993 0 0 0 153.0497 110.11043"/><path d = "M 153.078 111.379 L 153.041 111.378"/><path d = "M 153.07793 110.10981 A 0.63453674 0.63453674 0 0 0 153.04071 111.37791"/><path d = "M 153.057 107.57 L 153.095 107.571"/><path d = "M 153.05727 108.83919 A 0.63453674 0.63453674 0 0 0 153.09448 107.57108"/><path d = "M 152.95413 108.83083 A 0.63442993 0.63442993 0 0 0 153.02855 107.57047"/><path d = "M 153.057 108.84 L 153.02 108.838"/><path d = "M 153.05676 107.56987 A 0.63453674 0.63453674 0 0 0 153.01955 108.83797"/><path d = "M 153.036 105.03 L 153.073 105.031"/><path d = "M 153.03612 106.29923 A 0.63453674 0.63453674 0 0 0 153.07333 105.03113"/><path d = "M 152.93297 106.29087 A 0.63442993 0.63442993 0 0 0 153.00739 105.03052"/><path d = "M 153.036 106.3 L 152.998 106.298"/><path d = "M 153.03561 105.02991 A 0.63453674 0.63453674 0 0 0 152.9984 106.29802"/><path d = "M 153.014 102.49 L 153.052 102.491"/><path d = "M 153.01495 103.75928 A 0.63453674 0.63453674 0 0 0 153.05217 102.49117"/><path d = "M 152.9118 103.75092 A 0.63442993 0.63442993 0 0 0 152.98622 102.49056"/><path d = "M 153.015 103.76 L 152.977 103.759"/><path d = "M 153.01445 102.48996 A 0.63453674 0.63453674 0 0 0 152.97723 103.75806"/><path d = "M 152.993 99.9497 L 153.031 99.9508"/><path d = "M 152.99379 101.21933 A 0.63453674 0.63453674 0 0 0 153.03101 99.951225"/><path d = "M 152.89066 101.21097 A 0.63442993 0.63442993 0 0 0 152.96507 99.950615"/><path d = "M 152.994 101.22 L 152.956 101.219"/><path d = "M 152.9933 99.950005 A 0.63453674 0.63453674 0 0 0 152.95609 101.21811"/><path d = "M 131.9998 111.34339 A 0.63510132 0.63510132 0 0 0 133.2693 111.34975"/><path d = "M 131.99934 111.36428 A 0.63511658 0.63511658 0 0 0 133.26955 111.37072"/><path d = "M 133.26955 111.37048 A 0.63510132 0.63510132 0 0 0 132.63458 110.73215"/><path d = "M 132.63458 110.73214 A 0.63511658 0.63511658 0 0 0 131.99959 111.36428"/><path d = "M 131.96004 104.81343 A 0.63510132 0.63510132 0 0 0 133.22954 104.81979"/><path d = "M 131.95959 104.83433 A 0.63511658 0.63511658 0 0 0 133.2298 104.84077"/><path d = "M 133.22978 104.84051 A 0.63510132 0.63510132 0 0 0 132.59482 104.20219"/><path d = "M 132.59482 104.20217 A 0.63511658 0.63511658 0 0 0 131.95982 104.83431"/><path d = "M 129.45981 111.34899 A 0.63510132 0.63510132 0 0 0 130.72931 111.35535"/><path d = "M 129.45935 111.36989 A 0.63511658 0.63511658 0 0 0 130.72955 111.37633"/><path d = "M 130.72955 111.37607 A 0.63510132 0.63510132 0 0 0 130.09459 110.73775"/><path d = "M 130.09459 110.73775 A 0.63511658 0.63511658 0 0 0 129.45959 111.36989"/><path d = "M 134.53934 111.35869 A 0.63511658 0.63511658 0 0 0 135.80954 111.36513"/><path d = "M 135.80954 111.36488 A 0.63510132 0.63510132 0 0 0 135.17458 110.72655"/><path d = "M 134.53979 111.33778 A 0.63510132 0.63510132 0 0 0 135.8093 111.34415"/><path d = "M 135.17458 110.72654 A 0.63511658 0.63511658 0 0 0 134.53958 111.35868"/><path d = "M 134.49959 104.82872 A 0.63511658 0.63511658 0 0 0 135.76979 104.83516"/><path d = "M 135.76978 104.83492 A 0.63510132 0.63510132 0 0 0 135.13481 104.19659"/><path d = "M 134.50003 104.80783 A 0.63510132 0.63510132 0 0 0 135.76953 104.81419"/><path d = "M 135.13483 104.19658 A 0.63511658 0.63511658 0 0 0 134.49983 104.82872"/><path d = "M 137.07935 111.35309 A 0.63511658 0.63511658 0 0 0 138.34955 111.35953"/><path d = "M 138.34953 111.35927 A 0.63510132 0.63510132 0 0 0 137.71457 110.72095"/><path d = "M 137.07979 111.3322 A 0.63510132 0.63510132 0 0 0 138.34929 111.33856"/><path d = "M 137.71457 110.72095 A 0.63511658 0.63511658 0 0 0 137.07957 111.35309"/><path d = "M 137.03958 104.82314 A 0.63511658 0.63511658 0 0 0 138.30978 104.82957"/><path d = "M 138.30977 104.82932 A 0.63510132 0.63510132 0 0 0 137.6748 104.19099"/><path d = "M 137.04004 104.80223 A 0.63510132 0.63510132 0 0 0 138.30954 104.80859"/><path d = "M 137.6748 104.19098 A 0.63511658 0.63511658 0 0 0 137.03981 104.82312"/><path d = "M 139.61932 111.34749 A 0.63511658 0.63511658 0 0 0 140.88953 111.35393"/><path d = "M 140.88953 111.35368 A 0.63510132 0.63510132 0 0 0 140.25456 110.71536"/><path d = "M 139.61978 111.32661 A 0.63510132 0.63510132 0 0 0 140.88928 111.33297"/><path d = "M 140.25456 110.71535 A 0.63511658 0.63511658 0 0 0 139.61957 111.34749"/><path d = "M 139.57957 104.81753 A 0.63511658 0.63511658 0 0 0 140.84978 104.82397"/><path d = "M 140.84976 104.82372 A 0.63510132 0.63510132 0 0 0 140.2148 104.18539"/><path d = "M 139.58003 104.79664 A 0.63510132 0.63510132 0 0 0 140.84953 104.803"/><path d = "M 140.21481 104.18539 A 0.63511658 0.63511658 0 0 0 139.57982 104.81753"/><path d = "M 85.546913 103.96073 A 0.38101196 0.38101196 0 0 0 86.251846 104.25011"/><path d = "M 85.545074 103.96507 A 0.38101196 0.38101196 0 1 0 86.248161 104.25893"/><path d = "M 86.248154 104.25892 A 0.3809967 0.3809967 0 0 0 85.896622 103.731"/><path d = "M 85.896629 103.731 A 0.38101196 0.38101196 0 0 0 85.545082 103.96509"/><path d = "M 83.041367 104.03953 A 0.38101196 0.38101196 0 0 0 83.7463 104.3289"/><path d = "M 83.039528 104.04387 A 0.38101196 0.38101196 0 1 0 83.742615 104.33772"/><path d = "M 83.742607 104.33772 A 0.3809967 0.3809967 0 0 0 83.391075 103.8098"/><path d = "M 83.39109 103.80978 A 0.38101196 0.38101196 0 0 0 83.039543 104.04388"/><circle r = "0.63499451" cx = "161.39822" cy = "118.64349"/><circle r = "0.63499451" cx = "145.03346" cy = "118.64188"/><circle r = "0.63499451" cx = "218.82663" cy = "113.50147"/><circle r = "0.63499451" cx = "218.82663" cy = "108.42147"/><circle r = "0.63499451" cx = "218.82663" cy = "103.34146"/></g></svg>
