%TF.GenerationSoftware,KiCad,Pcbnew,8.0.0*%
%TF.CreationDate,2024-09-10T23:52:59-07:00*%
%TF.ProjectId,aftbulkhead,61667462-756c-46b6-9865-61642e6b6963,rev?*%
%TF.SameCoordinates,Original*%
%TF.FileFunction,Legend,Top*%
%TF.FilePolarity,Positive*%
%FSLAX46Y46*%
G04 Gerber Fmt 4.6, Leading zero omitted, Abs format (unit mm)*
G04 Created by KiCad (PCBNEW 8.0.0) date 2024-09-10 23:52:59*
%MOMM*%
%LPD*%
G01*
G04 APERTURE LIST*
%ADD10C,0.150000*%
%ADD11C,0.120000*%
%ADD12R,1.700000X1.700000*%
%ADD13O,1.700000X1.700000*%
%ADD14C,3.200000*%
%ADD15C,2.200000*%
%ADD16C,6.500000*%
G04 APERTURE END LIST*
D10*
X162166466Y-78363419D02*
X161833133Y-77887228D01*
X161595038Y-78363419D02*
X161595038Y-77363419D01*
X161595038Y-77363419D02*
X161975990Y-77363419D01*
X161975990Y-77363419D02*
X162071228Y-77411038D01*
X162071228Y-77411038D02*
X162118847Y-77458657D01*
X162118847Y-77458657D02*
X162166466Y-77553895D01*
X162166466Y-77553895D02*
X162166466Y-77696752D01*
X162166466Y-77696752D02*
X162118847Y-77791990D01*
X162118847Y-77791990D02*
X162071228Y-77839609D01*
X162071228Y-77839609D02*
X161975990Y-77887228D01*
X161975990Y-77887228D02*
X161595038Y-77887228D01*
X162595038Y-77839609D02*
X162928371Y-77839609D01*
X163071228Y-78363419D02*
X162595038Y-78363419D01*
X162595038Y-78363419D02*
X162595038Y-77363419D01*
X162595038Y-77363419D02*
X163071228Y-77363419D01*
X163833133Y-77839609D02*
X163499800Y-77839609D01*
X163499800Y-78363419D02*
X163499800Y-77363419D01*
X163499800Y-77363419D02*
X163975990Y-77363419D01*
X164499800Y-77363419D02*
X164499800Y-77601514D01*
X164261705Y-77506276D02*
X164499800Y-77601514D01*
X164499800Y-77601514D02*
X164737895Y-77506276D01*
X164356943Y-77791990D02*
X164499800Y-77601514D01*
X164499800Y-77601514D02*
X164642657Y-77791990D01*
X165261705Y-77363419D02*
X165261705Y-77601514D01*
X165023610Y-77506276D02*
X165261705Y-77601514D01*
X165261705Y-77601514D02*
X165499800Y-77506276D01*
X165118848Y-77791990D02*
X165261705Y-77601514D01*
X165261705Y-77601514D02*
X165404562Y-77791990D01*
D11*
%TO.C,REF\u002A\u002A*%
X162169800Y-78908600D02*
X163499800Y-78908600D01*
X162169800Y-80238600D02*
X162169800Y-78908600D01*
X162169800Y-81508600D02*
X162169800Y-91728600D01*
X162169800Y-81508600D02*
X164829800Y-81508600D01*
X162169800Y-91728600D02*
X164829800Y-91728600D01*
X164829800Y-81508600D02*
X164829800Y-91728600D01*
%TD*%
%LPC*%
D12*
%TO.C,REF\u002A\u002A*%
X163499800Y-80238600D03*
D13*
X163499800Y-82778600D03*
X163499800Y-85318600D03*
X163499800Y-87858600D03*
X163499800Y-90398600D03*
%TD*%
D14*
%TO.C,H6*%
X172669200Y-94081600D03*
%TD*%
%TO.C,H4*%
X172669200Y-76098400D03*
%TD*%
D15*
%TO.C,H1*%
X157988000Y-90170000D03*
%TD*%
D16*
%TO.C,H8*%
X152501600Y-81483200D03*
%TD*%
D14*
%TO.C,H7*%
X154686000Y-94081600D03*
%TD*%
D15*
%TO.C,H3*%
X157962600Y-80010000D03*
%TD*%
D16*
%TO.C,H9*%
X152501600Y-88696800D03*
%TD*%
D14*
%TO.C,H5*%
X154686000Y-76098400D03*
%TD*%
%LPD*%
M02*
