%TF.GenerationSoftware,KiCad,Pcbnew,8.0.0*%
%TF.CreationDate,2024-08-29T00:31:50-07:00*%
%TF.ProjectId,sled,736c6564-2e6b-4696-9361-645f70636258,rev?*%
%TF.SameCoordinates,Original*%
%TF.FileFunction,Other,Comment*%
%FSLAX46Y46*%
G04 Gerber Fmt 4.6, Leading zero omitted, Abs format (unit mm)*
G04 Created by KiCad (PCBNEW 8.0.0) date 2024-08-29 00:31:50*
%MOMM*%
%LPD*%
G01*
G04 APERTURE LIST*
%ADD10C,0.150000*%
G04 APERTURE END LIST*
D10*
%TO.C,H1*%
X171627502Y-52393444D02*
G75*
G02*
X165227502Y-52393444I-3200000J0D01*
G01*
X165227502Y-52393444D02*
G75*
G02*
X171627502Y-52393444I3200000J0D01*
G01*
%TO.C,H5*%
X124700000Y-67750000D02*
G75*
G02*
X118300000Y-67750000I-3200000J0D01*
G01*
X118300000Y-67750000D02*
G75*
G02*
X124700000Y-67750000I3200000J0D01*
G01*
%TO.C,H6*%
X239136000Y-45466000D02*
G75*
G02*
X235336000Y-45466000I-1900000J0D01*
G01*
X235336000Y-45466000D02*
G75*
G02*
X239136000Y-45466000I1900000J0D01*
G01*
%TO.C,H8*%
X239898000Y-74168000D02*
G75*
G02*
X236098000Y-74168000I-1900000J0D01*
G01*
X236098000Y-74168000D02*
G75*
G02*
X239898000Y-74168000I1900000J0D01*
G01*
%TO.C,H9*%
X244216000Y-74168000D02*
G75*
G02*
X240416000Y-74168000I-1900000J0D01*
G01*
X240416000Y-74168000D02*
G75*
G02*
X244216000Y-74168000I1900000J0D01*
G01*
%TO.C,H11*%
X243708000Y-50165000D02*
G75*
G02*
X239908000Y-50165000I-1900000J0D01*
G01*
X239908000Y-50165000D02*
G75*
G02*
X243708000Y-50165000I1900000J0D01*
G01*
%TO.C,H3*%
X116980646Y-53142541D02*
G75*
G02*
X110580646Y-53142541I-3200000J0D01*
G01*
X110580646Y-53142541D02*
G75*
G02*
X116980646Y-53142541I3200000J0D01*
G01*
%TO.C,H4*%
X142616333Y-65335328D02*
G75*
G02*
X136216333Y-65335328I-3200000J0D01*
G01*
X136216333Y-65335328D02*
G75*
G02*
X142616333Y-65335328I3200000J0D01*
G01*
%TO.C,H10*%
X243708000Y-45796200D02*
G75*
G02*
X239908000Y-45796200I-1900000J0D01*
G01*
X239908000Y-45796200D02*
G75*
G02*
X243708000Y-45796200I1900000J0D01*
G01*
%TO.C,H2*%
X153732490Y-52126007D02*
G75*
G02*
X147332490Y-52126007I-3200000J0D01*
G01*
X147332490Y-52126007D02*
G75*
G02*
X153732490Y-52126007I3200000J0D01*
G01*
%TD*%
M02*
