M48
; DRILL file {KiCad 8.0.0} date 2024-09-10T23:58:07-0700
; FORMAT={-:-/ absolute / inch / decimal}
; #@! TF.CreationDate,2024-09-10T23:58:07-07:00
; #@! TF.GenerationSoftware,Kicad,Pcbnew,8.0.0
; #@! TF.FileFunction,Plated,1,2,PTH
FMAT,2
INCH
; #@! TA.AperFunction,Plated,PTH,ViaDrill
T1C0.0197
; #@! TA.AperFunction,Plated,PTH,ComponentDrill
T2C0.0256
; #@! TA.AperFunction,Plated,PTH,ComponentDrill
T3C0.0295
; #@! TA.AperFunction,Plated,PTH,ComponentDrill
T4C0.0394
; #@! TA.AperFunction,Plated,PTH,ComponentDrill
T5C0.0598
; #@! TA.AperFunction,Plated,PTH,ComponentDrill
T6C0.0866
%
G90
G05
T1
X4.72Y-2.48
X4.8271Y-2.4319
X4.8435Y-2.4771
X4.94Y-2.477
X4.962Y-2.436
X5.058Y-2.438
X5.079Y-2.478
X5.296Y-2.495
X5.2965Y-2.4315
X5.383Y-2.485
X5.423Y-2.4397
X5.5165Y-2.5045
X5.518Y-2.442
X5.628Y-2.508
X5.631Y-2.447
X5.7285Y-2.4395
X5.7285Y-2.5035
X5.8225Y-2.5005
X5.83Y-2.444
X5.922Y-2.445
X5.9481Y-2.5013
X6.1527Y-2.4793
X6.164Y-2.302
X6.166Y-2.625
X6.206Y-2.396
X6.208Y-2.339
X6.221Y-2.632
X6.336Y-2.643
X6.346Y-2.399
X6.358Y-2.247
X6.39Y-2.551
X6.417Y-2.406
X6.4232Y-2.255
X6.4567Y-2.3123
X6.4571Y-2.3624
X6.4597Y-2.4187
X6.4628Y-2.4701
X6.466Y-2.586
X6.4692Y-2.5252
X6.483Y-2.793
X6.528Y-2.597
X6.5305Y-1.8694
X6.56Y-2.397
X6.56Y-2.449
X6.5636Y-2.03
X6.5636Y-2.301
X6.5636Y-2.347
X6.5636Y-2.499
X6.5636Y-2.558
X6.586Y-2.769
X6.6281Y-1.8827
X6.664Y-2.794
X6.6668Y-1.8508
X6.758Y-1.836
X6.777Y-1.877
X6.8732Y-2.8097
X7.033Y-1.7101
X7.045Y-1.758
X7.171Y-1.761
X7.172Y-1.7101
X7.1859Y-2.9059
X7.2431Y-2.8929
X7.26Y-2.9799
X7.289Y-1.7101
X7.291Y-1.764
X7.3143Y-2.9799
X7.33Y-2.87
X7.366Y-2.9799
X7.3854Y-2.8902
X7.404Y-1.768
X7.411Y-1.711
X7.414Y-2.9799
X7.445Y-2.892
X7.475Y-2.978
X7.507Y-2.894
X7.521Y-1.766
X7.5264Y-2.9776
X7.534Y-1.7101
X7.573Y-2.8976
X7.614Y-2.977
X7.633Y-1.763
X7.6362Y-2.8976
X7.638Y-1.712
X7.672Y-2.975
X7.714Y-2.8976
X7.715Y-1.717
X7.722Y-1.766
X7.725Y-2.976
X7.765Y-2.898
X7.792Y-1.766
X7.7969Y-2.9799
X7.825Y-2.8976
X7.828Y-1.7119
X7.859Y-2.9799
X7.888Y-2.8976
X7.893Y-1.766
X7.905Y-2.9799
X7.925Y-1.716
X7.95Y-2.8976
X7.9704Y-2.9799
X7.999Y-2.8976
X8.0044Y-1.7124
X8.0245Y-1.7575
X8.043Y-2.977
X8.065Y-2.8976
X8.095Y-2.979
X8.0985Y-1.7635
X8.117Y-1.718
X8.129Y-2.8976
X8.155Y-2.976
X8.192Y-1.716
X8.193Y-2.9
X8.21Y-1.765
X8.2574Y-2.9764
X8.27Y-2.8976
X8.298Y-1.766
X8.325Y-1.718
X8.33Y-2.978
X8.361Y-2.8976
X8.399Y-2.976
X8.409Y-1.715
X8.417Y-2.8976
X8.429Y-1.762
X8.485Y-2.9766
X8.499Y-2.8976
X8.507Y-1.762
X8.534Y-1.718
X8.545Y-2.9799
X8.5693Y-2.9013
X8.614Y-1.714
X8.618Y-2.977
X8.645Y-2.8976
X8.647Y-1.757
X8.681Y-2.976
X8.7155Y-2.8976
X8.735Y-1.759
X8.758Y-1.717
X8.758Y-2.973
X8.812Y-2.8976
X8.841Y-1.715
X8.8449Y-2.9788
X8.872Y-1.758
X8.876Y-2.8976
X8.918Y-2.977
X8.957Y-1.76
X8.9595Y-2.8976
X8.978Y-1.718
X9.008Y-2.975
X9.0352Y-2.8912
X9.055Y-1.716
X9.059Y-1.768
X9.0852Y-2.9752
X9.1327Y-1.7764
X9.532Y-2.533
X9.596Y-2.52
T2
X6.1662Y-2.85
X6.2162Y-2.85
T3
X4.314Y-2.5673
X4.314Y-2.646
T4
X6.1804Y-2.12
X6.2804Y-2.12
X6.3804Y-2.12
X6.39Y-2.7502
X6.39Y-2.8502
X6.4804Y-2.12
X6.89Y-1.81
X6.89Y-1.91
X7.035Y-2.755
X7.035Y-2.855
X9.3878Y-2.7502
X9.4878Y-2.7502
X9.647Y-2.148
X9.647Y-2.248
X9.647Y-2.348
X9.647Y-2.448
X9.647Y-2.548
T5
X9.4485Y-2.1636
X9.4485Y-2.3636
X9.4485Y-2.5636
T6
X9.233Y-2.874
X9.237Y-1.816
X9.476Y-1.766
X9.476Y-2.92
M30
