%TF.GenerationSoftware,KiCad,Pcbnew,8.0.0*%
%TF.CreationDate,2024-09-10T23:58:07-07:00*%
%TF.ProjectId,sled,736c6564-2e6b-4696-9361-645f70636258,rev?*%
%TF.SameCoordinates,Original*%
%TF.FileFunction,Copper,L2,Bot*%
%TF.FilePolarity,Positive*%
%FSLAX46Y46*%
G04 Gerber Fmt 4.6, Leading zero omitted, Abs format (unit mm)*
G04 Created by KiCad (PCBNEW 8.0.0) date 2024-09-10 23:58:07*
%MOMM*%
%LPD*%
G01*
G04 APERTURE LIST*
G04 Aperture macros list*
%AMRoundRect*
0 Rectangle with rounded corners*
0 $1 Rounding radius*
0 $2 $3 $4 $5 $6 $7 $8 $9 X,Y pos of 4 corners*
0 Add a 4 corners polygon primitive as box body*
4,1,4,$2,$3,$4,$5,$6,$7,$8,$9,$2,$3,0*
0 Add four circle primitives for the rounded corners*
1,1,$1+$1,$2,$3*
1,1,$1+$1,$4,$5*
1,1,$1+$1,$6,$7*
1,1,$1+$1,$8,$9*
0 Add four rect primitives between the rounded corners*
20,1,$1+$1,$2,$3,$4,$5,0*
20,1,$1+$1,$4,$5,$6,$7,0*
20,1,$1+$1,$6,$7,$8,$9,0*
20,1,$1+$1,$8,$9,$2,$3,0*%
G04 Aperture macros list end*
%TA.AperFunction,ComponentPad*%
%ADD10R,1.700000X1.700000*%
%TD*%
%TA.AperFunction,ComponentPad*%
%ADD11O,1.700000X1.700000*%
%TD*%
%TA.AperFunction,ComponentPad*%
%ADD12R,3.000000X3.000000*%
%TD*%
%TA.AperFunction,ComponentPad*%
%ADD13C,3.000000*%
%TD*%
%TA.AperFunction,ComponentPad*%
%ADD14C,3.800000*%
%TD*%
%TA.AperFunction,ComponentPad*%
%ADD15RoundRect,0.250000X0.625000X-0.350000X0.625000X0.350000X-0.625000X0.350000X-0.625000X-0.350000X0*%
%TD*%
%TA.AperFunction,ComponentPad*%
%ADD16O,1.750000X1.200000*%
%TD*%
%TA.AperFunction,SMDPad,CuDef*%
%ADD17RoundRect,0.218750X0.218750X0.256250X-0.218750X0.256250X-0.218750X-0.256250X0.218750X-0.256250X0*%
%TD*%
%TA.AperFunction,SMDPad,CuDef*%
%ADD18RoundRect,0.200000X-0.200000X-0.275000X0.200000X-0.275000X0.200000X0.275000X-0.200000X0.275000X0*%
%TD*%
%TA.AperFunction,ComponentPad*%
%ADD19R,1.000000X1.000000*%
%TD*%
%TA.AperFunction,ComponentPad*%
%ADD20O,1.000000X1.000000*%
%TD*%
%TA.AperFunction,ViaPad*%
%ADD21C,1.000000*%
%TD*%
%TA.AperFunction,Conductor*%
%ADD22C,0.750000*%
%TD*%
%TA.AperFunction,Conductor*%
%ADD23C,1.000000*%
%TD*%
G04 APERTURE END LIST*
D10*
%TO.P,REF\u002A\u002A,1*%
%TO.N,N/C*%
X245033800Y-54559200D03*
D11*
%TO.P,REF\u002A\u002A,2*%
X245033800Y-57099200D03*
%TO.P,REF\u002A\u002A,3*%
X245033800Y-59639200D03*
%TO.P,REF\u002A\u002A,4*%
X245033800Y-62179200D03*
%TO.P,REF\u002A\u002A,5*%
X245033800Y-64719200D03*
%TD*%
D10*
%TO.P,SW2,1*%
%TO.N,Net-(LYRA1-SW-)*%
X162306000Y-72395000D03*
D11*
%TO.P,SW2,2*%
%TO.N,Net-(LYRA1-SW+)*%
X162306000Y-69855000D03*
%TD*%
D12*
%TO.P,SW5,1,A*%
%TO.N,unconnected-(SW5-A-Pad1)*%
X239992358Y-65114474D03*
D13*
%TO.P,SW5,2,B*%
%TO.N,/HEI*%
X239992358Y-60034474D03*
%TO.P,SW5,3,C*%
%TO.N,/PYRO POS*%
X239992358Y-54954474D03*
%TD*%
D10*
%TO.P,J1,1,Pin_1*%
%TO.N,/FLUCTUS NEG*%
X175006000Y-45974000D03*
D11*
%TO.P,J1,2,Pin_2*%
%TO.N,/FLUCTUS POS*%
X175006000Y-48514000D03*
%TD*%
D14*
%TO.P,H9,1,1*%
%TO.N,/PYRO POS*%
X234518200Y-72999600D03*
%TD*%
%TO.P,H4,1,1*%
%TO.N,/APOGEE*%
X240690400Y-44856400D03*
%TD*%
D15*
%TO.P,BT3,1,+*%
%TO.N,Net-(BT3-+)*%
X109575000Y-67209000D03*
D16*
%TO.P,BT3,2,-*%
%TO.N,/FLUCTUS NEG*%
X109575000Y-65209000D03*
%TD*%
D10*
%TO.P,LYRA1,1,BATT-*%
%TO.N,Net-(BT2--)*%
X156982000Y-53848000D03*
D11*
%TO.P,LYRA1,2,BATT+*%
%TO.N,Net-(BT2-+)*%
X159522000Y-53848000D03*
%TO.P,LYRA1,3,SW+*%
%TO.N,Net-(LYRA1-SW+)*%
X162062000Y-53848000D03*
%TO.P,LYRA1,4,SW-*%
%TO.N,Net-(LYRA1-SW-)*%
X164602000Y-53848000D03*
%TD*%
D10*
%TO.P,J2,1,Pin_1*%
%TO.N,/HEI*%
X238450200Y-69855000D03*
D11*
%TO.P,J2,2,Pin_2*%
%TO.N,/PYRO POS*%
X240990200Y-69855000D03*
%TD*%
D10*
%TO.P,SW1,1*%
%TO.N,Net-(BT3-+)*%
X178689000Y-69977000D03*
D11*
%TO.P,SW1,2*%
%TO.N,/FLUCTUS POS*%
X178689000Y-72517000D03*
%TD*%
D14*
%TO.P,H8,1,1*%
%TO.N,/MAIN*%
X240690400Y-74168000D03*
%TD*%
%TO.P,H11,1,1*%
%TO.N,/PYRO POS*%
X234619800Y-46126400D03*
%TD*%
D17*
%TO.P,D1,1,K*%
%TO.N,Net-(BT2--)*%
X152984300Y-72313800D03*
%TO.P,D1,2,A*%
%TO.N,Net-(D1-A)*%
X151409300Y-72313800D03*
%TD*%
D18*
%TO.P,R1,1*%
%TO.N,Net-(D1-A)*%
X147996000Y-72644000D03*
%TO.P,R1,2*%
%TO.N,Net-(BT2-+)*%
X149646000Y-72644000D03*
%TD*%
D19*
%TO.P,BT2,1,+*%
%TO.N,Net-(BT2-+)*%
X157891000Y-72390000D03*
D20*
%TO.P,BT2,2,-*%
%TO.N,Net-(BT2--)*%
X156621000Y-72390000D03*
%TD*%
D21*
%TO.N,/FLUCTUS NEG*%
X134518400Y-63373000D03*
X129006600Y-62941200D03*
X137744200Y-61969000D03*
X165875131Y-47483783D03*
X151080943Y-63532400D03*
X126034800Y-61874400D03*
X140118727Y-63614673D03*
X145503527Y-63589273D03*
X148082000Y-62077600D03*
X123025347Y-62917901D03*
X143027400Y-62153800D03*
%TO.N,/PYRO POS*%
X205613000Y-75666600D03*
X196215000Y-75590400D03*
X227507800Y-44704000D03*
X225450400Y-73598000D03*
X208076800Y-43586400D03*
X217043000Y-75690500D03*
X228803573Y-75565373D03*
X185191400Y-44805600D03*
X205701527Y-44793273D03*
X229997000Y-43586400D03*
X191169650Y-75631950D03*
X174578650Y-71367000D03*
X221869000Y-44678600D03*
X169337978Y-47010509D03*
X164236016Y-65684038D03*
X189103000Y-73456800D03*
X164076430Y-61435776D03*
X198755000Y-73598000D03*
X191033400Y-44856400D03*
X208102200Y-73660000D03*
X216077800Y-44754800D03*
X242112800Y-64338200D03*
X198830201Y-43483055D03*
X183973685Y-73479968D03*
X188239773Y-43459027D03*
X218795600Y-43535600D03*
X213791800Y-73598000D03*
X182168800Y-43435500D03*
X219583000Y-73598000D03*
X222453200Y-75514198D03*
X178943000Y-44653200D03*
X196138800Y-44856400D03*
X193959493Y-73598007D03*
X194005200Y-43484800D03*
X200482200Y-44856400D03*
X211582373Y-75641573D03*
X166716328Y-59613800D03*
X231969490Y-45119856D03*
X203310676Y-43494790D03*
X224561400Y-43561000D03*
X172135800Y-47675800D03*
X203174600Y-73598000D03*
X166716328Y-63474600D03*
X213588600Y-43561000D03*
X200787000Y-75690500D03*
X210769200Y-44856400D03*
X187096400Y-75690500D03*
%TO.N,/FLUCTUS POS*%
X164668200Y-70942200D03*
X165811200Y-65963800D03*
X164317985Y-64139661D03*
X166624000Y-62204600D03*
X164009488Y-60005517D03*
X166716328Y-51562000D03*
X166716328Y-58445400D03*
%TO.N,Net-(BT3-+)*%
X119888000Y-62992000D03*
X134531473Y-61759727D03*
X150418800Y-62103000D03*
X125476000Y-62915800D03*
X142950827Y-63703573D03*
X145503527Y-61962927D03*
X122609057Y-61769543D03*
X167284400Y-70332600D03*
X136728200Y-63119000D03*
X140157200Y-62026800D03*
X128473200Y-61925200D03*
X147891127Y-63513073D03*
%TO.N,/HEI*%
X229495062Y-73437733D03*
X212369400Y-73598000D03*
X217660920Y-73693720D03*
X220497400Y-75590400D03*
X223824800Y-73598000D03*
X206476600Y-73598000D03*
X185782841Y-75690500D03*
X215519310Y-75605072D03*
X182521536Y-73810242D03*
X194868800Y-75565000D03*
X243738773Y-64008000D03*
X199618600Y-75690500D03*
X197231000Y-73609200D03*
X192354200Y-73598000D03*
X204292200Y-75615800D03*
X226517200Y-75615800D03*
X209738530Y-75600200D03*
X187589963Y-73411047D03*
X201930000Y-73598000D03*
X189865000Y-75641196D03*
%TO.N,/APOGEE*%
X225348800Y-44653200D03*
X211455000Y-43637200D03*
X208534000Y-44831000D03*
X168353899Y-47821200D03*
X201295000Y-43586400D03*
X178638200Y-43435500D03*
X185140600Y-43435500D03*
X164155824Y-62741630D03*
X188061600Y-44907200D03*
X230098600Y-44907200D03*
X182143400Y-44729400D03*
X206171800Y-43637200D03*
X216763600Y-43637200D03*
X195961000Y-43611800D03*
X193878200Y-44780200D03*
X191363600Y-43435500D03*
X171653200Y-46634400D03*
X166624000Y-60883800D03*
X197916800Y-44856400D03*
X228041200Y-43637200D03*
X203822300Y-44640500D03*
X214096600Y-44754800D03*
X163999162Y-58733439D03*
X166716328Y-64973200D03*
X222453200Y-43611800D03*
X219633800Y-44627800D03*
%TO.N,/MAIN*%
X200355200Y-73598000D03*
X184404000Y-75690500D03*
X169265600Y-70967600D03*
X227571556Y-73598000D03*
X195935600Y-73598000D03*
X193395600Y-75615804D03*
X207137000Y-75590400D03*
X186182000Y-72898000D03*
X190677800Y-73507600D03*
X221373954Y-73598000D03*
X198040857Y-75690500D03*
X218897200Y-75615800D03*
X215874600Y-73598000D03*
X210058000Y-73598000D03*
X224660111Y-75661789D03*
X204851000Y-73598000D03*
X230765200Y-75571200D03*
X188315600Y-75690500D03*
X213334600Y-75590400D03*
X202447230Y-75690030D03*
%TO.N,Net-(BT2-+)*%
X156616027Y-66674627D03*
X156565600Y-58470800D03*
X157632397Y-60858397D03*
%TO.N,Net-(BT2--)*%
X157683200Y-59410600D03*
X158013400Y-66852800D03*
X156278250Y-62973804D03*
%TO.N,Net-(LYRA1-SW+)*%
X163149900Y-57277000D03*
X161188400Y-60934600D03*
X162306000Y-64795400D03*
%TO.N,Net-(LYRA1-SW-)*%
X162991800Y-61112400D03*
X161493200Y-57073800D03*
X160934400Y-67132200D03*
%TD*%
D22*
%TO.N,/HEI*%
X232283000Y-75488800D02*
X235661200Y-75488800D01*
X235661200Y-75488800D02*
X238450200Y-72699800D01*
X238450200Y-72699800D02*
X238450200Y-69855000D01*
X230231933Y-73437733D02*
X232283000Y-75488800D01*
X229495062Y-73437733D02*
X230231933Y-73437733D01*
%TO.N,/PYRO POS*%
X168794090Y-46466621D02*
X169337978Y-47010509D01*
X164725131Y-51197149D02*
X164725131Y-47007437D01*
X165927000Y-52399018D02*
X164725131Y-51197149D01*
X165927000Y-54664741D02*
X165927000Y-52399018D01*
X164541200Y-57861200D02*
X164541200Y-56050541D01*
X166293800Y-59613800D02*
X164541200Y-57861200D01*
X166716328Y-59613800D02*
X166293800Y-59613800D01*
X165265947Y-46466621D02*
X168794090Y-46466621D01*
%TO.N,/FLUCTUS NEG*%
X167468703Y-49077355D02*
X165875131Y-47483783D01*
X175006000Y-45974000D02*
X175006000Y-46640167D01*
X172568812Y-49077355D02*
X167468703Y-49077355D01*
X175006000Y-46640167D02*
X172568812Y-49077355D01*
%TO.N,/PYRO POS*%
X164541200Y-56050541D02*
X165927000Y-54664741D01*
X164725131Y-47007437D02*
X165265947Y-46466621D01*
D23*
%TO.N,/MAIN*%
X175539400Y-74320400D02*
X180543200Y-74320400D01*
X174687000Y-73468000D02*
X175539400Y-74320400D01*
X171766000Y-73468000D02*
X174687000Y-73468000D01*
X169265600Y-70967600D02*
X171766000Y-73468000D01*
D22*
%TO.N,/APOGEE*%
X168837318Y-48172000D02*
X168486518Y-47821200D01*
X168486518Y-47821200D02*
X168353899Y-47821200D01*
X170115600Y-48172000D02*
X168837318Y-48172000D01*
X171653200Y-46634400D02*
X170115600Y-48172000D01*
%TO.N,/FLUCTUS NEG*%
X149250400Y-63246000D02*
X150596600Y-63246000D01*
X150596600Y-63246000D02*
X150794543Y-63246000D01*
X132917827Y-61772427D02*
X134518400Y-63373000D01*
X124068848Y-61874400D02*
X126034800Y-61874400D01*
X129006600Y-62941200D02*
X130175373Y-61772427D01*
X150596600Y-63246000D02*
X150571200Y-63246000D01*
X137744200Y-61969000D02*
X139389873Y-63614673D01*
X148082000Y-62077600D02*
X149250400Y-63246000D01*
X130175373Y-61772427D02*
X131673973Y-61772427D01*
X139389873Y-63614673D02*
X140118727Y-63614673D01*
X143027400Y-62153800D02*
X144462873Y-63589273D01*
X131673973Y-61772427D02*
X132917827Y-61772427D01*
X123025347Y-62917901D02*
X124068848Y-61874400D01*
X150794543Y-63246000D02*
X151080943Y-63532400D01*
X144462873Y-63589273D02*
X145503527Y-63589273D01*
%TO.N,/PYRO POS*%
X221814568Y-75514198D02*
X222453200Y-75514198D01*
X208102200Y-73660000D02*
X208741141Y-73660000D01*
X174464200Y-43865800D02*
X175056800Y-43865800D01*
X209499200Y-43586400D02*
X210769200Y-44856400D01*
X208741141Y-73660000D02*
X209706341Y-74625200D01*
X173681000Y-44649000D02*
X174464200Y-43865800D01*
X204403044Y-43494790D02*
X203310676Y-43494790D01*
X175056800Y-43865800D02*
X175514000Y-43865800D01*
X229997000Y-43586400D02*
X230436034Y-43586400D01*
X184785000Y-44551600D02*
X185039000Y-44805600D01*
X241967358Y-64483642D02*
X242112800Y-64338200D01*
X241967358Y-68877842D02*
X241967358Y-66013721D01*
X172135800Y-47675800D02*
X173681000Y-46130600D01*
X219583000Y-73598000D02*
X219898370Y-73598000D01*
X214884000Y-43561000D02*
X216077800Y-44754800D01*
X164661200Y-67938000D02*
X164661200Y-65702800D01*
X174578650Y-71367000D02*
X173865647Y-71367000D01*
X226192697Y-73598000D02*
X228160070Y-75565373D01*
X187096400Y-75690500D02*
X187096400Y-75625182D01*
X204696059Y-74640800D02*
X205613000Y-75557741D01*
X185039000Y-44805600D02*
X185191400Y-44805600D01*
X193959493Y-73598007D02*
X194280666Y-73598007D01*
X189103000Y-73456800D02*
X191169650Y-75523450D01*
X226364800Y-43561000D02*
X227507800Y-44704000D01*
X241967358Y-66013721D02*
X241967358Y-64483642D01*
X175514000Y-43865800D02*
X176301400Y-44653200D01*
X184951186Y-73479968D02*
X183973685Y-73479968D01*
X171536781Y-69038134D02*
X165761334Y-69038134D01*
X240990200Y-69855000D02*
X241967358Y-68877842D01*
X219898370Y-73598000D02*
X221814568Y-75514198D01*
X164661200Y-65702800D02*
X164642438Y-65684038D01*
X198955282Y-73598000D02*
X200787000Y-75429718D01*
X220726000Y-43535600D02*
X221869000Y-44678600D01*
X188239773Y-43459027D02*
X189636027Y-43459027D01*
X215472141Y-74574400D02*
X214495741Y-73598000D01*
X183668900Y-43435500D02*
X184785000Y-44551600D01*
X194005200Y-43484800D02*
X195376800Y-44856400D01*
X182168800Y-43435500D02*
X183668900Y-43435500D01*
X173865647Y-71367000D02*
X171536781Y-69038134D01*
X225450400Y-73598000D02*
X226192697Y-73598000D01*
X203174600Y-73598000D02*
X204217400Y-74640800D01*
X205613000Y-75557741D02*
X205613000Y-75666600D01*
X218795600Y-43535600D02*
X220726000Y-43535600D01*
X173681000Y-46130600D02*
X173681000Y-44649000D01*
X200787000Y-75429718D02*
X200787000Y-75690500D01*
X217043000Y-75690500D02*
X215926900Y-74574400D01*
X166515141Y-63474600D02*
X164338000Y-61297459D01*
X196215000Y-75532341D02*
X196215000Y-75590400D01*
X189636027Y-43459027D02*
X191033400Y-44856400D01*
X214495741Y-73598000D02*
X213791800Y-73598000D01*
X165761334Y-69038134D02*
X164661200Y-67938000D01*
X230436034Y-43586400D02*
X231969490Y-45119856D01*
X215926900Y-74574400D02*
X215472141Y-74574400D01*
X199108855Y-43483055D02*
X200482200Y-44856400D01*
X198830201Y-43483055D02*
X199108855Y-43483055D01*
X205701527Y-44793273D02*
X204403044Y-43494790D01*
X194280666Y-73598007D02*
X196215000Y-75532341D01*
X164642438Y-65684038D02*
X164236016Y-65684038D01*
X204217400Y-74640800D02*
X204696059Y-74640800D01*
X164338000Y-61297459D02*
X164214747Y-61297459D01*
X164214747Y-61297459D02*
X164076430Y-61435776D01*
X228160070Y-75565373D02*
X228803573Y-75565373D01*
X198755000Y-73598000D02*
X198955282Y-73598000D01*
X191169650Y-75523450D02*
X191169650Y-75631950D01*
X224561400Y-43561000D02*
X226364800Y-43561000D01*
X210566000Y-74625200D02*
X211582373Y-75641573D01*
X195376800Y-44856400D02*
X196138800Y-44856400D01*
X176301400Y-44653200D02*
X178943000Y-44653200D01*
X209706341Y-74625200D02*
X210566000Y-74625200D01*
X187096400Y-75625182D02*
X184951186Y-73479968D01*
X213588600Y-43561000D02*
X214884000Y-43561000D01*
X208076800Y-43586400D02*
X209499200Y-43586400D01*
X166716328Y-63474600D02*
X166515141Y-63474600D01*
%TO.N,/FLUCTUS POS*%
X164272517Y-60005517D02*
X164009488Y-60005517D01*
X166841328Y-55129272D02*
X166841328Y-51841400D01*
X165684200Y-57665259D02*
X165684200Y-56286400D01*
X167647259Y-71348600D02*
X165074600Y-71348600D01*
X168513400Y-69992600D02*
X168259400Y-70246600D01*
X172169858Y-72493000D02*
X169669458Y-69992600D01*
X168259400Y-70246600D02*
X168259400Y-70736459D01*
X165811200Y-65963800D02*
X165811200Y-65632876D01*
X178689000Y-72517000D02*
X178665000Y-72493000D01*
X169669458Y-69992600D02*
X168513400Y-69992600D01*
X168259400Y-70736459D02*
X167647259Y-71348600D01*
X165811200Y-65632876D02*
X164317985Y-64139661D01*
X166464341Y-58445400D02*
X165684200Y-57665259D01*
X178665000Y-72493000D02*
X172169858Y-72493000D01*
X165074600Y-71348600D02*
X164668200Y-70942200D01*
X166624000Y-62204600D02*
X166471600Y-62204600D01*
X166471600Y-62204600D02*
X164272517Y-60005517D01*
X166841328Y-51687000D02*
X166716328Y-51562000D01*
X166716328Y-58445400D02*
X166464341Y-58445400D01*
X165684200Y-56286400D02*
X166841328Y-55129272D01*
X166841328Y-51841400D02*
X166841328Y-51687000D01*
%TO.N,Net-(BT3-+)*%
X140157200Y-62026800D02*
X141833973Y-63703573D01*
X147053673Y-63513073D02*
X147891127Y-63513073D01*
X134531473Y-61759727D02*
X135368927Y-61759727D01*
X157252350Y-61823804D02*
X165761146Y-70332600D01*
X165761146Y-70332600D02*
X167284400Y-70332600D01*
X125476000Y-62915800D02*
X127482600Y-62915800D01*
X135368927Y-61759727D02*
X136728200Y-63119000D01*
X121110457Y-61769543D02*
X119888000Y-62992000D01*
X150697996Y-61823804D02*
X157252350Y-61823804D01*
X141833973Y-63703573D02*
X142950827Y-63703573D01*
X122609057Y-61769543D02*
X121110457Y-61769543D01*
X150418800Y-62103000D02*
X150697996Y-61823804D01*
X145503527Y-61962927D02*
X147053673Y-63513073D01*
X127482600Y-62915800D02*
X128473200Y-61925200D01*
%TO.N,/HEI*%
X209354260Y-75475201D02*
X208592260Y-74713201D01*
X213386800Y-74615400D02*
X214311059Y-74615400D01*
X209613531Y-75475201D02*
X209354260Y-75475201D01*
X224799800Y-74573000D02*
X225474400Y-74573000D01*
X193397004Y-74640804D02*
X193944604Y-74640804D01*
X198237200Y-74615400D02*
X197231000Y-73609200D01*
X193944604Y-74640804D02*
X194868800Y-75565000D01*
X183318094Y-74606800D02*
X182521536Y-73810242D01*
X243738773Y-64008000D02*
X243738773Y-63780889D01*
X209738530Y-75600200D02*
X209613531Y-75475201D01*
X218177202Y-73693720D02*
X219134082Y-74650600D01*
X201930000Y-73598000D02*
X201930000Y-73732259D01*
X215300731Y-75605072D02*
X215519310Y-75605072D01*
X208592260Y-74713201D02*
X207591801Y-74713201D01*
X217660920Y-73693720D02*
X218177202Y-73693720D01*
X198770600Y-74615400D02*
X198237200Y-74615400D01*
X243738773Y-63780889D02*
X239992358Y-60034474D01*
X201930000Y-73732259D02*
X203813541Y-75615800D01*
X199618600Y-75463400D02*
X198770600Y-74615400D01*
X214311059Y-74615400D02*
X215300731Y-75605072D01*
X203813541Y-75615800D02*
X204292200Y-75615800D01*
X189820112Y-75641196D02*
X189865000Y-75641196D01*
X185782841Y-75690500D02*
X184699141Y-74606800D01*
X225474400Y-74573000D02*
X226517200Y-75615800D01*
X212369400Y-73598000D02*
X213386800Y-74615400D01*
X187589963Y-73411047D02*
X189820112Y-75641196D01*
X219557600Y-74650600D02*
X220497400Y-75590400D01*
X219134082Y-74650600D02*
X219557600Y-74650600D01*
X192354200Y-73598000D02*
X193397004Y-74640804D01*
X199618600Y-75690500D02*
X199618600Y-75463400D01*
X207591801Y-74713201D02*
X206476600Y-73598000D01*
X184699141Y-74606800D02*
X183318094Y-74606800D01*
X223824800Y-73598000D02*
X224799800Y-74573000D01*
%TO.N,/APOGEE*%
X191363600Y-43435500D02*
X192533500Y-43435500D01*
X181836354Y-44729400D02*
X182143400Y-44729400D01*
X164175065Y-62760871D02*
X164155824Y-62741630D01*
X217754200Y-44627800D02*
X219633800Y-44627800D01*
X228041200Y-43637200D02*
X229311200Y-44907200D01*
X196672200Y-43611800D02*
X197916800Y-44856400D01*
X216763600Y-43637200D02*
X217754200Y-44627800D01*
X206171800Y-43637200D02*
X207365600Y-44831000D01*
X180542454Y-43435500D02*
X181836354Y-44729400D01*
X223494600Y-44653200D02*
X225348800Y-44653200D01*
X186589900Y-43435500D02*
X188061600Y-44907200D01*
X202349100Y-44640500D02*
X203822300Y-44640500D01*
X195961000Y-43611800D02*
X196672200Y-43611800D01*
X229311200Y-44907200D02*
X230098600Y-44907200D01*
X166624000Y-60883800D02*
X166437918Y-60883800D01*
X165941718Y-60463800D02*
X164211357Y-58733439D01*
X201295000Y-43586400D02*
X202349100Y-44640500D01*
X211455000Y-43637200D02*
X212572600Y-44754800D01*
X164211357Y-58733439D02*
X163999162Y-58733439D01*
X164503999Y-62760871D02*
X164175065Y-62760871D01*
X207365600Y-44831000D02*
X208534000Y-44831000D01*
X222453200Y-43611800D02*
X223494600Y-44653200D01*
X166437918Y-60883800D02*
X166017919Y-60463801D01*
X192533500Y-43435500D02*
X193878200Y-44780200D01*
X212572600Y-44754800D02*
X214096600Y-44754800D01*
X178638200Y-43435500D02*
X180542454Y-43435500D01*
X185140600Y-43435500D02*
X186589900Y-43435500D01*
X166716328Y-64973200D02*
X164503999Y-62760871D01*
X166017919Y-60463801D02*
X165941718Y-60463800D01*
%TO.N,/MAIN*%
X190677800Y-73507600D02*
X192786000Y-75615800D01*
X212982941Y-75590400D02*
X213334600Y-75590400D01*
X227571556Y-73598000D02*
X228386289Y-74412733D01*
X228386289Y-74412733D02*
X229606733Y-74412733D01*
X216186341Y-73598000D02*
X217303841Y-74715500D01*
X210990541Y-73598000D02*
X212982941Y-75590400D01*
X206119600Y-74573000D02*
X207137000Y-75590400D01*
X192786000Y-75615800D02*
X193395596Y-75615800D01*
X210058000Y-73598000D02*
X210990541Y-73598000D01*
X184404000Y-75690500D02*
X181913300Y-75690500D01*
X195935600Y-73692659D02*
X195935600Y-73598000D01*
X204851000Y-73598000D02*
X204855341Y-73598000D01*
X197933441Y-75690500D02*
X195935600Y-73692659D01*
X224066730Y-75661789D02*
X224660111Y-75661789D01*
X205830341Y-74573000D02*
X206119600Y-74573000D01*
X229606733Y-74412733D02*
X230765200Y-75571200D01*
X193395596Y-75615800D02*
X193395600Y-75615804D01*
X186182000Y-73397241D02*
X186182000Y-72898000D01*
X204855341Y-73598000D02*
X205830341Y-74573000D01*
X217996900Y-74715500D02*
X218897200Y-75615800D01*
X188315600Y-75690500D02*
X188315600Y-75530841D01*
X222002941Y-73598000D02*
X224066730Y-75661789D01*
X215874600Y-73598000D02*
X216186341Y-73598000D01*
X198040857Y-75690500D02*
X197933441Y-75690500D01*
X221373954Y-73598000D02*
X222002941Y-73598000D01*
D23*
X240690400Y-74168000D02*
X239309600Y-75548800D01*
D22*
X181913300Y-75690500D02*
X180543200Y-74320400D01*
X202447230Y-75690030D02*
X200355200Y-73598000D01*
X217303841Y-74715500D02*
X217996900Y-74715500D01*
X188315600Y-75530841D02*
X186182000Y-73397241D01*
%TO.N,Net-(BT2-+)*%
X157891000Y-72390000D02*
X157891000Y-72281141D01*
X156232741Y-73380600D02*
X157175200Y-73380600D01*
X150265800Y-73263800D02*
X156115941Y-73263800D01*
X156565600Y-59791600D02*
X156565600Y-58470800D01*
X156616027Y-67081773D02*
X156616027Y-66674627D01*
X157632397Y-60858397D02*
X156565600Y-59791600D01*
X157891000Y-72390000D02*
X157891000Y-68356746D01*
X157175200Y-73380600D02*
X157891000Y-72664800D01*
X149646000Y-72644000D02*
X150265800Y-73263800D01*
X157891000Y-68356746D02*
X156616027Y-67081773D01*
X156115941Y-73263800D02*
X156232741Y-73380600D01*
X157891000Y-72664800D02*
X157891000Y-72390000D01*
%TO.N,Net-(BT2--)*%
X157683200Y-59410600D02*
X157683200Y-54549200D01*
X156544800Y-72313800D02*
X156621000Y-72390000D01*
X152984300Y-72313800D02*
X156544800Y-72313800D01*
X157683200Y-54549200D02*
X156982000Y-53848000D01*
X158013400Y-66852800D02*
X158013400Y-64708954D01*
X158013400Y-64708954D02*
X156278250Y-62973804D01*
%TO.N,Net-(LYRA1-SW+)*%
X162306000Y-62052200D02*
X161188400Y-60934600D01*
X162062000Y-53848000D02*
X163149900Y-54935900D01*
X163149900Y-54935900D02*
X163149900Y-57277000D01*
X162306000Y-64795400D02*
X162306000Y-62052200D01*
%TO.N,Net-(LYRA1-SW-)*%
X162306000Y-72395000D02*
X160934400Y-71023400D01*
X162991800Y-58572400D02*
X161493200Y-57073800D01*
X162991800Y-61112400D02*
X162991800Y-58572400D01*
X160934400Y-71023400D02*
X160934400Y-67132200D01*
%TO.N,Net-(D1-A)*%
X151409300Y-72313800D02*
X150789500Y-71694000D01*
X150789500Y-71694000D02*
X148946000Y-71694000D01*
X148946000Y-71694000D02*
X147996000Y-72644000D01*
%TD*%
M02*
