%TF.GenerationSoftware,KiCad,Pcbnew,8.0.0*%
%TF.CreationDate,2024-08-29T00:31:50-07:00*%
%TF.ProjectId,sled,736c6564-2e6b-4696-9361-645f70636258,rev?*%
%TF.SameCoordinates,Original*%
%TF.FileFunction,Legend,Bot*%
%TF.FilePolarity,Positive*%
%FSLAX46Y46*%
G04 Gerber Fmt 4.6, Leading zero omitted, Abs format (unit mm)*
G04 Created by KiCad (PCBNEW 8.0.0) date 2024-08-29 00:31:50*
%MOMM*%
%LPD*%
G01*
G04 APERTURE LIST*
G04 Aperture macros list*
%AMHorizOval*
0 Thick line with rounded ends*
0 $1 width*
0 $2 $3 position (X,Y) of the first rounded end (center of the circle)*
0 $4 $5 position (X,Y) of the second rounded end (center of the circle)*
0 Add line between two ends*
20,1,$1,$2,$3,$4,$5,0*
0 Add two circle primitives to create the rounded ends*
1,1,$1,$2,$3*
1,1,$1,$4,$5*%
%AMRotRect*
0 Rectangle, with rotation*
0 The origin of the aperture is its center*
0 $1 length*
0 $2 width*
0 $3 Rotation angle, in degrees counterclockwise*
0 Add horizontal line*
21,1,$1,$2,0,0,$3*%
G04 Aperture macros list end*
%ADD10C,0.500000*%
%ADD11C,0.200000*%
%ADD12C,0.375000*%
%ADD13C,0.120000*%
%ADD14R,3.000000X3.000000*%
%ADD15C,3.000000*%
%ADD16C,6.400000*%
%ADD17R,1.000000X1.000000*%
%ADD18O,1.000000X1.000000*%
%ADD19R,1.700000X1.700000*%
%ADD20O,1.700000X1.700000*%
%ADD21C,3.800000*%
%ADD22RotRect,1.700000X1.700000X268.000000*%
%ADD23HorizOval,1.700000X0.000000X0.000000X0.000000X0.000000X0*%
%ADD24R,1.600000X1.600000*%
%ADD25C,1.600000*%
G04 APERTURE END LIST*
D10*
G36*
X212634535Y-74452254D02*
G01*
X212728339Y-74496451D01*
X212774684Y-74539968D01*
X212836017Y-74633491D01*
X212880324Y-74743164D01*
X212900713Y-74817489D01*
X212923928Y-74928714D01*
X212946795Y-75042286D01*
X212955424Y-75087317D01*
X212974963Y-75200386D01*
X212994106Y-75318186D01*
X213001341Y-75363739D01*
X213011144Y-75477177D01*
X212999510Y-75587129D01*
X212979848Y-75641809D01*
X212904866Y-75715998D01*
X212805456Y-75739858D01*
X212777615Y-75740727D01*
X212680186Y-75729104D01*
X212585732Y-75685395D01*
X212538745Y-75642359D01*
X212477190Y-75548927D01*
X212434394Y-75439499D01*
X212415647Y-75365387D01*
X212391519Y-75258209D01*
X212369125Y-75144994D01*
X212358983Y-75090614D01*
X212338581Y-74977040D01*
X212320629Y-74864610D01*
X212315019Y-74821886D01*
X212306156Y-74707131D01*
X212317858Y-74596125D01*
X212337001Y-74541068D01*
X212410518Y-74465642D01*
X212509456Y-74441384D01*
X212537280Y-74440501D01*
X212634535Y-74452254D01*
G37*
G36*
X214561123Y-74452254D02*
G01*
X214654927Y-74496451D01*
X214701272Y-74539968D01*
X214762604Y-74633491D01*
X214806911Y-74743164D01*
X214827301Y-74817489D01*
X214850515Y-74928714D01*
X214873383Y-75042286D01*
X214882011Y-75087317D01*
X214901551Y-75200386D01*
X214920693Y-75318186D01*
X214927929Y-75363739D01*
X214937731Y-75477177D01*
X214926097Y-75587129D01*
X214906436Y-75641809D01*
X214831453Y-75715998D01*
X214732043Y-75739858D01*
X214704203Y-75740727D01*
X214606774Y-75729104D01*
X214512319Y-75685395D01*
X214465333Y-75642359D01*
X214403777Y-75548927D01*
X214360981Y-75439499D01*
X214342235Y-75365387D01*
X214318106Y-75258209D01*
X214295712Y-75144994D01*
X214285570Y-75090614D01*
X214265168Y-74977040D01*
X214247217Y-74864610D01*
X214241607Y-74821886D01*
X214232744Y-74707131D01*
X214244446Y-74596125D01*
X214263588Y-74541068D01*
X214337106Y-74465642D01*
X214436044Y-74441384D01*
X214463868Y-74440501D01*
X214561123Y-74452254D01*
G37*
G36*
X216487711Y-74452254D02*
G01*
X216581514Y-74496451D01*
X216627859Y-74539968D01*
X216689192Y-74633491D01*
X216733499Y-74743164D01*
X216753889Y-74817489D01*
X216777103Y-74928714D01*
X216799970Y-75042286D01*
X216808599Y-75087317D01*
X216828138Y-75200386D01*
X216847281Y-75318186D01*
X216854517Y-75363739D01*
X216864319Y-75477177D01*
X216852685Y-75587129D01*
X216833023Y-75641809D01*
X216758041Y-75715998D01*
X216658631Y-75739858D01*
X216630790Y-75740727D01*
X216533362Y-75729104D01*
X216438907Y-75685395D01*
X216391921Y-75642359D01*
X216330365Y-75548927D01*
X216287569Y-75439499D01*
X216268822Y-75365387D01*
X216244694Y-75258209D01*
X216222300Y-75144994D01*
X216212158Y-75090614D01*
X216191756Y-74977040D01*
X216173804Y-74864610D01*
X216168194Y-74821886D01*
X216159331Y-74707131D01*
X216171034Y-74596125D01*
X216190176Y-74541068D01*
X216263693Y-74465642D01*
X216362632Y-74441384D01*
X216390455Y-74440501D01*
X216487711Y-74452254D01*
G37*
G36*
X219160704Y-74452254D02*
G01*
X219254508Y-74496451D01*
X219300853Y-74539968D01*
X219362186Y-74633491D01*
X219406493Y-74743164D01*
X219426882Y-74817489D01*
X219450097Y-74928714D01*
X219472964Y-75042286D01*
X219481593Y-75087317D01*
X219501132Y-75200386D01*
X219520275Y-75318186D01*
X219527510Y-75363739D01*
X219537312Y-75477177D01*
X219525678Y-75587129D01*
X219506017Y-75641809D01*
X219431034Y-75715998D01*
X219331625Y-75739858D01*
X219303784Y-75740727D01*
X219206355Y-75729104D01*
X219111901Y-75685395D01*
X219064914Y-75642359D01*
X219003358Y-75548927D01*
X218960563Y-75439499D01*
X218941816Y-75365387D01*
X218917687Y-75258209D01*
X218895293Y-75144994D01*
X218885152Y-75090614D01*
X218864750Y-74977040D01*
X218846798Y-74864610D01*
X218841188Y-74821886D01*
X218832325Y-74707131D01*
X218844027Y-74596125D01*
X218863170Y-74541068D01*
X218936687Y-74465642D01*
X219035625Y-74441384D01*
X219063449Y-74440501D01*
X219160704Y-74452254D01*
G37*
G36*
X193023742Y-75354396D02*
G01*
X192579709Y-75354396D01*
X192662263Y-74602067D01*
X193023742Y-75354396D01*
G37*
G36*
X195105180Y-75705556D02*
G01*
X194653819Y-75705556D01*
X194555564Y-75682363D01*
X194512158Y-75651701D01*
X194450763Y-75562584D01*
X194436443Y-75512116D01*
X194444045Y-75401966D01*
X194460378Y-75373081D01*
X194547974Y-75321802D01*
X194582011Y-75319225D01*
X195033372Y-75319225D01*
X195105180Y-75705556D01*
G37*
G36*
X194942514Y-74826282D02*
G01*
X194518020Y-74826282D01*
X194419956Y-74804463D01*
X194385152Y-74780120D01*
X194328548Y-74690166D01*
X194318718Y-74650977D01*
X194326209Y-74540439D01*
X194337280Y-74521833D01*
X194428586Y-74476799D01*
X194453051Y-74475672D01*
X194877545Y-74475672D01*
X194942514Y-74826282D01*
G37*
G36*
X197721509Y-75705556D02*
G01*
X197428418Y-75705556D01*
X197327050Y-75696473D01*
X197222315Y-75661594D01*
X197136025Y-75600556D01*
X197068179Y-75513358D01*
X197018777Y-75400002D01*
X197000993Y-75333513D01*
X196976917Y-75219626D01*
X196954264Y-75108687D01*
X196950190Y-75087317D01*
X196930522Y-74971564D01*
X196912776Y-74858529D01*
X196911111Y-74847714D01*
X196905271Y-74731797D01*
X196930071Y-74622263D01*
X196962402Y-74569644D01*
X197048729Y-74505405D01*
X197152639Y-74478975D01*
X197214949Y-74475672D01*
X197493875Y-74475672D01*
X197721509Y-75705556D01*
G37*
G36*
X201636722Y-75354396D02*
G01*
X201192688Y-75354396D01*
X201275242Y-74602067D01*
X201636722Y-75354396D01*
G37*
G36*
X232073288Y-75354396D02*
G01*
X231629255Y-75354396D01*
X231711809Y-74602067D01*
X232073288Y-75354396D01*
G37*
G36*
X235373882Y-76694696D02*
G01*
X187592863Y-76694696D01*
X187592863Y-74072854D01*
X187842863Y-74072854D01*
X187857517Y-74107475D01*
X188708948Y-75054344D01*
X188178452Y-76095185D01*
X188176010Y-76129806D01*
X188203365Y-76178166D01*
X188249771Y-76198500D01*
X188685012Y-76198500D01*
X188742165Y-76181464D01*
X188784175Y-76126509D01*
X189163728Y-75380774D01*
X189299039Y-76113869D01*
X189332256Y-76173770D01*
X189388920Y-76198500D01*
X189747468Y-76198500D01*
X189795340Y-76173220D01*
X189806087Y-76112770D01*
X189518242Y-74556401D01*
X189863884Y-74556401D01*
X189866773Y-74670177D01*
X189873986Y-74722418D01*
X189900853Y-74771327D01*
X189946771Y-74791661D01*
X190305808Y-74791661D01*
X190362472Y-74772427D01*
X190381034Y-74697139D01*
X190408495Y-74586841D01*
X190451865Y-74515239D01*
X190538083Y-74459185D01*
X190637047Y-74441668D01*
X190676568Y-74440501D01*
X190777280Y-74450751D01*
X190871755Y-74485704D01*
X190949143Y-74545464D01*
X191015913Y-74633383D01*
X191063119Y-74730132D01*
X191091781Y-74820787D01*
X191116561Y-74935177D01*
X191137776Y-75043034D01*
X191146980Y-75092263D01*
X191166809Y-75203082D01*
X191185429Y-75318697D01*
X191191921Y-75363739D01*
X191195538Y-75481487D01*
X191170935Y-75595615D01*
X191150888Y-75636863D01*
X191075808Y-75707864D01*
X190977668Y-75737076D01*
X190916903Y-75740727D01*
X190812789Y-75731896D01*
X190713113Y-75698687D01*
X190664356Y-75665989D01*
X190590296Y-75588798D01*
X190532980Y-75497358D01*
X190526603Y-75484089D01*
X190480197Y-75409900D01*
X190416205Y-75390117D01*
X190057168Y-75390117D01*
X190019066Y-75410450D01*
X190009785Y-75459360D01*
X190041685Y-75575453D01*
X190090122Y-75686331D01*
X190147061Y-75780509D01*
X190198341Y-75848438D01*
X190275827Y-75932588D01*
X190361739Y-76007532D01*
X190456078Y-76073272D01*
X190545537Y-76123243D01*
X190558843Y-76129806D01*
X190653287Y-76170277D01*
X190749835Y-76200807D01*
X190848487Y-76221397D01*
X190949242Y-76232048D01*
X191007762Y-76233670D01*
X191114968Y-76228122D01*
X191213901Y-76211476D01*
X191316834Y-76178864D01*
X191408959Y-76131758D01*
X191413596Y-76128707D01*
X191991572Y-76128707D01*
X192018438Y-76178166D01*
X192064845Y-76198500D01*
X192409715Y-76198500D01*
X192477615Y-76174319D01*
X192501062Y-76117167D01*
X192528418Y-75847339D01*
X193256750Y-75847339D01*
X193383267Y-76117167D01*
X193427720Y-76174319D01*
X193505389Y-76198500D01*
X193850260Y-76198500D01*
X193888850Y-76177617D01*
X193897154Y-76127608D01*
X193877615Y-76080347D01*
X193079092Y-74432257D01*
X193793580Y-74432257D01*
X193794136Y-74543051D01*
X193806785Y-74638337D01*
X193809879Y-74650977D01*
X193833621Y-74747972D01*
X193878126Y-74854000D01*
X193901551Y-74892228D01*
X193967618Y-74976995D01*
X194033930Y-75038957D01*
X193965423Y-75122999D01*
X193924055Y-75227550D01*
X193922556Y-75234595D01*
X193912624Y-75351079D01*
X193922769Y-75469612D01*
X193929394Y-75509368D01*
X193930042Y-75512116D01*
X193954668Y-75616594D01*
X193996178Y-75732998D01*
X194050638Y-75840041D01*
X194118048Y-75937721D01*
X194174126Y-76001762D01*
X194263568Y-76078420D01*
X194350614Y-76129142D01*
X194447242Y-76166030D01*
X194553454Y-76189085D01*
X194669248Y-76198307D01*
X194689478Y-76198500D01*
X195628836Y-76198500D01*
X195676708Y-76173220D01*
X195687454Y-76112770D01*
X195414622Y-74637568D01*
X196396128Y-74637568D01*
X196396243Y-74731797D01*
X196396273Y-74756253D01*
X196407971Y-74865849D01*
X196425648Y-74981125D01*
X196443522Y-75090627D01*
X196444119Y-75093911D01*
X196466788Y-75204121D01*
X196491013Y-75315378D01*
X196519845Y-75425993D01*
X196557184Y-75530876D01*
X196603032Y-75630025D01*
X196657389Y-75723442D01*
X196692270Y-75774250D01*
X196758828Y-75857370D01*
X196831557Y-75932180D01*
X196910457Y-75998680D01*
X196995528Y-76056871D01*
X197046910Y-76086392D01*
X197140486Y-76130075D01*
X197237849Y-76163028D01*
X197338998Y-76185252D01*
X197443935Y-76196748D01*
X197505598Y-76198500D01*
X198245166Y-76198500D01*
X198293037Y-76173220D01*
X198303784Y-76112770D01*
X197925696Y-74068458D01*
X198352632Y-74068458D01*
X198730720Y-76112770D01*
X198763937Y-76173220D01*
X198820602Y-76198500D01*
X199105389Y-76198500D01*
X199172311Y-76174869D01*
X199204551Y-76126509D01*
X199632953Y-75054344D01*
X199828836Y-76113869D01*
X199862053Y-76173770D01*
X199918718Y-76198500D01*
X200277266Y-76198500D01*
X200325138Y-76173220D01*
X200333051Y-76128707D01*
X200604551Y-76128707D01*
X200631418Y-76178166D01*
X200677824Y-76198500D01*
X201022695Y-76198500D01*
X201090595Y-76174319D01*
X201114042Y-76117167D01*
X201141397Y-75847339D01*
X201869729Y-75847339D01*
X201996247Y-76117167D01*
X202040699Y-76174319D01*
X202118369Y-76198500D01*
X202463240Y-76198500D01*
X202501830Y-76177617D01*
X202510134Y-76127608D01*
X202490595Y-76080347D01*
X201524859Y-74087142D01*
X201508489Y-74065710D01*
X203892060Y-74065710D01*
X203952632Y-74392690D01*
X203985361Y-74450942D01*
X204041537Y-74475672D01*
X204523184Y-74475672D01*
X204825556Y-76112221D01*
X204859262Y-76173220D01*
X204915926Y-76198500D01*
X205274475Y-76198500D01*
X205322346Y-76173220D01*
X205332605Y-76112221D01*
X205030232Y-74475672D01*
X205512367Y-74475672D01*
X205560239Y-74450942D01*
X205570986Y-74392690D01*
X205510413Y-74065710D01*
X205748794Y-74065710D01*
X205809367Y-74392690D01*
X205842095Y-74450942D01*
X205898759Y-74475672D01*
X206741886Y-74475672D01*
X206806854Y-74826832D01*
X206023812Y-74826832D01*
X205976429Y-74851561D01*
X205964705Y-74909813D01*
X206025277Y-75236793D01*
X206058494Y-75295045D01*
X206115159Y-75319775D01*
X206898201Y-75319775D01*
X206969520Y-75705556D01*
X206104412Y-75705556D01*
X206056540Y-75730286D01*
X206045305Y-75788538D01*
X206105877Y-76115518D01*
X206138606Y-76173770D01*
X206195270Y-76198500D01*
X207493177Y-76198500D01*
X207541048Y-76173220D01*
X207551795Y-76112770D01*
X207173707Y-74068458D01*
X207172219Y-74065710D01*
X207548376Y-74065710D01*
X207608948Y-74392690D01*
X207641676Y-74450942D01*
X207698341Y-74475672D01*
X208541467Y-74475672D01*
X208606436Y-74826832D01*
X207823393Y-74826832D01*
X207776010Y-74851561D01*
X207764286Y-74909813D01*
X207824859Y-75236793D01*
X207858076Y-75295045D01*
X207914740Y-75319775D01*
X208697782Y-75319775D01*
X208769101Y-75705556D01*
X207903993Y-75705556D01*
X207856122Y-75730286D01*
X207844886Y-75788538D01*
X207905459Y-76115518D01*
X207938187Y-76173770D01*
X207994852Y-76198500D01*
X209292758Y-76198500D01*
X209340630Y-76173220D01*
X209351376Y-76112770D01*
X208973288Y-74068458D01*
X208971800Y-74065710D01*
X209300574Y-74065710D01*
X209361146Y-74392690D01*
X209393875Y-74450942D01*
X209449562Y-74475672D01*
X210268752Y-74475672D01*
X210353260Y-74931795D01*
X209589269Y-74931795D01*
X209541397Y-74956525D01*
X209530162Y-75014777D01*
X209590734Y-75341757D01*
X209623463Y-75400009D01*
X209680127Y-75424738D01*
X210444119Y-75424738D01*
X210571614Y-76112770D01*
X210604831Y-76173220D01*
X210661495Y-76198500D01*
X211020043Y-76198500D01*
X211067915Y-76173220D01*
X211078662Y-76112770D01*
X210803684Y-74625972D01*
X211792675Y-74625972D01*
X211796191Y-74707131D01*
X211797462Y-74736461D01*
X211805040Y-74805949D01*
X211821262Y-74915107D01*
X211840388Y-75025853D01*
X211853400Y-75097209D01*
X211874819Y-75209780D01*
X211898242Y-75324029D01*
X211911530Y-75381874D01*
X211942998Y-75495523D01*
X211981836Y-75602572D01*
X212028044Y-75703020D01*
X212081622Y-75796867D01*
X212142571Y-75884113D01*
X212210890Y-75964758D01*
X212240281Y-75995167D01*
X212318729Y-76063877D01*
X212404477Y-76120940D01*
X212497523Y-76166359D01*
X212597868Y-76200131D01*
X212705511Y-76222258D01*
X212820453Y-76232739D01*
X212868473Y-76233670D01*
X212984188Y-76227781D01*
X213088311Y-76210111D01*
X213197957Y-76173358D01*
X213290910Y-76119642D01*
X213367171Y-76048963D01*
X213408739Y-75992420D01*
X213458432Y-75897140D01*
X213493941Y-75792239D01*
X213515265Y-75677716D01*
X213522403Y-75553572D01*
X213517516Y-75442770D01*
X213509855Y-75373081D01*
X213492192Y-75262736D01*
X213473402Y-75151751D01*
X213462960Y-75093911D01*
X213442070Y-74985930D01*
X213418806Y-74872277D01*
X213405319Y-74808147D01*
X213373699Y-74693335D01*
X213349408Y-74625972D01*
X213719263Y-74625972D01*
X213722779Y-74707131D01*
X213724050Y-74736461D01*
X213731628Y-74805949D01*
X213747849Y-74915107D01*
X213766976Y-75025853D01*
X213779988Y-75097209D01*
X213801407Y-75209780D01*
X213824830Y-75324029D01*
X213838117Y-75381874D01*
X213869585Y-75495523D01*
X213908423Y-75602572D01*
X213954631Y-75703020D01*
X214008210Y-75796867D01*
X214069158Y-75884113D01*
X214137477Y-75964758D01*
X214166868Y-75995167D01*
X214245317Y-76063877D01*
X214331064Y-76120940D01*
X214424110Y-76166359D01*
X214524455Y-76200131D01*
X214632098Y-76222258D01*
X214747040Y-76232739D01*
X214795061Y-76233670D01*
X214910776Y-76227781D01*
X215014899Y-76210111D01*
X215124545Y-76173358D01*
X215217498Y-76119642D01*
X215293759Y-76048963D01*
X215335326Y-75992420D01*
X215385020Y-75897140D01*
X215420529Y-75792239D01*
X215441852Y-75677716D01*
X215448991Y-75553572D01*
X215444103Y-75442770D01*
X215436443Y-75373081D01*
X215418780Y-75262736D01*
X215399989Y-75151751D01*
X215389548Y-75093911D01*
X215368658Y-74985930D01*
X215345393Y-74872277D01*
X215331907Y-74808147D01*
X215300286Y-74693335D01*
X215275996Y-74625972D01*
X215645850Y-74625972D01*
X215649366Y-74707131D01*
X215650637Y-74736461D01*
X215658215Y-74805949D01*
X215674437Y-74915107D01*
X215693564Y-75025853D01*
X215706575Y-75097209D01*
X215727994Y-75209780D01*
X215751417Y-75324029D01*
X215764705Y-75381874D01*
X215796173Y-75495523D01*
X215835011Y-75602572D01*
X215881219Y-75703020D01*
X215934797Y-75796867D01*
X215995746Y-75884113D01*
X216064065Y-75964758D01*
X216093456Y-75995167D01*
X216171905Y-76063877D01*
X216257652Y-76120940D01*
X216350698Y-76166359D01*
X216451043Y-76200131D01*
X216558686Y-76222258D01*
X216673628Y-76232739D01*
X216721648Y-76233670D01*
X216837363Y-76227781D01*
X216941486Y-76210111D01*
X217051132Y-76173358D01*
X217144086Y-76119642D01*
X217220347Y-76048963D01*
X217261914Y-75992420D01*
X217311608Y-75897140D01*
X217347116Y-75792239D01*
X217368440Y-75677716D01*
X217368546Y-75675881D01*
X217657099Y-75675881D01*
X217664426Y-75698412D01*
X217996596Y-76341382D01*
X218065753Y-76424921D01*
X218133861Y-76444696D01*
X218339025Y-76444696D01*
X218377615Y-76423814D01*
X218386896Y-76374354D01*
X218385431Y-76367760D01*
X218182221Y-75727538D01*
X218128976Y-75637962D01*
X218041048Y-75600593D01*
X217703993Y-75600593D01*
X217665403Y-75623124D01*
X217657099Y-75675881D01*
X217368546Y-75675881D01*
X217375578Y-75553572D01*
X217370691Y-75442770D01*
X217363030Y-75373081D01*
X217345367Y-75262736D01*
X217326577Y-75151751D01*
X217316136Y-75093911D01*
X217295245Y-74985930D01*
X217271981Y-74872277D01*
X217258494Y-74808147D01*
X217226874Y-74693335D01*
X217202583Y-74625972D01*
X218318844Y-74625972D01*
X218322360Y-74707131D01*
X218323631Y-74736461D01*
X218331209Y-74805949D01*
X218347430Y-74915107D01*
X218366557Y-75025853D01*
X218379569Y-75097209D01*
X218400988Y-75209780D01*
X218424411Y-75324029D01*
X218437699Y-75381874D01*
X218469166Y-75495523D01*
X218508004Y-75602572D01*
X218554213Y-75703020D01*
X218607791Y-75796867D01*
X218668740Y-75884113D01*
X218737058Y-75964758D01*
X218766450Y-75995167D01*
X218844898Y-76063877D01*
X218930646Y-76120940D01*
X219023692Y-76166359D01*
X219124036Y-76200131D01*
X219231680Y-76222258D01*
X219346622Y-76232739D01*
X219394642Y-76233670D01*
X219510357Y-76227781D01*
X219614480Y-76210111D01*
X219724126Y-76173358D01*
X219817079Y-76119642D01*
X219893340Y-76048963D01*
X219934907Y-75992420D01*
X219984601Y-75897140D01*
X220020110Y-75792239D01*
X220041434Y-75677716D01*
X220048572Y-75553572D01*
X220043685Y-75442770D01*
X220036024Y-75373081D01*
X220018361Y-75262736D01*
X219999571Y-75151751D01*
X219989129Y-75093911D01*
X219968239Y-74985930D01*
X219944975Y-74872277D01*
X219931488Y-74808147D01*
X219899868Y-74693335D01*
X219860877Y-74585205D01*
X219814516Y-74483756D01*
X219760785Y-74388989D01*
X219699684Y-74300903D01*
X219631212Y-74219499D01*
X219601760Y-74188808D01*
X219522889Y-74119307D01*
X219442942Y-74065710D01*
X220186966Y-74065710D01*
X220247538Y-74392690D01*
X220280267Y-74450942D01*
X220336443Y-74475672D01*
X221133163Y-74475672D01*
X221206436Y-74763634D01*
X221116170Y-74719518D01*
X221014801Y-74692277D01*
X220936792Y-74686148D01*
X220833904Y-74691746D01*
X220727352Y-74711429D01*
X220630538Y-74745282D01*
X220571404Y-74775724D01*
X220485042Y-74839652D01*
X220415852Y-74919465D01*
X220363836Y-75015163D01*
X220355494Y-75036209D01*
X220325784Y-75149467D01*
X220317154Y-75262412D01*
X220325681Y-75385789D01*
X220334977Y-75443972D01*
X220363645Y-75564220D01*
X220403732Y-75675469D01*
X220455236Y-75777719D01*
X220518159Y-75870970D01*
X220590364Y-75954432D01*
X220670200Y-76027316D01*
X220757670Y-76089621D01*
X220852772Y-76141347D01*
X220953339Y-76181738D01*
X221057692Y-76210590D01*
X221165830Y-76227900D01*
X221263557Y-76233580D01*
X221277755Y-76233670D01*
X221379472Y-76229174D01*
X221486275Y-76213022D01*
X221583002Y-76185124D01*
X221679778Y-76139698D01*
X221770854Y-76075062D01*
X221843803Y-75998619D01*
X221903109Y-75900895D01*
X221907413Y-75891303D01*
X221942502Y-75781967D01*
X221955080Y-75667047D01*
X221946980Y-75557728D01*
X221920113Y-75508269D01*
X221873707Y-75487386D01*
X221525905Y-75487386D01*
X221439572Y-75538960D01*
X221437978Y-75542341D01*
X221386904Y-75638220D01*
X221348585Y-75687971D01*
X221256692Y-75734493D01*
X221186896Y-75740727D01*
X221083713Y-75725686D01*
X220990441Y-75680561D01*
X220965612Y-75662142D01*
X220893538Y-75581224D01*
X220849139Y-75476954D01*
X220841537Y-75442873D01*
X220841723Y-75331185D01*
X220880127Y-75252730D01*
X220967814Y-75193186D01*
X221063798Y-75179091D01*
X221141956Y-75192830D01*
X221232325Y-75234046D01*
X221309506Y-75264820D01*
X221737420Y-75264820D01*
X221787245Y-75240091D01*
X221795061Y-75180740D01*
X221507627Y-74067908D01*
X224392339Y-74067908D01*
X224454377Y-74403131D01*
X224510250Y-74494230D01*
X224529604Y-74513590D01*
X224931628Y-74898822D01*
X224832221Y-74936432D01*
X224737321Y-74992455D01*
X224660350Y-75062997D01*
X224618997Y-75118091D01*
X224570482Y-75223396D01*
X224550883Y-75332027D01*
X224554082Y-75453787D01*
X224562821Y-75512116D01*
X224593739Y-75638507D01*
X224637399Y-75753075D01*
X224693802Y-75855819D01*
X224762947Y-75946739D01*
X224844835Y-76025835D01*
X224874963Y-76049572D01*
X224972199Y-76112137D01*
X225079257Y-76161757D01*
X225175976Y-76193219D01*
X225279517Y-76215692D01*
X225389880Y-76229176D01*
X225507064Y-76233670D01*
X225612461Y-76229489D01*
X225710237Y-76216946D01*
X225812652Y-76192371D01*
X225915971Y-76151668D01*
X225926673Y-76146293D01*
X226014605Y-76092796D01*
X226094270Y-76023158D01*
X226159973Y-75934159D01*
X226169450Y-75916582D01*
X226210002Y-75807437D01*
X226223214Y-75693501D01*
X226216833Y-75614881D01*
X226190455Y-75566521D01*
X226144049Y-75546188D01*
X225799178Y-75546188D01*
X225731279Y-75564323D01*
X225678522Y-75620926D01*
X225605094Y-75695174D01*
X225582290Y-75709953D01*
X225486521Y-75737091D01*
X225416205Y-75740727D01*
X225311934Y-75731658D01*
X225215870Y-75701604D01*
X225185640Y-75685773D01*
X225106944Y-75612376D01*
X225072311Y-75523657D01*
X225083722Y-75410098D01*
X225125556Y-75361540D01*
X225221088Y-75318232D01*
X225318699Y-75306253D01*
X225335605Y-75306036D01*
X225563240Y-75306036D01*
X225610623Y-75280207D01*
X225620881Y-75218658D01*
X225569590Y-74939489D01*
X225543700Y-74881237D01*
X225490455Y-74822985D01*
X225135815Y-74475672D01*
X225850958Y-74475672D01*
X225898341Y-74450942D01*
X225909087Y-74392690D01*
X225849024Y-74068458D01*
X226855773Y-74068458D01*
X227233861Y-76112770D01*
X227267078Y-76173220D01*
X227323742Y-76198500D01*
X227682290Y-76198500D01*
X227729674Y-76172671D01*
X227740420Y-76111122D01*
X227594363Y-75319775D01*
X228202039Y-75319775D01*
X228348096Y-76111122D01*
X228381314Y-76172671D01*
X228438466Y-76198500D01*
X228797015Y-76198500D01*
X228844886Y-76174869D01*
X228855633Y-76112770D01*
X228567788Y-74556401D01*
X228913430Y-74556401D01*
X228916320Y-74670177D01*
X228923533Y-74722418D01*
X228950399Y-74771327D01*
X228996317Y-74791661D01*
X229355354Y-74791661D01*
X229412018Y-74772427D01*
X229430581Y-74697139D01*
X229458041Y-74586841D01*
X229501411Y-74515239D01*
X229587629Y-74459185D01*
X229686593Y-74441668D01*
X229726115Y-74440501D01*
X229826827Y-74450751D01*
X229921301Y-74485704D01*
X229998690Y-74545464D01*
X230065460Y-74633383D01*
X230112665Y-74730132D01*
X230141327Y-74820787D01*
X230166107Y-74935177D01*
X230187322Y-75043034D01*
X230196526Y-75092263D01*
X230216356Y-75203082D01*
X230234976Y-75318697D01*
X230241467Y-75363739D01*
X230245085Y-75481487D01*
X230220481Y-75595615D01*
X230200434Y-75636863D01*
X230125354Y-75707864D01*
X230027215Y-75737076D01*
X229966450Y-75740727D01*
X229862336Y-75731896D01*
X229762659Y-75698687D01*
X229713903Y-75665989D01*
X229639843Y-75588798D01*
X229582527Y-75497358D01*
X229576150Y-75484089D01*
X229529743Y-75409900D01*
X229465752Y-75390117D01*
X229106715Y-75390117D01*
X229068613Y-75410450D01*
X229059332Y-75459360D01*
X229091231Y-75575453D01*
X229139668Y-75686331D01*
X229196608Y-75780509D01*
X229247887Y-75848438D01*
X229325373Y-75932588D01*
X229411286Y-76007532D01*
X229505624Y-76073272D01*
X229595083Y-76123243D01*
X229608390Y-76129806D01*
X229702834Y-76170277D01*
X229799382Y-76200807D01*
X229898033Y-76221397D01*
X229998789Y-76232048D01*
X230057308Y-76233670D01*
X230164515Y-76228122D01*
X230263447Y-76211476D01*
X230366380Y-76178864D01*
X230458505Y-76131758D01*
X230463142Y-76128707D01*
X231041118Y-76128707D01*
X231067985Y-76178166D01*
X231114391Y-76198500D01*
X231459262Y-76198500D01*
X231527161Y-76174319D01*
X231550609Y-76117167D01*
X231577964Y-75847339D01*
X232306296Y-75847339D01*
X232432814Y-76117167D01*
X232477266Y-76174319D01*
X232554935Y-76198500D01*
X232899806Y-76198500D01*
X232938397Y-76177617D01*
X232946701Y-76127608D01*
X232927161Y-76080347D01*
X231961425Y-74087142D01*
X231947155Y-74068458D01*
X232839234Y-74068458D01*
X233217322Y-76112770D01*
X233250539Y-76173220D01*
X233307203Y-76198500D01*
X233665752Y-76198500D01*
X233713623Y-76173220D01*
X233724370Y-76113320D01*
X233531418Y-75070830D01*
X233884593Y-75587953D01*
X233937350Y-75644557D01*
X234000364Y-75666539D01*
X234175242Y-75666539D01*
X234230441Y-75644557D01*
X234262681Y-75587953D01*
X234423882Y-75070830D01*
X234616833Y-76113320D01*
X234650050Y-76173220D01*
X234706715Y-76198500D01*
X235065263Y-76198500D01*
X235113135Y-76173220D01*
X235123882Y-76112770D01*
X234745794Y-74068458D01*
X234713065Y-74008008D01*
X234655912Y-73982728D01*
X234338397Y-73982728D01*
X234249870Y-74035389D01*
X234236303Y-74069007D01*
X233955424Y-74951579D01*
X233348725Y-74069007D01*
X233274375Y-73996968D01*
X233215368Y-73982728D01*
X232897852Y-73982728D01*
X232850469Y-74008008D01*
X232839234Y-74068458D01*
X231947155Y-74068458D01*
X231904761Y-74012953D01*
X231819764Y-73982728D01*
X231375731Y-73982728D01*
X231301969Y-74012953D01*
X231271683Y-74087142D01*
X231126415Y-75354396D01*
X231043072Y-76081446D01*
X231041118Y-76128707D01*
X230463142Y-76128707D01*
X230479848Y-76117716D01*
X230566213Y-76046232D01*
X230636812Y-75962229D01*
X230691647Y-75865706D01*
X230715298Y-75806673D01*
X230745296Y-75693501D01*
X230759451Y-75573461D01*
X230758733Y-75460993D01*
X230749981Y-75373081D01*
X230732449Y-75258287D01*
X230714024Y-75147921D01*
X230709436Y-75122488D01*
X230688271Y-75013875D01*
X230665198Y-74901570D01*
X230645445Y-74808147D01*
X230613846Y-74691609D01*
X230571317Y-74580497D01*
X230517858Y-74474813D01*
X230453470Y-74374555D01*
X230378884Y-74281956D01*
X230295323Y-74199250D01*
X230214843Y-74134996D01*
X230127492Y-74078315D01*
X230101272Y-74063512D01*
X230006487Y-74018330D01*
X229907635Y-73984246D01*
X229804716Y-73961259D01*
X229697729Y-73949369D01*
X229634768Y-73947557D01*
X229534633Y-73952527D01*
X229427235Y-73970379D01*
X229327348Y-74001214D01*
X229234970Y-74045032D01*
X229223951Y-74051422D01*
X229132804Y-74115714D01*
X229056649Y-74191743D01*
X228995486Y-74279509D01*
X228967985Y-74333339D01*
X228931882Y-74436102D01*
X228913430Y-74556401D01*
X228567788Y-74556401D01*
X228477545Y-74068458D01*
X228444817Y-74008008D01*
X228387664Y-73982728D01*
X228029115Y-73982728D01*
X227981732Y-74008008D01*
X227970497Y-74067908D01*
X228110692Y-74826832D01*
X227503016Y-74826832D01*
X227362821Y-74067908D01*
X227330092Y-74008008D01*
X227272939Y-73982728D01*
X226914391Y-73982728D01*
X226867008Y-74008008D01*
X226855773Y-74068458D01*
X225849024Y-74068458D01*
X225848515Y-74065710D01*
X225816275Y-74007458D01*
X225760099Y-73982728D01*
X224450469Y-73982728D01*
X224403575Y-74008008D01*
X224392339Y-74067908D01*
X221507627Y-74067908D01*
X221507343Y-74066809D01*
X221473637Y-74008008D01*
X221417950Y-73982728D01*
X220245584Y-73982728D01*
X220198201Y-74007458D01*
X220186966Y-74065710D01*
X219442942Y-74065710D01*
X219436791Y-74061586D01*
X219343466Y-74015645D01*
X219242914Y-73981483D01*
X219135135Y-73959102D01*
X219020128Y-73948500D01*
X218972102Y-73947557D01*
X218856399Y-73953434D01*
X218752312Y-73971063D01*
X218642741Y-74007733D01*
X218549896Y-74061326D01*
X218473778Y-74131844D01*
X218432325Y-74188259D01*
X218382780Y-74283313D01*
X218347352Y-74387950D01*
X218326040Y-74502170D01*
X218318844Y-74625972D01*
X217202583Y-74625972D01*
X217187883Y-74585205D01*
X217141522Y-74483756D01*
X217087791Y-74388989D01*
X217026690Y-74300903D01*
X216958219Y-74219499D01*
X216928766Y-74188808D01*
X216849896Y-74119307D01*
X216763798Y-74061586D01*
X216670472Y-74015645D01*
X216569920Y-73981483D01*
X216462141Y-73959102D01*
X216347135Y-73948500D01*
X216299108Y-73947557D01*
X216183405Y-73953434D01*
X216079318Y-73971063D01*
X215969747Y-74007733D01*
X215876902Y-74061326D01*
X215800784Y-74131844D01*
X215759332Y-74188259D01*
X215709787Y-74283313D01*
X215674358Y-74387950D01*
X215653046Y-74502170D01*
X215645850Y-74625972D01*
X215275996Y-74625972D01*
X215261296Y-74585205D01*
X215214935Y-74483756D01*
X215161204Y-74388989D01*
X215100103Y-74300903D01*
X215031631Y-74219499D01*
X215002179Y-74188808D01*
X214923308Y-74119307D01*
X214837210Y-74061586D01*
X214743885Y-74015645D01*
X214643333Y-73981483D01*
X214535553Y-73959102D01*
X214420547Y-73948500D01*
X214372521Y-73947557D01*
X214256818Y-73953434D01*
X214152731Y-73971063D01*
X214043159Y-74007733D01*
X213950315Y-74061326D01*
X213874197Y-74131844D01*
X213832744Y-74188259D01*
X213783199Y-74283313D01*
X213747770Y-74387950D01*
X213726458Y-74502170D01*
X213719263Y-74625972D01*
X213349408Y-74625972D01*
X213334708Y-74585205D01*
X213288347Y-74483756D01*
X213234616Y-74388989D01*
X213173515Y-74300903D01*
X213105044Y-74219499D01*
X213075591Y-74188808D01*
X212996720Y-74119307D01*
X212910622Y-74061586D01*
X212817297Y-74015645D01*
X212716745Y-73981483D01*
X212608966Y-73959102D01*
X212493959Y-73948500D01*
X212445933Y-73947557D01*
X212330230Y-73953434D01*
X212226143Y-73971063D01*
X212116572Y-74007733D01*
X212023727Y-74061326D01*
X211947609Y-74131844D01*
X211906157Y-74188259D01*
X211856611Y-74283313D01*
X211821183Y-74387950D01*
X211799871Y-74502170D01*
X211792675Y-74625972D01*
X210803684Y-74625972D01*
X210700574Y-74068458D01*
X210667845Y-74008008D01*
X210610692Y-73982728D01*
X209358704Y-73982728D01*
X209311809Y-74007458D01*
X209300574Y-74065710D01*
X208971800Y-74065710D01*
X208940560Y-74008008D01*
X208883407Y-73982728D01*
X207607482Y-73982728D01*
X207559611Y-74007458D01*
X207548376Y-74065710D01*
X207172219Y-74065710D01*
X207140979Y-74008008D01*
X207083826Y-73982728D01*
X205807901Y-73982728D01*
X205760030Y-74007458D01*
X205748794Y-74065710D01*
X205510413Y-74065710D01*
X205478173Y-74007458D01*
X205421509Y-73982728D01*
X203950678Y-73982728D01*
X203903295Y-74007458D01*
X203892060Y-74065710D01*
X201508489Y-74065710D01*
X201468194Y-74012953D01*
X201383198Y-73982728D01*
X200939164Y-73982728D01*
X200865403Y-74012953D01*
X200835117Y-74087142D01*
X200689849Y-75354396D01*
X200606505Y-76081446D01*
X200604551Y-76128707D01*
X200333051Y-76128707D01*
X200335884Y-76112770D01*
X199957796Y-74068458D01*
X199925068Y-74008008D01*
X199867915Y-73982728D01*
X199583128Y-73982728D01*
X199516694Y-74006908D01*
X199484454Y-74056368D01*
X199058983Y-75148316D01*
X198859192Y-74069007D01*
X198826464Y-74008557D01*
X198769311Y-73982728D01*
X198411251Y-73982728D01*
X198363868Y-74008008D01*
X198352632Y-74068458D01*
X197925696Y-74068458D01*
X197892967Y-74008008D01*
X197835815Y-73982728D01*
X197109925Y-73982728D01*
X197004601Y-73988119D01*
X196906617Y-74004292D01*
X196803623Y-74035976D01*
X196710216Y-74081743D01*
X196688362Y-74095385D01*
X196599211Y-74165488D01*
X196525747Y-74249675D01*
X196467972Y-74347946D01*
X196442653Y-74408627D01*
X196410088Y-74525890D01*
X196396128Y-74637568D01*
X195414622Y-74637568D01*
X195309367Y-74068458D01*
X195276638Y-74008008D01*
X195219485Y-73982728D01*
X194337769Y-73982728D01*
X194227829Y-73988636D01*
X194131017Y-74006359D01*
X194037796Y-74040420D01*
X193976778Y-74077250D01*
X193899525Y-74148403D01*
X193839739Y-74240096D01*
X193811669Y-74318501D01*
X193793580Y-74432257D01*
X193079092Y-74432257D01*
X192911879Y-74087142D01*
X192855214Y-74012953D01*
X192770218Y-73982728D01*
X192326184Y-73982728D01*
X192252423Y-74012953D01*
X192222137Y-74087142D01*
X192076869Y-75354396D01*
X191993526Y-76081446D01*
X191991572Y-76128707D01*
X191413596Y-76128707D01*
X191430302Y-76117716D01*
X191516666Y-76046232D01*
X191587266Y-75962229D01*
X191642100Y-75865706D01*
X191665752Y-75806673D01*
X191695749Y-75693501D01*
X191709904Y-75573461D01*
X191709187Y-75460993D01*
X191700434Y-75373081D01*
X191682903Y-75258287D01*
X191664477Y-75147921D01*
X191659890Y-75122488D01*
X191638724Y-75013875D01*
X191615651Y-74901570D01*
X191595898Y-74808147D01*
X191564299Y-74691609D01*
X191521771Y-74580497D01*
X191468312Y-74474813D01*
X191403923Y-74374555D01*
X191329338Y-74281956D01*
X191245776Y-74199250D01*
X191165297Y-74134996D01*
X191077945Y-74078315D01*
X191051725Y-74063512D01*
X190956940Y-74018330D01*
X190858088Y-73984246D01*
X190755169Y-73961259D01*
X190648183Y-73949369D01*
X190585221Y-73947557D01*
X190485087Y-73952527D01*
X190377689Y-73970379D01*
X190277801Y-74001214D01*
X190185424Y-74045032D01*
X190174405Y-74051422D01*
X190083258Y-74115714D01*
X190007102Y-74191743D01*
X189945940Y-74279509D01*
X189918438Y-74333339D01*
X189882336Y-74436102D01*
X189863884Y-74556401D01*
X189518242Y-74556401D01*
X189427999Y-74068458D01*
X189395270Y-74008008D01*
X189338117Y-73982728D01*
X188979569Y-73982728D01*
X188932186Y-74008557D01*
X188921439Y-74069557D01*
X189046980Y-74750445D01*
X188436861Y-74053620D01*
X188383128Y-74001963D01*
X188313763Y-73982728D01*
X187886826Y-73982728D01*
X187849213Y-74009656D01*
X187842863Y-74072854D01*
X187592863Y-74072854D01*
X187592863Y-73697557D01*
X235373882Y-73697557D01*
X235373882Y-76694696D01*
G37*
D11*
X71374000Y-48006000D02*
X76530200Y-48006000D01*
X76530200Y-57912000D01*
X71374000Y-57912000D01*
X71374000Y-48006000D01*
G36*
X71374000Y-48006000D02*
G01*
X76530200Y-48006000D01*
X76530200Y-57912000D01*
X71374000Y-57912000D01*
X71374000Y-48006000D01*
G37*
D10*
G36*
X199941219Y-43845644D02*
G01*
X200040103Y-43886589D01*
X200103898Y-43936266D01*
X200174285Y-44022742D01*
X200224083Y-44119256D01*
X200254351Y-44210489D01*
X200280991Y-44323149D01*
X200303076Y-44430839D01*
X200312481Y-44480317D01*
X200332196Y-44593892D01*
X200348438Y-44703503D01*
X200354979Y-44756739D01*
X200357582Y-44866812D01*
X200334463Y-44975801D01*
X200306131Y-45031512D01*
X200229101Y-45101386D01*
X200134350Y-45130134D01*
X200077031Y-45133727D01*
X199972566Y-45121649D01*
X199873876Y-45080923D01*
X199810318Y-45031512D01*
X199739632Y-44944701D01*
X199689682Y-44848016D01*
X199659376Y-44756739D01*
X199633396Y-44646217D01*
X199611277Y-44538592D01*
X199600269Y-44480317D01*
X199580233Y-44366123D01*
X199563631Y-44252626D01*
X199558748Y-44210489D01*
X199556145Y-44100481D01*
X199579264Y-43991736D01*
X199607596Y-43936266D01*
X199684626Y-43866016D01*
X199779377Y-43837113D01*
X199836696Y-43833501D01*
X199941219Y-43845644D01*
G37*
G36*
X214761875Y-43845644D02*
G01*
X214860759Y-43886589D01*
X214924554Y-43936266D01*
X214994941Y-44022742D01*
X215044739Y-44119256D01*
X215075007Y-44210489D01*
X215101647Y-44323149D01*
X215123732Y-44430839D01*
X215133137Y-44480317D01*
X215152852Y-44593892D01*
X215169094Y-44703503D01*
X215175635Y-44756739D01*
X215178238Y-44866812D01*
X215155119Y-44975801D01*
X215126787Y-45031512D01*
X215049757Y-45101386D01*
X214955006Y-45130134D01*
X214897687Y-45133727D01*
X214793222Y-45121649D01*
X214694532Y-45080923D01*
X214630974Y-45031512D01*
X214560288Y-44944701D01*
X214510338Y-44848016D01*
X214480032Y-44756739D01*
X214454052Y-44646217D01*
X214431933Y-44538592D01*
X214420925Y-44480317D01*
X214400889Y-44366123D01*
X214384286Y-44252626D01*
X214379404Y-44210489D01*
X214376801Y-44100481D01*
X214399920Y-43991736D01*
X214428252Y-43936266D01*
X214505282Y-43866016D01*
X214600033Y-43837113D01*
X214657352Y-43833501D01*
X214761875Y-43845644D01*
G37*
G36*
X224900884Y-43845644D02*
G01*
X224999768Y-43886589D01*
X225063563Y-43936266D01*
X225133950Y-44022742D01*
X225183748Y-44119256D01*
X225214016Y-44210489D01*
X225240656Y-44323149D01*
X225262741Y-44430839D01*
X225272146Y-44480317D01*
X225291861Y-44593892D01*
X225308103Y-44703503D01*
X225314644Y-44756739D01*
X225317247Y-44866812D01*
X225294128Y-44975801D01*
X225265796Y-45031512D01*
X225188766Y-45101386D01*
X225094015Y-45130134D01*
X225036696Y-45133727D01*
X224932231Y-45121649D01*
X224833541Y-45080923D01*
X224769983Y-45031512D01*
X224699297Y-44944701D01*
X224649347Y-44848016D01*
X224619041Y-44756739D01*
X224593061Y-44646217D01*
X224570942Y-44538592D01*
X224559934Y-44480317D01*
X224539898Y-44366123D01*
X224523296Y-44252626D01*
X224518413Y-44210489D01*
X224515810Y-44100481D01*
X224538929Y-43991736D01*
X224567261Y-43936266D01*
X224644291Y-43866016D01*
X224739042Y-43837113D01*
X224796361Y-43833501D01*
X224900884Y-43845644D01*
G37*
G36*
X229170249Y-43845644D02*
G01*
X229269133Y-43886589D01*
X229332928Y-43936266D01*
X229403315Y-44022742D01*
X229453113Y-44119256D01*
X229483381Y-44210489D01*
X229510021Y-44323149D01*
X229532106Y-44430839D01*
X229541511Y-44480317D01*
X229561226Y-44593892D01*
X229577468Y-44703503D01*
X229584009Y-44756739D01*
X229586612Y-44866812D01*
X229563493Y-44975801D01*
X229535161Y-45031512D01*
X229458131Y-45101386D01*
X229363380Y-45130134D01*
X229306061Y-45133727D01*
X229201596Y-45121649D01*
X229102906Y-45080923D01*
X229039348Y-45031512D01*
X228968662Y-44944701D01*
X228918712Y-44848016D01*
X228888406Y-44756739D01*
X228862426Y-44646217D01*
X228840307Y-44538592D01*
X228829299Y-44480317D01*
X228809263Y-44366123D01*
X228792661Y-44252626D01*
X228787778Y-44210489D01*
X228785175Y-44100481D01*
X228808294Y-43991736D01*
X228836626Y-43936266D01*
X228913656Y-43866016D01*
X229008407Y-43837113D01*
X229065726Y-43833501D01*
X229170249Y-43845644D01*
G37*
G36*
X195806689Y-45098556D02*
G01*
X195355328Y-45098556D01*
X195257074Y-45075363D01*
X195213667Y-45044701D01*
X195152273Y-44955584D01*
X195137952Y-44905116D01*
X195145554Y-44794966D01*
X195161888Y-44766081D01*
X195249484Y-44714802D01*
X195283521Y-44712225D01*
X195734882Y-44712225D01*
X195806689Y-45098556D01*
G37*
G36*
X195644023Y-44219282D02*
G01*
X195219529Y-44219282D01*
X195121466Y-44197463D01*
X195086661Y-44173120D01*
X195030058Y-44083166D01*
X195020227Y-44043977D01*
X195027718Y-43933439D01*
X195038789Y-43914833D01*
X195130096Y-43869799D01*
X195154561Y-43868672D01*
X195579055Y-43868672D01*
X195644023Y-44219282D01*
G37*
G36*
X198201734Y-44325345D02*
G01*
X197892523Y-44325345D01*
X197786969Y-44314405D01*
X197692554Y-44275113D01*
X197619765Y-44196751D01*
X197584777Y-44096733D01*
X197585253Y-43986489D01*
X197652058Y-43900743D01*
X197760898Y-43870676D01*
X197808015Y-43868672D01*
X198117226Y-43868672D01*
X198201734Y-44325345D01*
G37*
G36*
X209280590Y-44747396D02*
G01*
X208836556Y-44747396D01*
X208919110Y-43995067D01*
X209280590Y-44747396D01*
G37*
G36*
X221080450Y-44747396D02*
G01*
X220636417Y-44747396D01*
X220718971Y-43995067D01*
X221080450Y-44747396D01*
G37*
G36*
X234303653Y-45876670D02*
G01*
X188366180Y-45876670D01*
X188366180Y-43458710D01*
X188616180Y-43458710D01*
X188676752Y-43785690D01*
X188709480Y-43843942D01*
X188765656Y-43868672D01*
X189247303Y-43868672D01*
X189549676Y-45505221D01*
X189583381Y-45566220D01*
X189640046Y-45591500D01*
X189998594Y-45591500D01*
X190046466Y-45566220D01*
X190056724Y-45505221D01*
X189759495Y-43896512D01*
X190534521Y-43896512D01*
X190538371Y-43957148D01*
X190565237Y-44005509D01*
X190609201Y-44025842D01*
X190967261Y-44025842D01*
X191025391Y-44014301D01*
X191067401Y-43973635D01*
X191094756Y-43929671D01*
X191176822Y-43863176D01*
X191274910Y-43835848D01*
X191320436Y-43833501D01*
X191423319Y-43841591D01*
X191520715Y-43870320D01*
X191600237Y-43941366D01*
X191619390Y-43996716D01*
X191591546Y-44097832D01*
X191502336Y-44148734D01*
X191459655Y-44163778D01*
X191362143Y-44191712D01*
X191255973Y-44219619D01*
X191151529Y-44245963D01*
X191137254Y-44249507D01*
X191032583Y-44280059D01*
X190926485Y-44323125D01*
X190837637Y-44374186D01*
X190757220Y-44442329D01*
X190725461Y-44480317D01*
X190673748Y-44579332D01*
X190648851Y-44699560D01*
X190649232Y-44824238D01*
X190663423Y-44928747D01*
X190693172Y-45043319D01*
X190738453Y-45149632D01*
X190799268Y-45247686D01*
X190839766Y-45298591D01*
X190912887Y-45373158D01*
X190994983Y-45438588D01*
X191086055Y-45494882D01*
X191186103Y-45542040D01*
X191292593Y-45579066D01*
X191389378Y-45602786D01*
X191489529Y-45618406D01*
X191593046Y-45625927D01*
X191638441Y-45626670D01*
X191738528Y-45622174D01*
X191845758Y-45606022D01*
X191945356Y-45578124D01*
X192037321Y-45538480D01*
X192048280Y-45532698D01*
X192139071Y-45475405D01*
X192222820Y-45401345D01*
X192288536Y-45316337D01*
X192304735Y-45288699D01*
X192348294Y-45184075D01*
X192367242Y-45067421D01*
X192361888Y-44978206D01*
X192335510Y-44929846D01*
X192292034Y-44909512D01*
X191932997Y-44909512D01*
X191841807Y-44949601D01*
X191837254Y-44955125D01*
X191804526Y-45012278D01*
X191727589Y-45086870D01*
X191711713Y-45096358D01*
X191616688Y-45128472D01*
X191547582Y-45133727D01*
X191449014Y-45129582D01*
X191350600Y-45113662D01*
X191253094Y-45073863D01*
X191185392Y-44994264D01*
X191176822Y-44963918D01*
X191207596Y-44872693D01*
X191297351Y-44822206D01*
X191331672Y-44810594D01*
X191431177Y-44781429D01*
X191532252Y-44753748D01*
X191597408Y-44736405D01*
X191715621Y-44707829D01*
X191824004Y-44672531D01*
X191916631Y-44628188D01*
X192003200Y-44566432D01*
X192075993Y-44482835D01*
X192082474Y-44472623D01*
X192127335Y-44371150D01*
X192148162Y-44252201D01*
X192146498Y-44131799D01*
X192132788Y-44032436D01*
X192102544Y-43919028D01*
X192054554Y-43810986D01*
X191996190Y-43718337D01*
X191973542Y-43688420D01*
X191897515Y-43604171D01*
X191810670Y-43530093D01*
X191724391Y-43472786D01*
X191703266Y-43461458D01*
X192371658Y-43461458D01*
X192605642Y-44726513D01*
X192632977Y-44847350D01*
X192668821Y-44960298D01*
X192713173Y-45065357D01*
X192766033Y-45162527D01*
X192800060Y-45214511D01*
X192864978Y-45298547D01*
X192946899Y-45383126D01*
X193037062Y-45455477D01*
X193122718Y-45508754D01*
X193148350Y-45522257D01*
X193240784Y-45562941D01*
X193337285Y-45593633D01*
X193437853Y-45614333D01*
X193542489Y-45625039D01*
X193604107Y-45626670D01*
X193710386Y-45621674D01*
X193808670Y-45606685D01*
X193911206Y-45577319D01*
X194003301Y-45534901D01*
X194024693Y-45522257D01*
X194111101Y-45455477D01*
X194181280Y-45373222D01*
X194235230Y-45275492D01*
X194258189Y-45214511D01*
X194283530Y-45107967D01*
X194294093Y-44991120D01*
X194291215Y-44880426D01*
X194277023Y-44761843D01*
X194270890Y-44726513D01*
X194104193Y-43825257D01*
X194495090Y-43825257D01*
X194495646Y-43936051D01*
X194508294Y-44031337D01*
X194511388Y-44043977D01*
X194535130Y-44140972D01*
X194579636Y-44247000D01*
X194603060Y-44285228D01*
X194669128Y-44369995D01*
X194735440Y-44431957D01*
X194666933Y-44515999D01*
X194625564Y-44620550D01*
X194624065Y-44627595D01*
X194614133Y-44744079D01*
X194624279Y-44862612D01*
X194630904Y-44902368D01*
X194631552Y-44905116D01*
X194656177Y-45009594D01*
X194697688Y-45125998D01*
X194752148Y-45233041D01*
X194819557Y-45330721D01*
X194875635Y-45394762D01*
X194965077Y-45471420D01*
X195052123Y-45522142D01*
X195148752Y-45559030D01*
X195254963Y-45582085D01*
X195370757Y-45591307D01*
X195390988Y-45591500D01*
X196330346Y-45591500D01*
X196378217Y-45566220D01*
X196388964Y-45505770D01*
X196086485Y-43870275D01*
X197059724Y-43870275D01*
X197062381Y-43987998D01*
X197077240Y-44095634D01*
X197077494Y-44096733D01*
X197102535Y-44205114D01*
X197146217Y-44329551D01*
X197203304Y-44440195D01*
X197273796Y-44537048D01*
X197357692Y-44620108D01*
X197454993Y-44689375D01*
X197519808Y-44724315D01*
X197320995Y-45485987D01*
X197318552Y-45521158D01*
X197345907Y-45570617D01*
X197392314Y-45591500D01*
X197765028Y-45591500D01*
X197834393Y-45567319D01*
X197863702Y-45504671D01*
X198040534Y-44818288D01*
X198292593Y-44818288D01*
X198419599Y-45504671D01*
X198453304Y-45566220D01*
X198509969Y-45591500D01*
X198868517Y-45591500D01*
X198916389Y-45566220D01*
X198927136Y-45505770D01*
X198648126Y-43997171D01*
X199039848Y-43997171D01*
X199040726Y-44100481D01*
X199040810Y-44110309D01*
X199049745Y-44198949D01*
X199065617Y-44308107D01*
X199084623Y-44418853D01*
X199097617Y-44490209D01*
X199119084Y-44602780D01*
X199142711Y-44717029D01*
X199156235Y-44774874D01*
X199189056Y-44891549D01*
X199232317Y-45002523D01*
X199286020Y-45107796D01*
X199350164Y-45207367D01*
X199423773Y-45298832D01*
X199506357Y-45380336D01*
X199597918Y-45451880D01*
X199685397Y-45506311D01*
X199698454Y-45513464D01*
X199792545Y-45557575D01*
X199891450Y-45590851D01*
X199995171Y-45613294D01*
X200103707Y-45624902D01*
X200167889Y-45626670D01*
X200277380Y-45621201D01*
X200378035Y-45604792D01*
X200482251Y-45572643D01*
X200574926Y-45526207D01*
X200596291Y-45512365D01*
X200682776Y-45441678D01*
X200753187Y-45358211D01*
X200807523Y-45261963D01*
X200830764Y-45202970D01*
X200860251Y-45089316D01*
X200873972Y-44968445D01*
X200872934Y-44854946D01*
X200863981Y-44766081D01*
X200846597Y-44655736D01*
X200827986Y-44544751D01*
X200817575Y-44486911D01*
X200796591Y-44378930D01*
X200773098Y-44265277D01*
X200759445Y-44201147D01*
X200726412Y-44083407D01*
X200682997Y-43971437D01*
X200629203Y-43865237D01*
X200565028Y-43764807D01*
X200491206Y-43672071D01*
X200408468Y-43589502D01*
X200328760Y-43525594D01*
X200242227Y-43469469D01*
X200227001Y-43460908D01*
X201599641Y-43460908D01*
X201661678Y-43796131D01*
X201717552Y-43887230D01*
X201736905Y-43906590D01*
X202138929Y-44291822D01*
X202039522Y-44329432D01*
X201944622Y-44385455D01*
X201867652Y-44455997D01*
X201826298Y-44511091D01*
X201777784Y-44616396D01*
X201758184Y-44725027D01*
X201761383Y-44846787D01*
X201770122Y-44905116D01*
X201801040Y-45031507D01*
X201844700Y-45146075D01*
X201901103Y-45248819D01*
X201970249Y-45339739D01*
X202052137Y-45418835D01*
X202082265Y-45442572D01*
X202179500Y-45505137D01*
X202286559Y-45554757D01*
X202383278Y-45586219D01*
X202486819Y-45608692D01*
X202597181Y-45622176D01*
X202714365Y-45626670D01*
X202819762Y-45622489D01*
X202917539Y-45609946D01*
X203019953Y-45585371D01*
X203123272Y-45544668D01*
X203133974Y-45539293D01*
X203221906Y-45485796D01*
X203301571Y-45416158D01*
X203367274Y-45327159D01*
X203376752Y-45309582D01*
X203417304Y-45200437D01*
X203430516Y-45086501D01*
X203424135Y-45007881D01*
X203397757Y-44959521D01*
X203351351Y-44939188D01*
X203006480Y-44939188D01*
X202938580Y-44957323D01*
X202885824Y-45013926D01*
X202812396Y-45088174D01*
X202789592Y-45102953D01*
X202693822Y-45130091D01*
X202623507Y-45133727D01*
X202519235Y-45124658D01*
X202423171Y-45094604D01*
X202392942Y-45078773D01*
X202314246Y-45005376D01*
X202279613Y-44916657D01*
X202291024Y-44803098D01*
X202332858Y-44754540D01*
X202428389Y-44711232D01*
X202526001Y-44699253D01*
X202542907Y-44699036D01*
X202770541Y-44699036D01*
X202817924Y-44673207D01*
X202828182Y-44611658D01*
X202776891Y-44332489D01*
X202751002Y-44274237D01*
X202697757Y-44215985D01*
X202343116Y-43868672D01*
X203058259Y-43868672D01*
X203105642Y-43843942D01*
X203116389Y-43785690D01*
X203056326Y-43461458D01*
X204063074Y-43461458D01*
X204441162Y-45505770D01*
X204474379Y-45566220D01*
X204531043Y-45591500D01*
X204889592Y-45591500D01*
X204936975Y-45565671D01*
X204947722Y-45504122D01*
X204801665Y-44712775D01*
X205409341Y-44712775D01*
X205555398Y-45504122D01*
X205588615Y-45565671D01*
X205645768Y-45591500D01*
X206004316Y-45591500D01*
X206052188Y-45567869D01*
X206062935Y-45505770D01*
X205775090Y-43949401D01*
X206120732Y-43949401D01*
X206123621Y-44063177D01*
X206130834Y-44115418D01*
X206157701Y-44164327D01*
X206203618Y-44184661D01*
X206562655Y-44184661D01*
X206619320Y-44165427D01*
X206637882Y-44090139D01*
X206665342Y-43979841D01*
X206708713Y-43908239D01*
X206794930Y-43852185D01*
X206893895Y-43834668D01*
X206933416Y-43833501D01*
X207034128Y-43843751D01*
X207128602Y-43878704D01*
X207205991Y-43938464D01*
X207272761Y-44026383D01*
X207319967Y-44123132D01*
X207348629Y-44213787D01*
X207373409Y-44328177D01*
X207394623Y-44436034D01*
X207403828Y-44485263D01*
X207423657Y-44596082D01*
X207442277Y-44711697D01*
X207448769Y-44756739D01*
X207452386Y-44874487D01*
X207427783Y-44988615D01*
X207407736Y-45029863D01*
X207332656Y-45100864D01*
X207234516Y-45130076D01*
X207173751Y-45133727D01*
X207069637Y-45124896D01*
X206969961Y-45091687D01*
X206921204Y-45058989D01*
X206847144Y-44981798D01*
X206789828Y-44890358D01*
X206783451Y-44877089D01*
X206737045Y-44802900D01*
X206673053Y-44783117D01*
X206314016Y-44783117D01*
X206275914Y-44803450D01*
X206266633Y-44852360D01*
X206298533Y-44968453D01*
X206346970Y-45079331D01*
X206403909Y-45173509D01*
X206455189Y-45241438D01*
X206532675Y-45325588D01*
X206618587Y-45400532D01*
X206712926Y-45466272D01*
X206802385Y-45516243D01*
X206815691Y-45522806D01*
X206910135Y-45563277D01*
X207006683Y-45593807D01*
X207105335Y-45614397D01*
X207206090Y-45625048D01*
X207264609Y-45626670D01*
X207371816Y-45621122D01*
X207470748Y-45604476D01*
X207573682Y-45571864D01*
X207665807Y-45524758D01*
X207670444Y-45521707D01*
X208248420Y-45521707D01*
X208275286Y-45571166D01*
X208321692Y-45591500D01*
X208666563Y-45591500D01*
X208734463Y-45567319D01*
X208757910Y-45510167D01*
X208785265Y-45240339D01*
X209513598Y-45240339D01*
X209640115Y-45510167D01*
X209684568Y-45567319D01*
X209762237Y-45591500D01*
X210107108Y-45591500D01*
X210145698Y-45570617D01*
X210154002Y-45520608D01*
X210134463Y-45473347D01*
X209168727Y-43480142D01*
X209154456Y-43461458D01*
X210046535Y-43461458D01*
X210424623Y-45505770D01*
X210457840Y-45566220D01*
X210514505Y-45591500D01*
X210873053Y-45591500D01*
X210920925Y-45566220D01*
X210931672Y-45506320D01*
X210738720Y-44463830D01*
X211091895Y-44980953D01*
X211144651Y-45037557D01*
X211207666Y-45059539D01*
X211382544Y-45059539D01*
X211437743Y-45037557D01*
X211469983Y-44980953D01*
X211631183Y-44463830D01*
X211824135Y-45506320D01*
X211857352Y-45566220D01*
X211914016Y-45591500D01*
X212272565Y-45591500D01*
X212320436Y-45566220D01*
X212331183Y-45505770D01*
X212252618Y-45080971D01*
X213203130Y-45080971D01*
X213281288Y-45504122D01*
X213314505Y-45565671D01*
X213371658Y-45591500D01*
X213730206Y-45591500D01*
X213777589Y-45565671D01*
X213788336Y-45504122D01*
X213710178Y-45080971D01*
X213676961Y-45019422D01*
X213619808Y-44993593D01*
X213261260Y-44993593D01*
X213213877Y-45019422D01*
X213203130Y-45080971D01*
X212252618Y-45080971D01*
X212044466Y-43955500D01*
X212995035Y-43955500D01*
X213073193Y-44378651D01*
X213106898Y-44440200D01*
X213163563Y-44466028D01*
X213522111Y-44466028D01*
X213569983Y-44440200D01*
X213580241Y-44378651D01*
X213509780Y-43997171D01*
X213860504Y-43997171D01*
X213861382Y-44100481D01*
X213861466Y-44110309D01*
X213870401Y-44198949D01*
X213886272Y-44308107D01*
X213905279Y-44418853D01*
X213918273Y-44490209D01*
X213939740Y-44602780D01*
X213963367Y-44717029D01*
X213976891Y-44774874D01*
X214009711Y-44891549D01*
X214052973Y-45002523D01*
X214106676Y-45107796D01*
X214170820Y-45207367D01*
X214244429Y-45298832D01*
X214327013Y-45380336D01*
X214418574Y-45451880D01*
X214506053Y-45506311D01*
X214519110Y-45513464D01*
X214613201Y-45557575D01*
X214712106Y-45590851D01*
X214815827Y-45613294D01*
X214924363Y-45624902D01*
X214988545Y-45626670D01*
X215098036Y-45621201D01*
X215198691Y-45604792D01*
X215302907Y-45572643D01*
X215395582Y-45526207D01*
X215416947Y-45512365D01*
X215503432Y-45441678D01*
X215573843Y-45358211D01*
X215628179Y-45261963D01*
X215651420Y-45202970D01*
X215680907Y-45089316D01*
X215694628Y-44968445D01*
X215693590Y-44854946D01*
X215684637Y-44766081D01*
X215667253Y-44655736D01*
X215648642Y-44544751D01*
X215638231Y-44486911D01*
X215617247Y-44378930D01*
X215593754Y-44265277D01*
X215580101Y-44201147D01*
X215547068Y-44083407D01*
X215503653Y-43971437D01*
X215478730Y-43922235D01*
X215842695Y-43922235D01*
X215845838Y-44005509D01*
X215871239Y-44055517D01*
X215919110Y-44076400D01*
X216283521Y-44076400D01*
X216335789Y-44055517D01*
X216376822Y-43989022D01*
X216440645Y-43901656D01*
X216472076Y-43875816D01*
X216570193Y-43839451D01*
X216652327Y-43833501D01*
X216761120Y-43846754D01*
X216855591Y-43886515D01*
X216935739Y-43952782D01*
X217001564Y-44045557D01*
X217053067Y-44164838D01*
X217067052Y-44210489D01*
X217093546Y-44320079D01*
X217115402Y-44429559D01*
X217121274Y-44461083D01*
X217141758Y-44576380D01*
X217159160Y-44687251D01*
X217167680Y-44756739D01*
X217170794Y-44872710D01*
X217145255Y-44986522D01*
X217124693Y-45028214D01*
X217049506Y-45100342D01*
X216952466Y-45130018D01*
X216892662Y-45133727D01*
X216790506Y-45122753D01*
X216691175Y-45085749D01*
X216624972Y-45040854D01*
X216551585Y-44956129D01*
X216502779Y-44851989D01*
X216475984Y-44747946D01*
X216706061Y-44747946D01*
X216753933Y-44723216D01*
X216764679Y-44664964D01*
X216704595Y-44337984D01*
X216671867Y-44279732D01*
X216614714Y-44255003D01*
X215951839Y-44255003D01*
X215904944Y-44280831D01*
X215894198Y-44341281D01*
X215969424Y-44749594D01*
X215995778Y-44862351D01*
X216031668Y-44968848D01*
X216077096Y-45069087D01*
X216132060Y-45163068D01*
X216167750Y-45213961D01*
X216235804Y-45296604D01*
X216310029Y-45370464D01*
X216390425Y-45435540D01*
X216476992Y-45491834D01*
X216529229Y-45520058D01*
X216623763Y-45561600D01*
X216721009Y-45592938D01*
X216820967Y-45614073D01*
X216923635Y-45625005D01*
X216983521Y-45626670D01*
X217090728Y-45621122D01*
X217189660Y-45604476D01*
X217292593Y-45571864D01*
X217384718Y-45524758D01*
X217406061Y-45510716D01*
X217492426Y-45439232D01*
X217563025Y-45355229D01*
X217617860Y-45258706D01*
X217641511Y-45199673D01*
X217671509Y-45086501D01*
X217685664Y-44966461D01*
X217684946Y-44853993D01*
X217676193Y-44766081D01*
X217658662Y-44651287D01*
X217640236Y-44540921D01*
X217635649Y-44515488D01*
X217614484Y-44406875D01*
X217591411Y-44294570D01*
X217571658Y-44201147D01*
X217540059Y-44084609D01*
X217497530Y-43973497D01*
X217444071Y-43867813D01*
X217379683Y-43767555D01*
X217305097Y-43674956D01*
X217221535Y-43592250D01*
X217141056Y-43527996D01*
X217053704Y-43471315D01*
X217036245Y-43461458D01*
X217796361Y-43461458D01*
X218174449Y-45505770D01*
X218207666Y-45566220D01*
X218264330Y-45591500D01*
X218549117Y-45591500D01*
X218616040Y-45567869D01*
X218648280Y-45519509D01*
X219076682Y-44447344D01*
X219272565Y-45506869D01*
X219305782Y-45566770D01*
X219362446Y-45591500D01*
X219720995Y-45591500D01*
X219768866Y-45566220D01*
X219776780Y-45521707D01*
X220048280Y-45521707D01*
X220075147Y-45571166D01*
X220121553Y-45591500D01*
X220466424Y-45591500D01*
X220534323Y-45567319D01*
X220557771Y-45510167D01*
X220585126Y-45240339D01*
X221313458Y-45240339D01*
X221439976Y-45510167D01*
X221484428Y-45567319D01*
X221562097Y-45591500D01*
X221906968Y-45591500D01*
X221945558Y-45570617D01*
X221953863Y-45520608D01*
X221934323Y-45473347D01*
X220968587Y-43480142D01*
X220952218Y-43458710D01*
X221501036Y-43458710D01*
X221561609Y-43785690D01*
X221594337Y-43843942D01*
X221650513Y-43868672D01*
X222132160Y-43868672D01*
X222434533Y-45505221D01*
X222468238Y-45566220D01*
X222524903Y-45591500D01*
X222883451Y-45591500D01*
X222931323Y-45566220D01*
X222941581Y-45505221D01*
X222662950Y-43997171D01*
X223999513Y-43997171D01*
X224000391Y-44100481D01*
X224000475Y-44110309D01*
X224009411Y-44198949D01*
X224025282Y-44308107D01*
X224044288Y-44418853D01*
X224057282Y-44490209D01*
X224078749Y-44602780D01*
X224102376Y-44717029D01*
X224115900Y-44774874D01*
X224148721Y-44891549D01*
X224191982Y-45002523D01*
X224245685Y-45107796D01*
X224309829Y-45207367D01*
X224383438Y-45298832D01*
X224466023Y-45380336D01*
X224557583Y-45451880D01*
X224645062Y-45506311D01*
X224658120Y-45513464D01*
X224752210Y-45557575D01*
X224851115Y-45590851D01*
X224954836Y-45613294D01*
X225063372Y-45624902D01*
X225127554Y-45626670D01*
X225237045Y-45621201D01*
X225337700Y-45604792D01*
X225441916Y-45572643D01*
X225534591Y-45526207D01*
X225555956Y-45512365D01*
X225642441Y-45441678D01*
X225712852Y-45358211D01*
X225767188Y-45261963D01*
X225790429Y-45202970D01*
X225819916Y-45089316D01*
X225833637Y-44968445D01*
X225832599Y-44854946D01*
X225823646Y-44766081D01*
X225806262Y-44655736D01*
X225787651Y-44544751D01*
X225777240Y-44486911D01*
X225756256Y-44378930D01*
X225732763Y-44265277D01*
X225719110Y-44201147D01*
X225686077Y-44083407D01*
X225642662Y-43971437D01*
X225588868Y-43865237D01*
X225524693Y-43764807D01*
X225450871Y-43672071D01*
X225368133Y-43589502D01*
X225288425Y-43525594D01*
X225201892Y-43469469D01*
X225182756Y-43458710D01*
X225770401Y-43458710D01*
X225830974Y-43785690D01*
X225863702Y-43843942D01*
X225919878Y-43868672D01*
X226401525Y-43868672D01*
X226703898Y-45505221D01*
X226737603Y-45566220D01*
X226794267Y-45591500D01*
X227152816Y-45591500D01*
X227200688Y-45566220D01*
X227210946Y-45505221D01*
X226932315Y-43997171D01*
X228268878Y-43997171D01*
X228269756Y-44100481D01*
X228269840Y-44110309D01*
X228278775Y-44198949D01*
X228294647Y-44308107D01*
X228313653Y-44418853D01*
X228326647Y-44490209D01*
X228348114Y-44602780D01*
X228371741Y-44717029D01*
X228385265Y-44774874D01*
X228418086Y-44891549D01*
X228461347Y-45002523D01*
X228515050Y-45107796D01*
X228579194Y-45207367D01*
X228652803Y-45298832D01*
X228735387Y-45380336D01*
X228826948Y-45451880D01*
X228914427Y-45506311D01*
X228927484Y-45513464D01*
X229021575Y-45557575D01*
X229120480Y-45590851D01*
X229224201Y-45613294D01*
X229332737Y-45624902D01*
X229396919Y-45626670D01*
X229506410Y-45621201D01*
X229607065Y-45604792D01*
X229711281Y-45572643D01*
X229803956Y-45526207D01*
X229825321Y-45512365D01*
X229911806Y-45441678D01*
X229982217Y-45358211D01*
X230036553Y-45261963D01*
X230059794Y-45202970D01*
X230089281Y-45089316D01*
X230103002Y-44968445D01*
X230101964Y-44854946D01*
X230093011Y-44766081D01*
X230075627Y-44655736D01*
X230057016Y-44544751D01*
X230046605Y-44486911D01*
X230025621Y-44378930D01*
X230002128Y-44265277D01*
X229988475Y-44201147D01*
X229955442Y-44083407D01*
X229912027Y-43971437D01*
X229858233Y-43865237D01*
X229794058Y-43764807D01*
X229720236Y-43672071D01*
X229637498Y-43589502D01*
X229557790Y-43525594D01*
X229471257Y-43469469D01*
X229445279Y-43454863D01*
X229432454Y-43448818D01*
X230077380Y-43448818D01*
X230085196Y-43474097D01*
X230807177Y-45471149D01*
X230867750Y-45553581D01*
X230959970Y-45591351D01*
X230966424Y-45591500D01*
X231194058Y-45591500D01*
X231275147Y-45555779D01*
X231309341Y-45472248D01*
X231383102Y-44764432D01*
X231719669Y-45472248D01*
X231784637Y-45555779D01*
X231878427Y-45591500D01*
X232106061Y-45591500D01*
X232191057Y-45553581D01*
X232220367Y-45471149D01*
X232205224Y-43474097D01*
X232203737Y-43458710D01*
X232374728Y-43458710D01*
X232435300Y-43785690D01*
X232468029Y-43843942D01*
X232524205Y-43868672D01*
X233005852Y-43868672D01*
X233308224Y-45505221D01*
X233341930Y-45566220D01*
X233398594Y-45591500D01*
X233757143Y-45591500D01*
X233805014Y-45566220D01*
X233815272Y-45505221D01*
X233512900Y-43868672D01*
X233995035Y-43868672D01*
X234042907Y-43843942D01*
X234053653Y-43785690D01*
X233993081Y-43458710D01*
X233960841Y-43400458D01*
X233904177Y-43375728D01*
X232433346Y-43375728D01*
X232385963Y-43400458D01*
X232374728Y-43458710D01*
X232203737Y-43458710D01*
X232202781Y-43448818D01*
X232175914Y-43397710D01*
X232129020Y-43375728D01*
X231770960Y-43375728D01*
X231721134Y-43396611D01*
X231701595Y-43462007D01*
X231726019Y-44541316D01*
X231456863Y-43959347D01*
X231388612Y-43876963D01*
X231345977Y-43865924D01*
X231088545Y-43865924D01*
X231015238Y-43942651D01*
X231012830Y-43959347D01*
X230959096Y-44541316D01*
X230583939Y-43462007D01*
X230540953Y-43396611D01*
X230483311Y-43375728D01*
X230124763Y-43375728D01*
X230086173Y-43397710D01*
X230077380Y-43448818D01*
X229432454Y-43448818D01*
X229350785Y-43410324D01*
X229251522Y-43376724D01*
X229147491Y-43354064D01*
X229038691Y-43342343D01*
X228974379Y-43340557D01*
X228865102Y-43346027D01*
X228764660Y-43362436D01*
X228660689Y-43394585D01*
X228568259Y-43441021D01*
X228546954Y-43454863D01*
X228460469Y-43525284D01*
X228390059Y-43608573D01*
X228335722Y-43704729D01*
X228312481Y-43763708D01*
X228282758Y-43876788D01*
X228268878Y-43997171D01*
X226932315Y-43997171D01*
X226908573Y-43868672D01*
X227390709Y-43868672D01*
X227438580Y-43843942D01*
X227449327Y-43785690D01*
X227388755Y-43458710D01*
X227356515Y-43400458D01*
X227299850Y-43375728D01*
X225829020Y-43375728D01*
X225781637Y-43400458D01*
X225770401Y-43458710D01*
X225182756Y-43458710D01*
X225175914Y-43454863D01*
X225081420Y-43410324D01*
X224982157Y-43376724D01*
X224878126Y-43354064D01*
X224769326Y-43342343D01*
X224705014Y-43340557D01*
X224595737Y-43346027D01*
X224495295Y-43362436D01*
X224391324Y-43394585D01*
X224298894Y-43441021D01*
X224277589Y-43454863D01*
X224191104Y-43525284D01*
X224120694Y-43608573D01*
X224066357Y-43704729D01*
X224043116Y-43763708D01*
X224013393Y-43876788D01*
X223999513Y-43997171D01*
X222662950Y-43997171D01*
X222639208Y-43868672D01*
X223121344Y-43868672D01*
X223169215Y-43843942D01*
X223179962Y-43785690D01*
X223119390Y-43458710D01*
X223087150Y-43400458D01*
X223030485Y-43375728D01*
X221559655Y-43375728D01*
X221512272Y-43400458D01*
X221501036Y-43458710D01*
X220952218Y-43458710D01*
X220911923Y-43405953D01*
X220826926Y-43375728D01*
X220382893Y-43375728D01*
X220309131Y-43405953D01*
X220278845Y-43480142D01*
X220133577Y-44747396D01*
X220050234Y-45474446D01*
X220048280Y-45521707D01*
X219776780Y-45521707D01*
X219779613Y-45505770D01*
X219401525Y-43461458D01*
X219368796Y-43401008D01*
X219311644Y-43375728D01*
X219026856Y-43375728D01*
X218960422Y-43399908D01*
X218928182Y-43449368D01*
X218502711Y-44541316D01*
X218302921Y-43462007D01*
X218270192Y-43401557D01*
X218213039Y-43375728D01*
X217854979Y-43375728D01*
X217807596Y-43401008D01*
X217796361Y-43461458D01*
X217036245Y-43461458D01*
X217027484Y-43456512D01*
X216932700Y-43411330D01*
X216833848Y-43377246D01*
X216730928Y-43354259D01*
X216623942Y-43342369D01*
X216560981Y-43340557D01*
X216457938Y-43345501D01*
X216348990Y-43363258D01*
X216249446Y-43393930D01*
X216159305Y-43437516D01*
X216148699Y-43443872D01*
X216060969Y-43505894D01*
X215980712Y-43584698D01*
X215918583Y-43673914D01*
X215903479Y-43702709D01*
X215862066Y-43808904D01*
X215842695Y-43922235D01*
X215478730Y-43922235D01*
X215449859Y-43865237D01*
X215385684Y-43764807D01*
X215311862Y-43672071D01*
X215229124Y-43589502D01*
X215149416Y-43525594D01*
X215062883Y-43469469D01*
X215036905Y-43454863D01*
X214942411Y-43410324D01*
X214843148Y-43376724D01*
X214739117Y-43354064D01*
X214630317Y-43342343D01*
X214566005Y-43340557D01*
X214456728Y-43346027D01*
X214356286Y-43362436D01*
X214252315Y-43394585D01*
X214159885Y-43441021D01*
X214138580Y-43454863D01*
X214052095Y-43525284D01*
X213981685Y-43608573D01*
X213927348Y-43704729D01*
X213904107Y-43763708D01*
X213874384Y-43876788D01*
X213860504Y-43997171D01*
X213509780Y-43997171D01*
X213502083Y-43955500D01*
X213468866Y-43893951D01*
X213411713Y-43868122D01*
X213053165Y-43868122D01*
X213005782Y-43893951D01*
X212995035Y-43955500D01*
X212044466Y-43955500D01*
X211953095Y-43461458D01*
X211920367Y-43401008D01*
X211863214Y-43375728D01*
X211545698Y-43375728D01*
X211457172Y-43428389D01*
X211443605Y-43462007D01*
X211162725Y-44344579D01*
X210556026Y-43462007D01*
X210481676Y-43389968D01*
X210422669Y-43375728D01*
X210105154Y-43375728D01*
X210057771Y-43401008D01*
X210046535Y-43461458D01*
X209154456Y-43461458D01*
X209112062Y-43405953D01*
X209027066Y-43375728D01*
X208583032Y-43375728D01*
X208509271Y-43405953D01*
X208478985Y-43480142D01*
X208333717Y-44747396D01*
X208250374Y-45474446D01*
X208248420Y-45521707D01*
X207670444Y-45521707D01*
X207687150Y-45510716D01*
X207773514Y-45439232D01*
X207844114Y-45355229D01*
X207898948Y-45258706D01*
X207922600Y-45199673D01*
X207952597Y-45086501D01*
X207966752Y-44966461D01*
X207966035Y-44853993D01*
X207957282Y-44766081D01*
X207939751Y-44651287D01*
X207921325Y-44540921D01*
X207916738Y-44515488D01*
X207895572Y-44406875D01*
X207872499Y-44294570D01*
X207852746Y-44201147D01*
X207821147Y-44084609D01*
X207778618Y-43973497D01*
X207725160Y-43867813D01*
X207660771Y-43767555D01*
X207586186Y-43674956D01*
X207502624Y-43592250D01*
X207422145Y-43527996D01*
X207334793Y-43471315D01*
X207308573Y-43456512D01*
X207213788Y-43411330D01*
X207114936Y-43377246D01*
X207012017Y-43354259D01*
X206905031Y-43342369D01*
X206842069Y-43340557D01*
X206741935Y-43345527D01*
X206634537Y-43363379D01*
X206534649Y-43394214D01*
X206442272Y-43438032D01*
X206431253Y-43444422D01*
X206340105Y-43508714D01*
X206263950Y-43584743D01*
X206202787Y-43672509D01*
X206175286Y-43726339D01*
X206139184Y-43829102D01*
X206120732Y-43949401D01*
X205775090Y-43949401D01*
X205684847Y-43461458D01*
X205652118Y-43401008D01*
X205594965Y-43375728D01*
X205236417Y-43375728D01*
X205189034Y-43401008D01*
X205177799Y-43460908D01*
X205317994Y-44219832D01*
X204710318Y-44219832D01*
X204570122Y-43460908D01*
X204537394Y-43401008D01*
X204480241Y-43375728D01*
X204121692Y-43375728D01*
X204074309Y-43401008D01*
X204063074Y-43461458D01*
X203056326Y-43461458D01*
X203055817Y-43458710D01*
X203023577Y-43400458D01*
X202967401Y-43375728D01*
X201657771Y-43375728D01*
X201610876Y-43401008D01*
X201599641Y-43460908D01*
X200227001Y-43460908D01*
X200216249Y-43454863D01*
X200121755Y-43410324D01*
X200022492Y-43376724D01*
X199918461Y-43354064D01*
X199809661Y-43342343D01*
X199745349Y-43340557D01*
X199636072Y-43346027D01*
X199535630Y-43362436D01*
X199431659Y-43394585D01*
X199339229Y-43441021D01*
X199317924Y-43454863D01*
X199231439Y-43525284D01*
X199161029Y-43608573D01*
X199106692Y-43704729D01*
X199083451Y-43763708D01*
X199053728Y-43876788D01*
X199039848Y-43997171D01*
X198648126Y-43997171D01*
X198549048Y-43461458D01*
X198516319Y-43401008D01*
X198459166Y-43375728D01*
X197717157Y-43375728D01*
X197607333Y-43380142D01*
X197507146Y-43393385D01*
X197399641Y-43420929D01*
X197306012Y-43461185D01*
X197214316Y-43524218D01*
X197180799Y-43556529D01*
X197117908Y-43644123D01*
X197077549Y-43748705D01*
X197059724Y-43870275D01*
X196086485Y-43870275D01*
X196010876Y-43461458D01*
X195978147Y-43401008D01*
X195920995Y-43375728D01*
X195039278Y-43375728D01*
X194929338Y-43381636D01*
X194832526Y-43399359D01*
X194739305Y-43433420D01*
X194678287Y-43470250D01*
X194601035Y-43541403D01*
X194541249Y-43633096D01*
X194513179Y-43711501D01*
X194495090Y-43825257D01*
X194104193Y-43825257D01*
X194036905Y-43461458D01*
X194004177Y-43401008D01*
X193947024Y-43375728D01*
X193588475Y-43375728D01*
X193541092Y-43401557D01*
X193529857Y-43462007D01*
X193763353Y-44724865D01*
X193776214Y-44837919D01*
X193765956Y-44951057D01*
X193735998Y-45026566D01*
X193662107Y-45099821D01*
X193560676Y-45131111D01*
X193513249Y-45133727D01*
X193410683Y-45121065D01*
X193313802Y-45078368D01*
X193251420Y-45026566D01*
X193188189Y-44942567D01*
X193140889Y-44837919D01*
X193111713Y-44724865D01*
X192878217Y-43462007D01*
X192845489Y-43401557D01*
X192788336Y-43375728D01*
X192430276Y-43375728D01*
X192382893Y-43401008D01*
X192371658Y-43461458D01*
X191703266Y-43461458D01*
X191654072Y-43435079D01*
X191554604Y-43393726D01*
X191450618Y-43364188D01*
X191342113Y-43346465D01*
X191243465Y-43340650D01*
X191229090Y-43340557D01*
X191121928Y-43346534D01*
X191021727Y-43364463D01*
X190917322Y-43398920D01*
X190842209Y-43436178D01*
X190755703Y-43493525D01*
X190675808Y-43566318D01*
X190607650Y-43657425D01*
X190597478Y-43675231D01*
X190552300Y-43782367D01*
X190534521Y-43896512D01*
X189759495Y-43896512D01*
X189754351Y-43868672D01*
X190236487Y-43868672D01*
X190284358Y-43843942D01*
X190295105Y-43785690D01*
X190234533Y-43458710D01*
X190202293Y-43400458D01*
X190145628Y-43375728D01*
X188674798Y-43375728D01*
X188627415Y-43400458D01*
X188616180Y-43458710D01*
X188366180Y-43458710D01*
X188366180Y-43090557D01*
X234303653Y-43090557D01*
X234303653Y-45876670D01*
G37*
D11*
X75425300Y-48133000D02*
X99060000Y-48133000D01*
X99060000Y-52197000D01*
X75425300Y-52197000D01*
X75425300Y-48133000D01*
G36*
X75425300Y-48133000D02*
G01*
X99060000Y-48133000D01*
X99060000Y-52197000D01*
X75425300Y-52197000D01*
X75425300Y-48133000D01*
G37*
X75869800Y-54991000D02*
X99644200Y-54991000D01*
X99644200Y-58420000D01*
X75869800Y-58420000D01*
X75869800Y-54991000D01*
G36*
X75869800Y-54991000D02*
G01*
X99644200Y-54991000D01*
X99644200Y-58420000D01*
X75869800Y-58420000D01*
X75869800Y-54991000D01*
G37*
X99275900Y-48133000D02*
X104432100Y-48133000D01*
X104432100Y-58039000D01*
X99275900Y-58039000D01*
X99275900Y-48133000D01*
G36*
X99275900Y-48133000D02*
G01*
X104432100Y-48133000D01*
X104432100Y-58039000D01*
X99275900Y-58039000D01*
X99275900Y-48133000D01*
G37*
D12*
G36*
X96062632Y-52845128D02*
G01*
X96161516Y-52881524D01*
X96225311Y-52925681D01*
X96295698Y-53002548D01*
X96345496Y-53088338D01*
X96375764Y-53169435D01*
X96402404Y-53269577D01*
X96424489Y-53365301D01*
X96433894Y-53409281D01*
X96453609Y-53510238D01*
X96469851Y-53607669D01*
X96476392Y-53654990D01*
X96478995Y-53752833D01*
X96455876Y-53849712D01*
X96427544Y-53899233D01*
X96350514Y-53961343D01*
X96255763Y-53986897D01*
X96198444Y-53990091D01*
X96093979Y-53979355D01*
X95995289Y-53943153D01*
X95931731Y-53899233D01*
X95861045Y-53822067D01*
X95811095Y-53736125D01*
X95780789Y-53654990D01*
X95754809Y-53556749D01*
X95732690Y-53461082D01*
X95721682Y-53409281D01*
X95701646Y-53307776D01*
X95685044Y-53206890D01*
X95680161Y-53169435D01*
X95677558Y-53071650D01*
X95700677Y-52974987D01*
X95729009Y-52925681D01*
X95806039Y-52863236D01*
X95900790Y-52837545D01*
X95958109Y-52834334D01*
X96062632Y-52845128D01*
G37*
G36*
X81640105Y-53646685D02*
G01*
X81196071Y-53646685D01*
X81278625Y-52977949D01*
X81640105Y-53646685D01*
G37*
G36*
X83412819Y-53302792D02*
G01*
X83075764Y-53302792D01*
X82977630Y-53292507D01*
X82882650Y-53255565D01*
X82872066Y-53249058D01*
X82800028Y-53175593D01*
X82765087Y-53084438D01*
X82764544Y-52982752D01*
X82803678Y-52919819D01*
X82891073Y-52875975D01*
X82984906Y-52865597D01*
X83321961Y-52865597D01*
X83412819Y-53302792D01*
G37*
G36*
X90624334Y-53271528D02*
G01*
X90315122Y-53271528D01*
X90209568Y-53261805D01*
X90115153Y-53226878D01*
X90042364Y-53157223D01*
X90007376Y-53068318D01*
X90007853Y-52970323D01*
X90074658Y-52894105D01*
X90183498Y-52867379D01*
X90230614Y-52865597D01*
X90539826Y-52865597D01*
X90624334Y-53271528D01*
G37*
G36*
X92650572Y-53646685D02*
G01*
X92206539Y-53646685D01*
X92289093Y-52977949D01*
X92650572Y-53646685D01*
G37*
G36*
X98260831Y-53302792D02*
G01*
X97923775Y-53302792D01*
X97825641Y-53292507D01*
X97730661Y-53255565D01*
X97720077Y-53249058D01*
X97648039Y-53175593D01*
X97613099Y-53084438D01*
X97612555Y-52982752D01*
X97651689Y-52919819D01*
X97739084Y-52875975D01*
X97832917Y-52865597D01*
X98169972Y-52865597D01*
X98260831Y-53302792D01*
G37*
G36*
X99202104Y-54650485D02*
G01*
X76397227Y-54650485D01*
X76397227Y-52501187D01*
X76619449Y-52501187D01*
X76680021Y-52791836D01*
X76712750Y-52843615D01*
X76769414Y-52865597D01*
X77612540Y-52865597D01*
X77677509Y-53177739D01*
X76894466Y-53177739D01*
X76847083Y-53199721D01*
X76835360Y-53251501D01*
X76895932Y-53542150D01*
X76929149Y-53593929D01*
X76985813Y-53615911D01*
X77768856Y-53615911D01*
X77840175Y-53958828D01*
X76975066Y-53958828D01*
X76927195Y-53980810D01*
X76915960Y-54032589D01*
X76976532Y-54323238D01*
X77009260Y-54375018D01*
X77065925Y-54397000D01*
X78363831Y-54397000D01*
X78411703Y-54374529D01*
X78422450Y-54320796D01*
X78134605Y-52937357D01*
X78480247Y-52937357D01*
X78483136Y-53038490D01*
X78490349Y-53084927D01*
X78517216Y-53128402D01*
X78563133Y-53146476D01*
X78922170Y-53146476D01*
X78978835Y-53129379D01*
X78997397Y-53062457D01*
X79024857Y-52964414D01*
X79068228Y-52900768D01*
X79154445Y-52850942D01*
X79253410Y-52835372D01*
X79292931Y-52834334D01*
X79393643Y-52843445D01*
X79488117Y-52874515D01*
X79565506Y-52927635D01*
X79632276Y-53005785D01*
X79679482Y-53091784D01*
X79708144Y-53172366D01*
X79732924Y-53274046D01*
X79754138Y-53369919D01*
X79763343Y-53413678D01*
X79783172Y-53512184D01*
X79801792Y-53614953D01*
X79808284Y-53654990D01*
X79811901Y-53759655D01*
X79787298Y-53861102D01*
X79767251Y-53897767D01*
X79692171Y-53960879D01*
X79594031Y-53986845D01*
X79533266Y-53990091D01*
X79429152Y-53982241D01*
X79329476Y-53952722D01*
X79280719Y-53923657D01*
X79206659Y-53855042D01*
X79149343Y-53773762D01*
X79142966Y-53761968D01*
X79096560Y-53696023D01*
X79032568Y-53678437D01*
X78673531Y-53678437D01*
X78635429Y-53696511D01*
X78626148Y-53739986D01*
X78658048Y-53843181D01*
X78706485Y-53941738D01*
X78763424Y-54025453D01*
X78814704Y-54085834D01*
X78892190Y-54160633D01*
X78978102Y-54227251D01*
X79072441Y-54285686D01*
X79161900Y-54330105D01*
X79175206Y-54335939D01*
X79269650Y-54371913D01*
X79366198Y-54399051D01*
X79464850Y-54417353D01*
X79565605Y-54426820D01*
X79624124Y-54428263D01*
X79731331Y-54423331D01*
X79830263Y-54408534D01*
X79933197Y-54379546D01*
X80025322Y-54337673D01*
X80029958Y-54334962D01*
X80607935Y-54334962D01*
X80634801Y-54378926D01*
X80681207Y-54397000D01*
X81026078Y-54397000D01*
X81093978Y-54375506D01*
X81117425Y-54324704D01*
X81144780Y-54084857D01*
X81873113Y-54084857D01*
X81999630Y-54324704D01*
X82044083Y-54375506D01*
X82121752Y-54397000D01*
X82466623Y-54397000D01*
X82505213Y-54378437D01*
X82513517Y-54333985D01*
X82493978Y-54291975D01*
X81724197Y-52879736D01*
X82240109Y-52879736D01*
X82243216Y-52982752D01*
X82243315Y-52986027D01*
X82258528Y-53082973D01*
X82283567Y-53179814D01*
X82324509Y-53286105D01*
X82377334Y-53381578D01*
X82442043Y-53466231D01*
X82518636Y-53540064D01*
X82561389Y-53572924D01*
X82654108Y-53630031D01*
X82755310Y-53675323D01*
X82864996Y-53708799D01*
X82962882Y-53727671D01*
X83066659Y-53738338D01*
X83153922Y-53740963D01*
X83504166Y-53740963D01*
X83624334Y-54320307D01*
X83658039Y-54374529D01*
X83714704Y-54397000D01*
X84073252Y-54397000D01*
X84121124Y-54374529D01*
X84131870Y-54320796D01*
X83834244Y-52890344D01*
X84209597Y-52890344D01*
X84213448Y-52944243D01*
X84240314Y-52987230D01*
X84284278Y-53005304D01*
X84642338Y-53005304D01*
X84700468Y-52995046D01*
X84742478Y-52958898D01*
X84769833Y-52919819D01*
X84851898Y-52860712D01*
X84949987Y-52836420D01*
X84995513Y-52834334D01*
X85098396Y-52841525D01*
X85195792Y-52867062D01*
X85275313Y-52930214D01*
X85294466Y-52979414D01*
X85266623Y-53069295D01*
X85177413Y-53114541D01*
X85134732Y-53127914D01*
X85037219Y-53152744D01*
X84931050Y-53177550D01*
X84826606Y-53200967D01*
X84812331Y-53204117D01*
X84707660Y-53231274D01*
X84601561Y-53269555D01*
X84512714Y-53314943D01*
X84432297Y-53375515D01*
X84400538Y-53409281D01*
X84348824Y-53497295D01*
X84323927Y-53604164D01*
X84324309Y-53714990D01*
X84338500Y-53807886D01*
X84368248Y-53909728D01*
X84413530Y-54004228D01*
X84474345Y-54091387D01*
X84514843Y-54136637D01*
X84587963Y-54202918D01*
X84670060Y-54261078D01*
X84761132Y-54311118D01*
X84861180Y-54353036D01*
X84967669Y-54385948D01*
X85064454Y-54407032D01*
X85164605Y-54420916D01*
X85268122Y-54427601D01*
X85313517Y-54428263D01*
X85413605Y-54424265D01*
X85520835Y-54409909D01*
X85620433Y-54385110D01*
X85712398Y-54349871D01*
X85723357Y-54344732D01*
X85814148Y-54293804D01*
X85897896Y-54227973D01*
X85963613Y-54152410D01*
X85979812Y-54127844D01*
X86023370Y-54034844D01*
X86042318Y-53931152D01*
X86036965Y-53851849D01*
X86010586Y-53808863D01*
X85967111Y-53790789D01*
X85608074Y-53790789D01*
X85516884Y-53826423D01*
X85512331Y-53831333D01*
X85479602Y-53882136D01*
X85402666Y-53948440D01*
X85386790Y-53956874D01*
X85291764Y-53985420D01*
X85222659Y-53990091D01*
X85124091Y-53986406D01*
X85025677Y-53972255D01*
X84928170Y-53936878D01*
X84860469Y-53866124D01*
X84851898Y-53839149D01*
X84882673Y-53758060D01*
X84972427Y-53713183D01*
X85006748Y-53702861D01*
X85106253Y-53676937D01*
X85207329Y-53652332D01*
X85272484Y-53636916D01*
X85390698Y-53611515D01*
X85499080Y-53580139D01*
X85591708Y-53540722D01*
X85678277Y-53485829D01*
X85751070Y-53411520D01*
X85757551Y-53402443D01*
X85802412Y-53312244D01*
X85823239Y-53206512D01*
X85821575Y-53099488D01*
X85807865Y-53011166D01*
X85777621Y-52910358D01*
X85767620Y-52890344D01*
X86687197Y-52890344D01*
X86691047Y-52944243D01*
X86717914Y-52987230D01*
X86761877Y-53005304D01*
X87119937Y-53005304D01*
X87178067Y-52995046D01*
X87220077Y-52958898D01*
X87247432Y-52919819D01*
X87329498Y-52860712D01*
X87427586Y-52836420D01*
X87473113Y-52834334D01*
X87575995Y-52841525D01*
X87673392Y-52867062D01*
X87752913Y-52930214D01*
X87772066Y-52979414D01*
X87744222Y-53069295D01*
X87655012Y-53114541D01*
X87612331Y-53127914D01*
X87514819Y-53152744D01*
X87408650Y-53177550D01*
X87304205Y-53200967D01*
X87289930Y-53204117D01*
X87185259Y-53231274D01*
X87079161Y-53269555D01*
X86990313Y-53314943D01*
X86909896Y-53375515D01*
X86878137Y-53409281D01*
X86826424Y-53497295D01*
X86801527Y-53604164D01*
X86801908Y-53714990D01*
X86816099Y-53807886D01*
X86845848Y-53909728D01*
X86891130Y-54004228D01*
X86951945Y-54091387D01*
X86992443Y-54136637D01*
X87065563Y-54202918D01*
X87147659Y-54261078D01*
X87238731Y-54311118D01*
X87338779Y-54353036D01*
X87445269Y-54385948D01*
X87542054Y-54407032D01*
X87642205Y-54420916D01*
X87745722Y-54427601D01*
X87791117Y-54428263D01*
X87891204Y-54424265D01*
X87998435Y-54409909D01*
X88098032Y-54385110D01*
X88189997Y-54349871D01*
X88200956Y-54344732D01*
X88291747Y-54293804D01*
X88375496Y-54227973D01*
X88441212Y-54152410D01*
X88457411Y-54127844D01*
X88500970Y-54034844D01*
X88519918Y-53931152D01*
X88514564Y-53851849D01*
X88488186Y-53808863D01*
X88444711Y-53790789D01*
X88085674Y-53790789D01*
X87994483Y-53826423D01*
X87989930Y-53831333D01*
X87957202Y-53882136D01*
X87880265Y-53948440D01*
X87864390Y-53956874D01*
X87769364Y-53985420D01*
X87700258Y-53990091D01*
X87601691Y-53986406D01*
X87503276Y-53972255D01*
X87405770Y-53936878D01*
X87338069Y-53866124D01*
X87329498Y-53839149D01*
X87360272Y-53758060D01*
X87450027Y-53713183D01*
X87484348Y-53702861D01*
X87583853Y-53676937D01*
X87684928Y-53652332D01*
X87750084Y-53636916D01*
X87868297Y-53611515D01*
X87976680Y-53580139D01*
X88069307Y-53540722D01*
X88155876Y-53485829D01*
X88228670Y-53411520D01*
X88235150Y-53402443D01*
X88280011Y-53312244D01*
X88300838Y-53206512D01*
X88299174Y-53099488D01*
X88285464Y-53011166D01*
X88255220Y-52910358D01*
X88207230Y-52814321D01*
X88148867Y-52731966D01*
X88126218Y-52705374D01*
X88050192Y-52630485D01*
X87963346Y-52564638D01*
X87877067Y-52513698D01*
X87855942Y-52503629D01*
X88518472Y-52503629D01*
X88896560Y-54320796D01*
X88929777Y-54374529D01*
X88986441Y-54397000D01*
X89344990Y-54397000D01*
X89392861Y-54374529D01*
X89403608Y-54320796D01*
X89101129Y-52867022D01*
X89482324Y-52867022D01*
X89484980Y-52971665D01*
X89499840Y-53067341D01*
X89500094Y-53068318D01*
X89525134Y-53164657D01*
X89568816Y-53275267D01*
X89625903Y-53373618D01*
X89696395Y-53459709D01*
X89780292Y-53533540D01*
X89877593Y-53595111D01*
X89942408Y-53626169D01*
X89743594Y-54303210D01*
X89741152Y-54334473D01*
X89768507Y-54378437D01*
X89814913Y-54397000D01*
X90187628Y-54397000D01*
X90256993Y-54375506D01*
X90286302Y-54319819D01*
X90463133Y-53709700D01*
X90715192Y-53709700D01*
X90842198Y-54319819D01*
X90875904Y-54374529D01*
X90932568Y-54397000D01*
X91291117Y-54397000D01*
X91338988Y-54374529D01*
X91346902Y-54334962D01*
X91618402Y-54334962D01*
X91645269Y-54378926D01*
X91691675Y-54397000D01*
X92036546Y-54397000D01*
X92104445Y-54375506D01*
X92127893Y-54324704D01*
X92155248Y-54084857D01*
X92883580Y-54084857D01*
X93010098Y-54324704D01*
X93054550Y-54375506D01*
X93132219Y-54397000D01*
X93477090Y-54397000D01*
X93515681Y-54378437D01*
X93523985Y-54333985D01*
X93504445Y-54291975D01*
X93363059Y-54032589D01*
X93572345Y-54032589D01*
X93632917Y-54323238D01*
X93665646Y-54375018D01*
X93721822Y-54397000D01*
X94989930Y-54397000D01*
X95037802Y-54374529D01*
X95048549Y-54320796D01*
X94769539Y-52979819D01*
X95161261Y-52979819D01*
X95162139Y-53071650D01*
X95162223Y-53080386D01*
X95171159Y-53159177D01*
X95187030Y-53256206D01*
X95206036Y-53354647D01*
X95219030Y-53418074D01*
X95240497Y-53518137D01*
X95264124Y-53619693D01*
X95277648Y-53671110D01*
X95310469Y-53774821D01*
X95353730Y-53873465D01*
X95407433Y-53967040D01*
X95471577Y-54055548D01*
X95545186Y-54136850D01*
X95627771Y-54209299D01*
X95719331Y-54272894D01*
X95806810Y-54321276D01*
X95819868Y-54327635D01*
X95913958Y-54366844D01*
X96012863Y-54396423D01*
X96116584Y-54416372D01*
X96225120Y-54426690D01*
X96289302Y-54428263D01*
X96398793Y-54423401D01*
X96499449Y-54408815D01*
X96603664Y-54380238D01*
X96696339Y-54338961D01*
X96717704Y-54326658D01*
X96804189Y-54263825D01*
X96874600Y-54189632D01*
X96928936Y-54104078D01*
X96952177Y-54051640D01*
X96981664Y-53950614D01*
X96995386Y-53843173D01*
X96994348Y-53742286D01*
X96985394Y-53663294D01*
X96968010Y-53565209D01*
X96949399Y-53466556D01*
X96938988Y-53415143D01*
X96918004Y-53319160D01*
X96894511Y-53218135D01*
X96880859Y-53161131D01*
X96847825Y-53056473D01*
X96804411Y-52956944D01*
X96760413Y-52879736D01*
X97088121Y-52879736D01*
X97091227Y-52982752D01*
X97091326Y-52986027D01*
X97106539Y-53082973D01*
X97131579Y-53179814D01*
X97172520Y-53286105D01*
X97225345Y-53381578D01*
X97290054Y-53466231D01*
X97366647Y-53540064D01*
X97409400Y-53572924D01*
X97502119Y-53630031D01*
X97603321Y-53675323D01*
X97713007Y-53708799D01*
X97810893Y-53727671D01*
X97914670Y-53738338D01*
X98001933Y-53740963D01*
X98352177Y-53740963D01*
X98472345Y-54320307D01*
X98506050Y-54374529D01*
X98562715Y-54397000D01*
X98921263Y-54397000D01*
X98969135Y-54374529D01*
X98979882Y-54320796D01*
X98601794Y-52503629D01*
X98569065Y-52449896D01*
X98511912Y-52427425D01*
X97728870Y-52427425D01*
X97622085Y-52431492D01*
X97524603Y-52443692D01*
X97419903Y-52469069D01*
X97328598Y-52506157D01*
X97239005Y-52564230D01*
X97206190Y-52593999D01*
X97144487Y-52674331D01*
X97105131Y-52769577D01*
X97088121Y-52879736D01*
X96760413Y-52879736D01*
X96750616Y-52862544D01*
X96686441Y-52773273D01*
X96612619Y-52690841D01*
X96529882Y-52617446D01*
X96450173Y-52560639D01*
X96363640Y-52510750D01*
X96337662Y-52497767D01*
X96243168Y-52458177D01*
X96143905Y-52428311D01*
X96039874Y-52408168D01*
X95931074Y-52397750D01*
X95866762Y-52396162D01*
X95757485Y-52401024D01*
X95657043Y-52415610D01*
X95553072Y-52444186D01*
X95460642Y-52485463D01*
X95439337Y-52497767D01*
X95352852Y-52560364D01*
X95282442Y-52634398D01*
X95228105Y-52719870D01*
X95204864Y-52772296D01*
X95175141Y-52872812D01*
X95161261Y-52979819D01*
X94769539Y-52979819D01*
X94670461Y-52503629D01*
X94637732Y-52449896D01*
X94580579Y-52427425D01*
X94222031Y-52427425D01*
X94174648Y-52450384D01*
X94163413Y-52504117D01*
X94466274Y-53958828D01*
X93630963Y-53958828D01*
X93583580Y-53980810D01*
X93572345Y-54032589D01*
X93363059Y-54032589D01*
X92538709Y-52520237D01*
X92482045Y-52454292D01*
X92397048Y-52427425D01*
X91953015Y-52427425D01*
X91879254Y-52454292D01*
X91848967Y-52520237D01*
X91703699Y-53646685D01*
X91620356Y-54292952D01*
X91618402Y-54334962D01*
X91346902Y-54334962D01*
X91349735Y-54320796D01*
X90971647Y-52503629D01*
X90938919Y-52449896D01*
X90881766Y-52427425D01*
X90139756Y-52427425D01*
X90029933Y-52431349D01*
X89929745Y-52443120D01*
X89822240Y-52467603D01*
X89728611Y-52503387D01*
X89636915Y-52559416D01*
X89603399Y-52588137D01*
X89540507Y-52665998D01*
X89500149Y-52758960D01*
X89482324Y-52867022D01*
X89101129Y-52867022D01*
X89025520Y-52503629D01*
X88992792Y-52449896D01*
X88935639Y-52427425D01*
X88577090Y-52427425D01*
X88529707Y-52449896D01*
X88518472Y-52503629D01*
X87855942Y-52503629D01*
X87806748Y-52480182D01*
X87707280Y-52443423D01*
X87603294Y-52417167D01*
X87494789Y-52401413D01*
X87396141Y-52396244D01*
X87381766Y-52396162D01*
X87274604Y-52401474D01*
X87174404Y-52417411D01*
X87069998Y-52448040D01*
X86994885Y-52481159D01*
X86908379Y-52532133D01*
X86828485Y-52596839D01*
X86760326Y-52677822D01*
X86750154Y-52693650D01*
X86704976Y-52788882D01*
X86687197Y-52890344D01*
X85767620Y-52890344D01*
X85729631Y-52814321D01*
X85671267Y-52731966D01*
X85648618Y-52705374D01*
X85572592Y-52630485D01*
X85485747Y-52564638D01*
X85399468Y-52513698D01*
X85329149Y-52480182D01*
X85229681Y-52443423D01*
X85125695Y-52417167D01*
X85017190Y-52401413D01*
X84918541Y-52396244D01*
X84904166Y-52396162D01*
X84797005Y-52401474D01*
X84696804Y-52417411D01*
X84592399Y-52448040D01*
X84517286Y-52481159D01*
X84430779Y-52532133D01*
X84350885Y-52596839D01*
X84282727Y-52677822D01*
X84272554Y-52693650D01*
X84227377Y-52788882D01*
X84209597Y-52890344D01*
X83834244Y-52890344D01*
X83753782Y-52503629D01*
X83721054Y-52449896D01*
X83663901Y-52427425D01*
X82880859Y-52427425D01*
X82774074Y-52431492D01*
X82676591Y-52443692D01*
X82571891Y-52469069D01*
X82480586Y-52506157D01*
X82390994Y-52564230D01*
X82358179Y-52593999D01*
X82296476Y-52674331D01*
X82257120Y-52769577D01*
X82240109Y-52879736D01*
X81724197Y-52879736D01*
X81528242Y-52520237D01*
X81471577Y-52454292D01*
X81386581Y-52427425D01*
X80942547Y-52427425D01*
X80868786Y-52454292D01*
X80838500Y-52520237D01*
X80693232Y-53646685D01*
X80609889Y-54292952D01*
X80607935Y-54334962D01*
X80029958Y-54334962D01*
X80046665Y-54325192D01*
X80133029Y-54261651D01*
X80203629Y-54186981D01*
X80258463Y-54101183D01*
X80282115Y-54048709D01*
X80312112Y-53948112D01*
X80326267Y-53841410D01*
X80325550Y-53741438D01*
X80316797Y-53663294D01*
X80299266Y-53561255D01*
X80280840Y-53463152D01*
X80276253Y-53440545D01*
X80255087Y-53344000D01*
X80232014Y-53244173D01*
X80212261Y-53161131D01*
X80180662Y-53057541D01*
X80138133Y-52958775D01*
X80084675Y-52864834D01*
X80020286Y-52775715D01*
X79945701Y-52693406D01*
X79862139Y-52619889D01*
X79781660Y-52562774D01*
X79694308Y-52512391D01*
X79668088Y-52499233D01*
X79573303Y-52459071D01*
X79474451Y-52428774D01*
X79371532Y-52408341D01*
X79264546Y-52397773D01*
X79201584Y-52396162D01*
X79101450Y-52400580D01*
X78994052Y-52416448D01*
X78894164Y-52443857D01*
X78801787Y-52482806D01*
X78790768Y-52488486D01*
X78699620Y-52545634D01*
X78623465Y-52613216D01*
X78562302Y-52691230D01*
X78534801Y-52739079D01*
X78498699Y-52830424D01*
X78480247Y-52937357D01*
X78134605Y-52937357D01*
X78044362Y-52503629D01*
X78011633Y-52449896D01*
X77954480Y-52427425D01*
X76678556Y-52427425D01*
X76630684Y-52449407D01*
X76619449Y-52501187D01*
X76397227Y-52501187D01*
X76397227Y-52173940D01*
X99202104Y-52173940D01*
X99202104Y-54650485D01*
G37*
D13*
%TO.C,SW3*%
X180534000Y-74911000D02*
X180534000Y-77571000D01*
X180534000Y-77571000D02*
X183194000Y-77571000D01*
X180594000Y-69661000D02*
X181864000Y-69661000D01*
X180594000Y-70931000D02*
X180594000Y-69661000D01*
X181484000Y-72428071D02*
X181484000Y-72041000D01*
X181484000Y-74911000D02*
X181484000Y-74513929D01*
X181484000Y-83571000D02*
X181484000Y-77571000D01*
X181544000Y-83571000D02*
X181544000Y-77571000D01*
X181664000Y-83571000D02*
X181664000Y-77571000D01*
X181784000Y-83571000D02*
X181784000Y-77571000D01*
X181904000Y-83571000D02*
X181904000Y-77571000D01*
X182024000Y-83571000D02*
X182024000Y-77571000D01*
X182144000Y-83571000D02*
X182144000Y-77571000D01*
X182244000Y-72428071D02*
X182244000Y-72041000D01*
X182244000Y-74911000D02*
X182244000Y-74513929D01*
X182244000Y-77571000D02*
X182244000Y-83571000D01*
X182244000Y-83571000D02*
X181484000Y-83571000D01*
X183194000Y-74911000D02*
X180534000Y-74911000D01*
X183194000Y-77571000D02*
X183194000Y-74911000D01*
%TO.C,SW2*%
X164532000Y-74911000D02*
X164532000Y-77571000D01*
X164532000Y-77571000D02*
X167192000Y-77571000D01*
X164592000Y-69661000D02*
X165862000Y-69661000D01*
X164592000Y-70931000D02*
X164592000Y-69661000D01*
X165482000Y-72428071D02*
X165482000Y-72041000D01*
X165482000Y-74911000D02*
X165482000Y-74513929D01*
X165482000Y-83571000D02*
X165482000Y-77571000D01*
X165542000Y-83571000D02*
X165542000Y-77571000D01*
X165662000Y-83571000D02*
X165662000Y-77571000D01*
X165782000Y-83571000D02*
X165782000Y-77571000D01*
X165902000Y-83571000D02*
X165902000Y-77571000D01*
X166022000Y-83571000D02*
X166022000Y-77571000D01*
X166142000Y-83571000D02*
X166142000Y-77571000D01*
X166242000Y-72428071D02*
X166242000Y-72041000D01*
X166242000Y-74911000D02*
X166242000Y-74513929D01*
X166242000Y-77571000D02*
X166242000Y-83571000D01*
X166242000Y-83571000D02*
X165482000Y-83571000D01*
X167192000Y-74911000D02*
X164532000Y-74911000D01*
X167192000Y-77571000D02*
X167192000Y-74911000D01*
%TD*%
%LPC*%
D14*
%TO.C,SW5*%
X241681000Y-65532000D03*
D15*
X241681000Y-60452000D03*
X241681000Y-55372000D03*
%TD*%
D16*
%TO.C,H1*%
X168427502Y-52393444D03*
%TD*%
D17*
%TO.C,BT2*%
X159461200Y-47498000D03*
D18*
X158191200Y-47498000D03*
%TD*%
D19*
%TO.C,SW1*%
X168021000Y-70931000D03*
D20*
X168021000Y-73471000D03*
%TD*%
D17*
%TO.C,BT1*%
X157327600Y-72644000D03*
D18*
X158597600Y-72644000D03*
%TD*%
D16*
%TO.C,H5*%
X121500000Y-67750000D03*
%TD*%
D21*
%TO.C,H6*%
X237236000Y-45466000D03*
%TD*%
%TO.C,H8*%
X237998000Y-74168000D03*
%TD*%
D19*
%TO.C,BR1*%
X175920400Y-65176400D03*
D20*
X175920400Y-62636400D03*
X175920400Y-60096400D03*
X175920400Y-57556400D03*
X175920400Y-55016400D03*
X175920400Y-52476400D03*
%TD*%
D19*
%TO.C,J2*%
X240152000Y-69723000D03*
D20*
X242692000Y-69723000D03*
%TD*%
D19*
%TO.C,LYRA1*%
X155508800Y-56581200D03*
D20*
X158048800Y-56581200D03*
X160588800Y-56581200D03*
X163128800Y-56581200D03*
%TD*%
D21*
%TO.C,H9*%
X242316000Y-74168000D03*
%TD*%
%TO.C,H11*%
X241808000Y-50165000D03*
%TD*%
D16*
%TO.C,H3*%
X113780646Y-53142541D03*
%TD*%
D19*
%TO.C,SW4*%
X184531000Y-71063000D03*
%TD*%
D16*
%TO.C,H4*%
X139416333Y-65335328D03*
%TD*%
D21*
%TO.C,H10*%
X241808000Y-45796200D03*
%TD*%
D16*
%TO.C,H2*%
X150532490Y-52126007D03*
%TD*%
D22*
%TO.C,GPS1*%
X108971000Y-55626000D03*
D23*
X106432547Y-55537355D03*
%TD*%
D19*
%TO.C,SW3*%
X181864000Y-70931000D03*
D20*
X181864000Y-73471000D03*
%TD*%
D24*
%TO.C,BT3*%
X100235000Y-52959000D03*
D25*
X102235000Y-52959000D03*
%TD*%
D19*
%TO.C,SW2*%
X165862000Y-70931000D03*
D20*
X165862000Y-73471000D03*
%TD*%
%LPD*%
M02*
