%TF.GenerationSoftware,KiCad,Pcbnew,8.0.0*%
%TF.CreationDate,2024-08-29T00:31:50-07:00*%
%TF.ProjectId,sled,736c6564-2e6b-4696-9361-645f70636258,rev?*%
%TF.SameCoordinates,Original*%
%TF.FileFunction,Legend,Top*%
%TF.FilePolarity,Positive*%
%FSLAX46Y46*%
G04 Gerber Fmt 4.6, Leading zero omitted, Abs format (unit mm)*
G04 Created by KiCad (PCBNEW 8.0.0) date 2024-08-29 00:31:50*
%MOMM*%
%LPD*%
G01*
G04 APERTURE LIST*
G04 Aperture macros list*
%AMRoundRect*
0 Rectangle with rounded corners*
0 $1 Rounding radius*
0 $2 $3 $4 $5 $6 $7 $8 $9 X,Y pos of 4 corners*
0 Add a 4 corners polygon primitive as box body*
4,1,4,$2,$3,$4,$5,$6,$7,$8,$9,$2,$3,0*
0 Add four circle primitives for the rounded corners*
1,1,$1+$1,$2,$3*
1,1,$1+$1,$4,$5*
1,1,$1+$1,$6,$7*
1,1,$1+$1,$8,$9*
0 Add four rect primitives between the rounded corners*
20,1,$1+$1,$2,$3,$4,$5,0*
20,1,$1+$1,$4,$5,$6,$7,0*
20,1,$1+$1,$6,$7,$8,$9,0*
20,1,$1+$1,$8,$9,$2,$3,0*%
%AMHorizOval*
0 Thick line with rounded ends*
0 $1 width*
0 $2 $3 position (X,Y) of the first rounded end (center of the circle)*
0 $4 $5 position (X,Y) of the second rounded end (center of the circle)*
0 Add line between two ends*
20,1,$1,$2,$3,$4,$5,0*
0 Add two circle primitives to create the rounded ends*
1,1,$1,$2,$3*
1,1,$1,$4,$5*%
%AMRotRect*
0 Rectangle, with rotation*
0 The origin of the aperture is its center*
0 $1 length*
0 $2 width*
0 $3 Rotation angle, in degrees counterclockwise*
0 Add horizontal line*
21,1,$1,$2,0,0,$3*%
G04 Aperture macros list end*
%ADD10C,0.150000*%
%ADD11C,0.000000*%
%ADD12C,0.500000*%
%ADD13C,0.100000*%
%ADD14C,0.300000*%
%ADD15C,0.120000*%
%ADD16C,0.250000*%
%ADD17RoundRect,0.200000X-0.200000X-0.275000X0.200000X-0.275000X0.200000X0.275000X-0.200000X0.275000X0*%
%ADD18RoundRect,0.200000X0.200000X0.275000X-0.200000X0.275000X-0.200000X-0.275000X0.200000X-0.275000X0*%
%ADD19RoundRect,0.218750X-0.218750X-0.256250X0.218750X-0.256250X0.218750X0.256250X-0.218750X0.256250X0*%
%ADD20RoundRect,0.218750X0.218750X0.256250X-0.218750X0.256250X-0.218750X-0.256250X0.218750X-0.256250X0*%
%ADD21R,3.000000X3.000000*%
%ADD22C,3.000000*%
%ADD23C,6.400000*%
%ADD24R,1.000000X1.000000*%
%ADD25O,1.000000X1.000000*%
%ADD26R,1.700000X1.700000*%
%ADD27O,1.700000X1.700000*%
%ADD28C,3.800000*%
%ADD29RotRect,1.700000X1.700000X268.000000*%
%ADD30HorizOval,1.700000X0.000000X0.000000X0.000000X0.000000X0*%
%ADD31R,1.600000X1.600000*%
%ADD32C,1.600000*%
G04 APERTURE END LIST*
D10*
X170357969Y-47748819D02*
X169881779Y-47748819D01*
X169881779Y-47748819D02*
X169881779Y-46748819D01*
X170881779Y-47272628D02*
X170881779Y-47748819D01*
X170548446Y-46748819D02*
X170881779Y-47272628D01*
X170881779Y-47272628D02*
X171215112Y-46748819D01*
X172119874Y-47748819D02*
X171786541Y-47272628D01*
X171548446Y-47748819D02*
X171548446Y-46748819D01*
X171548446Y-46748819D02*
X171929398Y-46748819D01*
X171929398Y-46748819D02*
X172024636Y-46796438D01*
X172024636Y-46796438D02*
X172072255Y-46844057D01*
X172072255Y-46844057D02*
X172119874Y-46939295D01*
X172119874Y-46939295D02*
X172119874Y-47082152D01*
X172119874Y-47082152D02*
X172072255Y-47177390D01*
X172072255Y-47177390D02*
X172024636Y-47225009D01*
X172024636Y-47225009D02*
X171929398Y-47272628D01*
X171929398Y-47272628D02*
X171548446Y-47272628D01*
X172500827Y-47463104D02*
X172977017Y-47463104D01*
X172405589Y-47748819D02*
X172738922Y-46748819D01*
X172738922Y-46748819D02*
X173072255Y-47748819D01*
X138782588Y-71942438D02*
X138687350Y-71894819D01*
X138687350Y-71894819D02*
X138544493Y-71894819D01*
X138544493Y-71894819D02*
X138401636Y-71942438D01*
X138401636Y-71942438D02*
X138306398Y-72037676D01*
X138306398Y-72037676D02*
X138258779Y-72132914D01*
X138258779Y-72132914D02*
X138211160Y-72323390D01*
X138211160Y-72323390D02*
X138211160Y-72466247D01*
X138211160Y-72466247D02*
X138258779Y-72656723D01*
X138258779Y-72656723D02*
X138306398Y-72751961D01*
X138306398Y-72751961D02*
X138401636Y-72847200D01*
X138401636Y-72847200D02*
X138544493Y-72894819D01*
X138544493Y-72894819D02*
X138639731Y-72894819D01*
X138639731Y-72894819D02*
X138782588Y-72847200D01*
X138782588Y-72847200D02*
X138830207Y-72799580D01*
X138830207Y-72799580D02*
X138830207Y-72466247D01*
X138830207Y-72466247D02*
X138639731Y-72466247D01*
X139258779Y-72894819D02*
X139258779Y-71894819D01*
X139258779Y-71894819D02*
X139639731Y-71894819D01*
X139639731Y-71894819D02*
X139734969Y-71942438D01*
X139734969Y-71942438D02*
X139782588Y-71990057D01*
X139782588Y-71990057D02*
X139830207Y-72085295D01*
X139830207Y-72085295D02*
X139830207Y-72228152D01*
X139830207Y-72228152D02*
X139782588Y-72323390D01*
X139782588Y-72323390D02*
X139734969Y-72371009D01*
X139734969Y-72371009D02*
X139639731Y-72418628D01*
X139639731Y-72418628D02*
X139258779Y-72418628D01*
X140211160Y-72847200D02*
X140354017Y-72894819D01*
X140354017Y-72894819D02*
X140592112Y-72894819D01*
X140592112Y-72894819D02*
X140687350Y-72847200D01*
X140687350Y-72847200D02*
X140734969Y-72799580D01*
X140734969Y-72799580D02*
X140782588Y-72704342D01*
X140782588Y-72704342D02*
X140782588Y-72609104D01*
X140782588Y-72609104D02*
X140734969Y-72513866D01*
X140734969Y-72513866D02*
X140687350Y-72466247D01*
X140687350Y-72466247D02*
X140592112Y-72418628D01*
X140592112Y-72418628D02*
X140401636Y-72371009D01*
X140401636Y-72371009D02*
X140306398Y-72323390D01*
X140306398Y-72323390D02*
X140258779Y-72275771D01*
X140258779Y-72275771D02*
X140211160Y-72180533D01*
X140211160Y-72180533D02*
X140211160Y-72085295D01*
X140211160Y-72085295D02*
X140258779Y-71990057D01*
X140258779Y-71990057D02*
X140306398Y-71942438D01*
X140306398Y-71942438D02*
X140401636Y-71894819D01*
X140401636Y-71894819D02*
X140639731Y-71894819D01*
X140639731Y-71894819D02*
X140782588Y-71942438D01*
X154184112Y-71008009D02*
X154326969Y-71055628D01*
X154326969Y-71055628D02*
X154374588Y-71103247D01*
X154374588Y-71103247D02*
X154422207Y-71198485D01*
X154422207Y-71198485D02*
X154422207Y-71341342D01*
X154422207Y-71341342D02*
X154374588Y-71436580D01*
X154374588Y-71436580D02*
X154326969Y-71484200D01*
X154326969Y-71484200D02*
X154231731Y-71531819D01*
X154231731Y-71531819D02*
X153850779Y-71531819D01*
X153850779Y-71531819D02*
X153850779Y-70531819D01*
X153850779Y-70531819D02*
X154184112Y-70531819D01*
X154184112Y-70531819D02*
X154279350Y-70579438D01*
X154279350Y-70579438D02*
X154326969Y-70627057D01*
X154326969Y-70627057D02*
X154374588Y-70722295D01*
X154374588Y-70722295D02*
X154374588Y-70817533D01*
X154374588Y-70817533D02*
X154326969Y-70912771D01*
X154326969Y-70912771D02*
X154279350Y-70960390D01*
X154279350Y-70960390D02*
X154184112Y-71008009D01*
X154184112Y-71008009D02*
X153850779Y-71008009D01*
X155422207Y-71531819D02*
X155088874Y-71055628D01*
X154850779Y-71531819D02*
X154850779Y-70531819D01*
X154850779Y-70531819D02*
X155231731Y-70531819D01*
X155231731Y-70531819D02*
X155326969Y-70579438D01*
X155326969Y-70579438D02*
X155374588Y-70627057D01*
X155374588Y-70627057D02*
X155422207Y-70722295D01*
X155422207Y-70722295D02*
X155422207Y-70865152D01*
X155422207Y-70865152D02*
X155374588Y-70960390D01*
X155374588Y-70960390D02*
X155326969Y-71008009D01*
X155326969Y-71008009D02*
X155231731Y-71055628D01*
X155231731Y-71055628D02*
X154850779Y-71055628D01*
D11*
G36*
X140711851Y-50567530D02*
G01*
X140720736Y-50568166D01*
X140729587Y-50569228D01*
X140738389Y-50570714D01*
X140747124Y-50572624D01*
X140755778Y-50574959D01*
X140764332Y-50577718D01*
X140772770Y-50580902D01*
X140781077Y-50584511D01*
X140789235Y-50588544D01*
X140797228Y-50593002D01*
X140805039Y-50597885D01*
X140812653Y-50603192D01*
X140820052Y-50608923D01*
X140827220Y-50615079D01*
X140834140Y-50621660D01*
X141656343Y-51443863D01*
X141662924Y-51450786D01*
X141669080Y-51457955D01*
X141674812Y-51465355D01*
X141680119Y-51472970D01*
X141685002Y-51480782D01*
X141689460Y-51488776D01*
X141693494Y-51496935D01*
X141697103Y-51505241D01*
X141700287Y-51513680D01*
X141703047Y-51522234D01*
X141705383Y-51530887D01*
X141707294Y-51539623D01*
X141708780Y-51548424D01*
X141709842Y-51557274D01*
X141710480Y-51566158D01*
X141710693Y-51575058D01*
X141710481Y-51583958D01*
X141709845Y-51592842D01*
X141708785Y-51601692D01*
X141707300Y-51610493D01*
X141705390Y-51619228D01*
X141703056Y-51627881D01*
X141700298Y-51636435D01*
X141697115Y-51644873D01*
X141693508Y-51653179D01*
X141689477Y-51661337D01*
X141685021Y-51669330D01*
X141680140Y-51677142D01*
X141674835Y-51684756D01*
X141669106Y-51692155D01*
X141662952Y-51699324D01*
X141656374Y-51706245D01*
X141341479Y-52021141D01*
X141318469Y-52043238D01*
X141294819Y-52064173D01*
X141245741Y-52102572D01*
X141194523Y-52136361D01*
X141141444Y-52165565D01*
X141086781Y-52190208D01*
X141030814Y-52210314D01*
X140973821Y-52225909D01*
X140916080Y-52237015D01*
X140857869Y-52243659D01*
X140799468Y-52245863D01*
X140741154Y-52243654D01*
X140683206Y-52237054D01*
X140625903Y-52226088D01*
X140569522Y-52210781D01*
X140514343Y-52191157D01*
X140460643Y-52167241D01*
X138347812Y-54280062D01*
X138744645Y-54676896D01*
X138748776Y-54681243D01*
X138752641Y-54685746D01*
X138756239Y-54690393D01*
X138759570Y-54695175D01*
X138762636Y-54700081D01*
X138765434Y-54705101D01*
X138767966Y-54710224D01*
X138770232Y-54715440D01*
X138772231Y-54720740D01*
X138773964Y-54726111D01*
X138775430Y-54731545D01*
X138776630Y-54737030D01*
X138777563Y-54742557D01*
X138778229Y-54748114D01*
X138778630Y-54753693D01*
X138778763Y-54759281D01*
X138778630Y-54764870D01*
X138778230Y-54770448D01*
X138777564Y-54776005D01*
X138776632Y-54781531D01*
X138775432Y-54787016D01*
X138773966Y-54792449D01*
X138772234Y-54797820D01*
X138770235Y-54803118D01*
X138767969Y-54808333D01*
X138765437Y-54813455D01*
X138762638Y-54818474D01*
X138759573Y-54823379D01*
X138756241Y-54828159D01*
X138752642Y-54832805D01*
X138748777Y-54837305D01*
X138744645Y-54841651D01*
X138086442Y-55499854D01*
X138029915Y-55552922D01*
X137970584Y-55601977D01*
X137908662Y-55646955D01*
X137844360Y-55687794D01*
X137777890Y-55724429D01*
X137709466Y-55756800D01*
X137639299Y-55784842D01*
X137567601Y-55808493D01*
X137494584Y-55827691D01*
X137420460Y-55842371D01*
X137345442Y-55852472D01*
X137269742Y-55857930D01*
X137193572Y-55858683D01*
X137117143Y-55854668D01*
X137040669Y-55845821D01*
X136964361Y-55832081D01*
X136630376Y-55761005D01*
X136619863Y-55758362D01*
X136609671Y-55754990D01*
X136599828Y-55750920D01*
X136590365Y-55746179D01*
X136581311Y-55740797D01*
X136572693Y-55734803D01*
X136564542Y-55728227D01*
X136556887Y-55721097D01*
X136549757Y-55713442D01*
X136543180Y-55705292D01*
X136537186Y-55696675D01*
X136531804Y-55687622D01*
X136527063Y-55678160D01*
X136522992Y-55668319D01*
X136519621Y-55658128D01*
X136516977Y-55647617D01*
X136445902Y-55313632D01*
X136432165Y-55237326D01*
X136423321Y-55160853D01*
X136419307Y-55084426D01*
X136420061Y-55008257D01*
X136425520Y-54932558D01*
X136435620Y-54857541D01*
X136450300Y-54783419D01*
X136469496Y-54710403D01*
X136493146Y-54638705D01*
X136521186Y-54568539D01*
X136553554Y-54500116D01*
X136590188Y-54433648D01*
X136631024Y-54369347D01*
X136676000Y-54307426D01*
X136725053Y-54248097D01*
X136778119Y-54191572D01*
X137436322Y-53533369D01*
X137440669Y-53529238D01*
X137445172Y-53525373D01*
X137449819Y-53521775D01*
X137454600Y-53518444D01*
X137459506Y-53515379D01*
X137464526Y-53512580D01*
X137469649Y-53510049D01*
X137474865Y-53507783D01*
X137480164Y-53505784D01*
X137485535Y-53504052D01*
X137490968Y-53502586D01*
X137496453Y-53501387D01*
X137501980Y-53500454D01*
X137507537Y-53499788D01*
X137513115Y-53499388D01*
X137518703Y-53499255D01*
X137524292Y-53499388D01*
X137529869Y-53499788D01*
X137535427Y-53500454D01*
X137540953Y-53501387D01*
X137546437Y-53502586D01*
X137551870Y-53504052D01*
X137557241Y-53505784D01*
X137562540Y-53507783D01*
X137567755Y-53510049D01*
X137572878Y-53512580D01*
X137577897Y-53515379D01*
X137582802Y-53518444D01*
X137587583Y-53521775D01*
X137592229Y-53525373D01*
X137596730Y-53529238D01*
X137601077Y-53533369D01*
X137997910Y-53930203D01*
X140111021Y-51817101D01*
X140086898Y-51762631D01*
X140067203Y-51706797D01*
X140051938Y-51649875D01*
X140041102Y-51592142D01*
X140034697Y-51533873D01*
X140032839Y-51478784D01*
X140403493Y-51478784D01*
X140403942Y-51497779D01*
X140405294Y-51516739D01*
X140407550Y-51535629D01*
X140410710Y-51554412D01*
X140414774Y-51573054D01*
X140419741Y-51591519D01*
X140425613Y-51609772D01*
X140432388Y-51627777D01*
X140440067Y-51645498D01*
X140448651Y-51662902D01*
X140458138Y-51679951D01*
X140468529Y-51696610D01*
X140479823Y-51712845D01*
X140492022Y-51728619D01*
X140505125Y-51743898D01*
X140519131Y-51758645D01*
X140519255Y-51758759D01*
X140519369Y-51758883D01*
X140534153Y-51772927D01*
X140549461Y-51786065D01*
X140565260Y-51798295D01*
X140581513Y-51809619D01*
X140598185Y-51820036D01*
X140615243Y-51829545D01*
X140632650Y-51838149D01*
X140650372Y-51845845D01*
X140668374Y-51852635D01*
X140686620Y-51858518D01*
X140705076Y-51863495D01*
X140723706Y-51867566D01*
X140742476Y-51870730D01*
X140761350Y-51872989D01*
X140780294Y-51874341D01*
X140799273Y-51874787D01*
X140818251Y-51874327D01*
X140837193Y-51872961D01*
X140856065Y-51870689D01*
X140874831Y-51867511D01*
X140893457Y-51863428D01*
X140911907Y-51858439D01*
X140930147Y-51852545D01*
X140948140Y-51845745D01*
X140965854Y-51838040D01*
X140983251Y-51829429D01*
X141000298Y-51819914D01*
X141016959Y-51809493D01*
X141033199Y-51798167D01*
X141048984Y-51785936D01*
X141064277Y-51772800D01*
X141079045Y-51758759D01*
X141262734Y-51575080D01*
X140702934Y-51015280D01*
X140519245Y-51198969D01*
X140505231Y-51213710D01*
X140492122Y-51228984D01*
X140479916Y-51244753D01*
X140468615Y-51260983D01*
X140458217Y-51277639D01*
X140448723Y-51294684D01*
X140440132Y-51312083D01*
X140432446Y-51329802D01*
X140425663Y-51347804D01*
X140419785Y-51366055D01*
X140414810Y-51384518D01*
X140410739Y-51403158D01*
X140407572Y-51421940D01*
X140405308Y-51440829D01*
X140403949Y-51459788D01*
X140403493Y-51478784D01*
X140032839Y-51478784D01*
X140032724Y-51475345D01*
X140035182Y-51416834D01*
X140042072Y-51358615D01*
X140053396Y-51300966D01*
X140069153Y-51244161D01*
X140089345Y-51188478D01*
X140113972Y-51134193D01*
X140127949Y-51107660D01*
X140143034Y-51081580D01*
X140159229Y-51055988D01*
X140176533Y-51030918D01*
X140194946Y-51006404D01*
X140214469Y-50982481D01*
X140235101Y-50959183D01*
X140256842Y-50936545D01*
X140571737Y-50621650D01*
X140578661Y-50615071D01*
X140585831Y-50608916D01*
X140593233Y-50603186D01*
X140600848Y-50597880D01*
X140608662Y-50592999D01*
X140616657Y-50588542D01*
X140624816Y-50584509D01*
X140633124Y-50580901D01*
X140641564Y-50577717D01*
X140650120Y-50574958D01*
X140658774Y-50572624D01*
X140667510Y-50570713D01*
X140676313Y-50569228D01*
X140685164Y-50568166D01*
X140694049Y-50567530D01*
X140702950Y-50567317D01*
X140711851Y-50567530D01*
G37*
D12*
G36*
X193803988Y-74477676D02*
G01*
X193912828Y-74507743D01*
X193979633Y-74593489D01*
X193980110Y-74703733D01*
X193945122Y-74803751D01*
X193872333Y-74882113D01*
X193777918Y-74921405D01*
X193672364Y-74932345D01*
X193363152Y-74932345D01*
X193447660Y-74475672D01*
X193756872Y-74475672D01*
X193803988Y-74477676D01*
G37*
G36*
X195735023Y-74478975D02*
G01*
X195838933Y-74505405D01*
X195925260Y-74569644D01*
X195957591Y-74622263D01*
X195982391Y-74731797D01*
X195976551Y-74847714D01*
X195974886Y-74858529D01*
X195957140Y-74971564D01*
X195937472Y-75087317D01*
X195933398Y-75108687D01*
X195910745Y-75219626D01*
X195886669Y-75333513D01*
X195868885Y-75400002D01*
X195819483Y-75513358D01*
X195751637Y-75600556D01*
X195665347Y-75661594D01*
X195560612Y-75696473D01*
X195459244Y-75705556D01*
X195166153Y-75705556D01*
X195393787Y-74475672D01*
X195672713Y-74475672D01*
X195735023Y-74478975D01*
G37*
G36*
X217737123Y-75354396D02*
G01*
X217293090Y-75354396D01*
X217654569Y-74602067D01*
X217737123Y-75354396D01*
G37*
G36*
X219760164Y-74477676D02*
G01*
X219869004Y-74507743D01*
X219935809Y-74593489D01*
X219936286Y-74703733D01*
X219901298Y-74803751D01*
X219828509Y-74882113D01*
X219734094Y-74921405D01*
X219628540Y-74932345D01*
X219319328Y-74932345D01*
X219403836Y-74475672D01*
X219713048Y-74475672D01*
X219760164Y-74477676D01*
G37*
G36*
X223074702Y-76483670D02*
G01*
X187844346Y-76483670D01*
X187844346Y-74392690D01*
X188094346Y-74392690D01*
X188105092Y-74450942D01*
X188152964Y-74475672D01*
X188635099Y-74475672D01*
X188332727Y-76112221D01*
X188342985Y-76173220D01*
X188390856Y-76198500D01*
X188749405Y-76198500D01*
X188806069Y-76173220D01*
X188839472Y-76112770D01*
X189679482Y-76112770D01*
X189690228Y-76174869D01*
X189738100Y-76198500D01*
X190096648Y-76198500D01*
X190153801Y-76172671D01*
X190187018Y-76111122D01*
X190333076Y-75319775D01*
X190940752Y-75319775D01*
X190794695Y-76111122D01*
X190805441Y-76172671D01*
X190852824Y-76198500D01*
X191211373Y-76198500D01*
X191268037Y-76173220D01*
X191301254Y-76112770D01*
X191729168Y-76112770D01*
X191739914Y-76173220D01*
X191787786Y-76198500D01*
X192146334Y-76198500D01*
X192202999Y-76173220D01*
X192236216Y-76112770D01*
X192637751Y-76112770D01*
X192648498Y-76173220D01*
X192696369Y-76198500D01*
X193054918Y-76198500D01*
X193111582Y-76173220D01*
X193145288Y-76111671D01*
X193272294Y-75425288D01*
X193524353Y-75425288D01*
X193701184Y-76111671D01*
X193730494Y-76174319D01*
X193799859Y-76198500D01*
X194172573Y-76198500D01*
X194218979Y-76177617D01*
X194246334Y-76128158D01*
X194245266Y-76112770D01*
X194583878Y-76112770D01*
X194594625Y-76173220D01*
X194642496Y-76198500D01*
X195382064Y-76198500D01*
X195443727Y-76196748D01*
X195548664Y-76185252D01*
X195649813Y-76163028D01*
X195747176Y-76130075D01*
X195840752Y-76086392D01*
X195892134Y-76056871D01*
X195977205Y-75998680D01*
X196056105Y-75932180D01*
X196128834Y-75857370D01*
X196195392Y-75774250D01*
X196230273Y-75723442D01*
X196284630Y-75630025D01*
X196330478Y-75530876D01*
X196367817Y-75425993D01*
X196396648Y-75315378D01*
X196420874Y-75204121D01*
X196443543Y-75093911D01*
X196444140Y-75090627D01*
X196462014Y-74981125D01*
X196479691Y-74865849D01*
X196491388Y-74756253D01*
X196491533Y-74637568D01*
X196477573Y-74525890D01*
X196445009Y-74408627D01*
X196438359Y-74392690D01*
X197315002Y-74392690D01*
X197325748Y-74450942D01*
X197373620Y-74475672D01*
X197855755Y-74475672D01*
X197553383Y-76112221D01*
X197563641Y-76173220D01*
X197611512Y-76198500D01*
X197970061Y-76198500D01*
X198026725Y-76173220D01*
X198060128Y-76112770D01*
X198900138Y-76112770D01*
X198910884Y-76173220D01*
X198958756Y-76198500D01*
X199317304Y-76198500D01*
X199373969Y-76173220D01*
X199407186Y-76112770D01*
X199808721Y-76112770D01*
X199819468Y-76173220D01*
X199867339Y-76198500D01*
X200225888Y-76198500D01*
X200282552Y-76173220D01*
X200315769Y-76113320D01*
X200508721Y-75070830D01*
X200669921Y-75587953D01*
X200702161Y-75644557D01*
X200757360Y-75666539D01*
X200932238Y-75666539D01*
X200995253Y-75644557D01*
X201048009Y-75587953D01*
X201401184Y-75070830D01*
X201208233Y-76113320D01*
X201218979Y-76173220D01*
X201266851Y-76198500D01*
X201625399Y-76198500D01*
X201682064Y-76173220D01*
X201715281Y-76112770D01*
X202149545Y-76112770D01*
X202160291Y-76173220D01*
X202208163Y-76198500D01*
X203506069Y-76198500D01*
X203562734Y-76173770D01*
X203595462Y-76115518D01*
X203656034Y-75788538D01*
X203644799Y-75730286D01*
X203596928Y-75705556D01*
X202731819Y-75705556D01*
X202737575Y-75674421D01*
X203924233Y-75674421D01*
X203943180Y-75791075D01*
X203986739Y-75895699D01*
X204002938Y-75923337D01*
X204068655Y-76008345D01*
X204152403Y-76082405D01*
X204243194Y-76139698D01*
X204254153Y-76145480D01*
X204346118Y-76185124D01*
X204445716Y-76213022D01*
X204552946Y-76229174D01*
X204653034Y-76233670D01*
X204698429Y-76232927D01*
X204801946Y-76225406D01*
X204902097Y-76209786D01*
X204998882Y-76186066D01*
X205105371Y-76149040D01*
X205205419Y-76101882D01*
X205296491Y-76045588D01*
X205378588Y-75980158D01*
X205451708Y-75905591D01*
X205492206Y-75854686D01*
X205553021Y-75756632D01*
X205598303Y-75650319D01*
X205628051Y-75535747D01*
X205642242Y-75431238D01*
X205642624Y-75306560D01*
X205617727Y-75186332D01*
X205566013Y-75087317D01*
X205534254Y-75049329D01*
X205453837Y-74981186D01*
X205364990Y-74930125D01*
X205258891Y-74887059D01*
X205154220Y-74856507D01*
X205139945Y-74852963D01*
X205035501Y-74826619D01*
X204929332Y-74798712D01*
X204831819Y-74770778D01*
X204789138Y-74755734D01*
X204699928Y-74704832D01*
X204672085Y-74603716D01*
X204691238Y-74548366D01*
X204770759Y-74477320D01*
X204868155Y-74448591D01*
X204971038Y-74440501D01*
X205016564Y-74442848D01*
X205114653Y-74470176D01*
X205196718Y-74536671D01*
X205224073Y-74580635D01*
X205266083Y-74621301D01*
X205324213Y-74632842D01*
X205682273Y-74632842D01*
X205726237Y-74612509D01*
X205753103Y-74564148D01*
X205756954Y-74503512D01*
X205739692Y-74392690D01*
X206541519Y-74392690D01*
X206552266Y-74450942D01*
X206600138Y-74475672D01*
X207082273Y-74475672D01*
X206779900Y-76112221D01*
X206790159Y-76173220D01*
X206838030Y-76198500D01*
X207196579Y-76198500D01*
X207253243Y-76173220D01*
X207286646Y-76112770D01*
X208126655Y-76112770D01*
X208137402Y-76174869D01*
X208185274Y-76198500D01*
X208543822Y-76198500D01*
X208600975Y-76172671D01*
X208634192Y-76111122D01*
X208780249Y-75319775D01*
X209387926Y-75319775D01*
X209241868Y-76111122D01*
X209252615Y-76172671D01*
X209299998Y-76198500D01*
X209658547Y-76198500D01*
X209715211Y-76173220D01*
X209748428Y-76112770D01*
X210176341Y-76112770D01*
X210187088Y-76173220D01*
X210234960Y-76198500D01*
X211532866Y-76198500D01*
X211589531Y-76173770D01*
X211622259Y-76115518D01*
X211682831Y-75788538D01*
X211671596Y-75730286D01*
X211623725Y-75705556D01*
X210758616Y-75705556D01*
X210783036Y-75573461D01*
X212629816Y-75573461D01*
X212643971Y-75693501D01*
X212673969Y-75806673D01*
X212697620Y-75865706D01*
X212752455Y-75962229D01*
X212823054Y-76046232D01*
X212909419Y-76117716D01*
X212930762Y-76131758D01*
X213022887Y-76178864D01*
X213125820Y-76211476D01*
X213224752Y-76228122D01*
X213331959Y-76233670D01*
X213390478Y-76232048D01*
X213491234Y-76221397D01*
X213589885Y-76200807D01*
X213686433Y-76170277D01*
X213780877Y-76129806D01*
X213794184Y-76123243D01*
X213812933Y-76112770D01*
X214533634Y-76112770D01*
X214544381Y-76174869D01*
X214592252Y-76198500D01*
X214950801Y-76198500D01*
X215007953Y-76172671D01*
X215041170Y-76111122D01*
X215187228Y-75319775D01*
X215794904Y-75319775D01*
X215648847Y-76111122D01*
X215659593Y-76172671D01*
X215706976Y-76198500D01*
X216065525Y-76198500D01*
X216122189Y-76173220D01*
X216147253Y-76127608D01*
X216419677Y-76127608D01*
X216427981Y-76177617D01*
X216466572Y-76198500D01*
X216811443Y-76198500D01*
X216889112Y-76174319D01*
X216933564Y-76117167D01*
X217060082Y-75847339D01*
X217788414Y-75847339D01*
X217815769Y-76117167D01*
X217839217Y-76174319D01*
X217907116Y-76198500D01*
X218251987Y-76198500D01*
X218298393Y-76178166D01*
X218325260Y-76128707D01*
X218324601Y-76112770D01*
X218593927Y-76112770D01*
X218604674Y-76173220D01*
X218652545Y-76198500D01*
X219011094Y-76198500D01*
X219067758Y-76173220D01*
X219101464Y-76111671D01*
X219228470Y-75425288D01*
X219480528Y-75425288D01*
X219657360Y-76111671D01*
X219686669Y-76174319D01*
X219756034Y-76198500D01*
X220128749Y-76198500D01*
X220175155Y-76177617D01*
X220202510Y-76128158D01*
X220201442Y-76112770D01*
X220540054Y-76112770D01*
X220550801Y-76173220D01*
X220598672Y-76198500D01*
X220957221Y-76198500D01*
X221013885Y-76173220D01*
X221047102Y-76113320D01*
X221240054Y-75070830D01*
X221401254Y-75587953D01*
X221433494Y-75644557D01*
X221488693Y-75666539D01*
X221663571Y-75666539D01*
X221726586Y-75644557D01*
X221779342Y-75587953D01*
X222132517Y-75070830D01*
X221939565Y-76113320D01*
X221950312Y-76173220D01*
X221998184Y-76198500D01*
X222356732Y-76198500D01*
X222413397Y-76173220D01*
X222446614Y-76112770D01*
X222824702Y-74068458D01*
X222813466Y-74008008D01*
X222766083Y-73982728D01*
X222448568Y-73982728D01*
X222389560Y-73996968D01*
X222315211Y-74069007D01*
X221708512Y-74951579D01*
X221427632Y-74069007D01*
X221414065Y-74035389D01*
X221325539Y-73982728D01*
X221008023Y-73982728D01*
X220950870Y-74008008D01*
X220918142Y-74068458D01*
X220540054Y-76112770D01*
X220201442Y-76112770D01*
X220200068Y-76092987D01*
X220001254Y-75331315D01*
X220066069Y-75296375D01*
X220163370Y-75227108D01*
X220247267Y-75144048D01*
X220317759Y-75047195D01*
X220374846Y-74936551D01*
X220418528Y-74812114D01*
X220443822Y-74702634D01*
X220458682Y-74594998D01*
X220461338Y-74477275D01*
X220443513Y-74355705D01*
X220403155Y-74251123D01*
X220340263Y-74163529D01*
X220306747Y-74131218D01*
X220215051Y-74068185D01*
X220121422Y-74027929D01*
X220013917Y-74000385D01*
X219913729Y-73987142D01*
X219803906Y-73982728D01*
X219061896Y-73982728D01*
X219004743Y-74008008D01*
X218972015Y-74068458D01*
X218812242Y-74932345D01*
X218593927Y-76112770D01*
X218324601Y-76112770D01*
X218323306Y-76081446D01*
X218094695Y-74087142D01*
X218064408Y-74012953D01*
X217990647Y-73982728D01*
X217546614Y-73982728D01*
X217461617Y-74012953D01*
X217404953Y-74087142D01*
X216790951Y-75354396D01*
X216439217Y-76080347D01*
X216419677Y-76127608D01*
X216147253Y-76127608D01*
X216155406Y-76112770D01*
X216533494Y-74068458D01*
X216522259Y-74008008D01*
X216474876Y-73982728D01*
X216116327Y-73982728D01*
X216059175Y-74008008D01*
X216026446Y-74067908D01*
X215886251Y-74826832D01*
X215278575Y-74826832D01*
X215418770Y-74067908D01*
X215407535Y-74008008D01*
X215360152Y-73982728D01*
X215001603Y-73982728D01*
X214944450Y-74008008D01*
X214911722Y-74068458D01*
X214533634Y-76112770D01*
X213812933Y-76112770D01*
X213883643Y-76073272D01*
X213977981Y-76007532D01*
X214063894Y-75932588D01*
X214141380Y-75848438D01*
X214192659Y-75780509D01*
X214249598Y-75686331D01*
X214298036Y-75575453D01*
X214329935Y-75459360D01*
X214320654Y-75410450D01*
X214282552Y-75390117D01*
X213923515Y-75390117D01*
X213859524Y-75409900D01*
X213813117Y-75484089D01*
X213806740Y-75497358D01*
X213749424Y-75588798D01*
X213675364Y-75665989D01*
X213626607Y-75698687D01*
X213526931Y-75731896D01*
X213422817Y-75740727D01*
X213362052Y-75737076D01*
X213263913Y-75707864D01*
X213188833Y-75636863D01*
X213168786Y-75595615D01*
X213144182Y-75481487D01*
X213147800Y-75363739D01*
X213154291Y-75318697D01*
X213172911Y-75203082D01*
X213192741Y-75092263D01*
X213201945Y-75043034D01*
X213223160Y-74935177D01*
X213247939Y-74820787D01*
X213276602Y-74730132D01*
X213323807Y-74633383D01*
X213390577Y-74545464D01*
X213467966Y-74485704D01*
X213562440Y-74450751D01*
X213663152Y-74440501D01*
X213702674Y-74441668D01*
X213801638Y-74459185D01*
X213887856Y-74515239D01*
X213931226Y-74586841D01*
X213958686Y-74697139D01*
X213977249Y-74772427D01*
X214033913Y-74791661D01*
X214392950Y-74791661D01*
X214438868Y-74771327D01*
X214465734Y-74722418D01*
X214472947Y-74670177D01*
X214475837Y-74556401D01*
X214457385Y-74436102D01*
X214421282Y-74333339D01*
X214393781Y-74279509D01*
X214332618Y-74191743D01*
X214256463Y-74115714D01*
X214165316Y-74051422D01*
X214154297Y-74045032D01*
X214061919Y-74001214D01*
X213962032Y-73970379D01*
X213854633Y-73952527D01*
X213754499Y-73947557D01*
X213691538Y-73949369D01*
X213584551Y-73961259D01*
X213481632Y-73984246D01*
X213382780Y-74018330D01*
X213287995Y-74063512D01*
X213261775Y-74078315D01*
X213174424Y-74134996D01*
X213093944Y-74199250D01*
X213010383Y-74281956D01*
X212935797Y-74374555D01*
X212871409Y-74474813D01*
X212817950Y-74580497D01*
X212775421Y-74691609D01*
X212743822Y-74808147D01*
X212724069Y-74901570D01*
X212700996Y-75013875D01*
X212679831Y-75122488D01*
X212675243Y-75147921D01*
X212656818Y-75258287D01*
X212639286Y-75373081D01*
X212630534Y-75460993D01*
X212629816Y-75573461D01*
X210783036Y-75573461D01*
X210829935Y-75319775D01*
X211612978Y-75319775D01*
X211669642Y-75295045D01*
X211702859Y-75236793D01*
X211763431Y-74909813D01*
X211751708Y-74851561D01*
X211704325Y-74826832D01*
X210921282Y-74826832D01*
X210986251Y-74475672D01*
X211829377Y-74475672D01*
X211886041Y-74450942D01*
X211918770Y-74392690D01*
X211979342Y-74065710D01*
X211968107Y-74007458D01*
X211920235Y-73982728D01*
X210644311Y-73982728D01*
X210587158Y-74008008D01*
X210554429Y-74068458D01*
X210176341Y-76112770D01*
X209748428Y-76112770D01*
X210126516Y-74068458D01*
X210115281Y-74008008D01*
X210067898Y-73982728D01*
X209709349Y-73982728D01*
X209652196Y-74008008D01*
X209619468Y-74067908D01*
X209479272Y-74826832D01*
X208871596Y-74826832D01*
X209011792Y-74067908D01*
X209000556Y-74008008D01*
X208953173Y-73982728D01*
X208594625Y-73982728D01*
X208537472Y-74008008D01*
X208504743Y-74068458D01*
X208126655Y-76112770D01*
X207286646Y-76112770D01*
X207286949Y-76112221D01*
X207589321Y-74475672D01*
X208070968Y-74475672D01*
X208127144Y-74450942D01*
X208159872Y-74392690D01*
X208220445Y-74065710D01*
X208209210Y-74007458D01*
X208161826Y-73982728D01*
X206690996Y-73982728D01*
X206634332Y-74007458D01*
X206602092Y-74065710D01*
X206541519Y-74392690D01*
X205739692Y-74392690D01*
X205739174Y-74389367D01*
X205693997Y-74282231D01*
X205683824Y-74264425D01*
X205615666Y-74173318D01*
X205535772Y-74100525D01*
X205449265Y-74043178D01*
X205374152Y-74005920D01*
X205269747Y-73971463D01*
X205169546Y-73953534D01*
X205062385Y-73947557D01*
X205048010Y-73947650D01*
X204949361Y-73953465D01*
X204840856Y-73971188D01*
X204736870Y-74000726D01*
X204637402Y-74042079D01*
X204567083Y-74079786D01*
X204480804Y-74137093D01*
X204393959Y-74211171D01*
X204317933Y-74295420D01*
X204295284Y-74325337D01*
X204236920Y-74417986D01*
X204188930Y-74526028D01*
X204158686Y-74639436D01*
X204144976Y-74738799D01*
X204143312Y-74859201D01*
X204164139Y-74978150D01*
X204209000Y-75079623D01*
X204215481Y-75089835D01*
X204288274Y-75173432D01*
X204374843Y-75235188D01*
X204467471Y-75279531D01*
X204575853Y-75314829D01*
X204694066Y-75343405D01*
X204759222Y-75360748D01*
X204860298Y-75388429D01*
X204959803Y-75417594D01*
X204994124Y-75429206D01*
X205083878Y-75479693D01*
X205114653Y-75570918D01*
X205106082Y-75601264D01*
X205038381Y-75680863D01*
X204940874Y-75720662D01*
X204842460Y-75736582D01*
X204743892Y-75740727D01*
X204674787Y-75735472D01*
X204579761Y-75703358D01*
X204563885Y-75693870D01*
X204486949Y-75619278D01*
X204454220Y-75562125D01*
X204449667Y-75556601D01*
X204358477Y-75516512D01*
X203999440Y-75516512D01*
X203955965Y-75536846D01*
X203929586Y-75585206D01*
X203924233Y-75674421D01*
X202737575Y-75674421D01*
X202803138Y-75319775D01*
X203586181Y-75319775D01*
X203642845Y-75295045D01*
X203676062Y-75236793D01*
X203736635Y-74909813D01*
X203724911Y-74851561D01*
X203677528Y-74826832D01*
X202894485Y-74826832D01*
X202959454Y-74475672D01*
X203802580Y-74475672D01*
X203859244Y-74450942D01*
X203891973Y-74392690D01*
X203952545Y-74065710D01*
X203941310Y-74007458D01*
X203893438Y-73982728D01*
X202617514Y-73982728D01*
X202560361Y-74008008D01*
X202527632Y-74068458D01*
X202149545Y-76112770D01*
X201715281Y-76112770D01*
X202093369Y-74068458D01*
X202082133Y-74008008D01*
X202034750Y-73982728D01*
X201717235Y-73982728D01*
X201658228Y-73996968D01*
X201583878Y-74069007D01*
X200977179Y-74951579D01*
X200696300Y-74069007D01*
X200682732Y-74035389D01*
X200594206Y-73982728D01*
X200276690Y-73982728D01*
X200219538Y-74008008D01*
X200186809Y-74068458D01*
X199808721Y-76112770D01*
X199407186Y-76112770D01*
X199785274Y-74068458D01*
X199774039Y-74008008D01*
X199726655Y-73982728D01*
X199368107Y-73982728D01*
X199310954Y-74008008D01*
X199278226Y-74068458D01*
X198900138Y-76112770D01*
X198060128Y-76112770D01*
X198060431Y-76112221D01*
X198362803Y-74475672D01*
X198844450Y-74475672D01*
X198900626Y-74450942D01*
X198933355Y-74392690D01*
X198993927Y-74065710D01*
X198982692Y-74007458D01*
X198935309Y-73982728D01*
X197464478Y-73982728D01*
X197407814Y-74007458D01*
X197375574Y-74065710D01*
X197315002Y-74392690D01*
X196438359Y-74392690D01*
X196419690Y-74347946D01*
X196361914Y-74249675D01*
X196288451Y-74165488D01*
X196199300Y-74095385D01*
X196177446Y-74081743D01*
X196084039Y-74035976D01*
X195981044Y-74004292D01*
X195883061Y-73988119D01*
X195777737Y-73982728D01*
X195051847Y-73982728D01*
X194994695Y-74008008D01*
X194961966Y-74068458D01*
X194659191Y-75705556D01*
X194583878Y-76112770D01*
X194245266Y-76112770D01*
X194243892Y-76092987D01*
X194045078Y-75331315D01*
X194109893Y-75296375D01*
X194207195Y-75227108D01*
X194291091Y-75144048D01*
X194361583Y-75047195D01*
X194418670Y-74936551D01*
X194462352Y-74812114D01*
X194487646Y-74702634D01*
X194502506Y-74594998D01*
X194505162Y-74477275D01*
X194487337Y-74355705D01*
X194446979Y-74251123D01*
X194384087Y-74163529D01*
X194350571Y-74131218D01*
X194258875Y-74068185D01*
X194165246Y-74027929D01*
X194057741Y-74000385D01*
X193957554Y-73987142D01*
X193847730Y-73982728D01*
X193105720Y-73982728D01*
X193048568Y-74008008D01*
X193015839Y-74068458D01*
X192856066Y-74932345D01*
X192637751Y-76112770D01*
X192236216Y-76112770D01*
X192614304Y-74068458D01*
X192603069Y-74008008D01*
X192555685Y-73982728D01*
X192197137Y-73982728D01*
X192139984Y-74008008D01*
X192107256Y-74068458D01*
X191729168Y-76112770D01*
X191301254Y-76112770D01*
X191679342Y-74068458D01*
X191668107Y-74008008D01*
X191620724Y-73982728D01*
X191262175Y-73982728D01*
X191205023Y-74008008D01*
X191172294Y-74067908D01*
X191032099Y-74826832D01*
X190424422Y-74826832D01*
X190564618Y-74067908D01*
X190553383Y-74008008D01*
X190506000Y-73982728D01*
X190147451Y-73982728D01*
X190090298Y-74008008D01*
X190057570Y-74068458D01*
X189679482Y-76112770D01*
X188839472Y-76112770D01*
X188839775Y-76112221D01*
X189142147Y-74475672D01*
X189623794Y-74475672D01*
X189679970Y-74450942D01*
X189712699Y-74392690D01*
X189773271Y-74065710D01*
X189762036Y-74007458D01*
X189714653Y-73982728D01*
X188243822Y-73982728D01*
X188187158Y-74007458D01*
X188154918Y-74065710D01*
X188094346Y-74392690D01*
X187844346Y-74392690D01*
X187844346Y-73697557D01*
X223074702Y-73697557D01*
X223074702Y-76483670D01*
G37*
D13*
X75946000Y-48641000D02*
X96774000Y-48641000D01*
X96774000Y-52070000D01*
X75946000Y-52070000D01*
X75946000Y-48641000D01*
G36*
X75946000Y-48641000D02*
G01*
X96774000Y-48641000D01*
X96774000Y-52070000D01*
X75946000Y-52070000D01*
X75946000Y-48641000D01*
G37*
X96520000Y-50165000D02*
X98171000Y-50165000D01*
X98171000Y-56515000D01*
X96520000Y-56515000D01*
X96520000Y-50165000D01*
G36*
X96520000Y-50165000D02*
G01*
X98171000Y-50165000D01*
X98171000Y-56515000D01*
X96520000Y-56515000D01*
X96520000Y-50165000D01*
G37*
X76263500Y-54546500D02*
X97091500Y-54546500D01*
X97091500Y-57975500D01*
X76263500Y-57975500D01*
X76263500Y-54546500D01*
G36*
X76263500Y-54546500D02*
G01*
X97091500Y-54546500D01*
X97091500Y-57975500D01*
X76263500Y-57975500D01*
X76263500Y-54546500D01*
G37*
X73279000Y-49784000D02*
X76708000Y-49784000D01*
X76708000Y-56134000D01*
X73279000Y-56134000D01*
X73279000Y-49784000D01*
G36*
X73279000Y-49784000D02*
G01*
X76708000Y-49784000D01*
X76708000Y-56134000D01*
X73279000Y-56134000D01*
X73279000Y-49784000D01*
G37*
D12*
G36*
X92034404Y-52854113D02*
G01*
X92129155Y-52883016D01*
X92206185Y-52953266D01*
X92234517Y-53008736D01*
X92257636Y-53117481D01*
X92255034Y-53227489D01*
X92250151Y-53269626D01*
X92233548Y-53383123D01*
X92213512Y-53497317D01*
X92202504Y-53555592D01*
X92180385Y-53663217D01*
X92154406Y-53773739D01*
X92124099Y-53865016D01*
X92074149Y-53961701D01*
X92003464Y-54048512D01*
X91939905Y-54097923D01*
X91841216Y-54138649D01*
X91736750Y-54150727D01*
X91679432Y-54147134D01*
X91584681Y-54118386D01*
X91507651Y-54048512D01*
X91479318Y-53992801D01*
X91456199Y-53883812D01*
X91458802Y-53773739D01*
X91465344Y-53720503D01*
X91481585Y-53610892D01*
X91501300Y-53497317D01*
X91510705Y-53447839D01*
X91532790Y-53340149D01*
X91559430Y-53227489D01*
X91589698Y-53136256D01*
X91639496Y-53039742D01*
X91709884Y-52953266D01*
X91773678Y-52903589D01*
X91872562Y-52862644D01*
X91977085Y-52850501D01*
X92034404Y-52854113D01*
G37*
G36*
X78155915Y-52897347D02*
G01*
X78243310Y-52946671D01*
X78282444Y-53017471D01*
X78281900Y-53131868D01*
X78246960Y-53234417D01*
X78174922Y-53317065D01*
X78164338Y-53324386D01*
X78069358Y-53365945D01*
X77971224Y-53377516D01*
X77634168Y-53377516D01*
X77725027Y-52885672D01*
X78062082Y-52885672D01*
X78155915Y-52897347D01*
G37*
G36*
X83477434Y-53764396D02*
G01*
X83033401Y-53764396D01*
X83394880Y-53012067D01*
X83477434Y-53764396D01*
G37*
G36*
X94052883Y-52887676D02*
G01*
X94161723Y-52917743D01*
X94228528Y-53003489D01*
X94229004Y-53113733D01*
X94194017Y-53213751D01*
X94121227Y-53292113D01*
X94026812Y-53331405D01*
X93921258Y-53342345D01*
X93612047Y-53342345D01*
X93696555Y-52885672D01*
X94005766Y-52885672D01*
X94052883Y-52887676D01*
G37*
G36*
X97045997Y-54893670D02*
G01*
X76665117Y-54893670D01*
X76665117Y-54522770D01*
X76915117Y-54522770D01*
X76925864Y-54583220D01*
X76973736Y-54608500D01*
X77332284Y-54608500D01*
X77388949Y-54583220D01*
X77422351Y-54522770D01*
X78835843Y-54522770D01*
X78846590Y-54583220D01*
X78894461Y-54608500D01*
X80162570Y-54608500D01*
X80218746Y-54583770D01*
X80251475Y-54525518D01*
X80251984Y-54522770D01*
X80524050Y-54522770D01*
X80534796Y-54583220D01*
X80582668Y-54608500D01*
X81880575Y-54608500D01*
X81937239Y-54583770D01*
X81963174Y-54537608D01*
X82159988Y-54537608D01*
X82168293Y-54587617D01*
X82206883Y-54608500D01*
X82551754Y-54608500D01*
X82629423Y-54584319D01*
X82673875Y-54527167D01*
X82800393Y-54257339D01*
X83528725Y-54257339D01*
X83556080Y-54527167D01*
X83579528Y-54584319D01*
X83647427Y-54608500D01*
X83992298Y-54608500D01*
X84038704Y-54588166D01*
X84065571Y-54538707D01*
X84063617Y-54491446D01*
X84016959Y-54084421D01*
X84272220Y-54084421D01*
X84291168Y-54201075D01*
X84334727Y-54305699D01*
X84350925Y-54333337D01*
X84416642Y-54418345D01*
X84500391Y-54492405D01*
X84591182Y-54549698D01*
X84602141Y-54555480D01*
X84694106Y-54595124D01*
X84793703Y-54623022D01*
X84900934Y-54639174D01*
X85001021Y-54643670D01*
X85046416Y-54642927D01*
X85149933Y-54635406D01*
X85250084Y-54619786D01*
X85346869Y-54596066D01*
X85453359Y-54559040D01*
X85530308Y-54522770D01*
X86182668Y-54522770D01*
X86193415Y-54583220D01*
X86241286Y-54608500D01*
X87539193Y-54608500D01*
X87595857Y-54583770D01*
X87628586Y-54525518D01*
X87635508Y-54488149D01*
X88822445Y-54488149D01*
X88851754Y-54570581D01*
X88936750Y-54608500D01*
X89164385Y-54608500D01*
X89258174Y-54572779D01*
X89323143Y-54489248D01*
X89659709Y-53781432D01*
X89733471Y-54489248D01*
X89767665Y-54572779D01*
X89848753Y-54608500D01*
X90076387Y-54608500D01*
X90082841Y-54608351D01*
X90175062Y-54570581D01*
X90235634Y-54488149D01*
X90417374Y-53985445D01*
X90939809Y-53985445D01*
X90953530Y-54106316D01*
X90983017Y-54219970D01*
X91006258Y-54278963D01*
X91060595Y-54375211D01*
X91131005Y-54458678D01*
X91217490Y-54529365D01*
X91238856Y-54543207D01*
X91331530Y-54589643D01*
X91435746Y-54621792D01*
X91536401Y-54638201D01*
X91645892Y-54643670D01*
X91710074Y-54641902D01*
X91818610Y-54630294D01*
X91922331Y-54607851D01*
X92021237Y-54574575D01*
X92115327Y-54530464D01*
X92128385Y-54523311D01*
X92129254Y-54522770D01*
X92886646Y-54522770D01*
X92897392Y-54583220D01*
X92945264Y-54608500D01*
X93303812Y-54608500D01*
X93360477Y-54583220D01*
X93394182Y-54521671D01*
X93521189Y-53835288D01*
X93773247Y-53835288D01*
X93950079Y-54521671D01*
X93979388Y-54584319D01*
X94048753Y-54608500D01*
X94421468Y-54608500D01*
X94467874Y-54587617D01*
X94495229Y-54538158D01*
X94494161Y-54522770D01*
X94832773Y-54522770D01*
X94843519Y-54583220D01*
X94891391Y-54608500D01*
X95249939Y-54608500D01*
X95306604Y-54583770D01*
X95339821Y-54523869D01*
X95475131Y-53790774D01*
X95854685Y-54536509D01*
X95896695Y-54591464D01*
X95953847Y-54608500D01*
X96389088Y-54608500D01*
X96435494Y-54588166D01*
X96462849Y-54539806D01*
X96460407Y-54505185D01*
X95929912Y-53464344D01*
X96781342Y-52517475D01*
X96795997Y-52482854D01*
X96789646Y-52419656D01*
X96752033Y-52392728D01*
X96325096Y-52392728D01*
X96255732Y-52411963D01*
X96201998Y-52463620D01*
X95591879Y-53160445D01*
X95717420Y-52479557D01*
X95706674Y-52418557D01*
X95659290Y-52392728D01*
X95300742Y-52392728D01*
X95243589Y-52418008D01*
X95210861Y-52478458D01*
X94832773Y-54522770D01*
X94494161Y-54522770D01*
X94492787Y-54502987D01*
X94293973Y-53741315D01*
X94358788Y-53706375D01*
X94456089Y-53637108D01*
X94539986Y-53554048D01*
X94610477Y-53457195D01*
X94667564Y-53346551D01*
X94711247Y-53222114D01*
X94736541Y-53112634D01*
X94751401Y-53004998D01*
X94754057Y-52887275D01*
X94736232Y-52765705D01*
X94695874Y-52661123D01*
X94632982Y-52573529D01*
X94599465Y-52541218D01*
X94507769Y-52478185D01*
X94414140Y-52437929D01*
X94306635Y-52410385D01*
X94206448Y-52397142D01*
X94096625Y-52392728D01*
X93354615Y-52392728D01*
X93297462Y-52418008D01*
X93264734Y-52478458D01*
X93104961Y-53342345D01*
X92886646Y-54522770D01*
X92129254Y-54522770D01*
X92215863Y-54468880D01*
X92307424Y-54397336D01*
X92390008Y-54315832D01*
X92463617Y-54224367D01*
X92527761Y-54124796D01*
X92581464Y-54019523D01*
X92624726Y-53908549D01*
X92657546Y-53791874D01*
X92671070Y-53734029D01*
X92694698Y-53619780D01*
X92716164Y-53507209D01*
X92729159Y-53435853D01*
X92748165Y-53325107D01*
X92764036Y-53215949D01*
X92772972Y-53127309D01*
X92773933Y-53014171D01*
X92760053Y-52893788D01*
X92730330Y-52780708D01*
X92707089Y-52721729D01*
X92652753Y-52625573D01*
X92582342Y-52542284D01*
X92495857Y-52471863D01*
X92474553Y-52458021D01*
X92382122Y-52411585D01*
X92278151Y-52379436D01*
X92177709Y-52363027D01*
X92068432Y-52357557D01*
X92004120Y-52359343D01*
X91895320Y-52371064D01*
X91791289Y-52393724D01*
X91692026Y-52427324D01*
X91597532Y-52471863D01*
X91571554Y-52486469D01*
X91485021Y-52542594D01*
X91405313Y-52606502D01*
X91322576Y-52689071D01*
X91248753Y-52781807D01*
X91184578Y-52882237D01*
X91130784Y-52988437D01*
X91087370Y-53100407D01*
X91054336Y-53218147D01*
X91040683Y-53282277D01*
X91017190Y-53395930D01*
X90996206Y-53503911D01*
X90985795Y-53561751D01*
X90967185Y-53672736D01*
X90949800Y-53783081D01*
X90940847Y-53871946D01*
X90940738Y-53883812D01*
X90939809Y-53985445D01*
X90417374Y-53985445D01*
X90957616Y-52491097D01*
X90965431Y-52465818D01*
X90956639Y-52414710D01*
X90918048Y-52392728D01*
X90559500Y-52392728D01*
X90501859Y-52413611D01*
X90458872Y-52479007D01*
X90083715Y-53558316D01*
X90029981Y-52976347D01*
X90027573Y-52959651D01*
X89954266Y-52882924D01*
X89696834Y-52882924D01*
X89654199Y-52893963D01*
X89585948Y-52976347D01*
X89316792Y-53558316D01*
X89341217Y-52479007D01*
X89321677Y-52413611D01*
X89271852Y-52392728D01*
X88913792Y-52392728D01*
X88866897Y-52414710D01*
X88840030Y-52465818D01*
X88837588Y-52491097D01*
X88822445Y-54488149D01*
X87635508Y-54488149D01*
X87689158Y-54198538D01*
X87677923Y-54140286D01*
X87630051Y-54115556D01*
X86764943Y-54115556D01*
X86836262Y-53729775D01*
X87619304Y-53729775D01*
X87675969Y-53705045D01*
X87709186Y-53646793D01*
X87769758Y-53319813D01*
X87758034Y-53261561D01*
X87710651Y-53236832D01*
X86927609Y-53236832D01*
X86992577Y-52885672D01*
X87835704Y-52885672D01*
X87892368Y-52860942D01*
X87925096Y-52802690D01*
X87985669Y-52475710D01*
X87974434Y-52417458D01*
X87926562Y-52392728D01*
X86650637Y-52392728D01*
X86593484Y-52418008D01*
X86560756Y-52478458D01*
X86182668Y-54522770D01*
X85530308Y-54522770D01*
X85553407Y-54511882D01*
X85644479Y-54455588D01*
X85726575Y-54390158D01*
X85799695Y-54315591D01*
X85840193Y-54264686D01*
X85901008Y-54166632D01*
X85946290Y-54060319D01*
X85976039Y-53945747D01*
X85990229Y-53841238D01*
X85990611Y-53716560D01*
X85965714Y-53596332D01*
X85914001Y-53497317D01*
X85882242Y-53459329D01*
X85801825Y-53391186D01*
X85712977Y-53340125D01*
X85606879Y-53297059D01*
X85502207Y-53266507D01*
X85487933Y-53262963D01*
X85383488Y-53236619D01*
X85277319Y-53208712D01*
X85179807Y-53180778D01*
X85137125Y-53165734D01*
X85047916Y-53114832D01*
X85020072Y-53013716D01*
X85039225Y-52958366D01*
X85118746Y-52887320D01*
X85216143Y-52858591D01*
X85319025Y-52850501D01*
X85364552Y-52852848D01*
X85462640Y-52880176D01*
X85544706Y-52946671D01*
X85572061Y-52990635D01*
X85614071Y-53031301D01*
X85672200Y-53042842D01*
X86030260Y-53042842D01*
X86074224Y-53022509D01*
X86101091Y-52974148D01*
X86104941Y-52913512D01*
X86087161Y-52799367D01*
X86041984Y-52692231D01*
X86031812Y-52674425D01*
X85963653Y-52583318D01*
X85883759Y-52510525D01*
X85797253Y-52453178D01*
X85722140Y-52415920D01*
X85617734Y-52381463D01*
X85517534Y-52363534D01*
X85410372Y-52357557D01*
X85395997Y-52357650D01*
X85297349Y-52363465D01*
X85188844Y-52381188D01*
X85084857Y-52410726D01*
X84985390Y-52452079D01*
X84915071Y-52489786D01*
X84828792Y-52547093D01*
X84741946Y-52621171D01*
X84665920Y-52705420D01*
X84643271Y-52735337D01*
X84584908Y-52827986D01*
X84536918Y-52936028D01*
X84506674Y-53049436D01*
X84492964Y-53148799D01*
X84491300Y-53269201D01*
X84512127Y-53388150D01*
X84556988Y-53489623D01*
X84563468Y-53499835D01*
X84636262Y-53583432D01*
X84722830Y-53645188D01*
X84815458Y-53689531D01*
X84923840Y-53724829D01*
X85042054Y-53753405D01*
X85107210Y-53770748D01*
X85208285Y-53798429D01*
X85307790Y-53827594D01*
X85342111Y-53839206D01*
X85431866Y-53889693D01*
X85462640Y-53980918D01*
X85454069Y-54011264D01*
X85386368Y-54090863D01*
X85288862Y-54130662D01*
X85190447Y-54146582D01*
X85091879Y-54150727D01*
X85022774Y-54145472D01*
X84927748Y-54113358D01*
X84911872Y-54103870D01*
X84834936Y-54029278D01*
X84802207Y-53972125D01*
X84797655Y-53966601D01*
X84706464Y-53926512D01*
X84347427Y-53926512D01*
X84303952Y-53946846D01*
X84277574Y-53995206D01*
X84272220Y-54084421D01*
X84016959Y-54084421D01*
X83835006Y-52497142D01*
X83804720Y-52422953D01*
X83730958Y-52392728D01*
X83286925Y-52392728D01*
X83201928Y-52422953D01*
X83145264Y-52497142D01*
X82531262Y-53764396D01*
X82179528Y-54490347D01*
X82159988Y-54537608D01*
X81963174Y-54537608D01*
X81969967Y-54525518D01*
X82030540Y-54198538D01*
X82019304Y-54140286D01*
X81971433Y-54115556D01*
X81106325Y-54115556D01*
X81177644Y-53729775D01*
X81960686Y-53729775D01*
X82017351Y-53705045D01*
X82050568Y-53646793D01*
X82111140Y-53319813D01*
X82099416Y-53261561D01*
X82052033Y-53236832D01*
X81268990Y-53236832D01*
X81333959Y-52885672D01*
X82177085Y-52885672D01*
X82233750Y-52860942D01*
X82266478Y-52802690D01*
X82327050Y-52475710D01*
X82315815Y-52417458D01*
X82267944Y-52392728D01*
X80992019Y-52392728D01*
X80934866Y-52418008D01*
X80902138Y-52478458D01*
X80524050Y-54522770D01*
X80251984Y-54522770D01*
X80312047Y-54198538D01*
X80300812Y-54140286D01*
X80253429Y-54115556D01*
X79418118Y-54115556D01*
X79720979Y-52479007D01*
X79709744Y-52418557D01*
X79662361Y-52392728D01*
X79303812Y-52392728D01*
X79246660Y-52418008D01*
X79213931Y-52478458D01*
X78835843Y-54522770D01*
X77422351Y-54522770D01*
X77422654Y-54522221D01*
X77542822Y-53870459D01*
X77893066Y-53870459D01*
X77980329Y-53867505D01*
X78084106Y-53855505D01*
X78181992Y-53834274D01*
X78291678Y-53796613D01*
X78392880Y-53745660D01*
X78485599Y-53681415D01*
X78528352Y-53644448D01*
X78604945Y-53561384D01*
X78669654Y-53466150D01*
X78722479Y-53358743D01*
X78763420Y-53239166D01*
X78788460Y-53130220D01*
X78803673Y-53021156D01*
X78806878Y-52901578D01*
X78789868Y-52777649D01*
X78750512Y-52670498D01*
X78688809Y-52580124D01*
X78655994Y-52546634D01*
X78566401Y-52481302D01*
X78475096Y-52439577D01*
X78370396Y-52411029D01*
X78272914Y-52397303D01*
X78166129Y-52392728D01*
X77383087Y-52392728D01*
X77325934Y-52418008D01*
X77293205Y-52478458D01*
X77126928Y-53377516D01*
X76915117Y-54522770D01*
X76665117Y-54522770D01*
X76665117Y-52107557D01*
X97045997Y-52107557D01*
X97045997Y-54893670D01*
G37*
G36*
X182598592Y-43837113D02*
G01*
X182693343Y-43866016D01*
X182770373Y-43936266D01*
X182798705Y-43991736D01*
X182821824Y-44100481D01*
X182819221Y-44210489D01*
X182814338Y-44252626D01*
X182797736Y-44366123D01*
X182777700Y-44480317D01*
X182766692Y-44538592D01*
X182744573Y-44646217D01*
X182718593Y-44756739D01*
X182688287Y-44848016D01*
X182638337Y-44944701D01*
X182567651Y-45031512D01*
X182504093Y-45080923D01*
X182405403Y-45121649D01*
X182300938Y-45133727D01*
X182243619Y-45130134D01*
X182148868Y-45101386D01*
X182071838Y-45031512D01*
X182043506Y-44975801D01*
X182020387Y-44866812D01*
X182022990Y-44756739D01*
X182029531Y-44703503D01*
X182045773Y-44593892D01*
X182065488Y-44480317D01*
X182074893Y-44430839D01*
X182096978Y-44323149D01*
X182123618Y-44210489D01*
X182153886Y-44119256D01*
X182203684Y-44022742D01*
X182274071Y-43936266D01*
X182337866Y-43886589D01*
X182436750Y-43845644D01*
X182541273Y-43833501D01*
X182598592Y-43837113D01*
G37*
G36*
X186867957Y-43837113D02*
G01*
X186962708Y-43866016D01*
X187039738Y-43936266D01*
X187068070Y-43991736D01*
X187091189Y-44100481D01*
X187088586Y-44210489D01*
X187083703Y-44252626D01*
X187067101Y-44366123D01*
X187047065Y-44480317D01*
X187036057Y-44538592D01*
X187013938Y-44646217D01*
X186987958Y-44756739D01*
X186957652Y-44848016D01*
X186907702Y-44944701D01*
X186837016Y-45031512D01*
X186773458Y-45080923D01*
X186674768Y-45121649D01*
X186570303Y-45133727D01*
X186512984Y-45130134D01*
X186418233Y-45101386D01*
X186341203Y-45031512D01*
X186312871Y-44975801D01*
X186289752Y-44866812D01*
X186292355Y-44756739D01*
X186298896Y-44703503D01*
X186315138Y-44593892D01*
X186334853Y-44480317D01*
X186344258Y-44430839D01*
X186366343Y-44323149D01*
X186392983Y-44210489D01*
X186423251Y-44119256D01*
X186473049Y-44022742D01*
X186543436Y-43936266D01*
X186607231Y-43886589D01*
X186706115Y-43845644D01*
X186810638Y-43833501D01*
X186867957Y-43837113D01*
G37*
G36*
X197006966Y-43837113D02*
G01*
X197101717Y-43866016D01*
X197178747Y-43936266D01*
X197207079Y-43991736D01*
X197230198Y-44100481D01*
X197227595Y-44210489D01*
X197222713Y-44252626D01*
X197206110Y-44366123D01*
X197186074Y-44480317D01*
X197175066Y-44538592D01*
X197152947Y-44646217D01*
X197126967Y-44756739D01*
X197096661Y-44848016D01*
X197046711Y-44944701D01*
X196976025Y-45031512D01*
X196912467Y-45080923D01*
X196813777Y-45121649D01*
X196709312Y-45133727D01*
X196651993Y-45130134D01*
X196557242Y-45101386D01*
X196480212Y-45031512D01*
X196451880Y-44975801D01*
X196428761Y-44866812D01*
X196431364Y-44756739D01*
X196437905Y-44703503D01*
X196454147Y-44593892D01*
X196473862Y-44480317D01*
X196483267Y-44430839D01*
X196505352Y-44323149D01*
X196531992Y-44210489D01*
X196562260Y-44119256D01*
X196612058Y-44022742D01*
X196682445Y-43936266D01*
X196746240Y-43886589D01*
X196845124Y-43845644D01*
X196949647Y-43833501D01*
X197006966Y-43837113D01*
G37*
G36*
X202194498Y-43834384D02*
G01*
X202293436Y-43858642D01*
X202366953Y-43934068D01*
X202386096Y-43989125D01*
X202397798Y-44100131D01*
X202388935Y-44214886D01*
X202383325Y-44257610D01*
X202365373Y-44370040D01*
X202344972Y-44483614D01*
X202334830Y-44537994D01*
X202312436Y-44651209D01*
X202288307Y-44758387D01*
X202269561Y-44832499D01*
X202226765Y-44941927D01*
X202165209Y-45035359D01*
X202118223Y-45078395D01*
X202023768Y-45122104D01*
X201926339Y-45133727D01*
X201898499Y-45132858D01*
X201799089Y-45108998D01*
X201724106Y-45034809D01*
X201704445Y-44980129D01*
X201692811Y-44870177D01*
X201702613Y-44756739D01*
X201709849Y-44711186D01*
X201728991Y-44593386D01*
X201748531Y-44480317D01*
X201757159Y-44435286D01*
X201780026Y-44321714D01*
X201803241Y-44210489D01*
X201823630Y-44136164D01*
X201867938Y-44026491D01*
X201929270Y-43932968D01*
X201975615Y-43889451D01*
X202069419Y-43845254D01*
X202166674Y-43833501D01*
X202194498Y-43834384D01*
G37*
G36*
X204867492Y-43834384D02*
G01*
X204966430Y-43858642D01*
X205039947Y-43934068D01*
X205059090Y-43989125D01*
X205070792Y-44100131D01*
X205061929Y-44214886D01*
X205056319Y-44257610D01*
X205038367Y-44370040D01*
X205017965Y-44483614D01*
X205007824Y-44537994D01*
X204985429Y-44651209D01*
X204961301Y-44758387D01*
X204942554Y-44832499D01*
X204899758Y-44941927D01*
X204838203Y-45035359D01*
X204791216Y-45078395D01*
X204696762Y-45122104D01*
X204599333Y-45133727D01*
X204571492Y-45132858D01*
X204472083Y-45108998D01*
X204397100Y-45034809D01*
X204377438Y-44980129D01*
X204365804Y-44870177D01*
X204375607Y-44756739D01*
X204382842Y-44711186D01*
X204401985Y-44593386D01*
X204421524Y-44480317D01*
X204430153Y-44435286D01*
X204453020Y-44321714D01*
X204476235Y-44210489D01*
X204496624Y-44136164D01*
X204540931Y-44026491D01*
X204602264Y-43932968D01*
X204648609Y-43889451D01*
X204742413Y-43845254D01*
X204839668Y-43833501D01*
X204867492Y-43834384D01*
G37*
G36*
X206794079Y-43834384D02*
G01*
X206893018Y-43858642D01*
X206966535Y-43934068D01*
X206985677Y-43989125D01*
X206997379Y-44100131D01*
X206988517Y-44214886D01*
X206982907Y-44257610D01*
X206964955Y-44370040D01*
X206944553Y-44483614D01*
X206934411Y-44537994D01*
X206912017Y-44651209D01*
X206887889Y-44758387D01*
X206869142Y-44832499D01*
X206826346Y-44941927D01*
X206764790Y-45035359D01*
X206717804Y-45078395D01*
X206623349Y-45122104D01*
X206525921Y-45133727D01*
X206498080Y-45132858D01*
X206398670Y-45108998D01*
X206323688Y-45034809D01*
X206304026Y-44980129D01*
X206292392Y-44870177D01*
X206302194Y-44756739D01*
X206309430Y-44711186D01*
X206328572Y-44593386D01*
X206348112Y-44480317D01*
X206356740Y-44435286D01*
X206379608Y-44321714D01*
X206402822Y-44210489D01*
X206423212Y-44136164D01*
X206467519Y-44026491D01*
X206528852Y-43932968D01*
X206575197Y-43889451D01*
X206669000Y-43845254D01*
X206766256Y-43833501D01*
X206794079Y-43834384D01*
G37*
G36*
X208720667Y-43834384D02*
G01*
X208819605Y-43858642D01*
X208893122Y-43934068D01*
X208912265Y-43989125D01*
X208923967Y-44100131D01*
X208915104Y-44214886D01*
X208909494Y-44257610D01*
X208891542Y-44370040D01*
X208871140Y-44483614D01*
X208860999Y-44537994D01*
X208838605Y-44651209D01*
X208814476Y-44758387D01*
X208795730Y-44832499D01*
X208752934Y-44941927D01*
X208691378Y-45035359D01*
X208644392Y-45078395D01*
X208549937Y-45122104D01*
X208452508Y-45133727D01*
X208424667Y-45132858D01*
X208325258Y-45108998D01*
X208250275Y-45034809D01*
X208230614Y-44980129D01*
X208218980Y-44870177D01*
X208228782Y-44756739D01*
X208236017Y-44711186D01*
X208255160Y-44593386D01*
X208274699Y-44480317D01*
X208283328Y-44435286D01*
X208306195Y-44321714D01*
X208329410Y-44210489D01*
X208349799Y-44136164D01*
X208394107Y-44026491D01*
X208455439Y-43932968D01*
X208501784Y-43889451D01*
X208595588Y-43845254D01*
X208692843Y-43833501D01*
X208720667Y-43834384D01*
G37*
G36*
X218926296Y-43837113D02*
G01*
X219021047Y-43866016D01*
X219098077Y-43936266D01*
X219126409Y-43991736D01*
X219149528Y-44100481D01*
X219146926Y-44210489D01*
X219142043Y-44252626D01*
X219125440Y-44366123D01*
X219105404Y-44480317D01*
X219094396Y-44538592D01*
X219072277Y-44646217D01*
X219046297Y-44756739D01*
X219015991Y-44848016D01*
X218966041Y-44944701D01*
X218895355Y-45031512D01*
X218831797Y-45080923D01*
X218733108Y-45121649D01*
X218628642Y-45133727D01*
X218571323Y-45130134D01*
X218476572Y-45101386D01*
X218399542Y-45031512D01*
X218371210Y-44975801D01*
X218348091Y-44866812D01*
X218350694Y-44756739D01*
X218357235Y-44703503D01*
X218373477Y-44593892D01*
X218393192Y-44480317D01*
X218402597Y-44430839D01*
X218424682Y-44323149D01*
X218451322Y-44210489D01*
X218481590Y-44119256D01*
X218531388Y-44022742D01*
X218601775Y-43936266D01*
X218665570Y-43886589D01*
X218764454Y-43845644D01*
X218868977Y-43833501D01*
X218926296Y-43837113D01*
G37*
G36*
X190970582Y-44747396D02*
G01*
X190526549Y-44747396D01*
X190888028Y-43995067D01*
X190970582Y-44747396D01*
G37*
G36*
X220944775Y-43870676D02*
G01*
X221053615Y-43900743D01*
X221120420Y-43986489D01*
X221120896Y-44096733D01*
X221085908Y-44196751D01*
X221013119Y-44275113D01*
X220918704Y-44314405D01*
X220813150Y-44325345D01*
X220503939Y-44325345D01*
X220588447Y-43868672D01*
X220897658Y-43868672D01*
X220944775Y-43870676D01*
G37*
G36*
X223456189Y-44714802D02*
G01*
X223543785Y-44766081D01*
X223560119Y-44794966D01*
X223567721Y-44905116D01*
X223553400Y-44955584D01*
X223492006Y-45044701D01*
X223448599Y-45075363D01*
X223350345Y-45098556D01*
X222898984Y-45098556D01*
X222970792Y-44712225D01*
X223422152Y-44712225D01*
X223456189Y-44714802D01*
G37*
G36*
X223575577Y-43869799D02*
G01*
X223666884Y-43914833D01*
X223677955Y-43933439D01*
X223685446Y-44043977D01*
X223675615Y-44083166D01*
X223619012Y-44173120D01*
X223584207Y-44197463D01*
X223486144Y-44219282D01*
X223061650Y-44219282D01*
X223126618Y-43868672D01*
X223551113Y-43868672D01*
X223575577Y-43869799D01*
G37*
G36*
X230339494Y-46087696D02*
G01*
X177303346Y-46087696D01*
X177303346Y-45767354D01*
X202843227Y-45767354D01*
X202852508Y-45816814D01*
X202891099Y-45837696D01*
X203096263Y-45837696D01*
X203164370Y-45817921D01*
X203233527Y-45734382D01*
X203565697Y-45091412D01*
X203573025Y-45068881D01*
X203564720Y-45016124D01*
X203526130Y-44993593D01*
X203189075Y-44993593D01*
X203101147Y-45030962D01*
X203047903Y-45120538D01*
X202844692Y-45760760D01*
X202843227Y-45767354D01*
X177303346Y-45767354D01*
X177303346Y-43785690D01*
X177553346Y-43785690D01*
X177564092Y-43843942D01*
X177611964Y-43868672D01*
X178094099Y-43868672D01*
X177791727Y-45505221D01*
X177801985Y-45566220D01*
X177849856Y-45591500D01*
X178208405Y-45591500D01*
X178265069Y-45566220D01*
X178298775Y-45505221D01*
X178305070Y-45471149D01*
X179386632Y-45471149D01*
X179415942Y-45553581D01*
X179500938Y-45591500D01*
X179728572Y-45591500D01*
X179822362Y-45555779D01*
X179887330Y-45472248D01*
X180223897Y-44764432D01*
X180297658Y-45472248D01*
X180331852Y-45555779D01*
X180412941Y-45591500D01*
X180640575Y-45591500D01*
X180647029Y-45591351D01*
X180739249Y-45553581D01*
X180799822Y-45471149D01*
X180981561Y-44968445D01*
X181503997Y-44968445D01*
X181517718Y-45089316D01*
X181547205Y-45202970D01*
X181570446Y-45261963D01*
X181624782Y-45358211D01*
X181695193Y-45441678D01*
X181781678Y-45512365D01*
X181803043Y-45526207D01*
X181895718Y-45572643D01*
X181999934Y-45604792D01*
X182100589Y-45621201D01*
X182210080Y-45626670D01*
X182274262Y-45624902D01*
X182382798Y-45613294D01*
X182486519Y-45590851D01*
X182585424Y-45557575D01*
X182679515Y-45513464D01*
X182692572Y-45506311D01*
X182780051Y-45451880D01*
X182871612Y-45380336D01*
X182954196Y-45298832D01*
X183027805Y-45207367D01*
X183091949Y-45107796D01*
X183145652Y-45002523D01*
X183188913Y-44891549D01*
X183221734Y-44774874D01*
X183235258Y-44717029D01*
X183258885Y-44602780D01*
X183280352Y-44490209D01*
X183293346Y-44418853D01*
X183312352Y-44308107D01*
X183328224Y-44198949D01*
X183337159Y-44110309D01*
X183338121Y-43997171D01*
X183324241Y-43876788D01*
X183300296Y-43785690D01*
X184157672Y-43785690D01*
X184168419Y-43843942D01*
X184216290Y-43868672D01*
X184698426Y-43868672D01*
X184396053Y-45505221D01*
X184406311Y-45566220D01*
X184454183Y-45591500D01*
X184812732Y-45591500D01*
X184869396Y-45566220D01*
X184903101Y-45505221D01*
X185002277Y-44968445D01*
X185773362Y-44968445D01*
X185787083Y-45089316D01*
X185816570Y-45202970D01*
X185839811Y-45261963D01*
X185894147Y-45358211D01*
X185964558Y-45441678D01*
X186051043Y-45512365D01*
X186072408Y-45526207D01*
X186165083Y-45572643D01*
X186269299Y-45604792D01*
X186369954Y-45621201D01*
X186479445Y-45626670D01*
X186543627Y-45624902D01*
X186652163Y-45613294D01*
X186755884Y-45590851D01*
X186854789Y-45557575D01*
X186948879Y-45513464D01*
X186961937Y-45506311D01*
X187049416Y-45451880D01*
X187140976Y-45380336D01*
X187223561Y-45298832D01*
X187297170Y-45207367D01*
X187361314Y-45107796D01*
X187415017Y-45002523D01*
X187458278Y-44891549D01*
X187491099Y-44774874D01*
X187504623Y-44717029D01*
X187528250Y-44602780D01*
X187549717Y-44490209D01*
X187562711Y-44418853D01*
X187581717Y-44308107D01*
X187597588Y-44198949D01*
X187606524Y-44110309D01*
X187607486Y-43997171D01*
X187593606Y-43876788D01*
X187569661Y-43785690D01*
X188427037Y-43785690D01*
X188437784Y-43843942D01*
X188485655Y-43868672D01*
X188967791Y-43868672D01*
X188665418Y-45505221D01*
X188675676Y-45566220D01*
X188723548Y-45591500D01*
X189082096Y-45591500D01*
X189138761Y-45566220D01*
X189163964Y-45520608D01*
X189653136Y-45520608D01*
X189661441Y-45570617D01*
X189700031Y-45591500D01*
X190044902Y-45591500D01*
X190122571Y-45567319D01*
X190167023Y-45510167D01*
X190293541Y-45240339D01*
X191021873Y-45240339D01*
X191049228Y-45510167D01*
X191072676Y-45567319D01*
X191140575Y-45591500D01*
X191485446Y-45591500D01*
X191531852Y-45571166D01*
X191558719Y-45521707D01*
X191558060Y-45505770D01*
X191827386Y-45505770D01*
X191838133Y-45566220D01*
X191886004Y-45591500D01*
X192244553Y-45591500D01*
X192301217Y-45566770D01*
X192334434Y-45506869D01*
X192530317Y-44447344D01*
X192958719Y-45519509D01*
X192990959Y-45567869D01*
X193057882Y-45591500D01*
X193342669Y-45591500D01*
X193399333Y-45566220D01*
X193432550Y-45505770D01*
X193532293Y-44966461D01*
X193921335Y-44966461D01*
X193935490Y-45086501D01*
X193965488Y-45199673D01*
X193989139Y-45258706D01*
X194043974Y-45355229D01*
X194114573Y-45439232D01*
X194200938Y-45510716D01*
X194222281Y-45524758D01*
X194314406Y-45571864D01*
X194417339Y-45604476D01*
X194516271Y-45621122D01*
X194623478Y-45626670D01*
X194683364Y-45625005D01*
X194786032Y-45614073D01*
X194885990Y-45592938D01*
X194983236Y-45561600D01*
X195077770Y-45520058D01*
X195130007Y-45491834D01*
X195216574Y-45435540D01*
X195296970Y-45370464D01*
X195371195Y-45296604D01*
X195439249Y-45213961D01*
X195474939Y-45163068D01*
X195529903Y-45069087D01*
X195575331Y-44968848D01*
X195575467Y-44968445D01*
X195912371Y-44968445D01*
X195926092Y-45089316D01*
X195955579Y-45202970D01*
X195978820Y-45261963D01*
X196033156Y-45358211D01*
X196103567Y-45441678D01*
X196190052Y-45512365D01*
X196211417Y-45526207D01*
X196304092Y-45572643D01*
X196408308Y-45604792D01*
X196508963Y-45621201D01*
X196618454Y-45626670D01*
X196682636Y-45624902D01*
X196791172Y-45613294D01*
X196894893Y-45590851D01*
X196993798Y-45557575D01*
X197087889Y-45513464D01*
X197100946Y-45506311D01*
X197104464Y-45504122D01*
X197818663Y-45504122D01*
X197829410Y-45565671D01*
X197876793Y-45591500D01*
X198235341Y-45591500D01*
X198292494Y-45565671D01*
X198325711Y-45504122D01*
X198403869Y-45080971D01*
X198400215Y-45060047D01*
X199275043Y-45060047D01*
X199287621Y-45174967D01*
X199322711Y-45284303D01*
X199327014Y-45293895D01*
X199386321Y-45391619D01*
X199459269Y-45468062D01*
X199550345Y-45532698D01*
X199647121Y-45578124D01*
X199743849Y-45606022D01*
X199850652Y-45622174D01*
X199952369Y-45626670D01*
X199966566Y-45626580D01*
X200064293Y-45620900D01*
X200172431Y-45603590D01*
X200276784Y-45574738D01*
X200377351Y-45534347D01*
X200472453Y-45482621D01*
X200559923Y-45420316D01*
X200639760Y-45347432D01*
X200711964Y-45263970D01*
X200774887Y-45170719D01*
X200826392Y-45068469D01*
X200866478Y-44957220D01*
X200869017Y-44946572D01*
X201181551Y-44946572D01*
X201188690Y-45070716D01*
X201210013Y-45185239D01*
X201245522Y-45290140D01*
X201295216Y-45385420D01*
X201336783Y-45441963D01*
X201413044Y-45512642D01*
X201505997Y-45566358D01*
X201615643Y-45603111D01*
X201719766Y-45620781D01*
X201835481Y-45626670D01*
X201883501Y-45625739D01*
X201998443Y-45615258D01*
X202106087Y-45593131D01*
X202206432Y-45559359D01*
X202299478Y-45513940D01*
X202385225Y-45456877D01*
X202463674Y-45388167D01*
X202493065Y-45357758D01*
X202561384Y-45277113D01*
X202622332Y-45189867D01*
X202675911Y-45096020D01*
X202722119Y-44995572D01*
X202739896Y-44946572D01*
X203854545Y-44946572D01*
X203861683Y-45070716D01*
X203883007Y-45185239D01*
X203918516Y-45290140D01*
X203968210Y-45385420D01*
X204009777Y-45441963D01*
X204086038Y-45512642D01*
X204178991Y-45566358D01*
X204288637Y-45603111D01*
X204392760Y-45620781D01*
X204508475Y-45626670D01*
X204556495Y-45625739D01*
X204671437Y-45615258D01*
X204779081Y-45593131D01*
X204879425Y-45559359D01*
X204972471Y-45513940D01*
X205058219Y-45456877D01*
X205136667Y-45388167D01*
X205166059Y-45357758D01*
X205234377Y-45277113D01*
X205295326Y-45189867D01*
X205348904Y-45096020D01*
X205395113Y-44995572D01*
X205412890Y-44946572D01*
X205781133Y-44946572D01*
X205788271Y-45070716D01*
X205809595Y-45185239D01*
X205845103Y-45290140D01*
X205894797Y-45385420D01*
X205936364Y-45441963D01*
X206012625Y-45512642D01*
X206105579Y-45566358D01*
X206215225Y-45603111D01*
X206319347Y-45620781D01*
X206435062Y-45626670D01*
X206483083Y-45625739D01*
X206598025Y-45615258D01*
X206705668Y-45593131D01*
X206806013Y-45559359D01*
X206899059Y-45513940D01*
X206984806Y-45456877D01*
X207063255Y-45388167D01*
X207092646Y-45357758D01*
X207160965Y-45277113D01*
X207221914Y-45189867D01*
X207275492Y-45096020D01*
X207321700Y-44995572D01*
X207339477Y-44946572D01*
X207707720Y-44946572D01*
X207714859Y-45070716D01*
X207736182Y-45185239D01*
X207771691Y-45290140D01*
X207821385Y-45385420D01*
X207862952Y-45441963D01*
X207939213Y-45512642D01*
X208032166Y-45566358D01*
X208141812Y-45603111D01*
X208245935Y-45620781D01*
X208361650Y-45626670D01*
X208409670Y-45625739D01*
X208524612Y-45615258D01*
X208632256Y-45593131D01*
X208732600Y-45559359D01*
X208825646Y-45513940D01*
X208837923Y-45505770D01*
X210151461Y-45505770D01*
X210162208Y-45566220D01*
X210210080Y-45591500D01*
X210568628Y-45591500D01*
X210625293Y-45566220D01*
X210658510Y-45505770D01*
X211878747Y-45505770D01*
X211889494Y-45566220D01*
X211937365Y-45591500D01*
X213235272Y-45591500D01*
X213291936Y-45566770D01*
X213324665Y-45508518D01*
X213325174Y-45505770D01*
X213678328Y-45505770D01*
X213689075Y-45566220D01*
X213736946Y-45591500D01*
X215034853Y-45591500D01*
X215091517Y-45566770D01*
X215124246Y-45508518D01*
X215184818Y-45181538D01*
X215173583Y-45123286D01*
X215125711Y-45098556D01*
X214260603Y-45098556D01*
X214331922Y-44712775D01*
X215114965Y-44712775D01*
X215171629Y-44688045D01*
X215204846Y-44629793D01*
X215265418Y-44302813D01*
X215253695Y-44244561D01*
X215206311Y-44219832D01*
X214423269Y-44219832D01*
X214488237Y-43868672D01*
X215331364Y-43868672D01*
X215388028Y-43843942D01*
X215420757Y-43785690D01*
X215659138Y-43785690D01*
X215669884Y-43843942D01*
X215717756Y-43868672D01*
X216199891Y-43868672D01*
X215897519Y-45505221D01*
X215907777Y-45566220D01*
X215955648Y-45591500D01*
X216314197Y-45591500D01*
X216370861Y-45566220D01*
X216404567Y-45505221D01*
X216503743Y-44968445D01*
X217831701Y-44968445D01*
X217845422Y-45089316D01*
X217874909Y-45202970D01*
X217898150Y-45261963D01*
X217952486Y-45358211D01*
X218022897Y-45441678D01*
X218109382Y-45512365D01*
X218130747Y-45526207D01*
X218223422Y-45572643D01*
X218327638Y-45604792D01*
X218428293Y-45621201D01*
X218537784Y-45626670D01*
X218601966Y-45624902D01*
X218710502Y-45613294D01*
X218814223Y-45590851D01*
X218913128Y-45557575D01*
X219007219Y-45513464D01*
X219020277Y-45506311D01*
X219021146Y-45505770D01*
X219778538Y-45505770D01*
X219789284Y-45566220D01*
X219837156Y-45591500D01*
X220195704Y-45591500D01*
X220252369Y-45566220D01*
X220286074Y-45504671D01*
X220413080Y-44818288D01*
X220665139Y-44818288D01*
X220841971Y-45504671D01*
X220871280Y-45567319D01*
X220940645Y-45591500D01*
X221313360Y-45591500D01*
X221359766Y-45570617D01*
X221387121Y-45521158D01*
X221386052Y-45505770D01*
X222316709Y-45505770D01*
X222327456Y-45566220D01*
X222375327Y-45591500D01*
X223314685Y-45591500D01*
X223334916Y-45591307D01*
X223450710Y-45582085D01*
X223556921Y-45559030D01*
X223653550Y-45522142D01*
X223740596Y-45471420D01*
X223830038Y-45394762D01*
X223886116Y-45330721D01*
X223953526Y-45233041D01*
X224007985Y-45125998D01*
X224049496Y-45009594D01*
X224053850Y-44991120D01*
X224411580Y-44991120D01*
X224422144Y-45107967D01*
X224447484Y-45214511D01*
X224470444Y-45275492D01*
X224524394Y-45373222D01*
X224594572Y-45455477D01*
X224680980Y-45522257D01*
X224702372Y-45534901D01*
X224794467Y-45577319D01*
X224897003Y-45606685D01*
X224995288Y-45621674D01*
X225101566Y-45626670D01*
X225163184Y-45625039D01*
X225267820Y-45614333D01*
X225368388Y-45593633D01*
X225464889Y-45562941D01*
X225557323Y-45522257D01*
X225582955Y-45508754D01*
X225668611Y-45455477D01*
X225758775Y-45383126D01*
X225840695Y-45298547D01*
X225905614Y-45214511D01*
X225939640Y-45162527D01*
X225991377Y-45067421D01*
X226338431Y-45067421D01*
X226357379Y-45184075D01*
X226400938Y-45288699D01*
X226417137Y-45316337D01*
X226482853Y-45401345D01*
X226566602Y-45475405D01*
X226657393Y-45532698D01*
X226668352Y-45538480D01*
X226760317Y-45578124D01*
X226859915Y-45606022D01*
X226967145Y-45622174D01*
X227067233Y-45626670D01*
X227112627Y-45625927D01*
X227216144Y-45618406D01*
X227316295Y-45602786D01*
X227413080Y-45579066D01*
X227519570Y-45542040D01*
X227619618Y-45494882D01*
X227710690Y-45438588D01*
X227792786Y-45373158D01*
X227865907Y-45298591D01*
X227906405Y-45247686D01*
X227967220Y-45149632D01*
X228012502Y-45043319D01*
X228042250Y-44928747D01*
X228056441Y-44824238D01*
X228056823Y-44699560D01*
X228031926Y-44579332D01*
X227980212Y-44480317D01*
X227948453Y-44442329D01*
X227868036Y-44374186D01*
X227779189Y-44323125D01*
X227673090Y-44280059D01*
X227568419Y-44249507D01*
X227554144Y-44245963D01*
X227449700Y-44219619D01*
X227343530Y-44191712D01*
X227246018Y-44163778D01*
X227203337Y-44148734D01*
X227114127Y-44097832D01*
X227086284Y-43996716D01*
X227105437Y-43941366D01*
X227184958Y-43870320D01*
X227282354Y-43841591D01*
X227385237Y-43833501D01*
X227430763Y-43835848D01*
X227528852Y-43863176D01*
X227610917Y-43929671D01*
X227638272Y-43973635D01*
X227680282Y-44014301D01*
X227738412Y-44025842D01*
X228096472Y-44025842D01*
X228140436Y-44005509D01*
X228167302Y-43957148D01*
X228171153Y-43896512D01*
X228153891Y-43785690D01*
X228410568Y-43785690D01*
X228421315Y-43843942D01*
X228469187Y-43868672D01*
X228951322Y-43868672D01*
X228648949Y-45505221D01*
X228659207Y-45566220D01*
X228707079Y-45591500D01*
X229065628Y-45591500D01*
X229122292Y-45566220D01*
X229155997Y-45505221D01*
X229458370Y-43868672D01*
X229940017Y-43868672D01*
X229996193Y-43843942D01*
X230028921Y-43785690D01*
X230089494Y-43458710D01*
X230078258Y-43400458D01*
X230030875Y-43375728D01*
X228560045Y-43375728D01*
X228503381Y-43400458D01*
X228471140Y-43458710D01*
X228410568Y-43785690D01*
X228153891Y-43785690D01*
X228153373Y-43782367D01*
X228108196Y-43675231D01*
X228098023Y-43657425D01*
X228029865Y-43566318D01*
X227949971Y-43493525D01*
X227863464Y-43436178D01*
X227788351Y-43398920D01*
X227683946Y-43364463D01*
X227583745Y-43346534D01*
X227476584Y-43340557D01*
X227462209Y-43340650D01*
X227363560Y-43346465D01*
X227255055Y-43364188D01*
X227151069Y-43393726D01*
X227051601Y-43435079D01*
X226981282Y-43472786D01*
X226895003Y-43530093D01*
X226808158Y-43604171D01*
X226732131Y-43688420D01*
X226709483Y-43718337D01*
X226651119Y-43810986D01*
X226603129Y-43919028D01*
X226572885Y-44032436D01*
X226559175Y-44131799D01*
X226557511Y-44252201D01*
X226578338Y-44371150D01*
X226623199Y-44472623D01*
X226629680Y-44482835D01*
X226702473Y-44566432D01*
X226789042Y-44628188D01*
X226881670Y-44672531D01*
X226990052Y-44707829D01*
X227108265Y-44736405D01*
X227173421Y-44753748D01*
X227274496Y-44781429D01*
X227374002Y-44810594D01*
X227408322Y-44822206D01*
X227498077Y-44872693D01*
X227528852Y-44963918D01*
X227520281Y-44994264D01*
X227452580Y-45073863D01*
X227355073Y-45113662D01*
X227256659Y-45129582D01*
X227158091Y-45133727D01*
X227088985Y-45128472D01*
X226993960Y-45096358D01*
X226978084Y-45086870D01*
X226901147Y-45012278D01*
X226868419Y-44955125D01*
X226863866Y-44949601D01*
X226772676Y-44909512D01*
X226413639Y-44909512D01*
X226370163Y-44929846D01*
X226343785Y-44978206D01*
X226338431Y-45067421D01*
X225991377Y-45067421D01*
X225992500Y-45065357D01*
X226036852Y-44960298D01*
X226072696Y-44847350D01*
X226100031Y-44726513D01*
X226334016Y-43461458D01*
X226322780Y-43401008D01*
X226275397Y-43375728D01*
X225917337Y-43375728D01*
X225860184Y-43401557D01*
X225827456Y-43462007D01*
X225593960Y-44724865D01*
X225564784Y-44837919D01*
X225517484Y-44942567D01*
X225454253Y-45026566D01*
X225391871Y-45078368D01*
X225294990Y-45121065D01*
X225192424Y-45133727D01*
X225144997Y-45131111D01*
X225043566Y-45099821D01*
X224969675Y-45026566D01*
X224939717Y-44951057D01*
X224929459Y-44837919D01*
X224942320Y-44724865D01*
X225175816Y-43462007D01*
X225164581Y-43401557D01*
X225117198Y-43375728D01*
X224758649Y-43375728D01*
X224701496Y-43401008D01*
X224668768Y-43461458D01*
X224434783Y-44726513D01*
X224428650Y-44761843D01*
X224414459Y-44880426D01*
X224411580Y-44991120D01*
X224053850Y-44991120D01*
X224074769Y-44902368D01*
X224081394Y-44862612D01*
X224091540Y-44744079D01*
X224081608Y-44627595D01*
X224080109Y-44620550D01*
X224038741Y-44515999D01*
X223970233Y-44431957D01*
X224036545Y-44369995D01*
X224102613Y-44285228D01*
X224126037Y-44247000D01*
X224170543Y-44140972D01*
X224197379Y-44031337D01*
X224210027Y-43936051D01*
X224210584Y-43825257D01*
X224192494Y-43711501D01*
X224164424Y-43633096D01*
X224104638Y-43541403D01*
X224027386Y-43470250D01*
X223966368Y-43433420D01*
X223873147Y-43399359D01*
X223776335Y-43381636D01*
X223666395Y-43375728D01*
X222784678Y-43375728D01*
X222727526Y-43401008D01*
X222694797Y-43461458D01*
X222554640Y-44219282D01*
X222392022Y-45098556D01*
X222316709Y-45505770D01*
X221386052Y-45505770D01*
X221384678Y-45485987D01*
X221185865Y-44724315D01*
X221250680Y-44689375D01*
X221347981Y-44620108D01*
X221431877Y-44537048D01*
X221502369Y-44440195D01*
X221559456Y-44329551D01*
X221603138Y-44205114D01*
X221628433Y-44095634D01*
X221643293Y-43987998D01*
X221645949Y-43870275D01*
X221628124Y-43748705D01*
X221587765Y-43644123D01*
X221524874Y-43556529D01*
X221491357Y-43524218D01*
X221399661Y-43461185D01*
X221306032Y-43420929D01*
X221198527Y-43393385D01*
X221098340Y-43380142D01*
X220988517Y-43375728D01*
X220246507Y-43375728D01*
X220189354Y-43401008D01*
X220156625Y-43461458D01*
X219996853Y-44325345D01*
X219778538Y-45505770D01*
X219021146Y-45505770D01*
X219107755Y-45451880D01*
X219199316Y-45380336D01*
X219281900Y-45298832D01*
X219355509Y-45207367D01*
X219419653Y-45107796D01*
X219473356Y-45002523D01*
X219516618Y-44891549D01*
X219549438Y-44774874D01*
X219562962Y-44717029D01*
X219586589Y-44602780D01*
X219608056Y-44490209D01*
X219621051Y-44418853D01*
X219640057Y-44308107D01*
X219655928Y-44198949D01*
X219664863Y-44110309D01*
X219665825Y-43997171D01*
X219651945Y-43876788D01*
X219622222Y-43763708D01*
X219598981Y-43704729D01*
X219544644Y-43608573D01*
X219474234Y-43525284D01*
X219387749Y-43454863D01*
X219366445Y-43441021D01*
X219274014Y-43394585D01*
X219170043Y-43362436D01*
X219069601Y-43346027D01*
X218960324Y-43340557D01*
X218896012Y-43342343D01*
X218787212Y-43354064D01*
X218683181Y-43376724D01*
X218583918Y-43410324D01*
X218489424Y-43454863D01*
X218463446Y-43469469D01*
X218376913Y-43525594D01*
X218297205Y-43589502D01*
X218214467Y-43672071D01*
X218140645Y-43764807D01*
X218076470Y-43865237D01*
X218022676Y-43971437D01*
X217979262Y-44083407D01*
X217946228Y-44201147D01*
X217932575Y-44265277D01*
X217909082Y-44378930D01*
X217888098Y-44486911D01*
X217877687Y-44544751D01*
X217859076Y-44655736D01*
X217841692Y-44766081D01*
X217832739Y-44854946D01*
X217832630Y-44866812D01*
X217831701Y-44968445D01*
X216503743Y-44968445D01*
X216706939Y-43868672D01*
X217188586Y-43868672D01*
X217244762Y-43843942D01*
X217277491Y-43785690D01*
X217338063Y-43458710D01*
X217326828Y-43400458D01*
X217279445Y-43375728D01*
X215808614Y-43375728D01*
X215751950Y-43400458D01*
X215719710Y-43458710D01*
X215659138Y-43785690D01*
X215420757Y-43785690D01*
X215481329Y-43458710D01*
X215470094Y-43400458D01*
X215422222Y-43375728D01*
X214146297Y-43375728D01*
X214089145Y-43401008D01*
X214056416Y-43461458D01*
X213678328Y-45505770D01*
X213325174Y-45505770D01*
X213385237Y-45181538D01*
X213374002Y-45123286D01*
X213326130Y-45098556D01*
X212461022Y-45098556D01*
X212532341Y-44712775D01*
X213315383Y-44712775D01*
X213372048Y-44688045D01*
X213405265Y-44629793D01*
X213465837Y-44302813D01*
X213454113Y-44244561D01*
X213406730Y-44219832D01*
X212623688Y-44219832D01*
X212688656Y-43868672D01*
X213531782Y-43868672D01*
X213588447Y-43843942D01*
X213621175Y-43785690D01*
X213681748Y-43458710D01*
X213670512Y-43400458D01*
X213622641Y-43375728D01*
X212346716Y-43375728D01*
X212289563Y-43401008D01*
X212256835Y-43461458D01*
X211878747Y-45505770D01*
X210658510Y-45505770D01*
X210786004Y-44817738D01*
X211549996Y-44817738D01*
X211606660Y-44793009D01*
X211639389Y-44734757D01*
X211699961Y-44407777D01*
X211688726Y-44349525D01*
X211640854Y-44324795D01*
X210876863Y-44324795D01*
X210961371Y-43868672D01*
X211780561Y-43868672D01*
X211836249Y-43843942D01*
X211868977Y-43785690D01*
X211929549Y-43458710D01*
X211918314Y-43400458D01*
X211871420Y-43375728D01*
X210619431Y-43375728D01*
X210562278Y-43401008D01*
X210529549Y-43461458D01*
X210151461Y-45505770D01*
X208837923Y-45505770D01*
X208911394Y-45456877D01*
X208989842Y-45388167D01*
X209019234Y-45357758D01*
X209087553Y-45277113D01*
X209148501Y-45189867D01*
X209202080Y-45096020D01*
X209248288Y-44995572D01*
X209287126Y-44888523D01*
X209318593Y-44774874D01*
X209331881Y-44717029D01*
X209355304Y-44602780D01*
X209376723Y-44490209D01*
X209389735Y-44418853D01*
X209408862Y-44308107D01*
X209425083Y-44198949D01*
X209432661Y-44129461D01*
X209437448Y-44018972D01*
X209430252Y-43895170D01*
X209408940Y-43780950D01*
X209373512Y-43676313D01*
X209323967Y-43581259D01*
X209282514Y-43524844D01*
X209206396Y-43454326D01*
X209113551Y-43400733D01*
X209003980Y-43364063D01*
X208899893Y-43346434D01*
X208784190Y-43340557D01*
X208736164Y-43341500D01*
X208621157Y-43352102D01*
X208513378Y-43374483D01*
X208412826Y-43408645D01*
X208319501Y-43454586D01*
X208233403Y-43512307D01*
X208154532Y-43581808D01*
X208125080Y-43612499D01*
X208056608Y-43693903D01*
X207995507Y-43781989D01*
X207941776Y-43876756D01*
X207895415Y-43978205D01*
X207856424Y-44086335D01*
X207824804Y-44201147D01*
X207811317Y-44265277D01*
X207788053Y-44378930D01*
X207767163Y-44486911D01*
X207756721Y-44544751D01*
X207737931Y-44655736D01*
X207720268Y-44766081D01*
X207712607Y-44835770D01*
X207711089Y-44870177D01*
X207707720Y-44946572D01*
X207339477Y-44946572D01*
X207360538Y-44888523D01*
X207392006Y-44774874D01*
X207405294Y-44717029D01*
X207428717Y-44602780D01*
X207450136Y-44490209D01*
X207463147Y-44418853D01*
X207482274Y-44308107D01*
X207498496Y-44198949D01*
X207506073Y-44129461D01*
X207510860Y-44018972D01*
X207503665Y-43895170D01*
X207482353Y-43780950D01*
X207446924Y-43676313D01*
X207397379Y-43581259D01*
X207355927Y-43524844D01*
X207279809Y-43454326D01*
X207186964Y-43400733D01*
X207077392Y-43364063D01*
X206973305Y-43346434D01*
X206857602Y-43340557D01*
X206809576Y-43341500D01*
X206694570Y-43352102D01*
X206586791Y-43374483D01*
X206486238Y-43408645D01*
X206392913Y-43454586D01*
X206306815Y-43512307D01*
X206227944Y-43581808D01*
X206198492Y-43612499D01*
X206130021Y-43693903D01*
X206068919Y-43781989D01*
X206015188Y-43876756D01*
X205968828Y-43978205D01*
X205929837Y-44086335D01*
X205898217Y-44201147D01*
X205884730Y-44265277D01*
X205861466Y-44378930D01*
X205840575Y-44486911D01*
X205830134Y-44544751D01*
X205811343Y-44655736D01*
X205793681Y-44766081D01*
X205786020Y-44835770D01*
X205784502Y-44870177D01*
X205781133Y-44946572D01*
X205412890Y-44946572D01*
X205433950Y-44888523D01*
X205465418Y-44774874D01*
X205478706Y-44717029D01*
X205502129Y-44602780D01*
X205523548Y-44490209D01*
X205536560Y-44418853D01*
X205555686Y-44308107D01*
X205571908Y-44198949D01*
X205579486Y-44129461D01*
X205584273Y-44018972D01*
X205577077Y-43895170D01*
X205555765Y-43780950D01*
X205520337Y-43676313D01*
X205470792Y-43581259D01*
X205429339Y-43524844D01*
X205353221Y-43454326D01*
X205260376Y-43400733D01*
X205150805Y-43364063D01*
X205046718Y-43346434D01*
X204931015Y-43340557D01*
X204882989Y-43341500D01*
X204767982Y-43352102D01*
X204660203Y-43374483D01*
X204559651Y-43408645D01*
X204466326Y-43454586D01*
X204380228Y-43512307D01*
X204301357Y-43581808D01*
X204271905Y-43612499D01*
X204203433Y-43693903D01*
X204142332Y-43781989D01*
X204088601Y-43876756D01*
X204042240Y-43978205D01*
X204003249Y-44086335D01*
X203971629Y-44201147D01*
X203958142Y-44265277D01*
X203934878Y-44378930D01*
X203913988Y-44486911D01*
X203903546Y-44544751D01*
X203884756Y-44655736D01*
X203867093Y-44766081D01*
X203859432Y-44835770D01*
X203857914Y-44870177D01*
X203854545Y-44946572D01*
X202739896Y-44946572D01*
X202760957Y-44888523D01*
X202792424Y-44774874D01*
X202805712Y-44717029D01*
X202829135Y-44602780D01*
X202850554Y-44490209D01*
X202863566Y-44418853D01*
X202882693Y-44308107D01*
X202898914Y-44198949D01*
X202906492Y-44129461D01*
X202911279Y-44018972D01*
X202904084Y-43895170D01*
X202882771Y-43780950D01*
X202847343Y-43676313D01*
X202797798Y-43581259D01*
X202756345Y-43524844D01*
X202680227Y-43454326D01*
X202587383Y-43400733D01*
X202477811Y-43364063D01*
X202373724Y-43346434D01*
X202258021Y-43340557D01*
X202209995Y-43341500D01*
X202094989Y-43352102D01*
X201987209Y-43374483D01*
X201886657Y-43408645D01*
X201793332Y-43454586D01*
X201707234Y-43512307D01*
X201628363Y-43581808D01*
X201598911Y-43612499D01*
X201530439Y-43693903D01*
X201469338Y-43781989D01*
X201415607Y-43876756D01*
X201369246Y-43978205D01*
X201330256Y-44086335D01*
X201298635Y-44201147D01*
X201285148Y-44265277D01*
X201261884Y-44378930D01*
X201240994Y-44486911D01*
X201230553Y-44544751D01*
X201211762Y-44655736D01*
X201194099Y-44766081D01*
X201186439Y-44835770D01*
X201184921Y-44870177D01*
X201181551Y-44946572D01*
X200869017Y-44946572D01*
X200895146Y-44836972D01*
X200904443Y-44778789D01*
X200912969Y-44655412D01*
X200904339Y-44542467D01*
X200874630Y-44429209D01*
X200866287Y-44408163D01*
X200814271Y-44312465D01*
X200745082Y-44232652D01*
X200658719Y-44168724D01*
X200599585Y-44138282D01*
X200502771Y-44104429D01*
X200396219Y-44084746D01*
X200293332Y-44079148D01*
X200215322Y-44085277D01*
X200113953Y-44112518D01*
X200023688Y-44156634D01*
X200096960Y-43868672D01*
X200893681Y-43868672D01*
X200949856Y-43843942D01*
X200982585Y-43785690D01*
X201043157Y-43458710D01*
X201031922Y-43400458D01*
X200984539Y-43375728D01*
X199812173Y-43375728D01*
X199756486Y-43401008D01*
X199722780Y-43459809D01*
X199435062Y-44573740D01*
X199442878Y-44633091D01*
X199492704Y-44657820D01*
X199920617Y-44657820D01*
X199997798Y-44627046D01*
X200088168Y-44585830D01*
X200166325Y-44572091D01*
X200262309Y-44586186D01*
X200349996Y-44645730D01*
X200388400Y-44724185D01*
X200388586Y-44835873D01*
X200380984Y-44869954D01*
X200336586Y-44974224D01*
X200264511Y-45055142D01*
X200239682Y-45073561D01*
X200146410Y-45118686D01*
X200043227Y-45133727D01*
X199973431Y-45127493D01*
X199881538Y-45080971D01*
X199843219Y-45031220D01*
X199792145Y-44935341D01*
X199790551Y-44931960D01*
X199704218Y-44880386D01*
X199356416Y-44880386D01*
X199310010Y-44901269D01*
X199283143Y-44950728D01*
X199275043Y-45060047D01*
X198400215Y-45060047D01*
X198393122Y-45019422D01*
X198345739Y-44993593D01*
X197987191Y-44993593D01*
X197930038Y-45019422D01*
X197896821Y-45080971D01*
X197818663Y-45504122D01*
X197104464Y-45504122D01*
X197188425Y-45451880D01*
X197279986Y-45380336D01*
X197362570Y-45298832D01*
X197436179Y-45207367D01*
X197500323Y-45107796D01*
X197554026Y-45002523D01*
X197597288Y-44891549D01*
X197630108Y-44774874D01*
X197643632Y-44717029D01*
X197667259Y-44602780D01*
X197688726Y-44490209D01*
X197701720Y-44418853D01*
X197708620Y-44378651D01*
X198026758Y-44378651D01*
X198037016Y-44440200D01*
X198084888Y-44466028D01*
X198443436Y-44466028D01*
X198500101Y-44440200D01*
X198533806Y-44378651D01*
X198611964Y-43955500D01*
X198601217Y-43893951D01*
X198553834Y-43868122D01*
X198195286Y-43868122D01*
X198138133Y-43893951D01*
X198104916Y-43955500D01*
X198026758Y-44378651D01*
X197708620Y-44378651D01*
X197720727Y-44308107D01*
X197736598Y-44198949D01*
X197745533Y-44110309D01*
X197746495Y-43997171D01*
X197732615Y-43876788D01*
X197702892Y-43763708D01*
X197679651Y-43704729D01*
X197625314Y-43608573D01*
X197554904Y-43525284D01*
X197468419Y-43454863D01*
X197447114Y-43441021D01*
X197354684Y-43394585D01*
X197250713Y-43362436D01*
X197150271Y-43346027D01*
X197040994Y-43340557D01*
X196976682Y-43342343D01*
X196867882Y-43354064D01*
X196763851Y-43376724D01*
X196664588Y-43410324D01*
X196570094Y-43454863D01*
X196544116Y-43469469D01*
X196457583Y-43525594D01*
X196377875Y-43589502D01*
X196295137Y-43672071D01*
X196221315Y-43764807D01*
X196157140Y-43865237D01*
X196103346Y-43971437D01*
X196059931Y-44083407D01*
X196026898Y-44201147D01*
X196013245Y-44265277D01*
X195989752Y-44378930D01*
X195968768Y-44486911D01*
X195958357Y-44544751D01*
X195939746Y-44655736D01*
X195922362Y-44766081D01*
X195913409Y-44854946D01*
X195913300Y-44866812D01*
X195912371Y-44968445D01*
X195575467Y-44968445D01*
X195611221Y-44862351D01*
X195637575Y-44749594D01*
X195712801Y-44341281D01*
X195702055Y-44280831D01*
X195655160Y-44255003D01*
X194992285Y-44255003D01*
X194935132Y-44279732D01*
X194902404Y-44337984D01*
X194842320Y-44664964D01*
X194853066Y-44723216D01*
X194900938Y-44747946D01*
X195131015Y-44747946D01*
X195104220Y-44851989D01*
X195055414Y-44956129D01*
X194982027Y-45040854D01*
X194915824Y-45085749D01*
X194816493Y-45122753D01*
X194714337Y-45133727D01*
X194654533Y-45130018D01*
X194557493Y-45100342D01*
X194482306Y-45028214D01*
X194461744Y-44986522D01*
X194436205Y-44872710D01*
X194439319Y-44756739D01*
X194447839Y-44687251D01*
X194465241Y-44576380D01*
X194485725Y-44461083D01*
X194491597Y-44429559D01*
X194513453Y-44320079D01*
X194539947Y-44210489D01*
X194553932Y-44164838D01*
X194605435Y-44045557D01*
X194671260Y-43952782D01*
X194751408Y-43886515D01*
X194845879Y-43846754D01*
X194954672Y-43833501D01*
X195036806Y-43839451D01*
X195134923Y-43875816D01*
X195166354Y-43901656D01*
X195230177Y-43989022D01*
X195271210Y-44055517D01*
X195323478Y-44076400D01*
X195687889Y-44076400D01*
X195735760Y-44055517D01*
X195761161Y-44005509D01*
X195764304Y-43922235D01*
X195744933Y-43808904D01*
X195703520Y-43702709D01*
X195688416Y-43673914D01*
X195626287Y-43584698D01*
X195546030Y-43505894D01*
X195458300Y-43443872D01*
X195447694Y-43437516D01*
X195357553Y-43393930D01*
X195258009Y-43363258D01*
X195149061Y-43345501D01*
X195046018Y-43340557D01*
X194983057Y-43342369D01*
X194876071Y-43354259D01*
X194773151Y-43377246D01*
X194674299Y-43411330D01*
X194579515Y-43456512D01*
X194553295Y-43471315D01*
X194465943Y-43527996D01*
X194385464Y-43592250D01*
X194301902Y-43674956D01*
X194227316Y-43767555D01*
X194162928Y-43867813D01*
X194109469Y-43973497D01*
X194066940Y-44084609D01*
X194035341Y-44201147D01*
X194015588Y-44294570D01*
X193992515Y-44406875D01*
X193971350Y-44515488D01*
X193966763Y-44540921D01*
X193948337Y-44651287D01*
X193930806Y-44766081D01*
X193922053Y-44853993D01*
X193921335Y-44966461D01*
X193532293Y-44966461D01*
X193810638Y-43461458D01*
X193799403Y-43401008D01*
X193752020Y-43375728D01*
X193393960Y-43375728D01*
X193336807Y-43401557D01*
X193304078Y-43462007D01*
X193104288Y-44541316D01*
X192678817Y-43449368D01*
X192646577Y-43399908D01*
X192580143Y-43375728D01*
X192295355Y-43375728D01*
X192238203Y-43401008D01*
X192205474Y-43461458D01*
X191827386Y-45505770D01*
X191558060Y-45505770D01*
X191556765Y-45474446D01*
X191328154Y-43480142D01*
X191297868Y-43405953D01*
X191224106Y-43375728D01*
X190780073Y-43375728D01*
X190695076Y-43405953D01*
X190638412Y-43480142D01*
X190024410Y-44747396D01*
X189672676Y-45473347D01*
X189653136Y-45520608D01*
X189163964Y-45520608D01*
X189172466Y-45505221D01*
X189474839Y-43868672D01*
X189956486Y-43868672D01*
X190012662Y-43843942D01*
X190045390Y-43785690D01*
X190105963Y-43458710D01*
X190094727Y-43400458D01*
X190047344Y-43375728D01*
X188576514Y-43375728D01*
X188519849Y-43400458D01*
X188487609Y-43458710D01*
X188427037Y-43785690D01*
X187569661Y-43785690D01*
X187563883Y-43763708D01*
X187540642Y-43704729D01*
X187486305Y-43608573D01*
X187415895Y-43525284D01*
X187329410Y-43454863D01*
X187308105Y-43441021D01*
X187215675Y-43394585D01*
X187111704Y-43362436D01*
X187011262Y-43346027D01*
X186901985Y-43340557D01*
X186837673Y-43342343D01*
X186728873Y-43354064D01*
X186624842Y-43376724D01*
X186525579Y-43410324D01*
X186431085Y-43454863D01*
X186405107Y-43469469D01*
X186318574Y-43525594D01*
X186238866Y-43589502D01*
X186156128Y-43672071D01*
X186082306Y-43764807D01*
X186018131Y-43865237D01*
X185964337Y-43971437D01*
X185920922Y-44083407D01*
X185887889Y-44201147D01*
X185874236Y-44265277D01*
X185850743Y-44378930D01*
X185829759Y-44486911D01*
X185819348Y-44544751D01*
X185800737Y-44655736D01*
X185783353Y-44766081D01*
X185774400Y-44854946D01*
X185774291Y-44866812D01*
X185773362Y-44968445D01*
X185002277Y-44968445D01*
X185205474Y-43868672D01*
X185687121Y-43868672D01*
X185743297Y-43843942D01*
X185776025Y-43785690D01*
X185836598Y-43458710D01*
X185825362Y-43400458D01*
X185777979Y-43375728D01*
X184307149Y-43375728D01*
X184250484Y-43400458D01*
X184218244Y-43458710D01*
X184157672Y-43785690D01*
X183300296Y-43785690D01*
X183294518Y-43763708D01*
X183271277Y-43704729D01*
X183216940Y-43608573D01*
X183146530Y-43525284D01*
X183060045Y-43454863D01*
X183038740Y-43441021D01*
X182946310Y-43394585D01*
X182842339Y-43362436D01*
X182741897Y-43346027D01*
X182632620Y-43340557D01*
X182568308Y-43342343D01*
X182459508Y-43354064D01*
X182355477Y-43376724D01*
X182256214Y-43410324D01*
X182161720Y-43454863D01*
X182135742Y-43469469D01*
X182049209Y-43525594D01*
X181969501Y-43589502D01*
X181886763Y-43672071D01*
X181812941Y-43764807D01*
X181748766Y-43865237D01*
X181694972Y-43971437D01*
X181651557Y-44083407D01*
X181618524Y-44201147D01*
X181604871Y-44265277D01*
X181581378Y-44378930D01*
X181560394Y-44486911D01*
X181549983Y-44544751D01*
X181531372Y-44655736D01*
X181513988Y-44766081D01*
X181505035Y-44854946D01*
X181504926Y-44866812D01*
X181503997Y-44968445D01*
X180981561Y-44968445D01*
X181521803Y-43474097D01*
X181529619Y-43448818D01*
X181520826Y-43397710D01*
X181482236Y-43375728D01*
X181123688Y-43375728D01*
X181066046Y-43396611D01*
X181023060Y-43462007D01*
X180647903Y-44541316D01*
X180594169Y-43959347D01*
X180591761Y-43942651D01*
X180518454Y-43865924D01*
X180261022Y-43865924D01*
X180218387Y-43876963D01*
X180150136Y-43959347D01*
X179880980Y-44541316D01*
X179905404Y-43462007D01*
X179885865Y-43396611D01*
X179836039Y-43375728D01*
X179477979Y-43375728D01*
X179431085Y-43397710D01*
X179404218Y-43448818D01*
X179401775Y-43474097D01*
X179386632Y-45471149D01*
X178305070Y-45471149D01*
X178601147Y-43868672D01*
X179082794Y-43868672D01*
X179138970Y-43843942D01*
X179171699Y-43785690D01*
X179232271Y-43458710D01*
X179221036Y-43400458D01*
X179173653Y-43375728D01*
X177702822Y-43375728D01*
X177646158Y-43400458D01*
X177613918Y-43458710D01*
X177553346Y-43785690D01*
X177303346Y-43785690D01*
X177303346Y-43090557D01*
X230339494Y-43090557D01*
X230339494Y-46087696D01*
G37*
D14*
X105817511Y-51926257D02*
X105674654Y-51854828D01*
X105674654Y-51854828D02*
X105460368Y-51854828D01*
X105460368Y-51854828D02*
X105246082Y-51926257D01*
X105246082Y-51926257D02*
X105103225Y-52069114D01*
X105103225Y-52069114D02*
X105031796Y-52211971D01*
X105031796Y-52211971D02*
X104960368Y-52497685D01*
X104960368Y-52497685D02*
X104960368Y-52711971D01*
X104960368Y-52711971D02*
X105031796Y-52997685D01*
X105031796Y-52997685D02*
X105103225Y-53140542D01*
X105103225Y-53140542D02*
X105246082Y-53283400D01*
X105246082Y-53283400D02*
X105460368Y-53354828D01*
X105460368Y-53354828D02*
X105603225Y-53354828D01*
X105603225Y-53354828D02*
X105817511Y-53283400D01*
X105817511Y-53283400D02*
X105888939Y-53211971D01*
X105888939Y-53211971D02*
X105888939Y-52711971D01*
X105888939Y-52711971D02*
X105603225Y-52711971D01*
X106531796Y-53354828D02*
X106531796Y-51854828D01*
X106531796Y-51854828D02*
X107103225Y-51854828D01*
X107103225Y-51854828D02*
X107246082Y-51926257D01*
X107246082Y-51926257D02*
X107317511Y-51997685D01*
X107317511Y-51997685D02*
X107388939Y-52140542D01*
X107388939Y-52140542D02*
X107388939Y-52354828D01*
X107388939Y-52354828D02*
X107317511Y-52497685D01*
X107317511Y-52497685D02*
X107246082Y-52569114D01*
X107246082Y-52569114D02*
X107103225Y-52640542D01*
X107103225Y-52640542D02*
X106531796Y-52640542D01*
X107960368Y-53283400D02*
X108174654Y-53354828D01*
X108174654Y-53354828D02*
X108531796Y-53354828D01*
X108531796Y-53354828D02*
X108674654Y-53283400D01*
X108674654Y-53283400D02*
X108746082Y-53211971D01*
X108746082Y-53211971D02*
X108817511Y-53069114D01*
X108817511Y-53069114D02*
X108817511Y-52926257D01*
X108817511Y-52926257D02*
X108746082Y-52783400D01*
X108746082Y-52783400D02*
X108674654Y-52711971D01*
X108674654Y-52711971D02*
X108531796Y-52640542D01*
X108531796Y-52640542D02*
X108246082Y-52569114D01*
X108246082Y-52569114D02*
X108103225Y-52497685D01*
X108103225Y-52497685D02*
X108031796Y-52426257D01*
X108031796Y-52426257D02*
X107960368Y-52283400D01*
X107960368Y-52283400D02*
X107960368Y-52140542D01*
X107960368Y-52140542D02*
X108031796Y-51997685D01*
X108031796Y-51997685D02*
X108103225Y-51926257D01*
X108103225Y-51926257D02*
X108246082Y-51854828D01*
X108246082Y-51854828D02*
X108603225Y-51854828D01*
X108603225Y-51854828D02*
X108817511Y-51926257D01*
X161672203Y-58522171D02*
X162386489Y-58522171D01*
X162386489Y-58522171D02*
X162386489Y-60022171D01*
X160886488Y-59236457D02*
X160886488Y-58522171D01*
X161386488Y-60022171D02*
X160886488Y-59236457D01*
X160886488Y-59236457D02*
X160386488Y-60022171D01*
X159029346Y-58522171D02*
X159529346Y-59236457D01*
X159886489Y-58522171D02*
X159886489Y-60022171D01*
X159886489Y-60022171D02*
X159315060Y-60022171D01*
X159315060Y-60022171D02*
X159172203Y-59950742D01*
X159172203Y-59950742D02*
X159100774Y-59879314D01*
X159100774Y-59879314D02*
X159029346Y-59736457D01*
X159029346Y-59736457D02*
X159029346Y-59522171D01*
X159029346Y-59522171D02*
X159100774Y-59379314D01*
X159100774Y-59379314D02*
X159172203Y-59307885D01*
X159172203Y-59307885D02*
X159315060Y-59236457D01*
X159315060Y-59236457D02*
X159886489Y-59236457D01*
X158457917Y-58950742D02*
X157743632Y-58950742D01*
X158600774Y-58522171D02*
X158100774Y-60022171D01*
X158100774Y-60022171D02*
X157600774Y-58522171D01*
X173282828Y-61072346D02*
X172568542Y-61572346D01*
X173282828Y-61929489D02*
X171782828Y-61929489D01*
X171782828Y-61929489D02*
X171782828Y-61358060D01*
X171782828Y-61358060D02*
X171854257Y-61215203D01*
X171854257Y-61215203D02*
X171925685Y-61143774D01*
X171925685Y-61143774D02*
X172068542Y-61072346D01*
X172068542Y-61072346D02*
X172282828Y-61072346D01*
X172282828Y-61072346D02*
X172425685Y-61143774D01*
X172425685Y-61143774D02*
X172497114Y-61215203D01*
X172497114Y-61215203D02*
X172568542Y-61358060D01*
X172568542Y-61358060D02*
X172568542Y-61929489D01*
X172854257Y-60500917D02*
X172854257Y-59786632D01*
X173282828Y-60643774D02*
X171782828Y-60143774D01*
X171782828Y-60143774D02*
X173282828Y-59643774D01*
X171782828Y-59358060D02*
X173282828Y-58858060D01*
X173282828Y-58858060D02*
X171782828Y-58358060D01*
X172497114Y-57858061D02*
X172497114Y-57358061D01*
X173282828Y-57143775D02*
X173282828Y-57858061D01*
X173282828Y-57858061D02*
X171782828Y-57858061D01*
X171782828Y-57858061D02*
X171782828Y-57143775D01*
X173282828Y-56500918D02*
X171782828Y-56500918D01*
X171782828Y-56500918D02*
X173282828Y-55643775D01*
X173282828Y-55643775D02*
X171782828Y-55643775D01*
D15*
%TO.C,R3*%
X146383742Y-71867500D02*
X146858258Y-71867500D01*
X146383742Y-72912500D02*
X146858258Y-72912500D01*
%TO.C,R2*%
X150541258Y-73039500D02*
X150066742Y-73039500D01*
X150541258Y-71994500D02*
X150066742Y-71994500D01*
%TO.C,R1*%
X163432258Y-47766500D02*
X162957742Y-47766500D01*
X163432258Y-46721500D02*
X162957742Y-46721500D01*
%TO.C,D3*%
X141009000Y-71655000D02*
X141009000Y-73125000D01*
X141009000Y-73125000D02*
X143294000Y-73125000D01*
X143294000Y-71655000D02*
X141009000Y-71655000D01*
%TO.C,D2*%
X155799000Y-73132000D02*
X155799000Y-71662000D01*
X155799000Y-71662000D02*
X153514000Y-71662000D01*
X153514000Y-73132000D02*
X155799000Y-73132000D01*
%TO.C,D1*%
X166663000Y-46509000D02*
X166663000Y-47979000D01*
X166663000Y-47979000D02*
X168948000Y-47979000D01*
X168948000Y-46509000D02*
X166663000Y-46509000D01*
%TO.C,SW5*%
X237871000Y-68072000D02*
X237871000Y-52832000D01*
X244221000Y-68072000D02*
X244221000Y-52832000D01*
X245491000Y-68072000D02*
X237871000Y-68072000D01*
X245491000Y-68072000D02*
X245491000Y-52832000D01*
X245491000Y-52832000D02*
X237871000Y-52832000D01*
%TO.C,BT2*%
X157496200Y-46388000D02*
X157496200Y-47190470D01*
X157496200Y-47805530D02*
X157496200Y-48608000D01*
X158701200Y-46388000D02*
X157496200Y-46388000D01*
X158701200Y-46388000D02*
X158701200Y-46934529D01*
X158701200Y-48061471D02*
X158701200Y-48608000D01*
X158701200Y-48608000D02*
X157496200Y-48608000D01*
X159461200Y-46388000D02*
X160221200Y-46388000D01*
X160221200Y-46388000D02*
X160221200Y-47498000D01*
%TO.C,SW1*%
X166691000Y-74911000D02*
X166691000Y-77571000D01*
X166691000Y-77571000D02*
X169351000Y-77571000D01*
X167641000Y-72041000D02*
X167641000Y-72428071D01*
X167641000Y-74513929D02*
X167641000Y-74911000D01*
X167641000Y-83571000D02*
X167641000Y-77571000D01*
X167741000Y-77571000D02*
X167741000Y-83571000D01*
X167861000Y-77571000D02*
X167861000Y-83571000D01*
X167981000Y-77571000D02*
X167981000Y-83571000D01*
X168021000Y-69661000D02*
X169291000Y-69661000D01*
X168101000Y-77571000D02*
X168101000Y-83571000D01*
X168221000Y-77571000D02*
X168221000Y-83571000D01*
X168341000Y-77571000D02*
X168341000Y-83571000D01*
X168401000Y-72041000D02*
X168401000Y-72428071D01*
X168401000Y-74513929D02*
X168401000Y-74911000D01*
X168401000Y-77571000D02*
X168401000Y-83571000D01*
X168401000Y-83571000D02*
X167641000Y-83571000D01*
X169291000Y-69661000D02*
X169291000Y-70931000D01*
X169351000Y-74911000D02*
X166691000Y-74911000D01*
X169351000Y-77571000D02*
X169351000Y-74911000D01*
%TO.C,BT1*%
X156567600Y-73754000D02*
X156567600Y-72644000D01*
X157327600Y-73754000D02*
X156567600Y-73754000D01*
X158087600Y-71534000D02*
X159292600Y-71534000D01*
X158087600Y-72080529D02*
X158087600Y-71534000D01*
X158087600Y-73754000D02*
X158087600Y-73207471D01*
X158087600Y-73754000D02*
X159292600Y-73754000D01*
X159292600Y-72336470D02*
X159292600Y-71534000D01*
X159292600Y-73754000D02*
X159292600Y-72951530D01*
%TO.C,BR1*%
X174590400Y-63906400D02*
X174590400Y-51146400D01*
X177250400Y-51146400D02*
X174590400Y-51146400D01*
X177250400Y-63906400D02*
X174590400Y-63906400D01*
X177250400Y-63906400D02*
X177250400Y-51146400D01*
X177250400Y-65176400D02*
X177250400Y-66506400D01*
X177250400Y-66506400D02*
X175920400Y-66506400D01*
%TO.C,J2*%
X238822000Y-71053000D02*
X238822000Y-69723000D01*
X240152000Y-71053000D02*
X238822000Y-71053000D01*
X241422000Y-71053000D02*
X244022000Y-71053000D01*
X241422000Y-71053000D02*
X241422000Y-68393000D01*
X244022000Y-71053000D02*
X244022000Y-68393000D01*
X241422000Y-68393000D02*
X244022000Y-68393000D01*
%TO.C,LYRA1*%
X154178800Y-57911200D02*
X154178800Y-56581200D01*
X155508800Y-57911200D02*
X154178800Y-57911200D01*
X156778800Y-55251200D02*
X164458800Y-55251200D01*
X156778800Y-57911200D02*
X156778800Y-55251200D01*
X156778800Y-57911200D02*
X164458800Y-57911200D01*
X164458800Y-57911200D02*
X164458800Y-55251200D01*
%TO.C,SW4*%
X183201000Y-72503000D02*
X183201000Y-75163000D01*
X183201000Y-75163000D02*
X185861000Y-75163000D01*
X184151000Y-72173000D02*
X184151000Y-72503000D01*
X184151000Y-81163000D02*
X184151000Y-75163000D01*
X184251000Y-75163000D02*
X184251000Y-81163000D01*
X184371000Y-75163000D02*
X184371000Y-81163000D01*
X184491000Y-75163000D02*
X184491000Y-81163000D01*
X184531000Y-69793000D02*
X185801000Y-69793000D01*
X184611000Y-75163000D02*
X184611000Y-81163000D01*
X184731000Y-75163000D02*
X184731000Y-81163000D01*
X184851000Y-75163000D02*
X184851000Y-81163000D01*
X184911000Y-72173000D02*
X184911000Y-72503000D01*
X184911000Y-75163000D02*
X184911000Y-81163000D01*
X184911000Y-81163000D02*
X184151000Y-81163000D01*
X185801000Y-69793000D02*
X185801000Y-71063000D01*
X185861000Y-72503000D02*
X183201000Y-72503000D01*
X185861000Y-75163000D02*
X185861000Y-72503000D01*
%TO.C,GPS1*%
X105149774Y-54161749D02*
X105056942Y-56820128D01*
X107655357Y-56910867D02*
X105056942Y-56820128D01*
X107748190Y-54252487D02*
X105149774Y-54161749D01*
X107748190Y-54252487D02*
X107655357Y-56910867D01*
X109017416Y-54296810D02*
X110346606Y-54343227D01*
X110346606Y-54343227D02*
X110300190Y-55672416D01*
D16*
%TO.C,BT3*%
X98225000Y-51139000D02*
X104125000Y-51149000D01*
X104125000Y-51149000D02*
X104125000Y-55839000D01*
X98235000Y-55839000D02*
X104125000Y-55839000D01*
X103535000Y-52949000D02*
X104035000Y-52949000D01*
X103535000Y-53709000D02*
X104035000Y-53709000D01*
X102385000Y-51139000D02*
X102385000Y-51649000D01*
X100355000Y-51139000D02*
X100355000Y-51649000D01*
X98835000Y-52879000D02*
X98325000Y-52879000D01*
X98835000Y-53649000D02*
X98325000Y-53649000D01*
X98225000Y-52919000D02*
X98235000Y-55839000D01*
X98225000Y-53169000D02*
X98225000Y-51139000D01*
%TD*%
%LPC*%
D17*
%TO.C,R3*%
X145796000Y-72390000D03*
X147446000Y-72390000D03*
%TD*%
D18*
%TO.C,R2*%
X151129000Y-72517000D03*
X149479000Y-72517000D03*
%TD*%
%TO.C,R1*%
X164020000Y-47244000D03*
X162370000Y-47244000D03*
%TD*%
D19*
%TO.C,D3*%
X141706500Y-72390000D03*
X143281500Y-72390000D03*
%TD*%
D20*
%TO.C,D2*%
X155101500Y-72397000D03*
X153526500Y-72397000D03*
%TD*%
D19*
%TO.C,D1*%
X167360500Y-47244000D03*
X168935500Y-47244000D03*
%TD*%
D21*
%TO.C,SW5*%
X241681000Y-65532000D03*
D22*
X241681000Y-60452000D03*
X241681000Y-55372000D03*
%TD*%
D23*
%TO.C,H1*%
X168427502Y-52393444D03*
%TD*%
D24*
%TO.C,BT2*%
X159461200Y-47498000D03*
D25*
X158191200Y-47498000D03*
%TD*%
D26*
%TO.C,SW1*%
X168021000Y-70931000D03*
D27*
X168021000Y-73471000D03*
%TD*%
D24*
%TO.C,BT1*%
X157327600Y-72644000D03*
D25*
X158597600Y-72644000D03*
%TD*%
D23*
%TO.C,H5*%
X121500000Y-67750000D03*
%TD*%
D28*
%TO.C,H6*%
X237236000Y-45466000D03*
%TD*%
%TO.C,H8*%
X237998000Y-74168000D03*
%TD*%
D26*
%TO.C,BR1*%
X175920400Y-65176400D03*
D27*
X175920400Y-62636400D03*
X175920400Y-60096400D03*
X175920400Y-57556400D03*
X175920400Y-55016400D03*
X175920400Y-52476400D03*
%TD*%
D26*
%TO.C,J2*%
X240152000Y-69723000D03*
D27*
X242692000Y-69723000D03*
%TD*%
D26*
%TO.C,LYRA1*%
X155508800Y-56581200D03*
D27*
X158048800Y-56581200D03*
X160588800Y-56581200D03*
X163128800Y-56581200D03*
%TD*%
D28*
%TO.C,H9*%
X242316000Y-74168000D03*
%TD*%
%TO.C,H11*%
X241808000Y-50165000D03*
%TD*%
D23*
%TO.C,H3*%
X113780646Y-53142541D03*
%TD*%
D26*
%TO.C,SW4*%
X184531000Y-71063000D03*
%TD*%
D23*
%TO.C,H4*%
X139416333Y-65335328D03*
%TD*%
D28*
%TO.C,H10*%
X241808000Y-45796200D03*
%TD*%
D23*
%TO.C,H2*%
X150532490Y-52126007D03*
%TD*%
D29*
%TO.C,GPS1*%
X108971000Y-55626000D03*
D30*
X106432547Y-55537355D03*
%TD*%
D26*
%TO.C,SW3*%
X181864000Y-70931000D03*
D27*
X181864000Y-73471000D03*
%TD*%
D31*
%TO.C,BT3*%
X100235000Y-52959000D03*
D32*
X102235000Y-52959000D03*
%TD*%
D26*
%TO.C,SW2*%
X165862000Y-70931000D03*
D27*
X165862000Y-73471000D03*
%TD*%
%LPD*%
M02*
