%TF.GenerationSoftware,KiCad,Pcbnew,8.0.0*%
%TF.CreationDate,2024-08-29T00:31:50-07:00*%
%TF.ProjectId,sled,736c6564-2e6b-4696-9361-645f70636258,rev?*%
%TF.SameCoordinates,Original*%
%TF.FileFunction,Copper,L1,Top*%
%TF.FilePolarity,Positive*%
%FSLAX46Y46*%
G04 Gerber Fmt 4.6, Leading zero omitted, Abs format (unit mm)*
G04 Created by KiCad (PCBNEW 8.0.0) date 2024-08-29 00:31:50*
%MOMM*%
%LPD*%
G01*
G04 APERTURE LIST*
G04 Aperture macros list*
%AMRoundRect*
0 Rectangle with rounded corners*
0 $1 Rounding radius*
0 $2 $3 $4 $5 $6 $7 $8 $9 X,Y pos of 4 corners*
0 Add a 4 corners polygon primitive as box body*
4,1,4,$2,$3,$4,$5,$6,$7,$8,$9,$2,$3,0*
0 Add four circle primitives for the rounded corners*
1,1,$1+$1,$2,$3*
1,1,$1+$1,$4,$5*
1,1,$1+$1,$6,$7*
1,1,$1+$1,$8,$9*
0 Add four rect primitives between the rounded corners*
20,1,$1+$1,$2,$3,$4,$5,0*
20,1,$1+$1,$4,$5,$6,$7,0*
20,1,$1+$1,$6,$7,$8,$9,0*
20,1,$1+$1,$8,$9,$2,$3,0*%
%AMHorizOval*
0 Thick line with rounded ends*
0 $1 width*
0 $2 $3 position (X,Y) of the first rounded end (center of the circle)*
0 $4 $5 position (X,Y) of the second rounded end (center of the circle)*
0 Add line between two ends*
20,1,$1,$2,$3,$4,$5,0*
0 Add two circle primitives to create the rounded ends*
1,1,$1,$2,$3*
1,1,$1,$4,$5*%
%AMRotRect*
0 Rectangle, with rotation*
0 The origin of the aperture is its center*
0 $1 length*
0 $2 width*
0 $3 Rotation angle, in degrees counterclockwise*
0 Add horizontal line*
21,1,$1,$2,0,0,$3*%
G04 Aperture macros list end*
%TA.AperFunction,SMDPad,CuDef*%
%ADD10RoundRect,0.200000X-0.200000X-0.275000X0.200000X-0.275000X0.200000X0.275000X-0.200000X0.275000X0*%
%TD*%
%TA.AperFunction,SMDPad,CuDef*%
%ADD11RoundRect,0.200000X0.200000X0.275000X-0.200000X0.275000X-0.200000X-0.275000X0.200000X-0.275000X0*%
%TD*%
%TA.AperFunction,SMDPad,CuDef*%
%ADD12RoundRect,0.218750X-0.218750X-0.256250X0.218750X-0.256250X0.218750X0.256250X-0.218750X0.256250X0*%
%TD*%
%TA.AperFunction,SMDPad,CuDef*%
%ADD13RoundRect,0.218750X0.218750X0.256250X-0.218750X0.256250X-0.218750X-0.256250X0.218750X-0.256250X0*%
%TD*%
%TA.AperFunction,ComponentPad*%
%ADD14R,3.000000X3.000000*%
%TD*%
%TA.AperFunction,ComponentPad*%
%ADD15C,3.000000*%
%TD*%
%TA.AperFunction,ComponentPad*%
%ADD16C,6.400000*%
%TD*%
%TA.AperFunction,ComponentPad*%
%ADD17R,1.000000X1.000000*%
%TD*%
%TA.AperFunction,ComponentPad*%
%ADD18O,1.000000X1.000000*%
%TD*%
%TA.AperFunction,ComponentPad*%
%ADD19R,1.700000X1.700000*%
%TD*%
%TA.AperFunction,ComponentPad*%
%ADD20O,1.700000X1.700000*%
%TD*%
%TA.AperFunction,ComponentPad*%
%ADD21C,3.800000*%
%TD*%
%TA.AperFunction,ComponentPad*%
%ADD22RotRect,1.700000X1.700000X268.000000*%
%TD*%
%TA.AperFunction,ComponentPad*%
%ADD23HorizOval,1.700000X0.000000X0.000000X0.000000X0.000000X0*%
%TD*%
%TA.AperFunction,ComponentPad*%
%ADD24R,1.600000X1.600000*%
%TD*%
%TA.AperFunction,ComponentPad*%
%ADD25C,1.600000*%
%TD*%
%TA.AperFunction,ViaPad*%
%ADD26C,0.600000*%
%TD*%
%TA.AperFunction,Conductor*%
%ADD27C,0.300000*%
%TD*%
%TA.AperFunction,Conductor*%
%ADD28C,0.500000*%
%TD*%
G04 APERTURE END LIST*
D10*
%TO.P,R3,1*%
%TO.N,Net-(D3-A)*%
X145796000Y-72390000D03*
%TO.P,R3,2*%
%TO.N,Net-(GPS1-VIN)*%
X147446000Y-72390000D03*
%TD*%
D11*
%TO.P,R2,1*%
%TO.N,Net-(D2-A)*%
X151129000Y-72517000D03*
%TO.P,R2,2*%
%TO.N,Net-(BT1-+)*%
X149479000Y-72517000D03*
%TD*%
%TO.P,R1,1*%
%TO.N,Net-(D1-A)*%
X164020000Y-47244000D03*
%TO.P,R1,2*%
%TO.N,Net-(BT2-+)*%
X162370000Y-47244000D03*
%TD*%
D12*
%TO.P,D3,1,K*%
%TO.N,Net-(BT3--)*%
X141706500Y-72390000D03*
%TO.P,D3,2,A*%
%TO.N,Net-(D3-A)*%
X143281500Y-72390000D03*
%TD*%
D13*
%TO.P,D2,1,K*%
%TO.N,/BR_NEG*%
X155101500Y-72397000D03*
%TO.P,D2,2,A*%
%TO.N,Net-(D2-A)*%
X153526500Y-72397000D03*
%TD*%
D12*
%TO.P,D1,1,K*%
%TO.N,Net-(BT2--)*%
X167360500Y-47244000D03*
%TO.P,D1,2,A*%
%TO.N,Net-(D1-A)*%
X168935500Y-47244000D03*
%TD*%
D14*
%TO.P,SW5,1,A*%
%TO.N,unconnected-(SW5-A-Pad1)*%
X241681000Y-65532000D03*
D15*
%TO.P,SW5,2,B*%
%TO.N,/HEI*%
X241681000Y-60452000D03*
%TO.P,SW5,3,C*%
%TO.N,/BR_POS*%
X241681000Y-55372000D03*
%TD*%
D16*
%TO.P,H1,1,1*%
%TO.N,unconnected-(H1-Pad1)*%
X168427502Y-52393444D03*
%TD*%
D17*
%TO.P,BT2,1,+*%
%TO.N,Net-(BT2-+)*%
X159461200Y-47498000D03*
D18*
%TO.P,BT2,2,-*%
%TO.N,Net-(BT2--)*%
X158191200Y-47498000D03*
%TD*%
D19*
%TO.P,SW1,1*%
%TO.N,Net-(BT1-+)*%
X168021000Y-70931000D03*
D20*
%TO.P,SW1,2*%
%TO.N,/BR_POS*%
X168021000Y-73471000D03*
%TD*%
D17*
%TO.P,BT1,1,+*%
%TO.N,Net-(BT1-+)*%
X157327600Y-72644000D03*
D18*
%TO.P,BT1,2,-*%
%TO.N,/BR_NEG*%
X158597600Y-72644000D03*
%TD*%
D16*
%TO.P,H5,1,1*%
%TO.N,unconnected-(H5-Pad1)*%
X121500000Y-67750000D03*
%TD*%
D21*
%TO.P,H6,1,1*%
%TO.N,/APOGEE*%
X237236000Y-45466000D03*
%TD*%
%TO.P,H8,1,1*%
%TO.N,/MAIN*%
X237998000Y-74168000D03*
%TD*%
D19*
%TO.P,BR1,1,4TH*%
%TO.N,/HEI*%
X175920400Y-65176400D03*
D20*
%TO.P,BR1,2,3RD*%
%TO.N,/APO_BACKUP*%
X175920400Y-62636400D03*
%TO.P,BR1,3,MAIN*%
%TO.N,/MAIN*%
X175920400Y-60096400D03*
%TO.P,BR1,4,APO*%
%TO.N,/APOGEE*%
X175920400Y-57556400D03*
%TO.P,BR1,5,GND*%
%TO.N,/BR_NEG*%
X175920400Y-55016400D03*
%TO.P,BR1,6,IN*%
%TO.N,/BR_POS*%
X175920400Y-52476400D03*
%TD*%
D19*
%TO.P,J2,1,Pin_1*%
%TO.N,/HEI*%
X240152000Y-69723000D03*
D20*
%TO.P,J2,2,Pin_2*%
%TO.N,/BR_POS*%
X242692000Y-69723000D03*
%TD*%
D19*
%TO.P,LYRA1,1,BATT-*%
%TO.N,Net-(BT2--)*%
X155508800Y-56581200D03*
D20*
%TO.P,LYRA1,2,BATT+*%
%TO.N,Net-(BT2-+)*%
X158048800Y-56581200D03*
%TO.P,LYRA1,3,SW+*%
%TO.N,Net-(LYRA1-SW+)*%
X160588800Y-56581200D03*
%TO.P,LYRA1,4,SW-*%
%TO.N,Net-(LYRA1-SW-)*%
X163128800Y-56581200D03*
%TD*%
D21*
%TO.P,H9,1,1*%
%TO.N,/BR_POS*%
X242316000Y-74168000D03*
%TD*%
%TO.P,H11,1,1*%
%TO.N,/BR_POS*%
X241808000Y-50165000D03*
%TD*%
D16*
%TO.P,H3,1,1*%
%TO.N,unconnected-(H3-Pad1)*%
X113780646Y-53142541D03*
%TD*%
D19*
%TO.P,SW4,1*%
%TO.N,unconnected-(SW4-Pad1)*%
X184531000Y-71063000D03*
%TD*%
D16*
%TO.P,H4,1,1*%
%TO.N,unconnected-(H4-Pad1)*%
X139416333Y-65335328D03*
%TD*%
D21*
%TO.P,H10,1,1*%
%TO.N,/APO_BACKUP*%
X241808000Y-45796200D03*
%TD*%
D16*
%TO.P,H2,1,1*%
%TO.N,unconnected-(H2-Pad1)*%
X150532490Y-52126007D03*
%TD*%
D22*
%TO.P,GPS1,1,GND*%
%TO.N,Net-(BT3--)*%
X108971000Y-55626000D03*
D23*
%TO.P,GPS1,2,VIN*%
%TO.N,Net-(GPS1-VIN)*%
X106432547Y-55537355D03*
%TD*%
D19*
%TO.P,SW3,1*%
%TO.N,Net-(BT3-+)*%
X181864000Y-70931000D03*
D20*
%TO.P,SW3,2*%
%TO.N,Net-(GPS1-VIN)*%
X181864000Y-73471000D03*
%TD*%
D24*
%TO.P,BT3,1,+*%
%TO.N,Net-(BT3-+)*%
X100235000Y-52959000D03*
D25*
%TO.P,BT3,2,-*%
%TO.N,Net-(BT3--)*%
X102235000Y-52959000D03*
%TD*%
D19*
%TO.P,SW2,1*%
%TO.N,Net-(LYRA1-SW-)*%
X165862000Y-70931000D03*
D20*
%TO.P,SW2,2*%
%TO.N,Net-(LYRA1-SW+)*%
X165862000Y-73471000D03*
%TD*%
D26*
%TO.N,Net-(BT3--)*%
X133731000Y-58674000D03*
X107315000Y-52832000D03*
%TO.N,Net-(GPS1-VIN)*%
X154686000Y-59690000D03*
%TO.N,/MAIN*%
X171958000Y-70485000D03*
X178689000Y-67945000D03*
%TO.N,/HEI*%
X171958000Y-68453000D03*
%TO.N,/BR_NEG*%
X170484800Y-60756800D03*
%TO.N,Net-(GPS1-VIN)*%
X164592000Y-59690000D03*
%TD*%
D27*
%TO.N,Net-(BT3--)*%
X141450546Y-72390000D02*
X141706500Y-72390000D01*
X133731000Y-64670454D02*
X141450546Y-72390000D01*
X133731000Y-58674000D02*
X133731000Y-64670454D01*
X108841500Y-54358500D02*
X107315000Y-52832000D01*
X108841500Y-55496500D02*
X108841500Y-54358500D01*
X108971000Y-55626000D02*
X108841500Y-55496500D01*
%TO.N,Net-(GPS1-VIN)*%
X147446000Y-66930000D02*
X154686000Y-59690000D01*
X147446000Y-72390000D02*
X147446000Y-66930000D01*
%TO.N,Net-(D3-A)*%
X145796000Y-72390000D02*
X143281500Y-72390000D01*
%TO.N,Net-(BT1-+)*%
X151892000Y-70104000D02*
X149479000Y-72517000D01*
X157353000Y-70104000D02*
X151892000Y-70104000D01*
X159447600Y-72198600D02*
X157353000Y-70104000D01*
X159447600Y-72996082D02*
X159447600Y-72198600D01*
X158949682Y-73494000D02*
X159447600Y-72996082D01*
X158177600Y-73494000D02*
X158949682Y-73494000D01*
X157327600Y-72644000D02*
X158177600Y-73494000D01*
%TO.N,/BR_NEG*%
X158597600Y-72055706D02*
X158597600Y-72644000D01*
X158335894Y-71794000D02*
X158597600Y-72055706D01*
X155704500Y-71794000D02*
X158335894Y-71794000D01*
X155101500Y-72397000D02*
X155704500Y-71794000D01*
%TO.N,Net-(D2-A)*%
X151249000Y-72397000D02*
X151129000Y-72517000D01*
X153526500Y-72397000D02*
X151249000Y-72397000D01*
%TO.N,Net-(BT2-+)*%
X162116000Y-47498000D02*
X162370000Y-47244000D01*
X159461200Y-47498000D02*
X162116000Y-47498000D01*
%TO.N,Net-(BT2--)*%
X158191200Y-48205106D02*
X158191200Y-47498000D01*
X158334094Y-48348000D02*
X158191200Y-48205106D01*
X166256500Y-48348000D02*
X158334094Y-48348000D01*
X167360500Y-47244000D02*
X166256500Y-48348000D01*
%TO.N,Net-(D1-A)*%
X168110500Y-46419000D02*
X168935500Y-47244000D01*
X164845000Y-46419000D02*
X168110500Y-46419000D01*
X164020000Y-47244000D02*
X164845000Y-46419000D01*
D28*
%TO.N,/MAIN*%
X236347000Y-75819000D02*
X237998000Y-74168000D01*
X179451000Y-75819000D02*
X236347000Y-75819000D01*
X174117000Y-70485000D02*
X179451000Y-75819000D01*
X171958000Y-70485000D02*
X174117000Y-70485000D01*
%TO.N,/HEI*%
X239141000Y-69723000D02*
X240152000Y-69723000D01*
X237046000Y-71818000D02*
X239141000Y-69723000D01*
X235648000Y-73194598D02*
X237024598Y-71818000D01*
X235648000Y-73216000D02*
X235648000Y-73194598D01*
X233745000Y-75119000D02*
X235648000Y-73216000D01*
X180148000Y-75119000D02*
X233745000Y-75119000D01*
X237024598Y-71818000D02*
X237046000Y-71818000D01*
X174814000Y-69785000D02*
X180148000Y-75119000D01*
X173290000Y-69785000D02*
X174814000Y-69785000D01*
X171958000Y-68453000D02*
X173290000Y-69785000D01*
%TO.N,/APOGEE*%
X176123600Y-57556400D02*
X175920400Y-57556400D01*
X188849000Y-44831000D02*
X176123600Y-57556400D01*
X236601000Y-44831000D02*
X188849000Y-44831000D01*
X237236000Y-45466000D02*
X236601000Y-44831000D01*
%TO.N,/MAIN*%
X178689000Y-62865000D02*
X178689000Y-67945000D01*
X175920400Y-60096400D02*
X178689000Y-62865000D01*
%TO.N,/HEI*%
X243713000Y-62484000D02*
X241681000Y-60452000D01*
X243713000Y-67460279D02*
X243713000Y-62484000D01*
X242750279Y-68423000D02*
X243713000Y-67460279D01*
X240152000Y-69723000D02*
X241452000Y-68423000D01*
X241452000Y-68423000D02*
X242750279Y-68423000D01*
%TO.N,/BR_NEG*%
X170484800Y-60756800D02*
X170484800Y-60452000D01*
X170484800Y-60452000D02*
X175920400Y-55016400D01*
%TO.N,Net-(GPS1-VIN)*%
X179643000Y-73471000D02*
X165862000Y-59690000D01*
X165862000Y-59690000D02*
X164592000Y-59690000D01*
X181864000Y-73471000D02*
X179643000Y-73471000D01*
%TO.N,Net-(LYRA1-SW+)*%
X160588800Y-68197800D02*
X165862000Y-73471000D01*
X160588800Y-56581200D02*
X160588800Y-68197800D01*
%TO.N,Net-(LYRA1-SW-)*%
X163128800Y-68197800D02*
X165862000Y-70931000D01*
X163128800Y-56581200D02*
X163128800Y-68197800D01*
%TO.N,Net-(BT3-+)*%
X163123078Y-54737000D02*
X166085200Y-57699122D01*
X155030800Y-55281200D02*
X155575000Y-54737000D01*
X166085200Y-57699122D02*
X166085200Y-57881200D01*
X154365000Y-55281200D02*
X155030800Y-55281200D01*
X151765000Y-57881200D02*
X154365000Y-55281200D01*
X113816273Y-57881200D02*
X151765000Y-57881200D01*
X155575000Y-54737000D02*
X163123078Y-54737000D01*
%TO.N,Net-(BT3--)*%
X106304000Y-52959000D02*
X108971000Y-55626000D01*
X102235000Y-52959000D02*
X106304000Y-52959000D01*
%TO.N,Net-(BT3-+)*%
X179135000Y-70931000D02*
X181864000Y-70931000D01*
X166085200Y-57881200D02*
X179135000Y-70931000D01*
X112752235Y-56817162D02*
X113816273Y-57881200D01*
X110300147Y-54619785D02*
X110300147Y-54928147D01*
X110300147Y-54928147D02*
X112144263Y-56772263D01*
X107389362Y-51709000D02*
X110300147Y-54619785D01*
X101485000Y-51709000D02*
X107389362Y-51709000D01*
X112144263Y-56772263D02*
X112752235Y-56817162D01*
X100235000Y-52959000D02*
X101485000Y-51709000D01*
%TD*%
M02*
