%TF.GenerationSoftware,KiCad,Pcbnew,8.0.0*%
%TF.CreationDate,2024-09-10T23:58:07-07:00*%
%TF.ProjectId,sled,736c6564-2e6b-4696-9361-645f70636258,rev?*%
%TF.SameCoordinates,Original*%
%TF.FileFunction,Legend,Top*%
%TF.FilePolarity,Positive*%
%FSLAX46Y46*%
G04 Gerber Fmt 4.6, Leading zero omitted, Abs format (unit mm)*
G04 Created by KiCad (PCBNEW 8.0.0) date 2024-09-10 23:58:07*
%MOMM*%
%LPD*%
G01*
G04 APERTURE LIST*
G04 Aperture macros list*
%AMRoundRect*
0 Rectangle with rounded corners*
0 $1 Rounding radius*
0 $2 $3 $4 $5 $6 $7 $8 $9 X,Y pos of 4 corners*
0 Add a 4 corners polygon primitive as box body*
4,1,4,$2,$3,$4,$5,$6,$7,$8,$9,$2,$3,0*
0 Add four circle primitives for the rounded corners*
1,1,$1+$1,$2,$3*
1,1,$1+$1,$4,$5*
1,1,$1+$1,$6,$7*
1,1,$1+$1,$8,$9*
0 Add four rect primitives between the rounded corners*
20,1,$1+$1,$2,$3,$4,$5,0*
20,1,$1+$1,$4,$5,$6,$7,0*
20,1,$1+$1,$6,$7,$8,$9,0*
20,1,$1+$1,$8,$9,$2,$3,0*%
G04 Aperture macros list end*
%ADD10C,0.000000*%
%ADD11C,0.100000*%
%ADD12C,0.500000*%
%ADD13C,0.150000*%
%ADD14C,0.300000*%
%ADD15C,0.120000*%
%ADD16R,1.700000X1.700000*%
%ADD17O,1.700000X1.700000*%
%ADD18R,3.000000X3.000000*%
%ADD19C,3.000000*%
%ADD20C,3.800000*%
%ADD21RoundRect,0.200000X-0.275000X0.200000X-0.275000X-0.200000X0.275000X-0.200000X0.275000X0.200000X0*%
%ADD22C,3.200000*%
%ADD23RoundRect,0.250000X0.625000X-0.350000X0.625000X0.350000X-0.625000X0.350000X-0.625000X-0.350000X0*%
%ADD24O,1.750000X1.200000*%
%ADD25RoundRect,0.571500X-0.571500X-0.678500X0.571500X-0.678500X0.571500X0.678500X-0.571500X0.678500X0*%
%ADD26RoundRect,0.218750X-0.256250X0.218750X-0.256250X-0.218750X0.256250X-0.218750X0.256250X0.218750X0*%
%ADD27R,1.000000X1.000000*%
%ADD28O,1.000000X1.000000*%
G04 APERTURE END LIST*
D10*
G36*
X140711851Y-50567530D02*
G01*
X140720736Y-50568166D01*
X140729587Y-50569228D01*
X140738389Y-50570714D01*
X140747124Y-50572624D01*
X140755778Y-50574959D01*
X140764332Y-50577718D01*
X140772770Y-50580902D01*
X140781077Y-50584511D01*
X140789235Y-50588544D01*
X140797228Y-50593002D01*
X140805039Y-50597885D01*
X140812653Y-50603192D01*
X140820052Y-50608923D01*
X140827220Y-50615079D01*
X140834140Y-50621660D01*
X141656343Y-51443863D01*
X141662924Y-51450786D01*
X141669080Y-51457955D01*
X141674812Y-51465355D01*
X141680119Y-51472970D01*
X141685002Y-51480782D01*
X141689460Y-51488776D01*
X141693494Y-51496935D01*
X141697103Y-51505241D01*
X141700287Y-51513680D01*
X141703047Y-51522234D01*
X141705383Y-51530887D01*
X141707294Y-51539623D01*
X141708780Y-51548424D01*
X141709842Y-51557274D01*
X141710480Y-51566158D01*
X141710693Y-51575058D01*
X141710481Y-51583958D01*
X141709845Y-51592842D01*
X141708785Y-51601692D01*
X141707300Y-51610493D01*
X141705390Y-51619228D01*
X141703056Y-51627881D01*
X141700298Y-51636435D01*
X141697115Y-51644873D01*
X141693508Y-51653179D01*
X141689477Y-51661337D01*
X141685021Y-51669330D01*
X141680140Y-51677142D01*
X141674835Y-51684756D01*
X141669106Y-51692155D01*
X141662952Y-51699324D01*
X141656374Y-51706245D01*
X141341479Y-52021141D01*
X141318469Y-52043238D01*
X141294819Y-52064173D01*
X141245741Y-52102572D01*
X141194523Y-52136361D01*
X141141444Y-52165565D01*
X141086781Y-52190208D01*
X141030814Y-52210314D01*
X140973821Y-52225909D01*
X140916080Y-52237015D01*
X140857869Y-52243659D01*
X140799468Y-52245863D01*
X140741154Y-52243654D01*
X140683206Y-52237054D01*
X140625903Y-52226088D01*
X140569522Y-52210781D01*
X140514343Y-52191157D01*
X140460643Y-52167241D01*
X138347812Y-54280062D01*
X138744645Y-54676896D01*
X138748776Y-54681243D01*
X138752641Y-54685746D01*
X138756239Y-54690393D01*
X138759570Y-54695175D01*
X138762636Y-54700081D01*
X138765434Y-54705101D01*
X138767966Y-54710224D01*
X138770232Y-54715440D01*
X138772231Y-54720740D01*
X138773964Y-54726111D01*
X138775430Y-54731545D01*
X138776630Y-54737030D01*
X138777563Y-54742557D01*
X138778229Y-54748114D01*
X138778630Y-54753693D01*
X138778763Y-54759281D01*
X138778630Y-54764870D01*
X138778230Y-54770448D01*
X138777564Y-54776005D01*
X138776632Y-54781531D01*
X138775432Y-54787016D01*
X138773966Y-54792449D01*
X138772234Y-54797820D01*
X138770235Y-54803118D01*
X138767969Y-54808333D01*
X138765437Y-54813455D01*
X138762638Y-54818474D01*
X138759573Y-54823379D01*
X138756241Y-54828159D01*
X138752642Y-54832805D01*
X138748777Y-54837305D01*
X138744645Y-54841651D01*
X138086442Y-55499854D01*
X138029915Y-55552922D01*
X137970584Y-55601977D01*
X137908662Y-55646955D01*
X137844360Y-55687794D01*
X137777890Y-55724429D01*
X137709466Y-55756800D01*
X137639299Y-55784842D01*
X137567601Y-55808493D01*
X137494584Y-55827691D01*
X137420460Y-55842371D01*
X137345442Y-55852472D01*
X137269742Y-55857930D01*
X137193572Y-55858683D01*
X137117143Y-55854668D01*
X137040669Y-55845821D01*
X136964361Y-55832081D01*
X136630376Y-55761005D01*
X136619863Y-55758362D01*
X136609671Y-55754990D01*
X136599828Y-55750920D01*
X136590365Y-55746179D01*
X136581311Y-55740797D01*
X136572693Y-55734803D01*
X136564542Y-55728227D01*
X136556887Y-55721097D01*
X136549757Y-55713442D01*
X136543180Y-55705292D01*
X136537186Y-55696675D01*
X136531804Y-55687622D01*
X136527063Y-55678160D01*
X136522992Y-55668319D01*
X136519621Y-55658128D01*
X136516977Y-55647617D01*
X136445902Y-55313632D01*
X136432165Y-55237326D01*
X136423321Y-55160853D01*
X136419307Y-55084426D01*
X136420061Y-55008257D01*
X136425520Y-54932558D01*
X136435620Y-54857541D01*
X136450300Y-54783419D01*
X136469496Y-54710403D01*
X136493146Y-54638705D01*
X136521186Y-54568539D01*
X136553554Y-54500116D01*
X136590188Y-54433648D01*
X136631024Y-54369347D01*
X136676000Y-54307426D01*
X136725053Y-54248097D01*
X136778119Y-54191572D01*
X137436322Y-53533369D01*
X137440669Y-53529238D01*
X137445172Y-53525373D01*
X137449819Y-53521775D01*
X137454600Y-53518444D01*
X137459506Y-53515379D01*
X137464526Y-53512580D01*
X137469649Y-53510049D01*
X137474865Y-53507783D01*
X137480164Y-53505784D01*
X137485535Y-53504052D01*
X137490968Y-53502586D01*
X137496453Y-53501387D01*
X137501980Y-53500454D01*
X137507537Y-53499788D01*
X137513115Y-53499388D01*
X137518703Y-53499255D01*
X137524292Y-53499388D01*
X137529869Y-53499788D01*
X137535427Y-53500454D01*
X137540953Y-53501387D01*
X137546437Y-53502586D01*
X137551870Y-53504052D01*
X137557241Y-53505784D01*
X137562540Y-53507783D01*
X137567755Y-53510049D01*
X137572878Y-53512580D01*
X137577897Y-53515379D01*
X137582802Y-53518444D01*
X137587583Y-53521775D01*
X137592229Y-53525373D01*
X137596730Y-53529238D01*
X137601077Y-53533369D01*
X137997910Y-53930203D01*
X140111021Y-51817101D01*
X140086898Y-51762631D01*
X140067203Y-51706797D01*
X140051938Y-51649875D01*
X140041102Y-51592142D01*
X140034697Y-51533873D01*
X140032839Y-51478784D01*
X140403493Y-51478784D01*
X140403942Y-51497779D01*
X140405294Y-51516739D01*
X140407550Y-51535629D01*
X140410710Y-51554412D01*
X140414774Y-51573054D01*
X140419741Y-51591519D01*
X140425613Y-51609772D01*
X140432388Y-51627777D01*
X140440067Y-51645498D01*
X140448651Y-51662902D01*
X140458138Y-51679951D01*
X140468529Y-51696610D01*
X140479823Y-51712845D01*
X140492022Y-51728619D01*
X140505125Y-51743898D01*
X140519131Y-51758645D01*
X140519255Y-51758759D01*
X140519369Y-51758883D01*
X140534153Y-51772927D01*
X140549461Y-51786065D01*
X140565260Y-51798295D01*
X140581513Y-51809619D01*
X140598185Y-51820036D01*
X140615243Y-51829545D01*
X140632650Y-51838149D01*
X140650372Y-51845845D01*
X140668374Y-51852635D01*
X140686620Y-51858518D01*
X140705076Y-51863495D01*
X140723706Y-51867566D01*
X140742476Y-51870730D01*
X140761350Y-51872989D01*
X140780294Y-51874341D01*
X140799273Y-51874787D01*
X140818251Y-51874327D01*
X140837193Y-51872961D01*
X140856065Y-51870689D01*
X140874831Y-51867511D01*
X140893457Y-51863428D01*
X140911907Y-51858439D01*
X140930147Y-51852545D01*
X140948140Y-51845745D01*
X140965854Y-51838040D01*
X140983251Y-51829429D01*
X141000298Y-51819914D01*
X141016959Y-51809493D01*
X141033199Y-51798167D01*
X141048984Y-51785936D01*
X141064277Y-51772800D01*
X141079045Y-51758759D01*
X141262734Y-51575080D01*
X140702934Y-51015280D01*
X140519245Y-51198969D01*
X140505231Y-51213710D01*
X140492122Y-51228984D01*
X140479916Y-51244753D01*
X140468615Y-51260983D01*
X140458217Y-51277639D01*
X140448723Y-51294684D01*
X140440132Y-51312083D01*
X140432446Y-51329802D01*
X140425663Y-51347804D01*
X140419785Y-51366055D01*
X140414810Y-51384518D01*
X140410739Y-51403158D01*
X140407572Y-51421940D01*
X140405308Y-51440829D01*
X140403949Y-51459788D01*
X140403493Y-51478784D01*
X140032839Y-51478784D01*
X140032724Y-51475345D01*
X140035182Y-51416834D01*
X140042072Y-51358615D01*
X140053396Y-51300966D01*
X140069153Y-51244161D01*
X140089345Y-51188478D01*
X140113972Y-51134193D01*
X140127949Y-51107660D01*
X140143034Y-51081580D01*
X140159229Y-51055988D01*
X140176533Y-51030918D01*
X140194946Y-51006404D01*
X140214469Y-50982481D01*
X140235101Y-50959183D01*
X140256842Y-50936545D01*
X140571737Y-50621650D01*
X140578661Y-50615071D01*
X140585831Y-50608916D01*
X140593233Y-50603186D01*
X140600848Y-50597880D01*
X140608662Y-50592999D01*
X140616657Y-50588542D01*
X140624816Y-50584509D01*
X140633124Y-50580901D01*
X140641564Y-50577717D01*
X140650120Y-50574958D01*
X140658774Y-50572624D01*
X140667510Y-50570713D01*
X140676313Y-50569228D01*
X140685164Y-50568166D01*
X140694049Y-50567530D01*
X140702950Y-50567317D01*
X140711851Y-50567530D01*
G37*
D11*
X78270100Y-61683900D02*
X99098100Y-61683900D01*
X99098100Y-65112900D01*
X78270100Y-65112900D01*
X78270100Y-61683900D01*
G36*
X78270100Y-61683900D02*
G01*
X99098100Y-61683900D01*
X99098100Y-65112900D01*
X78270100Y-65112900D01*
X78270100Y-61683900D01*
G37*
X75603100Y-62826900D02*
X79032100Y-62826900D01*
X79032100Y-69176900D01*
X75603100Y-69176900D01*
X75603100Y-62826900D01*
G36*
X75603100Y-62826900D02*
G01*
X79032100Y-62826900D01*
X79032100Y-69176900D01*
X75603100Y-69176900D01*
X75603100Y-62826900D01*
G37*
X98844100Y-63207900D02*
X100495100Y-63207900D01*
X100495100Y-69557900D01*
X98844100Y-69557900D01*
X98844100Y-63207900D01*
G36*
X98844100Y-63207900D02*
G01*
X100495100Y-63207900D01*
X100495100Y-69557900D01*
X98844100Y-69557900D01*
X98844100Y-63207900D01*
G37*
X78587600Y-67589400D02*
X99415600Y-67589400D01*
X99415600Y-71018400D01*
X78587600Y-71018400D01*
X78587600Y-67589400D01*
G36*
X78587600Y-67589400D02*
G01*
X99415600Y-67589400D01*
X99415600Y-71018400D01*
X78587600Y-71018400D01*
X78587600Y-67589400D01*
G37*
D12*
G36*
X204520612Y-74508692D02*
G01*
X204623695Y-74531635D01*
X204706599Y-74590802D01*
X204711383Y-74595971D01*
X204760552Y-74692537D01*
X204759844Y-74806774D01*
X204750019Y-74847574D01*
X204700812Y-74948253D01*
X204626487Y-75023845D01*
X204585454Y-75051672D01*
X204492779Y-75092214D01*
X204394945Y-75105727D01*
X204379787Y-75105407D01*
X204276804Y-75082618D01*
X204192712Y-75023845D01*
X204187837Y-75018642D01*
X204137615Y-74921527D01*
X204138001Y-74806774D01*
X204147862Y-74766146D01*
X204197550Y-74665948D01*
X204272824Y-74590802D01*
X204314486Y-74562788D01*
X204407818Y-74521975D01*
X204505343Y-74508370D01*
X204520612Y-74508692D01*
G37*
G36*
X217399577Y-73809113D02*
G01*
X217494328Y-73838016D01*
X217571358Y-73908266D01*
X217599690Y-73963736D01*
X217622809Y-74072481D01*
X217620207Y-74182489D01*
X217615324Y-74224626D01*
X217598721Y-74338123D01*
X217578685Y-74452317D01*
X217567677Y-74510592D01*
X217545558Y-74618217D01*
X217519579Y-74728739D01*
X217489272Y-74820016D01*
X217439322Y-74916701D01*
X217368636Y-75003512D01*
X217305078Y-75052923D01*
X217206389Y-75093649D01*
X217101923Y-75105727D01*
X217044604Y-75102134D01*
X216949854Y-75073386D01*
X216872824Y-75003512D01*
X216844491Y-74947801D01*
X216821372Y-74838812D01*
X216823975Y-74728739D01*
X216830517Y-74675503D01*
X216846758Y-74565892D01*
X216866473Y-74452317D01*
X216875878Y-74402839D01*
X216897963Y-74295149D01*
X216924603Y-74182489D01*
X216954871Y-74091256D01*
X217004669Y-73994742D01*
X217075057Y-73908266D01*
X217138851Y-73858589D01*
X217237735Y-73817644D01*
X217342258Y-73805501D01*
X217399577Y-73809113D01*
G37*
G36*
X224988691Y-73809113D02*
G01*
X225083442Y-73838016D01*
X225160472Y-73908266D01*
X225188804Y-73963736D01*
X225211923Y-74072481D01*
X225209320Y-74182489D01*
X225204437Y-74224626D01*
X225187835Y-74338123D01*
X225167799Y-74452317D01*
X225156791Y-74510592D01*
X225134672Y-74618217D01*
X225108692Y-74728739D01*
X225078386Y-74820016D01*
X225028436Y-74916701D01*
X224957750Y-75003512D01*
X224894192Y-75052923D01*
X224795502Y-75093649D01*
X224691037Y-75105727D01*
X224633718Y-75102134D01*
X224538967Y-75073386D01*
X224461937Y-75003512D01*
X224433605Y-74947801D01*
X224410486Y-74838812D01*
X224413089Y-74728739D01*
X224419630Y-74675503D01*
X224435872Y-74565892D01*
X224455587Y-74452317D01*
X224464992Y-74402839D01*
X224487077Y-74295149D01*
X224513717Y-74182489D01*
X224543985Y-74091256D01*
X224593783Y-73994742D01*
X224664170Y-73908266D01*
X224727965Y-73858589D01*
X224826849Y-73817644D01*
X224931372Y-73805501D01*
X224988691Y-73809113D01*
G37*
G36*
X192470521Y-74719396D02*
G01*
X192026487Y-74719396D01*
X192387967Y-73967067D01*
X192470521Y-74719396D01*
G37*
G36*
X196788089Y-74686802D02*
G01*
X196875685Y-74738081D01*
X196892018Y-74766966D01*
X196899620Y-74877116D01*
X196885300Y-74927584D01*
X196823905Y-75016701D01*
X196780499Y-75047363D01*
X196682244Y-75070556D01*
X196230884Y-75070556D01*
X196302691Y-74684225D01*
X196754052Y-74684225D01*
X196788089Y-74686802D01*
G37*
G36*
X196907477Y-73841799D02*
G01*
X196998783Y-73886833D01*
X197009854Y-73905439D01*
X197017345Y-74015977D01*
X197007515Y-74055166D01*
X196950911Y-74145120D01*
X196916107Y-74169463D01*
X196818043Y-74191282D01*
X196393549Y-74191282D01*
X196458518Y-73840672D01*
X196883012Y-73840672D01*
X196907477Y-73841799D01*
G37*
G36*
X198756355Y-74719396D02*
G01*
X198312321Y-74719396D01*
X198673800Y-73967067D01*
X198756355Y-74719396D01*
G37*
G36*
X211835343Y-73843975D02*
G01*
X211939253Y-73870405D01*
X212025580Y-73934644D01*
X212057912Y-73987263D01*
X212082711Y-74096797D01*
X212076871Y-74212714D01*
X212075206Y-74223529D01*
X212057460Y-74336564D01*
X212037792Y-74452317D01*
X212033718Y-74473687D01*
X212011065Y-74584626D01*
X211986990Y-74698513D01*
X211969205Y-74765002D01*
X211919803Y-74878358D01*
X211851957Y-74965556D01*
X211765667Y-75026594D01*
X211660933Y-75061473D01*
X211559565Y-75070556D01*
X211266473Y-75070556D01*
X211494108Y-73840672D01*
X211773033Y-73840672D01*
X211835343Y-73843975D01*
G37*
G36*
X221437722Y-74719396D02*
G01*
X220993689Y-74719396D01*
X221355168Y-73967067D01*
X221437722Y-74719396D01*
G37*
G36*
X227007170Y-73842676D02*
G01*
X227116010Y-73872743D01*
X227182814Y-73958489D01*
X227183291Y-74068733D01*
X227148303Y-74168751D01*
X227075514Y-74247113D01*
X226981099Y-74286405D01*
X226875545Y-74297345D01*
X226566334Y-74297345D01*
X226650842Y-73840672D01*
X226960053Y-73840672D01*
X227007170Y-73842676D01*
G37*
G36*
X229450248Y-75848670D02*
G01*
X190903075Y-75848670D01*
X190903075Y-75492608D01*
X191153075Y-75492608D01*
X191161379Y-75542617D01*
X191199969Y-75563500D01*
X191544840Y-75563500D01*
X191622509Y-75539319D01*
X191666962Y-75482167D01*
X191793479Y-75212339D01*
X192521812Y-75212339D01*
X192549167Y-75482167D01*
X192572614Y-75539319D01*
X192640514Y-75563500D01*
X192985385Y-75563500D01*
X193031791Y-75543166D01*
X193058657Y-75493707D01*
X193056703Y-75446446D01*
X192828092Y-73452142D01*
X192813959Y-73417521D01*
X193430395Y-73417521D01*
X193430884Y-73458737D01*
X193624324Y-75437104D01*
X193651703Y-75518940D01*
X193745957Y-75563500D01*
X194107436Y-75563500D01*
X194120629Y-75563010D01*
X194213258Y-75523855D01*
X194246734Y-75477770D01*
X195648609Y-75477770D01*
X195659355Y-75538220D01*
X195707227Y-75563500D01*
X196646585Y-75563500D01*
X196666815Y-75563307D01*
X196782610Y-75554085D01*
X196888821Y-75531030D01*
X196985449Y-75494142D01*
X196988082Y-75492608D01*
X197438909Y-75492608D01*
X197447213Y-75542617D01*
X197485803Y-75563500D01*
X197830674Y-75563500D01*
X197908343Y-75539319D01*
X197952796Y-75482167D01*
X198079313Y-75212339D01*
X198807646Y-75212339D01*
X198835001Y-75482167D01*
X198858448Y-75539319D01*
X198926348Y-75563500D01*
X199271218Y-75563500D01*
X199317625Y-75543166D01*
X199344491Y-75493707D01*
X199342537Y-75446446D01*
X199113926Y-73452142D01*
X199099793Y-73417521D01*
X199635629Y-73417521D01*
X199638560Y-73459286D01*
X200022021Y-74811170D01*
X199898434Y-75478869D01*
X199909181Y-75538770D01*
X199956075Y-75563500D01*
X200315112Y-75563500D01*
X200371288Y-75538770D01*
X200404505Y-75478869D01*
X200528092Y-74811170D01*
X201406878Y-73478520D01*
X201425440Y-73437854D01*
X201423554Y-73417521D01*
X202016020Y-73417521D01*
X202016508Y-73458737D01*
X202209948Y-75437104D01*
X202237328Y-75518940D01*
X202331581Y-75563500D01*
X202693061Y-75563500D01*
X202706254Y-75563010D01*
X202798883Y-75523855D01*
X202861100Y-75438203D01*
X203066132Y-75002076D01*
X203617293Y-75002076D01*
X203631843Y-75117991D01*
X203665636Y-75224429D01*
X203686374Y-75268316D01*
X203750840Y-75366536D01*
X203824278Y-75440894D01*
X203912321Y-75501950D01*
X204000554Y-75544265D01*
X204095259Y-75574490D01*
X204196437Y-75592625D01*
X204304087Y-75598670D01*
X204414057Y-75592625D01*
X204521707Y-75574490D01*
X204627037Y-75544265D01*
X204730046Y-75501950D01*
X204774410Y-75477770D01*
X210684198Y-75477770D01*
X210694945Y-75538220D01*
X210742817Y-75563500D01*
X211482384Y-75563500D01*
X211544048Y-75561748D01*
X211648984Y-75550252D01*
X211750133Y-75528028D01*
X211847496Y-75495075D01*
X211884566Y-75477770D01*
X212708483Y-75477770D01*
X212719230Y-75538220D01*
X212767101Y-75563500D01*
X214065008Y-75563500D01*
X214121672Y-75538770D01*
X214154401Y-75480518D01*
X214214973Y-75153538D01*
X214203738Y-75095286D01*
X214155866Y-75070556D01*
X213290758Y-75070556D01*
X213362077Y-74684775D01*
X214145119Y-74684775D01*
X214201784Y-74660045D01*
X214235001Y-74601793D01*
X214295573Y-74274813D01*
X214283849Y-74216561D01*
X214236466Y-74191832D01*
X213453424Y-74191832D01*
X213518392Y-73840672D01*
X214361519Y-73840672D01*
X214418183Y-73815942D01*
X214450911Y-73757690D01*
X214689292Y-73757690D01*
X214700039Y-73815942D01*
X214747911Y-73840672D01*
X215230046Y-73840672D01*
X214927673Y-75477221D01*
X214937932Y-75538220D01*
X214985803Y-75563500D01*
X215344352Y-75563500D01*
X215401016Y-75538220D01*
X215434722Y-75477221D01*
X215533898Y-74940445D01*
X216304982Y-74940445D01*
X216318703Y-75061316D01*
X216348190Y-75174970D01*
X216371431Y-75233963D01*
X216425768Y-75330211D01*
X216496178Y-75413678D01*
X216582663Y-75484365D01*
X216604029Y-75498207D01*
X216696703Y-75544643D01*
X216800919Y-75576792D01*
X216901574Y-75593201D01*
X217011065Y-75598670D01*
X217075247Y-75596902D01*
X217183783Y-75585294D01*
X217287504Y-75562851D01*
X217386409Y-75529575D01*
X217480500Y-75485464D01*
X217493558Y-75478311D01*
X217494427Y-75477770D01*
X218251819Y-75477770D01*
X218262565Y-75538220D01*
X218310437Y-75563500D01*
X218668985Y-75563500D01*
X218725650Y-75538770D01*
X218758867Y-75478869D01*
X218954750Y-74419344D01*
X219383151Y-75491509D01*
X219415392Y-75539869D01*
X219482314Y-75563500D01*
X219767101Y-75563500D01*
X219823766Y-75538220D01*
X219848830Y-75492608D01*
X220120276Y-75492608D01*
X220128581Y-75542617D01*
X220167171Y-75563500D01*
X220512042Y-75563500D01*
X220589711Y-75539319D01*
X220634163Y-75482167D01*
X220760681Y-75212339D01*
X221489013Y-75212339D01*
X221516369Y-75482167D01*
X221539816Y-75539319D01*
X221607715Y-75563500D01*
X221952586Y-75563500D01*
X221998992Y-75543166D01*
X222025859Y-75493707D01*
X222023905Y-75446446D01*
X221830320Y-73757690D01*
X222278406Y-73757690D01*
X222289153Y-73815942D01*
X222337024Y-73840672D01*
X222819160Y-73840672D01*
X222516787Y-75477221D01*
X222527045Y-75538220D01*
X222574917Y-75563500D01*
X222933466Y-75563500D01*
X222990130Y-75538220D01*
X223023835Y-75477221D01*
X223123011Y-74940445D01*
X223894096Y-74940445D01*
X223907817Y-75061316D01*
X223937304Y-75174970D01*
X223960545Y-75233963D01*
X224014881Y-75330211D01*
X224085292Y-75413678D01*
X224171777Y-75484365D01*
X224193142Y-75498207D01*
X224285817Y-75544643D01*
X224390033Y-75576792D01*
X224490688Y-75593201D01*
X224600179Y-75598670D01*
X224664361Y-75596902D01*
X224772897Y-75585294D01*
X224876618Y-75562851D01*
X224975523Y-75529575D01*
X225069613Y-75485464D01*
X225082671Y-75478311D01*
X225083540Y-75477770D01*
X225840932Y-75477770D01*
X225851679Y-75538220D01*
X225899551Y-75563500D01*
X226258099Y-75563500D01*
X226314763Y-75538220D01*
X226348469Y-75476671D01*
X226475475Y-74790288D01*
X226727534Y-74790288D01*
X226904366Y-75476671D01*
X226933675Y-75539319D01*
X227003040Y-75563500D01*
X227375754Y-75563500D01*
X227422161Y-75542617D01*
X227449516Y-75493158D01*
X227447073Y-75457987D01*
X227248260Y-74696315D01*
X227313075Y-74661375D01*
X227410376Y-74592108D01*
X227494272Y-74509048D01*
X227564764Y-74412195D01*
X227621851Y-74301551D01*
X227665533Y-74177114D01*
X227683083Y-74101157D01*
X228022509Y-74101157D01*
X228035210Y-74167652D01*
X228083082Y-74191832D01*
X228296550Y-74191832D01*
X228352237Y-74167652D01*
X228389362Y-74101157D01*
X228647283Y-74101157D01*
X228659006Y-74167652D01*
X228707366Y-74191832D01*
X228920835Y-74191832D01*
X228977011Y-74167652D01*
X229014135Y-74101157D01*
X229198295Y-73429061D01*
X229200248Y-73344981D01*
X229146027Y-73312557D01*
X228807018Y-73312557D01*
X228740583Y-73344981D01*
X228710786Y-73429061D01*
X228647283Y-74101157D01*
X228389362Y-74101157D01*
X228574010Y-73429061D01*
X228575964Y-73344981D01*
X228522230Y-73312557D01*
X228182244Y-73312557D01*
X228115810Y-73344981D01*
X228086501Y-73429061D01*
X228022509Y-74101157D01*
X227683083Y-74101157D01*
X227690828Y-74067634D01*
X227705687Y-73959998D01*
X227708344Y-73842275D01*
X227690519Y-73720705D01*
X227650160Y-73616123D01*
X227587269Y-73528529D01*
X227553752Y-73496218D01*
X227462056Y-73433185D01*
X227368427Y-73392929D01*
X227260922Y-73365385D01*
X227160735Y-73352142D01*
X227050911Y-73347728D01*
X226308902Y-73347728D01*
X226251749Y-73373008D01*
X226219020Y-73433458D01*
X226059247Y-74297345D01*
X225840932Y-75477770D01*
X225083540Y-75477770D01*
X225170150Y-75423880D01*
X225261710Y-75352336D01*
X225344295Y-75270832D01*
X225417904Y-75179367D01*
X225482048Y-75079796D01*
X225535751Y-74974523D01*
X225579012Y-74863549D01*
X225611833Y-74746874D01*
X225625357Y-74689029D01*
X225648984Y-74574780D01*
X225670451Y-74462209D01*
X225683445Y-74390853D01*
X225702451Y-74280107D01*
X225718322Y-74170949D01*
X225727258Y-74082309D01*
X225728220Y-73969171D01*
X225714340Y-73848788D01*
X225684617Y-73735708D01*
X225661376Y-73676729D01*
X225607039Y-73580573D01*
X225536629Y-73497284D01*
X225450144Y-73426863D01*
X225428839Y-73413021D01*
X225336409Y-73366585D01*
X225232438Y-73334436D01*
X225131996Y-73318027D01*
X225022719Y-73312557D01*
X224958407Y-73314343D01*
X224849607Y-73326064D01*
X224745576Y-73348724D01*
X224646313Y-73382324D01*
X224551819Y-73426863D01*
X224525841Y-73441469D01*
X224439308Y-73497594D01*
X224359600Y-73561502D01*
X224276862Y-73644071D01*
X224203040Y-73736807D01*
X224138865Y-73837237D01*
X224085071Y-73943437D01*
X224041656Y-74055407D01*
X224008623Y-74173147D01*
X223994970Y-74237277D01*
X223971477Y-74350930D01*
X223950493Y-74458911D01*
X223940082Y-74516751D01*
X223921471Y-74627736D01*
X223904087Y-74738081D01*
X223895134Y-74826946D01*
X223895025Y-74838812D01*
X223894096Y-74940445D01*
X223123011Y-74940445D01*
X223326208Y-73840672D01*
X223807855Y-73840672D01*
X223864031Y-73815942D01*
X223896759Y-73757690D01*
X223957332Y-73430710D01*
X223946096Y-73372458D01*
X223898713Y-73347728D01*
X222427883Y-73347728D01*
X222371218Y-73372458D01*
X222338978Y-73430710D01*
X222278406Y-73757690D01*
X221830320Y-73757690D01*
X221795294Y-73452142D01*
X221765008Y-73377953D01*
X221691246Y-73347728D01*
X221247213Y-73347728D01*
X221162216Y-73377953D01*
X221105552Y-73452142D01*
X220491550Y-74719396D01*
X220139816Y-75445347D01*
X220120276Y-75492608D01*
X219848830Y-75492608D01*
X219856983Y-75477770D01*
X220235071Y-73433458D01*
X220223835Y-73373008D01*
X220176452Y-73347728D01*
X219818392Y-73347728D01*
X219761239Y-73373557D01*
X219728511Y-73434007D01*
X219528720Y-74513316D01*
X219103249Y-73421368D01*
X219071009Y-73371908D01*
X219004575Y-73347728D01*
X218719788Y-73347728D01*
X218662635Y-73373008D01*
X218629907Y-73433458D01*
X218251819Y-75477770D01*
X217494427Y-75477770D01*
X217581036Y-75423880D01*
X217672597Y-75352336D01*
X217755181Y-75270832D01*
X217828790Y-75179367D01*
X217892934Y-75079796D01*
X217946637Y-74974523D01*
X217989899Y-74863549D01*
X218022719Y-74746874D01*
X218036243Y-74689029D01*
X218059870Y-74574780D01*
X218081337Y-74462209D01*
X218094332Y-74390853D01*
X218113338Y-74280107D01*
X218129209Y-74170949D01*
X218138145Y-74082309D01*
X218139106Y-73969171D01*
X218125226Y-73848788D01*
X218095503Y-73735708D01*
X218072262Y-73676729D01*
X218017926Y-73580573D01*
X217947515Y-73497284D01*
X217861030Y-73426863D01*
X217839726Y-73413021D01*
X217747295Y-73366585D01*
X217643324Y-73334436D01*
X217542882Y-73318027D01*
X217433605Y-73312557D01*
X217369293Y-73314343D01*
X217260493Y-73326064D01*
X217156462Y-73348724D01*
X217057199Y-73382324D01*
X216962705Y-73426863D01*
X216936727Y-73441469D01*
X216850194Y-73497594D01*
X216770486Y-73561502D01*
X216687748Y-73644071D01*
X216613926Y-73736807D01*
X216549751Y-73837237D01*
X216495957Y-73943437D01*
X216452543Y-74055407D01*
X216419509Y-74173147D01*
X216405856Y-74237277D01*
X216382363Y-74350930D01*
X216361379Y-74458911D01*
X216350968Y-74516751D01*
X216332357Y-74627736D01*
X216314973Y-74738081D01*
X216306020Y-74826946D01*
X216305911Y-74838812D01*
X216304982Y-74940445D01*
X215533898Y-74940445D01*
X215737094Y-73840672D01*
X216218741Y-73840672D01*
X216274917Y-73815942D01*
X216307646Y-73757690D01*
X216368218Y-73430710D01*
X216356983Y-73372458D01*
X216309600Y-73347728D01*
X214838769Y-73347728D01*
X214782105Y-73372458D01*
X214749865Y-73430710D01*
X214689292Y-73757690D01*
X214450911Y-73757690D01*
X214511484Y-73430710D01*
X214500248Y-73372458D01*
X214452377Y-73347728D01*
X213176452Y-73347728D01*
X213119299Y-73373008D01*
X213086571Y-73433458D01*
X212708483Y-75477770D01*
X211884566Y-75477770D01*
X211941072Y-75451392D01*
X211992455Y-75421871D01*
X212077525Y-75363680D01*
X212156425Y-75297180D01*
X212229154Y-75222370D01*
X212295713Y-75139250D01*
X212330593Y-75088442D01*
X212384950Y-74995025D01*
X212430798Y-74895876D01*
X212468138Y-74790993D01*
X212496969Y-74680378D01*
X212521194Y-74569121D01*
X212543863Y-74458911D01*
X212544461Y-74455627D01*
X212562334Y-74346125D01*
X212580011Y-74230849D01*
X212591709Y-74121253D01*
X212591854Y-74002568D01*
X212577894Y-73890890D01*
X212545329Y-73773627D01*
X212520010Y-73712946D01*
X212462235Y-73614675D01*
X212388771Y-73530488D01*
X212299620Y-73460385D01*
X212277766Y-73446743D01*
X212184359Y-73400976D01*
X212081365Y-73369292D01*
X211983381Y-73353119D01*
X211878057Y-73347728D01*
X211152168Y-73347728D01*
X211095015Y-73373008D01*
X211062286Y-73433458D01*
X210759511Y-75070556D01*
X210684198Y-75477770D01*
X204774410Y-75477770D01*
X204828415Y-75448335D01*
X204919334Y-75384210D01*
X205002804Y-75309575D01*
X205078825Y-75224429D01*
X205144862Y-75130251D01*
X205198382Y-75028516D01*
X205239384Y-74919225D01*
X205267869Y-74802378D01*
X205272497Y-74774351D01*
X206134931Y-74774351D01*
X206145189Y-74834801D01*
X206193061Y-74860080D01*
X207055727Y-74860080D01*
X207112391Y-74834801D01*
X207145608Y-74774351D01*
X207475336Y-74774351D01*
X207485594Y-74834801D01*
X207533466Y-74860080D01*
X208396131Y-74860080D01*
X208452796Y-74834801D01*
X208486013Y-74774351D01*
X208545119Y-74452866D01*
X208534373Y-74392966D01*
X208487478Y-74367137D01*
X207624812Y-74367137D01*
X207567660Y-74392966D01*
X207534442Y-74452866D01*
X207475336Y-74774351D01*
X207145608Y-74774351D01*
X207204715Y-74452866D01*
X207193968Y-74392966D01*
X207147073Y-74367137D01*
X206284408Y-74367137D01*
X206227255Y-74392966D01*
X206194038Y-74452866D01*
X206134931Y-74774351D01*
X205272497Y-74774351D01*
X205274569Y-74761803D01*
X205283852Y-74645293D01*
X205275131Y-74525016D01*
X205246375Y-74414398D01*
X205238315Y-74393438D01*
X205188856Y-74296623D01*
X205124132Y-74213118D01*
X205044142Y-74142922D01*
X205008384Y-74118699D01*
X204974543Y-74101157D01*
X209553842Y-74101157D01*
X209566543Y-74167652D01*
X209614415Y-74191832D01*
X209827883Y-74191832D01*
X209883570Y-74167652D01*
X209920695Y-74101157D01*
X210178616Y-74101157D01*
X210190339Y-74167652D01*
X210238699Y-74191832D01*
X210452168Y-74191832D01*
X210508343Y-74167652D01*
X210545468Y-74101157D01*
X210729627Y-73429061D01*
X210731581Y-73344981D01*
X210677359Y-73312557D01*
X210338350Y-73312557D01*
X210271916Y-73344981D01*
X210242119Y-73429061D01*
X210178616Y-74101157D01*
X209920695Y-74101157D01*
X210105343Y-73429061D01*
X210107297Y-73344981D01*
X210053563Y-73312557D01*
X209713577Y-73312557D01*
X209647143Y-73344981D01*
X209617834Y-73429061D01*
X209553842Y-74101157D01*
X204974543Y-74101157D01*
X204911707Y-74068585D01*
X204815807Y-74036239D01*
X204711484Y-74015977D01*
X205169683Y-73464232D01*
X205191177Y-73423566D01*
X205185315Y-73370260D01*
X205149655Y-73347728D01*
X204714415Y-73347728D01*
X204672893Y-73358719D01*
X204637722Y-73387296D01*
X204617694Y-73410926D01*
X203944073Y-74229201D01*
X203932179Y-74244427D01*
X203864453Y-74332201D01*
X203800946Y-74417695D01*
X203756689Y-74486217D01*
X203704715Y-74582559D01*
X203701628Y-74588830D01*
X203659633Y-74694566D01*
X203632907Y-74802927D01*
X203620514Y-74891084D01*
X203619631Y-74921527D01*
X203617293Y-75002076D01*
X203066132Y-75002076D01*
X203782384Y-73478520D01*
X203798015Y-73437854D01*
X203791665Y-73374656D01*
X203754052Y-73347728D01*
X203409181Y-73347728D01*
X203332489Y-73371908D01*
X203287548Y-73427413D01*
X202648609Y-74826558D01*
X202526487Y-73427413D01*
X202502551Y-73371908D01*
X202434163Y-73347728D01*
X202088804Y-73347728D01*
X202042886Y-73368611D01*
X202016020Y-73417521D01*
X201423554Y-73417521D01*
X201419579Y-73374656D01*
X201381965Y-73347728D01*
X201006808Y-73347728D01*
X200926208Y-73375206D01*
X200876871Y-73427962D01*
X200383012Y-74218759D01*
X200184198Y-73427962D01*
X200153912Y-73375206D01*
X200083570Y-73347728D01*
X199708413Y-73347728D01*
X199662007Y-73368611D01*
X199635629Y-73417521D01*
X199099793Y-73417521D01*
X199083640Y-73377953D01*
X199009879Y-73347728D01*
X198565845Y-73347728D01*
X198480849Y-73377953D01*
X198424184Y-73452142D01*
X197810182Y-74719396D01*
X197458448Y-75445347D01*
X197438909Y-75492608D01*
X196988082Y-75492608D01*
X197072495Y-75443420D01*
X197161937Y-75366762D01*
X197218015Y-75302721D01*
X197285425Y-75205041D01*
X197339885Y-75097998D01*
X197381395Y-74981594D01*
X197406669Y-74874368D01*
X197413294Y-74834612D01*
X197423439Y-74716079D01*
X197413507Y-74599595D01*
X197412009Y-74592550D01*
X197370640Y-74487999D01*
X197302133Y-74403957D01*
X197368445Y-74341995D01*
X197434512Y-74257228D01*
X197457937Y-74219000D01*
X197502442Y-74112972D01*
X197529278Y-74003337D01*
X197541927Y-73908051D01*
X197542483Y-73797257D01*
X197524394Y-73683501D01*
X197496324Y-73605096D01*
X197436538Y-73513403D01*
X197359285Y-73442250D01*
X197298267Y-73405420D01*
X197205046Y-73371359D01*
X197108234Y-73353636D01*
X196998295Y-73347728D01*
X196116578Y-73347728D01*
X196059425Y-73373008D01*
X196026696Y-73433458D01*
X195886540Y-74191282D01*
X195723922Y-75070556D01*
X195648609Y-75477770D01*
X194246734Y-75477770D01*
X194275475Y-75438203D01*
X195196759Y-73478520D01*
X195212391Y-73437854D01*
X195206041Y-73374656D01*
X195168427Y-73347728D01*
X194823556Y-73347728D01*
X194746864Y-73371908D01*
X194701923Y-73427413D01*
X194062984Y-74826558D01*
X193940863Y-73427413D01*
X193916927Y-73371908D01*
X193848539Y-73347728D01*
X193503179Y-73347728D01*
X193457262Y-73368611D01*
X193430395Y-73417521D01*
X192813959Y-73417521D01*
X192797806Y-73377953D01*
X192724045Y-73347728D01*
X192280011Y-73347728D01*
X192195015Y-73377953D01*
X192138350Y-73452142D01*
X191524348Y-74719396D01*
X191172614Y-75445347D01*
X191153075Y-75492608D01*
X190903075Y-75492608D01*
X190903075Y-73062557D01*
X229450248Y-73062557D01*
X229450248Y-75848670D01*
G37*
G36*
X184503592Y-43633913D02*
G01*
X184598343Y-43662816D01*
X184675373Y-43733066D01*
X184703705Y-43788536D01*
X184726824Y-43897281D01*
X184724221Y-44007289D01*
X184719338Y-44049426D01*
X184702736Y-44162923D01*
X184682700Y-44277117D01*
X184671692Y-44335392D01*
X184649573Y-44443017D01*
X184623593Y-44553539D01*
X184593287Y-44644816D01*
X184543337Y-44741501D01*
X184472651Y-44828312D01*
X184409093Y-44877723D01*
X184310403Y-44918449D01*
X184205938Y-44930527D01*
X184148619Y-44926934D01*
X184053868Y-44898186D01*
X183976838Y-44828312D01*
X183948506Y-44772601D01*
X183925387Y-44663612D01*
X183927990Y-44553539D01*
X183934531Y-44500303D01*
X183950773Y-44390692D01*
X183970488Y-44277117D01*
X183979893Y-44227639D01*
X184001978Y-44119949D01*
X184028618Y-44007289D01*
X184058886Y-43916056D01*
X184108684Y-43819542D01*
X184179071Y-43733066D01*
X184242866Y-43683389D01*
X184341750Y-43642444D01*
X184446273Y-43630301D01*
X184503592Y-43633913D01*
G37*
G36*
X188772957Y-43633913D02*
G01*
X188867708Y-43662816D01*
X188944738Y-43733066D01*
X188973070Y-43788536D01*
X188996189Y-43897281D01*
X188993586Y-44007289D01*
X188988703Y-44049426D01*
X188972101Y-44162923D01*
X188952065Y-44277117D01*
X188941057Y-44335392D01*
X188918938Y-44443017D01*
X188892958Y-44553539D01*
X188862652Y-44644816D01*
X188812702Y-44741501D01*
X188742016Y-44828312D01*
X188678458Y-44877723D01*
X188579768Y-44918449D01*
X188475303Y-44930527D01*
X188417984Y-44926934D01*
X188323233Y-44898186D01*
X188246203Y-44828312D01*
X188217871Y-44772601D01*
X188194752Y-44663612D01*
X188197355Y-44553539D01*
X188203896Y-44500303D01*
X188220138Y-44390692D01*
X188239853Y-44277117D01*
X188249258Y-44227639D01*
X188271343Y-44119949D01*
X188297983Y-44007289D01*
X188328251Y-43916056D01*
X188378049Y-43819542D01*
X188448436Y-43733066D01*
X188512231Y-43683389D01*
X188611115Y-43642444D01*
X188715638Y-43630301D01*
X188772957Y-43633913D01*
G37*
G36*
X198911966Y-43633913D02*
G01*
X199006717Y-43662816D01*
X199083747Y-43733066D01*
X199112079Y-43788536D01*
X199135198Y-43897281D01*
X199132595Y-44007289D01*
X199127713Y-44049426D01*
X199111110Y-44162923D01*
X199091074Y-44277117D01*
X199080066Y-44335392D01*
X199057947Y-44443017D01*
X199031967Y-44553539D01*
X199001661Y-44644816D01*
X198951711Y-44741501D01*
X198881025Y-44828312D01*
X198817467Y-44877723D01*
X198718777Y-44918449D01*
X198614312Y-44930527D01*
X198556993Y-44926934D01*
X198462242Y-44898186D01*
X198385212Y-44828312D01*
X198356880Y-44772601D01*
X198333761Y-44663612D01*
X198336364Y-44553539D01*
X198342905Y-44500303D01*
X198359147Y-44390692D01*
X198378862Y-44277117D01*
X198388267Y-44227639D01*
X198410352Y-44119949D01*
X198436992Y-44007289D01*
X198467260Y-43916056D01*
X198517058Y-43819542D01*
X198587445Y-43733066D01*
X198651240Y-43683389D01*
X198750124Y-43642444D01*
X198854647Y-43630301D01*
X198911966Y-43633913D01*
G37*
G36*
X204099498Y-43631184D02*
G01*
X204198436Y-43655442D01*
X204271953Y-43730868D01*
X204291096Y-43785925D01*
X204302798Y-43896931D01*
X204293935Y-44011686D01*
X204288325Y-44054410D01*
X204270373Y-44166840D01*
X204249972Y-44280414D01*
X204239830Y-44334794D01*
X204217436Y-44448009D01*
X204193307Y-44555187D01*
X204174561Y-44629299D01*
X204131765Y-44738727D01*
X204070209Y-44832159D01*
X204023223Y-44875195D01*
X203928768Y-44918904D01*
X203831339Y-44930527D01*
X203803499Y-44929658D01*
X203704089Y-44905798D01*
X203629106Y-44831609D01*
X203609445Y-44776929D01*
X203597811Y-44666977D01*
X203607613Y-44553539D01*
X203614849Y-44507986D01*
X203633991Y-44390186D01*
X203653531Y-44277117D01*
X203662159Y-44232086D01*
X203685026Y-44118514D01*
X203708241Y-44007289D01*
X203728630Y-43932964D01*
X203772938Y-43823291D01*
X203834270Y-43729768D01*
X203880615Y-43686251D01*
X203974419Y-43642054D01*
X204071674Y-43630301D01*
X204099498Y-43631184D01*
G37*
G36*
X206772492Y-43631184D02*
G01*
X206871430Y-43655442D01*
X206944947Y-43730868D01*
X206964090Y-43785925D01*
X206975792Y-43896931D01*
X206966929Y-44011686D01*
X206961319Y-44054410D01*
X206943367Y-44166840D01*
X206922965Y-44280414D01*
X206912824Y-44334794D01*
X206890429Y-44448009D01*
X206866301Y-44555187D01*
X206847554Y-44629299D01*
X206804758Y-44738727D01*
X206743203Y-44832159D01*
X206696216Y-44875195D01*
X206601762Y-44918904D01*
X206504333Y-44930527D01*
X206476492Y-44929658D01*
X206377083Y-44905798D01*
X206302100Y-44831609D01*
X206282438Y-44776929D01*
X206270804Y-44666977D01*
X206280607Y-44553539D01*
X206287842Y-44507986D01*
X206306985Y-44390186D01*
X206326524Y-44277117D01*
X206335153Y-44232086D01*
X206358020Y-44118514D01*
X206381235Y-44007289D01*
X206401624Y-43932964D01*
X206445931Y-43823291D01*
X206507264Y-43729768D01*
X206553609Y-43686251D01*
X206647413Y-43642054D01*
X206744668Y-43630301D01*
X206772492Y-43631184D01*
G37*
G36*
X208699079Y-43631184D02*
G01*
X208798018Y-43655442D01*
X208871535Y-43730868D01*
X208890677Y-43785925D01*
X208902379Y-43896931D01*
X208893517Y-44011686D01*
X208887907Y-44054410D01*
X208869955Y-44166840D01*
X208849553Y-44280414D01*
X208839411Y-44334794D01*
X208817017Y-44448009D01*
X208792889Y-44555187D01*
X208774142Y-44629299D01*
X208731346Y-44738727D01*
X208669790Y-44832159D01*
X208622804Y-44875195D01*
X208528349Y-44918904D01*
X208430921Y-44930527D01*
X208403080Y-44929658D01*
X208303670Y-44905798D01*
X208228688Y-44831609D01*
X208209026Y-44776929D01*
X208197392Y-44666977D01*
X208207194Y-44553539D01*
X208214430Y-44507986D01*
X208233572Y-44390186D01*
X208253112Y-44277117D01*
X208261740Y-44232086D01*
X208284608Y-44118514D01*
X208307822Y-44007289D01*
X208328212Y-43932964D01*
X208372519Y-43823291D01*
X208433852Y-43729768D01*
X208480197Y-43686251D01*
X208574000Y-43642054D01*
X208671256Y-43630301D01*
X208699079Y-43631184D01*
G37*
G36*
X210625667Y-43631184D02*
G01*
X210724605Y-43655442D01*
X210798122Y-43730868D01*
X210817265Y-43785925D01*
X210828967Y-43896931D01*
X210820104Y-44011686D01*
X210814494Y-44054410D01*
X210796542Y-44166840D01*
X210776140Y-44280414D01*
X210765999Y-44334794D01*
X210743605Y-44448009D01*
X210719476Y-44555187D01*
X210700730Y-44629299D01*
X210657934Y-44738727D01*
X210596378Y-44832159D01*
X210549392Y-44875195D01*
X210454937Y-44918904D01*
X210357508Y-44930527D01*
X210329667Y-44929658D01*
X210230258Y-44905798D01*
X210155275Y-44831609D01*
X210135614Y-44776929D01*
X210123980Y-44666977D01*
X210133782Y-44553539D01*
X210141017Y-44507986D01*
X210160160Y-44390186D01*
X210179699Y-44277117D01*
X210188328Y-44232086D01*
X210211195Y-44118514D01*
X210234410Y-44007289D01*
X210254799Y-43932964D01*
X210299107Y-43823291D01*
X210360439Y-43729768D01*
X210406784Y-43686251D01*
X210500588Y-43642054D01*
X210597843Y-43630301D01*
X210625667Y-43631184D01*
G37*
G36*
X220831296Y-43633913D02*
G01*
X220926047Y-43662816D01*
X221003077Y-43733066D01*
X221031409Y-43788536D01*
X221054528Y-43897281D01*
X221051926Y-44007289D01*
X221047043Y-44049426D01*
X221030440Y-44162923D01*
X221010404Y-44277117D01*
X220999396Y-44335392D01*
X220977277Y-44443017D01*
X220951297Y-44553539D01*
X220920991Y-44644816D01*
X220871041Y-44741501D01*
X220800355Y-44828312D01*
X220736797Y-44877723D01*
X220638108Y-44918449D01*
X220533642Y-44930527D01*
X220476323Y-44926934D01*
X220381572Y-44898186D01*
X220304542Y-44828312D01*
X220276210Y-44772601D01*
X220253091Y-44663612D01*
X220255694Y-44553539D01*
X220262235Y-44500303D01*
X220278477Y-44390692D01*
X220298192Y-44277117D01*
X220307597Y-44227639D01*
X220329682Y-44119949D01*
X220356322Y-44007289D01*
X220386590Y-43916056D01*
X220436388Y-43819542D01*
X220506775Y-43733066D01*
X220570570Y-43683389D01*
X220669454Y-43642444D01*
X220773977Y-43630301D01*
X220831296Y-43633913D01*
G37*
G36*
X192875582Y-44544196D02*
G01*
X192431549Y-44544196D01*
X192793028Y-43791867D01*
X192875582Y-44544196D01*
G37*
G36*
X222849775Y-43667476D02*
G01*
X222958615Y-43697543D01*
X223025420Y-43783289D01*
X223025896Y-43893533D01*
X222990908Y-43993551D01*
X222918119Y-44071913D01*
X222823704Y-44111205D01*
X222718150Y-44122145D01*
X222408939Y-44122145D01*
X222493447Y-43665472D01*
X222802658Y-43665472D01*
X222849775Y-43667476D01*
G37*
G36*
X225361189Y-44511602D02*
G01*
X225448785Y-44562881D01*
X225465119Y-44591766D01*
X225472721Y-44701916D01*
X225458400Y-44752384D01*
X225397006Y-44841501D01*
X225353599Y-44872163D01*
X225255345Y-44895356D01*
X224803984Y-44895356D01*
X224875792Y-44509025D01*
X225327152Y-44509025D01*
X225361189Y-44511602D01*
G37*
G36*
X225480577Y-43666599D02*
G01*
X225571884Y-43711633D01*
X225582955Y-43730239D01*
X225590446Y-43840777D01*
X225580615Y-43879966D01*
X225524012Y-43969920D01*
X225489207Y-43994263D01*
X225391144Y-44016082D01*
X224966650Y-44016082D01*
X225031618Y-43665472D01*
X225456113Y-43665472D01*
X225480577Y-43666599D01*
G37*
G36*
X232244494Y-45884496D02*
G01*
X179208346Y-45884496D01*
X179208346Y-45564154D01*
X204748227Y-45564154D01*
X204757508Y-45613614D01*
X204796099Y-45634496D01*
X205001263Y-45634496D01*
X205069370Y-45614721D01*
X205138527Y-45531182D01*
X205470697Y-44888212D01*
X205478025Y-44865681D01*
X205469720Y-44812924D01*
X205431130Y-44790393D01*
X205094075Y-44790393D01*
X205006147Y-44827762D01*
X204952903Y-44917338D01*
X204749692Y-45557560D01*
X204748227Y-45564154D01*
X179208346Y-45564154D01*
X179208346Y-43582490D01*
X179458346Y-43582490D01*
X179469092Y-43640742D01*
X179516964Y-43665472D01*
X179999099Y-43665472D01*
X179696727Y-45302021D01*
X179706985Y-45363020D01*
X179754856Y-45388300D01*
X180113405Y-45388300D01*
X180170069Y-45363020D01*
X180203775Y-45302021D01*
X180210070Y-45267949D01*
X181291632Y-45267949D01*
X181320942Y-45350381D01*
X181405938Y-45388300D01*
X181633572Y-45388300D01*
X181727362Y-45352579D01*
X181792330Y-45269048D01*
X182128897Y-44561232D01*
X182202658Y-45269048D01*
X182236852Y-45352579D01*
X182317941Y-45388300D01*
X182545575Y-45388300D01*
X182552029Y-45388151D01*
X182644249Y-45350381D01*
X182704822Y-45267949D01*
X182886561Y-44765245D01*
X183408997Y-44765245D01*
X183422718Y-44886116D01*
X183452205Y-44999770D01*
X183475446Y-45058763D01*
X183529782Y-45155011D01*
X183600193Y-45238478D01*
X183686678Y-45309165D01*
X183708043Y-45323007D01*
X183800718Y-45369443D01*
X183904934Y-45401592D01*
X184005589Y-45418001D01*
X184115080Y-45423470D01*
X184179262Y-45421702D01*
X184287798Y-45410094D01*
X184391519Y-45387651D01*
X184490424Y-45354375D01*
X184584515Y-45310264D01*
X184597572Y-45303111D01*
X184685051Y-45248680D01*
X184776612Y-45177136D01*
X184859196Y-45095632D01*
X184932805Y-45004167D01*
X184996949Y-44904596D01*
X185050652Y-44799323D01*
X185093913Y-44688349D01*
X185126734Y-44571674D01*
X185140258Y-44513829D01*
X185163885Y-44399580D01*
X185185352Y-44287009D01*
X185198346Y-44215653D01*
X185217352Y-44104907D01*
X185233224Y-43995749D01*
X185242159Y-43907109D01*
X185243121Y-43793971D01*
X185229241Y-43673588D01*
X185205296Y-43582490D01*
X186062672Y-43582490D01*
X186073419Y-43640742D01*
X186121290Y-43665472D01*
X186603426Y-43665472D01*
X186301053Y-45302021D01*
X186311311Y-45363020D01*
X186359183Y-45388300D01*
X186717732Y-45388300D01*
X186774396Y-45363020D01*
X186808101Y-45302021D01*
X186907277Y-44765245D01*
X187678362Y-44765245D01*
X187692083Y-44886116D01*
X187721570Y-44999770D01*
X187744811Y-45058763D01*
X187799147Y-45155011D01*
X187869558Y-45238478D01*
X187956043Y-45309165D01*
X187977408Y-45323007D01*
X188070083Y-45369443D01*
X188174299Y-45401592D01*
X188274954Y-45418001D01*
X188384445Y-45423470D01*
X188448627Y-45421702D01*
X188557163Y-45410094D01*
X188660884Y-45387651D01*
X188759789Y-45354375D01*
X188853879Y-45310264D01*
X188866937Y-45303111D01*
X188954416Y-45248680D01*
X189045976Y-45177136D01*
X189128561Y-45095632D01*
X189202170Y-45004167D01*
X189266314Y-44904596D01*
X189320017Y-44799323D01*
X189363278Y-44688349D01*
X189396099Y-44571674D01*
X189409623Y-44513829D01*
X189433250Y-44399580D01*
X189454717Y-44287009D01*
X189467711Y-44215653D01*
X189486717Y-44104907D01*
X189502588Y-43995749D01*
X189511524Y-43907109D01*
X189512486Y-43793971D01*
X189498606Y-43673588D01*
X189474661Y-43582490D01*
X190332037Y-43582490D01*
X190342784Y-43640742D01*
X190390655Y-43665472D01*
X190872791Y-43665472D01*
X190570418Y-45302021D01*
X190580676Y-45363020D01*
X190628548Y-45388300D01*
X190987096Y-45388300D01*
X191043761Y-45363020D01*
X191068964Y-45317408D01*
X191558136Y-45317408D01*
X191566441Y-45367417D01*
X191605031Y-45388300D01*
X191949902Y-45388300D01*
X192027571Y-45364119D01*
X192072023Y-45306967D01*
X192198541Y-45037139D01*
X192926873Y-45037139D01*
X192954228Y-45306967D01*
X192977676Y-45364119D01*
X193045575Y-45388300D01*
X193390446Y-45388300D01*
X193436852Y-45367966D01*
X193463719Y-45318507D01*
X193463060Y-45302570D01*
X193732386Y-45302570D01*
X193743133Y-45363020D01*
X193791004Y-45388300D01*
X194149553Y-45388300D01*
X194206217Y-45363570D01*
X194239434Y-45303669D01*
X194435317Y-44244144D01*
X194863719Y-45316309D01*
X194895959Y-45364669D01*
X194962882Y-45388300D01*
X195247669Y-45388300D01*
X195304333Y-45363020D01*
X195337550Y-45302570D01*
X195437293Y-44763261D01*
X195826335Y-44763261D01*
X195840490Y-44883301D01*
X195870488Y-44996473D01*
X195894139Y-45055506D01*
X195948974Y-45152029D01*
X196019573Y-45236032D01*
X196105938Y-45307516D01*
X196127281Y-45321558D01*
X196219406Y-45368664D01*
X196322339Y-45401276D01*
X196421271Y-45417922D01*
X196528478Y-45423470D01*
X196588364Y-45421805D01*
X196691032Y-45410873D01*
X196790990Y-45389738D01*
X196888236Y-45358400D01*
X196982770Y-45316858D01*
X197035007Y-45288634D01*
X197121574Y-45232340D01*
X197201970Y-45167264D01*
X197276195Y-45093404D01*
X197344249Y-45010761D01*
X197379939Y-44959868D01*
X197434903Y-44865887D01*
X197480331Y-44765648D01*
X197480467Y-44765245D01*
X197817371Y-44765245D01*
X197831092Y-44886116D01*
X197860579Y-44999770D01*
X197883820Y-45058763D01*
X197938156Y-45155011D01*
X198008567Y-45238478D01*
X198095052Y-45309165D01*
X198116417Y-45323007D01*
X198209092Y-45369443D01*
X198313308Y-45401592D01*
X198413963Y-45418001D01*
X198523454Y-45423470D01*
X198587636Y-45421702D01*
X198696172Y-45410094D01*
X198799893Y-45387651D01*
X198898798Y-45354375D01*
X198992889Y-45310264D01*
X199005946Y-45303111D01*
X199009464Y-45300922D01*
X199723663Y-45300922D01*
X199734410Y-45362471D01*
X199781793Y-45388300D01*
X200140341Y-45388300D01*
X200197494Y-45362471D01*
X200230711Y-45300922D01*
X200308869Y-44877771D01*
X200305215Y-44856847D01*
X201180043Y-44856847D01*
X201192621Y-44971767D01*
X201227711Y-45081103D01*
X201232014Y-45090695D01*
X201291321Y-45188419D01*
X201364269Y-45264862D01*
X201455345Y-45329498D01*
X201552121Y-45374924D01*
X201648849Y-45402822D01*
X201755652Y-45418974D01*
X201857369Y-45423470D01*
X201871566Y-45423380D01*
X201969293Y-45417700D01*
X202077431Y-45400390D01*
X202181784Y-45371538D01*
X202282351Y-45331147D01*
X202377453Y-45279421D01*
X202464923Y-45217116D01*
X202544760Y-45144232D01*
X202616964Y-45060770D01*
X202679887Y-44967519D01*
X202731392Y-44865269D01*
X202771478Y-44754020D01*
X202774017Y-44743372D01*
X203086551Y-44743372D01*
X203093690Y-44867516D01*
X203115013Y-44982039D01*
X203150522Y-45086940D01*
X203200216Y-45182220D01*
X203241783Y-45238763D01*
X203318044Y-45309442D01*
X203410997Y-45363158D01*
X203520643Y-45399911D01*
X203624766Y-45417581D01*
X203740481Y-45423470D01*
X203788501Y-45422539D01*
X203903443Y-45412058D01*
X204011087Y-45389931D01*
X204111432Y-45356159D01*
X204204478Y-45310740D01*
X204290225Y-45253677D01*
X204368674Y-45184967D01*
X204398065Y-45154558D01*
X204466384Y-45073913D01*
X204527332Y-44986667D01*
X204580911Y-44892820D01*
X204627119Y-44792372D01*
X204644896Y-44743372D01*
X205759545Y-44743372D01*
X205766683Y-44867516D01*
X205788007Y-44982039D01*
X205823516Y-45086940D01*
X205873210Y-45182220D01*
X205914777Y-45238763D01*
X205991038Y-45309442D01*
X206083991Y-45363158D01*
X206193637Y-45399911D01*
X206297760Y-45417581D01*
X206413475Y-45423470D01*
X206461495Y-45422539D01*
X206576437Y-45412058D01*
X206684081Y-45389931D01*
X206784425Y-45356159D01*
X206877471Y-45310740D01*
X206963219Y-45253677D01*
X207041667Y-45184967D01*
X207071059Y-45154558D01*
X207139377Y-45073913D01*
X207200326Y-44986667D01*
X207253904Y-44892820D01*
X207300113Y-44792372D01*
X207317890Y-44743372D01*
X207686133Y-44743372D01*
X207693271Y-44867516D01*
X207714595Y-44982039D01*
X207750103Y-45086940D01*
X207799797Y-45182220D01*
X207841364Y-45238763D01*
X207917625Y-45309442D01*
X208010579Y-45363158D01*
X208120225Y-45399911D01*
X208224347Y-45417581D01*
X208340062Y-45423470D01*
X208388083Y-45422539D01*
X208503025Y-45412058D01*
X208610668Y-45389931D01*
X208711013Y-45356159D01*
X208804059Y-45310740D01*
X208889806Y-45253677D01*
X208968255Y-45184967D01*
X208997646Y-45154558D01*
X209065965Y-45073913D01*
X209126914Y-44986667D01*
X209180492Y-44892820D01*
X209226700Y-44792372D01*
X209244477Y-44743372D01*
X209612720Y-44743372D01*
X209619859Y-44867516D01*
X209641182Y-44982039D01*
X209676691Y-45086940D01*
X209726385Y-45182220D01*
X209767952Y-45238763D01*
X209844213Y-45309442D01*
X209937166Y-45363158D01*
X210046812Y-45399911D01*
X210150935Y-45417581D01*
X210266650Y-45423470D01*
X210314670Y-45422539D01*
X210429612Y-45412058D01*
X210537256Y-45389931D01*
X210637600Y-45356159D01*
X210730646Y-45310740D01*
X210742923Y-45302570D01*
X212056461Y-45302570D01*
X212067208Y-45363020D01*
X212115080Y-45388300D01*
X212473628Y-45388300D01*
X212530293Y-45363020D01*
X212563510Y-45302570D01*
X213783747Y-45302570D01*
X213794494Y-45363020D01*
X213842365Y-45388300D01*
X215140272Y-45388300D01*
X215196936Y-45363570D01*
X215229665Y-45305318D01*
X215230174Y-45302570D01*
X215583328Y-45302570D01*
X215594075Y-45363020D01*
X215641946Y-45388300D01*
X216939853Y-45388300D01*
X216996517Y-45363570D01*
X217029246Y-45305318D01*
X217089818Y-44978338D01*
X217078583Y-44920086D01*
X217030711Y-44895356D01*
X216165603Y-44895356D01*
X216236922Y-44509575D01*
X217019965Y-44509575D01*
X217076629Y-44484845D01*
X217109846Y-44426593D01*
X217170418Y-44099613D01*
X217158695Y-44041361D01*
X217111311Y-44016632D01*
X216328269Y-44016632D01*
X216393237Y-43665472D01*
X217236364Y-43665472D01*
X217293028Y-43640742D01*
X217325757Y-43582490D01*
X217564138Y-43582490D01*
X217574884Y-43640742D01*
X217622756Y-43665472D01*
X218104891Y-43665472D01*
X217802519Y-45302021D01*
X217812777Y-45363020D01*
X217860648Y-45388300D01*
X218219197Y-45388300D01*
X218275861Y-45363020D01*
X218309567Y-45302021D01*
X218408743Y-44765245D01*
X219736701Y-44765245D01*
X219750422Y-44886116D01*
X219779909Y-44999770D01*
X219803150Y-45058763D01*
X219857486Y-45155011D01*
X219927897Y-45238478D01*
X220014382Y-45309165D01*
X220035747Y-45323007D01*
X220128422Y-45369443D01*
X220232638Y-45401592D01*
X220333293Y-45418001D01*
X220442784Y-45423470D01*
X220506966Y-45421702D01*
X220615502Y-45410094D01*
X220719223Y-45387651D01*
X220818128Y-45354375D01*
X220912219Y-45310264D01*
X220925277Y-45303111D01*
X220926146Y-45302570D01*
X221683538Y-45302570D01*
X221694284Y-45363020D01*
X221742156Y-45388300D01*
X222100704Y-45388300D01*
X222157369Y-45363020D01*
X222191074Y-45301471D01*
X222318080Y-44615088D01*
X222570139Y-44615088D01*
X222746971Y-45301471D01*
X222776280Y-45364119D01*
X222845645Y-45388300D01*
X223218360Y-45388300D01*
X223264766Y-45367417D01*
X223292121Y-45317958D01*
X223291052Y-45302570D01*
X224221709Y-45302570D01*
X224232456Y-45363020D01*
X224280327Y-45388300D01*
X225219685Y-45388300D01*
X225239916Y-45388107D01*
X225355710Y-45378885D01*
X225461921Y-45355830D01*
X225558550Y-45318942D01*
X225645596Y-45268220D01*
X225735038Y-45191562D01*
X225791116Y-45127521D01*
X225858526Y-45029841D01*
X225912985Y-44922798D01*
X225954496Y-44806394D01*
X225958850Y-44787920D01*
X226316580Y-44787920D01*
X226327144Y-44904767D01*
X226352484Y-45011311D01*
X226375444Y-45072292D01*
X226429394Y-45170022D01*
X226499572Y-45252277D01*
X226585980Y-45319057D01*
X226607372Y-45331701D01*
X226699467Y-45374119D01*
X226802003Y-45403485D01*
X226900288Y-45418474D01*
X227006566Y-45423470D01*
X227068184Y-45421839D01*
X227172820Y-45411133D01*
X227273388Y-45390433D01*
X227369889Y-45359741D01*
X227462323Y-45319057D01*
X227487955Y-45305554D01*
X227573611Y-45252277D01*
X227663775Y-45179926D01*
X227745695Y-45095347D01*
X227810614Y-45011311D01*
X227844640Y-44959327D01*
X227896377Y-44864221D01*
X228243431Y-44864221D01*
X228262379Y-44980875D01*
X228305938Y-45085499D01*
X228322137Y-45113137D01*
X228387853Y-45198145D01*
X228471602Y-45272205D01*
X228562393Y-45329498D01*
X228573352Y-45335280D01*
X228665317Y-45374924D01*
X228764915Y-45402822D01*
X228872145Y-45418974D01*
X228972233Y-45423470D01*
X229017627Y-45422727D01*
X229121144Y-45415206D01*
X229221295Y-45399586D01*
X229318080Y-45375866D01*
X229424570Y-45338840D01*
X229524618Y-45291682D01*
X229615690Y-45235388D01*
X229697786Y-45169958D01*
X229770907Y-45095391D01*
X229811405Y-45044486D01*
X229872220Y-44946432D01*
X229917502Y-44840119D01*
X229947250Y-44725547D01*
X229961441Y-44621038D01*
X229961823Y-44496360D01*
X229936926Y-44376132D01*
X229885212Y-44277117D01*
X229853453Y-44239129D01*
X229773036Y-44170986D01*
X229684189Y-44119925D01*
X229578090Y-44076859D01*
X229473419Y-44046307D01*
X229459144Y-44042763D01*
X229354700Y-44016419D01*
X229248530Y-43988512D01*
X229151018Y-43960578D01*
X229108337Y-43945534D01*
X229019127Y-43894632D01*
X228991284Y-43793516D01*
X229010437Y-43738166D01*
X229089958Y-43667120D01*
X229187354Y-43638391D01*
X229290237Y-43630301D01*
X229335763Y-43632648D01*
X229433852Y-43659976D01*
X229515917Y-43726471D01*
X229543272Y-43770435D01*
X229585282Y-43811101D01*
X229643412Y-43822642D01*
X230001472Y-43822642D01*
X230045436Y-43802309D01*
X230072302Y-43753948D01*
X230076153Y-43693312D01*
X230058891Y-43582490D01*
X230315568Y-43582490D01*
X230326315Y-43640742D01*
X230374187Y-43665472D01*
X230856322Y-43665472D01*
X230553949Y-45302021D01*
X230564207Y-45363020D01*
X230612079Y-45388300D01*
X230970628Y-45388300D01*
X231027292Y-45363020D01*
X231060997Y-45302021D01*
X231363370Y-43665472D01*
X231845017Y-43665472D01*
X231901193Y-43640742D01*
X231933921Y-43582490D01*
X231994494Y-43255510D01*
X231983258Y-43197258D01*
X231935875Y-43172528D01*
X230465045Y-43172528D01*
X230408381Y-43197258D01*
X230376140Y-43255510D01*
X230315568Y-43582490D01*
X230058891Y-43582490D01*
X230058373Y-43579167D01*
X230013196Y-43472031D01*
X230003023Y-43454225D01*
X229934865Y-43363118D01*
X229854971Y-43290325D01*
X229768464Y-43232978D01*
X229693351Y-43195720D01*
X229588946Y-43161263D01*
X229488745Y-43143334D01*
X229381584Y-43137357D01*
X229367209Y-43137450D01*
X229268560Y-43143265D01*
X229160055Y-43160988D01*
X229056069Y-43190526D01*
X228956601Y-43231879D01*
X228886282Y-43269586D01*
X228800003Y-43326893D01*
X228713158Y-43400971D01*
X228637131Y-43485220D01*
X228614483Y-43515137D01*
X228556119Y-43607786D01*
X228508129Y-43715828D01*
X228477885Y-43829236D01*
X228464175Y-43928599D01*
X228462511Y-44049001D01*
X228483338Y-44167950D01*
X228528199Y-44269423D01*
X228534680Y-44279635D01*
X228607473Y-44363232D01*
X228694042Y-44424988D01*
X228786670Y-44469331D01*
X228895052Y-44504629D01*
X229013265Y-44533205D01*
X229078421Y-44550548D01*
X229179496Y-44578229D01*
X229279002Y-44607394D01*
X229313322Y-44619006D01*
X229403077Y-44669493D01*
X229433852Y-44760718D01*
X229425281Y-44791064D01*
X229357580Y-44870663D01*
X229260073Y-44910462D01*
X229161659Y-44926382D01*
X229063091Y-44930527D01*
X228993985Y-44925272D01*
X228898960Y-44893158D01*
X228883084Y-44883670D01*
X228806147Y-44809078D01*
X228773419Y-44751925D01*
X228768866Y-44746401D01*
X228677676Y-44706312D01*
X228318639Y-44706312D01*
X228275163Y-44726646D01*
X228248785Y-44775006D01*
X228243431Y-44864221D01*
X227896377Y-44864221D01*
X227897500Y-44862157D01*
X227941852Y-44757098D01*
X227977696Y-44644150D01*
X228005031Y-44523313D01*
X228239016Y-43258258D01*
X228227780Y-43197808D01*
X228180397Y-43172528D01*
X227822337Y-43172528D01*
X227765184Y-43198357D01*
X227732456Y-43258807D01*
X227498960Y-44521665D01*
X227469784Y-44634719D01*
X227422484Y-44739367D01*
X227359253Y-44823366D01*
X227296871Y-44875168D01*
X227199990Y-44917865D01*
X227097424Y-44930527D01*
X227049997Y-44927911D01*
X226948566Y-44896621D01*
X226874675Y-44823366D01*
X226844717Y-44747857D01*
X226834459Y-44634719D01*
X226847320Y-44521665D01*
X227080816Y-43258807D01*
X227069581Y-43198357D01*
X227022198Y-43172528D01*
X226663649Y-43172528D01*
X226606496Y-43197808D01*
X226573768Y-43258258D01*
X226339783Y-44523313D01*
X226333650Y-44558643D01*
X226319459Y-44677226D01*
X226316580Y-44787920D01*
X225958850Y-44787920D01*
X225979769Y-44699168D01*
X225986394Y-44659412D01*
X225996540Y-44540879D01*
X225986608Y-44424395D01*
X225985109Y-44417350D01*
X225943741Y-44312799D01*
X225875233Y-44228757D01*
X225941545Y-44166795D01*
X226007613Y-44082028D01*
X226031037Y-44043800D01*
X226075543Y-43937772D01*
X226102379Y-43828137D01*
X226115027Y-43732851D01*
X226115584Y-43622057D01*
X226097494Y-43508301D01*
X226069424Y-43429896D01*
X226009638Y-43338203D01*
X225932386Y-43267050D01*
X225871368Y-43230220D01*
X225778147Y-43196159D01*
X225681335Y-43178436D01*
X225571395Y-43172528D01*
X224689678Y-43172528D01*
X224632526Y-43197808D01*
X224599797Y-43258258D01*
X224459640Y-44016082D01*
X224297022Y-44895356D01*
X224221709Y-45302570D01*
X223291052Y-45302570D01*
X223289678Y-45282787D01*
X223090865Y-44521115D01*
X223155680Y-44486175D01*
X223252981Y-44416908D01*
X223336877Y-44333848D01*
X223407369Y-44236995D01*
X223464456Y-44126351D01*
X223508138Y-44001914D01*
X223533433Y-43892434D01*
X223548293Y-43784798D01*
X223550949Y-43667075D01*
X223533124Y-43545505D01*
X223492765Y-43440923D01*
X223429874Y-43353329D01*
X223396357Y-43321018D01*
X223304661Y-43257985D01*
X223211032Y-43217729D01*
X223103527Y-43190185D01*
X223003340Y-43176942D01*
X222893517Y-43172528D01*
X222151507Y-43172528D01*
X222094354Y-43197808D01*
X222061625Y-43258258D01*
X221901853Y-44122145D01*
X221683538Y-45302570D01*
X220926146Y-45302570D01*
X221012755Y-45248680D01*
X221104316Y-45177136D01*
X221186900Y-45095632D01*
X221260509Y-45004167D01*
X221324653Y-44904596D01*
X221378356Y-44799323D01*
X221421618Y-44688349D01*
X221454438Y-44571674D01*
X221467962Y-44513829D01*
X221491589Y-44399580D01*
X221513056Y-44287009D01*
X221526051Y-44215653D01*
X221545057Y-44104907D01*
X221560928Y-43995749D01*
X221569863Y-43907109D01*
X221570825Y-43793971D01*
X221556945Y-43673588D01*
X221527222Y-43560508D01*
X221503981Y-43501529D01*
X221449644Y-43405373D01*
X221379234Y-43322084D01*
X221292749Y-43251663D01*
X221271445Y-43237821D01*
X221179014Y-43191385D01*
X221075043Y-43159236D01*
X220974601Y-43142827D01*
X220865324Y-43137357D01*
X220801012Y-43139143D01*
X220692212Y-43150864D01*
X220588181Y-43173524D01*
X220488918Y-43207124D01*
X220394424Y-43251663D01*
X220368446Y-43266269D01*
X220281913Y-43322394D01*
X220202205Y-43386302D01*
X220119467Y-43468871D01*
X220045645Y-43561607D01*
X219981470Y-43662037D01*
X219927676Y-43768237D01*
X219884262Y-43880207D01*
X219851228Y-43997947D01*
X219837575Y-44062077D01*
X219814082Y-44175730D01*
X219793098Y-44283711D01*
X219782687Y-44341551D01*
X219764076Y-44452536D01*
X219746692Y-44562881D01*
X219737739Y-44651746D01*
X219737630Y-44663612D01*
X219736701Y-44765245D01*
X218408743Y-44765245D01*
X218611939Y-43665472D01*
X219093586Y-43665472D01*
X219149762Y-43640742D01*
X219182491Y-43582490D01*
X219243063Y-43255510D01*
X219231828Y-43197258D01*
X219184445Y-43172528D01*
X217713614Y-43172528D01*
X217656950Y-43197258D01*
X217624710Y-43255510D01*
X217564138Y-43582490D01*
X217325757Y-43582490D01*
X217386329Y-43255510D01*
X217375094Y-43197258D01*
X217327222Y-43172528D01*
X216051297Y-43172528D01*
X215994145Y-43197808D01*
X215961416Y-43258258D01*
X215583328Y-45302570D01*
X215230174Y-45302570D01*
X215290237Y-44978338D01*
X215279002Y-44920086D01*
X215231130Y-44895356D01*
X214366022Y-44895356D01*
X214437341Y-44509575D01*
X215220383Y-44509575D01*
X215277048Y-44484845D01*
X215310265Y-44426593D01*
X215370837Y-44099613D01*
X215359113Y-44041361D01*
X215311730Y-44016632D01*
X214528688Y-44016632D01*
X214593656Y-43665472D01*
X215436782Y-43665472D01*
X215493447Y-43640742D01*
X215526175Y-43582490D01*
X215586748Y-43255510D01*
X215575512Y-43197258D01*
X215527641Y-43172528D01*
X214251716Y-43172528D01*
X214194563Y-43197808D01*
X214161835Y-43258258D01*
X213783747Y-45302570D01*
X212563510Y-45302570D01*
X212691004Y-44614538D01*
X213454996Y-44614538D01*
X213511660Y-44589809D01*
X213544389Y-44531557D01*
X213604961Y-44204577D01*
X213593726Y-44146325D01*
X213545854Y-44121595D01*
X212781863Y-44121595D01*
X212866371Y-43665472D01*
X213685561Y-43665472D01*
X213741249Y-43640742D01*
X213773977Y-43582490D01*
X213834549Y-43255510D01*
X213823314Y-43197258D01*
X213776420Y-43172528D01*
X212524431Y-43172528D01*
X212467278Y-43197808D01*
X212434549Y-43258258D01*
X212056461Y-45302570D01*
X210742923Y-45302570D01*
X210816394Y-45253677D01*
X210894842Y-45184967D01*
X210924234Y-45154558D01*
X210992553Y-45073913D01*
X211053501Y-44986667D01*
X211107080Y-44892820D01*
X211153288Y-44792372D01*
X211192126Y-44685323D01*
X211223593Y-44571674D01*
X211236881Y-44513829D01*
X211260304Y-44399580D01*
X211281723Y-44287009D01*
X211294735Y-44215653D01*
X211313862Y-44104907D01*
X211330083Y-43995749D01*
X211337661Y-43926261D01*
X211342448Y-43815772D01*
X211335252Y-43691970D01*
X211313940Y-43577750D01*
X211278512Y-43473113D01*
X211228967Y-43378059D01*
X211187514Y-43321644D01*
X211111396Y-43251126D01*
X211018551Y-43197533D01*
X210908980Y-43160863D01*
X210804893Y-43143234D01*
X210689190Y-43137357D01*
X210641164Y-43138300D01*
X210526157Y-43148902D01*
X210418378Y-43171283D01*
X210317826Y-43205445D01*
X210224501Y-43251386D01*
X210138403Y-43309107D01*
X210059532Y-43378608D01*
X210030080Y-43409299D01*
X209961608Y-43490703D01*
X209900507Y-43578789D01*
X209846776Y-43673556D01*
X209800415Y-43775005D01*
X209761424Y-43883135D01*
X209729804Y-43997947D01*
X209716317Y-44062077D01*
X209693053Y-44175730D01*
X209672163Y-44283711D01*
X209661721Y-44341551D01*
X209642931Y-44452536D01*
X209625268Y-44562881D01*
X209617607Y-44632570D01*
X209616089Y-44666977D01*
X209612720Y-44743372D01*
X209244477Y-44743372D01*
X209265538Y-44685323D01*
X209297006Y-44571674D01*
X209310294Y-44513829D01*
X209333717Y-44399580D01*
X209355136Y-44287009D01*
X209368147Y-44215653D01*
X209387274Y-44104907D01*
X209403496Y-43995749D01*
X209411073Y-43926261D01*
X209415860Y-43815772D01*
X209408665Y-43691970D01*
X209387353Y-43577750D01*
X209351924Y-43473113D01*
X209302379Y-43378059D01*
X209260927Y-43321644D01*
X209184809Y-43251126D01*
X209091964Y-43197533D01*
X208982392Y-43160863D01*
X208878305Y-43143234D01*
X208762602Y-43137357D01*
X208714576Y-43138300D01*
X208599570Y-43148902D01*
X208491791Y-43171283D01*
X208391238Y-43205445D01*
X208297913Y-43251386D01*
X208211815Y-43309107D01*
X208132944Y-43378608D01*
X208103492Y-43409299D01*
X208035021Y-43490703D01*
X207973919Y-43578789D01*
X207920188Y-43673556D01*
X207873828Y-43775005D01*
X207834837Y-43883135D01*
X207803217Y-43997947D01*
X207789730Y-44062077D01*
X207766466Y-44175730D01*
X207745575Y-44283711D01*
X207735134Y-44341551D01*
X207716343Y-44452536D01*
X207698681Y-44562881D01*
X207691020Y-44632570D01*
X207689502Y-44666977D01*
X207686133Y-44743372D01*
X207317890Y-44743372D01*
X207338950Y-44685323D01*
X207370418Y-44571674D01*
X207383706Y-44513829D01*
X207407129Y-44399580D01*
X207428548Y-44287009D01*
X207441560Y-44215653D01*
X207460686Y-44104907D01*
X207476908Y-43995749D01*
X207484486Y-43926261D01*
X207489273Y-43815772D01*
X207482077Y-43691970D01*
X207460765Y-43577750D01*
X207425337Y-43473113D01*
X207375792Y-43378059D01*
X207334339Y-43321644D01*
X207258221Y-43251126D01*
X207165376Y-43197533D01*
X207055805Y-43160863D01*
X206951718Y-43143234D01*
X206836015Y-43137357D01*
X206787989Y-43138300D01*
X206672982Y-43148902D01*
X206565203Y-43171283D01*
X206464651Y-43205445D01*
X206371326Y-43251386D01*
X206285228Y-43309107D01*
X206206357Y-43378608D01*
X206176905Y-43409299D01*
X206108433Y-43490703D01*
X206047332Y-43578789D01*
X205993601Y-43673556D01*
X205947240Y-43775005D01*
X205908249Y-43883135D01*
X205876629Y-43997947D01*
X205863142Y-44062077D01*
X205839878Y-44175730D01*
X205818988Y-44283711D01*
X205808546Y-44341551D01*
X205789756Y-44452536D01*
X205772093Y-44562881D01*
X205764432Y-44632570D01*
X205762914Y-44666977D01*
X205759545Y-44743372D01*
X204644896Y-44743372D01*
X204665957Y-44685323D01*
X204697424Y-44571674D01*
X204710712Y-44513829D01*
X204734135Y-44399580D01*
X204755554Y-44287009D01*
X204768566Y-44215653D01*
X204787693Y-44104907D01*
X204803914Y-43995749D01*
X204811492Y-43926261D01*
X204816279Y-43815772D01*
X204809084Y-43691970D01*
X204787771Y-43577750D01*
X204752343Y-43473113D01*
X204702798Y-43378059D01*
X204661345Y-43321644D01*
X204585227Y-43251126D01*
X204492383Y-43197533D01*
X204382811Y-43160863D01*
X204278724Y-43143234D01*
X204163021Y-43137357D01*
X204114995Y-43138300D01*
X203999989Y-43148902D01*
X203892209Y-43171283D01*
X203791657Y-43205445D01*
X203698332Y-43251386D01*
X203612234Y-43309107D01*
X203533363Y-43378608D01*
X203503911Y-43409299D01*
X203435439Y-43490703D01*
X203374338Y-43578789D01*
X203320607Y-43673556D01*
X203274246Y-43775005D01*
X203235256Y-43883135D01*
X203203635Y-43997947D01*
X203190148Y-44062077D01*
X203166884Y-44175730D01*
X203145994Y-44283711D01*
X203135553Y-44341551D01*
X203116762Y-44452536D01*
X203099099Y-44562881D01*
X203091439Y-44632570D01*
X203089921Y-44666977D01*
X203086551Y-44743372D01*
X202774017Y-44743372D01*
X202800146Y-44633772D01*
X202809443Y-44575589D01*
X202817969Y-44452212D01*
X202809339Y-44339267D01*
X202779630Y-44226009D01*
X202771287Y-44204963D01*
X202719271Y-44109265D01*
X202650082Y-44029452D01*
X202563719Y-43965524D01*
X202504585Y-43935082D01*
X202407771Y-43901229D01*
X202301219Y-43881546D01*
X202198332Y-43875948D01*
X202120322Y-43882077D01*
X202018953Y-43909318D01*
X201928688Y-43953434D01*
X202001960Y-43665472D01*
X202798681Y-43665472D01*
X202854856Y-43640742D01*
X202887585Y-43582490D01*
X202948157Y-43255510D01*
X202936922Y-43197258D01*
X202889539Y-43172528D01*
X201717173Y-43172528D01*
X201661486Y-43197808D01*
X201627780Y-43256609D01*
X201340062Y-44370540D01*
X201347878Y-44429891D01*
X201397704Y-44454620D01*
X201825617Y-44454620D01*
X201902798Y-44423846D01*
X201993168Y-44382630D01*
X202071325Y-44368891D01*
X202167309Y-44382986D01*
X202254996Y-44442530D01*
X202293400Y-44520985D01*
X202293586Y-44632673D01*
X202285984Y-44666754D01*
X202241586Y-44771024D01*
X202169511Y-44851942D01*
X202144682Y-44870361D01*
X202051410Y-44915486D01*
X201948227Y-44930527D01*
X201878431Y-44924293D01*
X201786538Y-44877771D01*
X201748219Y-44828020D01*
X201697145Y-44732141D01*
X201695551Y-44728760D01*
X201609218Y-44677186D01*
X201261416Y-44677186D01*
X201215010Y-44698069D01*
X201188143Y-44747528D01*
X201180043Y-44856847D01*
X200305215Y-44856847D01*
X200298122Y-44816222D01*
X200250739Y-44790393D01*
X199892191Y-44790393D01*
X199835038Y-44816222D01*
X199801821Y-44877771D01*
X199723663Y-45300922D01*
X199009464Y-45300922D01*
X199093425Y-45248680D01*
X199184986Y-45177136D01*
X199267570Y-45095632D01*
X199341179Y-45004167D01*
X199405323Y-44904596D01*
X199459026Y-44799323D01*
X199502288Y-44688349D01*
X199535108Y-44571674D01*
X199548632Y-44513829D01*
X199572259Y-44399580D01*
X199593726Y-44287009D01*
X199606720Y-44215653D01*
X199613620Y-44175451D01*
X199931758Y-44175451D01*
X199942016Y-44237000D01*
X199989888Y-44262828D01*
X200348436Y-44262828D01*
X200405101Y-44237000D01*
X200438806Y-44175451D01*
X200516964Y-43752300D01*
X200506217Y-43690751D01*
X200458834Y-43664922D01*
X200100286Y-43664922D01*
X200043133Y-43690751D01*
X200009916Y-43752300D01*
X199931758Y-44175451D01*
X199613620Y-44175451D01*
X199625727Y-44104907D01*
X199641598Y-43995749D01*
X199650533Y-43907109D01*
X199651495Y-43793971D01*
X199637615Y-43673588D01*
X199607892Y-43560508D01*
X199584651Y-43501529D01*
X199530314Y-43405373D01*
X199459904Y-43322084D01*
X199373419Y-43251663D01*
X199352114Y-43237821D01*
X199259684Y-43191385D01*
X199155713Y-43159236D01*
X199055271Y-43142827D01*
X198945994Y-43137357D01*
X198881682Y-43139143D01*
X198772882Y-43150864D01*
X198668851Y-43173524D01*
X198569588Y-43207124D01*
X198475094Y-43251663D01*
X198449116Y-43266269D01*
X198362583Y-43322394D01*
X198282875Y-43386302D01*
X198200137Y-43468871D01*
X198126315Y-43561607D01*
X198062140Y-43662037D01*
X198008346Y-43768237D01*
X197964931Y-43880207D01*
X197931898Y-43997947D01*
X197918245Y-44062077D01*
X197894752Y-44175730D01*
X197873768Y-44283711D01*
X197863357Y-44341551D01*
X197844746Y-44452536D01*
X197827362Y-44562881D01*
X197818409Y-44651746D01*
X197818300Y-44663612D01*
X197817371Y-44765245D01*
X197480467Y-44765245D01*
X197516221Y-44659151D01*
X197542575Y-44546394D01*
X197617801Y-44138081D01*
X197607055Y-44077631D01*
X197560160Y-44051803D01*
X196897285Y-44051803D01*
X196840132Y-44076532D01*
X196807404Y-44134784D01*
X196747320Y-44461764D01*
X196758066Y-44520016D01*
X196805938Y-44544746D01*
X197036015Y-44544746D01*
X197009220Y-44648789D01*
X196960414Y-44752929D01*
X196887027Y-44837654D01*
X196820824Y-44882549D01*
X196721493Y-44919553D01*
X196619337Y-44930527D01*
X196559533Y-44926818D01*
X196462493Y-44897142D01*
X196387306Y-44825014D01*
X196366744Y-44783322D01*
X196341205Y-44669510D01*
X196344319Y-44553539D01*
X196352839Y-44484051D01*
X196370241Y-44373180D01*
X196390725Y-44257883D01*
X196396597Y-44226359D01*
X196418453Y-44116879D01*
X196444947Y-44007289D01*
X196458932Y-43961638D01*
X196510435Y-43842357D01*
X196576260Y-43749582D01*
X196656408Y-43683315D01*
X196750879Y-43643554D01*
X196859672Y-43630301D01*
X196941806Y-43636251D01*
X197039923Y-43672616D01*
X197071354Y-43698456D01*
X197135177Y-43785822D01*
X197176210Y-43852317D01*
X197228478Y-43873200D01*
X197592889Y-43873200D01*
X197640760Y-43852317D01*
X197666161Y-43802309D01*
X197669304Y-43719035D01*
X197649933Y-43605704D01*
X197608520Y-43499509D01*
X197593416Y-43470714D01*
X197531287Y-43381498D01*
X197451030Y-43302694D01*
X197363300Y-43240672D01*
X197352694Y-43234316D01*
X197262553Y-43190730D01*
X197163009Y-43160058D01*
X197054061Y-43142301D01*
X196951018Y-43137357D01*
X196888057Y-43139169D01*
X196781071Y-43151059D01*
X196678151Y-43174046D01*
X196579299Y-43208130D01*
X196484515Y-43253312D01*
X196458295Y-43268115D01*
X196370943Y-43324796D01*
X196290464Y-43389050D01*
X196206902Y-43471756D01*
X196132316Y-43564355D01*
X196067928Y-43664613D01*
X196014469Y-43770297D01*
X195971940Y-43881409D01*
X195940341Y-43997947D01*
X195920588Y-44091370D01*
X195897515Y-44203675D01*
X195876350Y-44312288D01*
X195871763Y-44337721D01*
X195853337Y-44448087D01*
X195835806Y-44562881D01*
X195827053Y-44650793D01*
X195826335Y-44763261D01*
X195437293Y-44763261D01*
X195715638Y-43258258D01*
X195704403Y-43197808D01*
X195657020Y-43172528D01*
X195298960Y-43172528D01*
X195241807Y-43198357D01*
X195209078Y-43258807D01*
X195009288Y-44338116D01*
X194583817Y-43246168D01*
X194551577Y-43196708D01*
X194485143Y-43172528D01*
X194200355Y-43172528D01*
X194143203Y-43197808D01*
X194110474Y-43258258D01*
X193732386Y-45302570D01*
X193463060Y-45302570D01*
X193461765Y-45271246D01*
X193233154Y-43276942D01*
X193202868Y-43202753D01*
X193129106Y-43172528D01*
X192685073Y-43172528D01*
X192600076Y-43202753D01*
X192543412Y-43276942D01*
X191929410Y-44544196D01*
X191577676Y-45270147D01*
X191558136Y-45317408D01*
X191068964Y-45317408D01*
X191077466Y-45302021D01*
X191379839Y-43665472D01*
X191861486Y-43665472D01*
X191917662Y-43640742D01*
X191950390Y-43582490D01*
X192010963Y-43255510D01*
X191999727Y-43197258D01*
X191952344Y-43172528D01*
X190481514Y-43172528D01*
X190424849Y-43197258D01*
X190392609Y-43255510D01*
X190332037Y-43582490D01*
X189474661Y-43582490D01*
X189468883Y-43560508D01*
X189445642Y-43501529D01*
X189391305Y-43405373D01*
X189320895Y-43322084D01*
X189234410Y-43251663D01*
X189213105Y-43237821D01*
X189120675Y-43191385D01*
X189016704Y-43159236D01*
X188916262Y-43142827D01*
X188806985Y-43137357D01*
X188742673Y-43139143D01*
X188633873Y-43150864D01*
X188529842Y-43173524D01*
X188430579Y-43207124D01*
X188336085Y-43251663D01*
X188310107Y-43266269D01*
X188223574Y-43322394D01*
X188143866Y-43386302D01*
X188061128Y-43468871D01*
X187987306Y-43561607D01*
X187923131Y-43662037D01*
X187869337Y-43768237D01*
X187825922Y-43880207D01*
X187792889Y-43997947D01*
X187779236Y-44062077D01*
X187755743Y-44175730D01*
X187734759Y-44283711D01*
X187724348Y-44341551D01*
X187705737Y-44452536D01*
X187688353Y-44562881D01*
X187679400Y-44651746D01*
X187679291Y-44663612D01*
X187678362Y-44765245D01*
X186907277Y-44765245D01*
X187110474Y-43665472D01*
X187592121Y-43665472D01*
X187648297Y-43640742D01*
X187681025Y-43582490D01*
X187741598Y-43255510D01*
X187730362Y-43197258D01*
X187682979Y-43172528D01*
X186212149Y-43172528D01*
X186155484Y-43197258D01*
X186123244Y-43255510D01*
X186062672Y-43582490D01*
X185205296Y-43582490D01*
X185199518Y-43560508D01*
X185176277Y-43501529D01*
X185121940Y-43405373D01*
X185051530Y-43322084D01*
X184965045Y-43251663D01*
X184943740Y-43237821D01*
X184851310Y-43191385D01*
X184747339Y-43159236D01*
X184646897Y-43142827D01*
X184537620Y-43137357D01*
X184473308Y-43139143D01*
X184364508Y-43150864D01*
X184260477Y-43173524D01*
X184161214Y-43207124D01*
X184066720Y-43251663D01*
X184040742Y-43266269D01*
X183954209Y-43322394D01*
X183874501Y-43386302D01*
X183791763Y-43468871D01*
X183717941Y-43561607D01*
X183653766Y-43662037D01*
X183599972Y-43768237D01*
X183556557Y-43880207D01*
X183523524Y-43997947D01*
X183509871Y-44062077D01*
X183486378Y-44175730D01*
X183465394Y-44283711D01*
X183454983Y-44341551D01*
X183436372Y-44452536D01*
X183418988Y-44562881D01*
X183410035Y-44651746D01*
X183409926Y-44663612D01*
X183408997Y-44765245D01*
X182886561Y-44765245D01*
X183426803Y-43270897D01*
X183434619Y-43245618D01*
X183425826Y-43194510D01*
X183387236Y-43172528D01*
X183028688Y-43172528D01*
X182971046Y-43193411D01*
X182928060Y-43258807D01*
X182552903Y-44338116D01*
X182499169Y-43756147D01*
X182496761Y-43739451D01*
X182423454Y-43662724D01*
X182166022Y-43662724D01*
X182123387Y-43673763D01*
X182055136Y-43756147D01*
X181785980Y-44338116D01*
X181810404Y-43258807D01*
X181790865Y-43193411D01*
X181741039Y-43172528D01*
X181382979Y-43172528D01*
X181336085Y-43194510D01*
X181309218Y-43245618D01*
X181306775Y-43270897D01*
X181291632Y-45267949D01*
X180210070Y-45267949D01*
X180506147Y-43665472D01*
X180987794Y-43665472D01*
X181043970Y-43640742D01*
X181076699Y-43582490D01*
X181137271Y-43255510D01*
X181126036Y-43197258D01*
X181078653Y-43172528D01*
X179607822Y-43172528D01*
X179551158Y-43197258D01*
X179518918Y-43255510D01*
X179458346Y-43582490D01*
X179208346Y-43582490D01*
X179208346Y-42887357D01*
X232244494Y-42887357D01*
X232244494Y-45884496D01*
G37*
G36*
X94358504Y-65897013D02*
G01*
X94453255Y-65925916D01*
X94530285Y-65996166D01*
X94558617Y-66051636D01*
X94581736Y-66160381D01*
X94579134Y-66270389D01*
X94574251Y-66312526D01*
X94557648Y-66426023D01*
X94537612Y-66540217D01*
X94526604Y-66598492D01*
X94504485Y-66706117D01*
X94478506Y-66816639D01*
X94448199Y-66907916D01*
X94398249Y-67004601D01*
X94327564Y-67091412D01*
X94264005Y-67140823D01*
X94165316Y-67181549D01*
X94060850Y-67193627D01*
X94003532Y-67190034D01*
X93908781Y-67161286D01*
X93831751Y-67091412D01*
X93803418Y-67035701D01*
X93780299Y-66926712D01*
X93782902Y-66816639D01*
X93789444Y-66763403D01*
X93805685Y-66653792D01*
X93825400Y-66540217D01*
X93834805Y-66490739D01*
X93856890Y-66383049D01*
X93883530Y-66270389D01*
X93913798Y-66179156D01*
X93963596Y-66082642D01*
X94033984Y-65996166D01*
X94097778Y-65946489D01*
X94196662Y-65905544D01*
X94301185Y-65893401D01*
X94358504Y-65897013D01*
G37*
G36*
X80480015Y-65940247D02*
G01*
X80567410Y-65989571D01*
X80606544Y-66060371D01*
X80606000Y-66174768D01*
X80571060Y-66277317D01*
X80499022Y-66359965D01*
X80488438Y-66367286D01*
X80393458Y-66408845D01*
X80295324Y-66420416D01*
X79958268Y-66420416D01*
X80049127Y-65928572D01*
X80386182Y-65928572D01*
X80480015Y-65940247D01*
G37*
G36*
X85801534Y-66807296D02*
G01*
X85357501Y-66807296D01*
X85718980Y-66054967D01*
X85801534Y-66807296D01*
G37*
G36*
X96376983Y-65930576D02*
G01*
X96485823Y-65960643D01*
X96552628Y-66046389D01*
X96553104Y-66156633D01*
X96518117Y-66256651D01*
X96445327Y-66335013D01*
X96350912Y-66374305D01*
X96245358Y-66385245D01*
X95936147Y-66385245D01*
X96020655Y-65928572D01*
X96329866Y-65928572D01*
X96376983Y-65930576D01*
G37*
G36*
X99370097Y-67936570D02*
G01*
X78989217Y-67936570D01*
X78989217Y-67565670D01*
X79239217Y-67565670D01*
X79249964Y-67626120D01*
X79297836Y-67651400D01*
X79656384Y-67651400D01*
X79713049Y-67626120D01*
X79746451Y-67565670D01*
X81159943Y-67565670D01*
X81170690Y-67626120D01*
X81218561Y-67651400D01*
X82486670Y-67651400D01*
X82542846Y-67626670D01*
X82575575Y-67568418D01*
X82576084Y-67565670D01*
X82848150Y-67565670D01*
X82858896Y-67626120D01*
X82906768Y-67651400D01*
X84204675Y-67651400D01*
X84261339Y-67626670D01*
X84287274Y-67580508D01*
X84484088Y-67580508D01*
X84492393Y-67630517D01*
X84530983Y-67651400D01*
X84875854Y-67651400D01*
X84953523Y-67627219D01*
X84997975Y-67570067D01*
X85124493Y-67300239D01*
X85852825Y-67300239D01*
X85880180Y-67570067D01*
X85903628Y-67627219D01*
X85971527Y-67651400D01*
X86316398Y-67651400D01*
X86362804Y-67631066D01*
X86389671Y-67581607D01*
X86387717Y-67534346D01*
X86341059Y-67127321D01*
X86596320Y-67127321D01*
X86615268Y-67243975D01*
X86658827Y-67348599D01*
X86675025Y-67376237D01*
X86740742Y-67461245D01*
X86824491Y-67535305D01*
X86915282Y-67592598D01*
X86926241Y-67598380D01*
X87018206Y-67638024D01*
X87117803Y-67665922D01*
X87225034Y-67682074D01*
X87325121Y-67686570D01*
X87370516Y-67685827D01*
X87474033Y-67678306D01*
X87574184Y-67662686D01*
X87670969Y-67638966D01*
X87777459Y-67601940D01*
X87854408Y-67565670D01*
X88506768Y-67565670D01*
X88517515Y-67626120D01*
X88565386Y-67651400D01*
X89863293Y-67651400D01*
X89919957Y-67626670D01*
X89952686Y-67568418D01*
X89959608Y-67531049D01*
X91146545Y-67531049D01*
X91175854Y-67613481D01*
X91260850Y-67651400D01*
X91488485Y-67651400D01*
X91582274Y-67615679D01*
X91647243Y-67532148D01*
X91983809Y-66824332D01*
X92057571Y-67532148D01*
X92091765Y-67615679D01*
X92172853Y-67651400D01*
X92400487Y-67651400D01*
X92406941Y-67651251D01*
X92499162Y-67613481D01*
X92559734Y-67531049D01*
X92741474Y-67028345D01*
X93263909Y-67028345D01*
X93277630Y-67149216D01*
X93307117Y-67262870D01*
X93330358Y-67321863D01*
X93384695Y-67418111D01*
X93455105Y-67501578D01*
X93541590Y-67572265D01*
X93562956Y-67586107D01*
X93655630Y-67632543D01*
X93759846Y-67664692D01*
X93860501Y-67681101D01*
X93969992Y-67686570D01*
X94034174Y-67684802D01*
X94142710Y-67673194D01*
X94246431Y-67650751D01*
X94345337Y-67617475D01*
X94439427Y-67573364D01*
X94452485Y-67566211D01*
X94453354Y-67565670D01*
X95210746Y-67565670D01*
X95221492Y-67626120D01*
X95269364Y-67651400D01*
X95627912Y-67651400D01*
X95684577Y-67626120D01*
X95718282Y-67564571D01*
X95845289Y-66878188D01*
X96097347Y-66878188D01*
X96274179Y-67564571D01*
X96303488Y-67627219D01*
X96372853Y-67651400D01*
X96745568Y-67651400D01*
X96791974Y-67630517D01*
X96819329Y-67581058D01*
X96818261Y-67565670D01*
X97156873Y-67565670D01*
X97167619Y-67626120D01*
X97215491Y-67651400D01*
X97574039Y-67651400D01*
X97630704Y-67626670D01*
X97663921Y-67566769D01*
X97799231Y-66833674D01*
X98178785Y-67579409D01*
X98220795Y-67634364D01*
X98277947Y-67651400D01*
X98713188Y-67651400D01*
X98759594Y-67631066D01*
X98786949Y-67582706D01*
X98784507Y-67548085D01*
X98254012Y-66507244D01*
X99105442Y-65560375D01*
X99120097Y-65525754D01*
X99113746Y-65462556D01*
X99076133Y-65435628D01*
X98649196Y-65435628D01*
X98579832Y-65454863D01*
X98526098Y-65506520D01*
X97915979Y-66203345D01*
X98041520Y-65522457D01*
X98030774Y-65461457D01*
X97983390Y-65435628D01*
X97624842Y-65435628D01*
X97567689Y-65460908D01*
X97534961Y-65521358D01*
X97156873Y-67565670D01*
X96818261Y-67565670D01*
X96816887Y-67545887D01*
X96618073Y-66784215D01*
X96682888Y-66749275D01*
X96780189Y-66680008D01*
X96864086Y-66596948D01*
X96934577Y-66500095D01*
X96991664Y-66389451D01*
X97035347Y-66265014D01*
X97060641Y-66155534D01*
X97075501Y-66047898D01*
X97078157Y-65930175D01*
X97060332Y-65808605D01*
X97019974Y-65704023D01*
X96957082Y-65616429D01*
X96923565Y-65584118D01*
X96831869Y-65521085D01*
X96738240Y-65480829D01*
X96630735Y-65453285D01*
X96530548Y-65440042D01*
X96420725Y-65435628D01*
X95678715Y-65435628D01*
X95621562Y-65460908D01*
X95588834Y-65521358D01*
X95429061Y-66385245D01*
X95210746Y-67565670D01*
X94453354Y-67565670D01*
X94539963Y-67511780D01*
X94631524Y-67440236D01*
X94714108Y-67358732D01*
X94787717Y-67267267D01*
X94851861Y-67167696D01*
X94905564Y-67062423D01*
X94948826Y-66951449D01*
X94981646Y-66834774D01*
X94995170Y-66776929D01*
X95018798Y-66662680D01*
X95040264Y-66550109D01*
X95053259Y-66478753D01*
X95072265Y-66368007D01*
X95088136Y-66258849D01*
X95097072Y-66170209D01*
X95098033Y-66057071D01*
X95084153Y-65936688D01*
X95054430Y-65823608D01*
X95031189Y-65764629D01*
X94976853Y-65668473D01*
X94906442Y-65585184D01*
X94819957Y-65514763D01*
X94798653Y-65500921D01*
X94706222Y-65454485D01*
X94602251Y-65422336D01*
X94501809Y-65405927D01*
X94392532Y-65400457D01*
X94328220Y-65402243D01*
X94219420Y-65413964D01*
X94115389Y-65436624D01*
X94016126Y-65470224D01*
X93921632Y-65514763D01*
X93895654Y-65529369D01*
X93809121Y-65585494D01*
X93729413Y-65649402D01*
X93646676Y-65731971D01*
X93572853Y-65824707D01*
X93508678Y-65925137D01*
X93454884Y-66031337D01*
X93411470Y-66143307D01*
X93378436Y-66261047D01*
X93364783Y-66325177D01*
X93341290Y-66438830D01*
X93320306Y-66546811D01*
X93309895Y-66604651D01*
X93291285Y-66715636D01*
X93273900Y-66825981D01*
X93264947Y-66914846D01*
X93264838Y-66926712D01*
X93263909Y-67028345D01*
X92741474Y-67028345D01*
X93281716Y-65533997D01*
X93289531Y-65508718D01*
X93280739Y-65457610D01*
X93242148Y-65435628D01*
X92883600Y-65435628D01*
X92825959Y-65456511D01*
X92782972Y-65521907D01*
X92407815Y-66601216D01*
X92354081Y-66019247D01*
X92351673Y-66002551D01*
X92278366Y-65925824D01*
X92020934Y-65925824D01*
X91978299Y-65936863D01*
X91910048Y-66019247D01*
X91640892Y-66601216D01*
X91665317Y-65521907D01*
X91645777Y-65456511D01*
X91595952Y-65435628D01*
X91237892Y-65435628D01*
X91190997Y-65457610D01*
X91164130Y-65508718D01*
X91161688Y-65533997D01*
X91146545Y-67531049D01*
X89959608Y-67531049D01*
X90013258Y-67241438D01*
X90002023Y-67183186D01*
X89954151Y-67158456D01*
X89089043Y-67158456D01*
X89160362Y-66772675D01*
X89943404Y-66772675D01*
X90000069Y-66747945D01*
X90033286Y-66689693D01*
X90093858Y-66362713D01*
X90082134Y-66304461D01*
X90034751Y-66279732D01*
X89251709Y-66279732D01*
X89316677Y-65928572D01*
X90159804Y-65928572D01*
X90216468Y-65903842D01*
X90249196Y-65845590D01*
X90309769Y-65518610D01*
X90298534Y-65460358D01*
X90250662Y-65435628D01*
X88974737Y-65435628D01*
X88917584Y-65460908D01*
X88884856Y-65521358D01*
X88506768Y-67565670D01*
X87854408Y-67565670D01*
X87877507Y-67554782D01*
X87968579Y-67498488D01*
X88050675Y-67433058D01*
X88123795Y-67358491D01*
X88164293Y-67307586D01*
X88225108Y-67209532D01*
X88270390Y-67103219D01*
X88300139Y-66988647D01*
X88314329Y-66884138D01*
X88314711Y-66759460D01*
X88289814Y-66639232D01*
X88238101Y-66540217D01*
X88206342Y-66502229D01*
X88125925Y-66434086D01*
X88037077Y-66383025D01*
X87930979Y-66339959D01*
X87826307Y-66309407D01*
X87812033Y-66305863D01*
X87707588Y-66279519D01*
X87601419Y-66251612D01*
X87503907Y-66223678D01*
X87461225Y-66208634D01*
X87372016Y-66157732D01*
X87344172Y-66056616D01*
X87363325Y-66001266D01*
X87442846Y-65930220D01*
X87540243Y-65901491D01*
X87643125Y-65893401D01*
X87688652Y-65895748D01*
X87786740Y-65923076D01*
X87868806Y-65989571D01*
X87896161Y-66033535D01*
X87938171Y-66074201D01*
X87996300Y-66085742D01*
X88354360Y-66085742D01*
X88398324Y-66065409D01*
X88425191Y-66017048D01*
X88429041Y-65956412D01*
X88411261Y-65842267D01*
X88366084Y-65735131D01*
X88355912Y-65717325D01*
X88287753Y-65626218D01*
X88207859Y-65553425D01*
X88121353Y-65496078D01*
X88046240Y-65458820D01*
X87941834Y-65424363D01*
X87841634Y-65406434D01*
X87734472Y-65400457D01*
X87720097Y-65400550D01*
X87621449Y-65406365D01*
X87512944Y-65424088D01*
X87408957Y-65453626D01*
X87309490Y-65494979D01*
X87239171Y-65532686D01*
X87152892Y-65589993D01*
X87066046Y-65664071D01*
X86990020Y-65748320D01*
X86967371Y-65778237D01*
X86909008Y-65870886D01*
X86861018Y-65978928D01*
X86830774Y-66092336D01*
X86817064Y-66191699D01*
X86815400Y-66312101D01*
X86836227Y-66431050D01*
X86881088Y-66532523D01*
X86887568Y-66542735D01*
X86960362Y-66626332D01*
X87046930Y-66688088D01*
X87139558Y-66732431D01*
X87247940Y-66767729D01*
X87366154Y-66796305D01*
X87431310Y-66813648D01*
X87532385Y-66841329D01*
X87631890Y-66870494D01*
X87666211Y-66882106D01*
X87755966Y-66932593D01*
X87786740Y-67023818D01*
X87778169Y-67054164D01*
X87710468Y-67133763D01*
X87612962Y-67173562D01*
X87514547Y-67189482D01*
X87415979Y-67193627D01*
X87346874Y-67188372D01*
X87251848Y-67156258D01*
X87235972Y-67146770D01*
X87159036Y-67072178D01*
X87126307Y-67015025D01*
X87121755Y-67009501D01*
X87030564Y-66969412D01*
X86671527Y-66969412D01*
X86628052Y-66989746D01*
X86601674Y-67038106D01*
X86596320Y-67127321D01*
X86341059Y-67127321D01*
X86159106Y-65540042D01*
X86128820Y-65465853D01*
X86055058Y-65435628D01*
X85611025Y-65435628D01*
X85526028Y-65465853D01*
X85469364Y-65540042D01*
X84855362Y-66807296D01*
X84503628Y-67533247D01*
X84484088Y-67580508D01*
X84287274Y-67580508D01*
X84294067Y-67568418D01*
X84354640Y-67241438D01*
X84343404Y-67183186D01*
X84295533Y-67158456D01*
X83430425Y-67158456D01*
X83501744Y-66772675D01*
X84284786Y-66772675D01*
X84341451Y-66747945D01*
X84374668Y-66689693D01*
X84435240Y-66362713D01*
X84423516Y-66304461D01*
X84376133Y-66279732D01*
X83593090Y-66279732D01*
X83658059Y-65928572D01*
X84501185Y-65928572D01*
X84557850Y-65903842D01*
X84590578Y-65845590D01*
X84651150Y-65518610D01*
X84639915Y-65460358D01*
X84592044Y-65435628D01*
X83316119Y-65435628D01*
X83258966Y-65460908D01*
X83226238Y-65521358D01*
X82848150Y-67565670D01*
X82576084Y-67565670D01*
X82636147Y-67241438D01*
X82624912Y-67183186D01*
X82577529Y-67158456D01*
X81742218Y-67158456D01*
X82045079Y-65521907D01*
X82033844Y-65461457D01*
X81986461Y-65435628D01*
X81627912Y-65435628D01*
X81570760Y-65460908D01*
X81538031Y-65521358D01*
X81159943Y-67565670D01*
X79746451Y-67565670D01*
X79746754Y-67565121D01*
X79866922Y-66913359D01*
X80217166Y-66913359D01*
X80304429Y-66910405D01*
X80408206Y-66898405D01*
X80506092Y-66877174D01*
X80615778Y-66839513D01*
X80716980Y-66788560D01*
X80809699Y-66724315D01*
X80852452Y-66687348D01*
X80929045Y-66604284D01*
X80993754Y-66509050D01*
X81046579Y-66401643D01*
X81087520Y-66282066D01*
X81112560Y-66173120D01*
X81127773Y-66064056D01*
X81130978Y-65944478D01*
X81113968Y-65820549D01*
X81074612Y-65713398D01*
X81012909Y-65623024D01*
X80980094Y-65589534D01*
X80890501Y-65524202D01*
X80799196Y-65482477D01*
X80694496Y-65453929D01*
X80597014Y-65440203D01*
X80490229Y-65435628D01*
X79707187Y-65435628D01*
X79650034Y-65460908D01*
X79617305Y-65521358D01*
X79451028Y-66420416D01*
X79239217Y-67565670D01*
X78989217Y-67565670D01*
X78989217Y-65150457D01*
X99370097Y-65150457D01*
X99370097Y-67936570D01*
G37*
D13*
X170357969Y-47748819D02*
X169881779Y-47748819D01*
X169881779Y-47748819D02*
X169881779Y-46748819D01*
X170881779Y-47272628D02*
X170881779Y-47748819D01*
X170548446Y-46748819D02*
X170881779Y-47272628D01*
X170881779Y-47272628D02*
X171215112Y-46748819D01*
X172119874Y-47748819D02*
X171786541Y-47272628D01*
X171548446Y-47748819D02*
X171548446Y-46748819D01*
X171548446Y-46748819D02*
X171929398Y-46748819D01*
X171929398Y-46748819D02*
X172024636Y-46796438D01*
X172024636Y-46796438D02*
X172072255Y-46844057D01*
X172072255Y-46844057D02*
X172119874Y-46939295D01*
X172119874Y-46939295D02*
X172119874Y-47082152D01*
X172119874Y-47082152D02*
X172072255Y-47177390D01*
X172072255Y-47177390D02*
X172024636Y-47225009D01*
X172024636Y-47225009D02*
X171929398Y-47272628D01*
X171929398Y-47272628D02*
X171548446Y-47272628D01*
X172500827Y-47463104D02*
X172977017Y-47463104D01*
X172405589Y-47748819D02*
X172738922Y-46748819D01*
X172738922Y-46748819D02*
X173072255Y-47748819D01*
D14*
X173282828Y-61072346D02*
X172568542Y-61572346D01*
X173282828Y-61929489D02*
X171782828Y-61929489D01*
X171782828Y-61929489D02*
X171782828Y-61358060D01*
X171782828Y-61358060D02*
X171854257Y-61215203D01*
X171854257Y-61215203D02*
X171925685Y-61143774D01*
X171925685Y-61143774D02*
X172068542Y-61072346D01*
X172068542Y-61072346D02*
X172282828Y-61072346D01*
X172282828Y-61072346D02*
X172425685Y-61143774D01*
X172425685Y-61143774D02*
X172497114Y-61215203D01*
X172497114Y-61215203D02*
X172568542Y-61358060D01*
X172568542Y-61358060D02*
X172568542Y-61929489D01*
X172854257Y-60500917D02*
X172854257Y-59786632D01*
X173282828Y-60643774D02*
X171782828Y-60143774D01*
X171782828Y-60143774D02*
X173282828Y-59643774D01*
X171782828Y-59358060D02*
X173282828Y-58858060D01*
X173282828Y-58858060D02*
X171782828Y-58358060D01*
X172497114Y-57858061D02*
X172497114Y-57358061D01*
X173282828Y-57143775D02*
X173282828Y-57858061D01*
X173282828Y-57858061D02*
X171782828Y-57858061D01*
X171782828Y-57858061D02*
X171782828Y-57143775D01*
X173282828Y-56500918D02*
X171782828Y-56500918D01*
X171782828Y-56500918D02*
X173282828Y-55643775D01*
X173282828Y-55643775D02*
X171782828Y-55643775D01*
D13*
X243700466Y-52684019D02*
X243367133Y-52207828D01*
X243129038Y-52684019D02*
X243129038Y-51684019D01*
X243129038Y-51684019D02*
X243509990Y-51684019D01*
X243509990Y-51684019D02*
X243605228Y-51731638D01*
X243605228Y-51731638D02*
X243652847Y-51779257D01*
X243652847Y-51779257D02*
X243700466Y-51874495D01*
X243700466Y-51874495D02*
X243700466Y-52017352D01*
X243700466Y-52017352D02*
X243652847Y-52112590D01*
X243652847Y-52112590D02*
X243605228Y-52160209D01*
X243605228Y-52160209D02*
X243509990Y-52207828D01*
X243509990Y-52207828D02*
X243129038Y-52207828D01*
X244129038Y-52160209D02*
X244462371Y-52160209D01*
X244605228Y-52684019D02*
X244129038Y-52684019D01*
X244129038Y-52684019D02*
X244129038Y-51684019D01*
X244129038Y-51684019D02*
X244605228Y-51684019D01*
X245367133Y-52160209D02*
X245033800Y-52160209D01*
X245033800Y-52684019D02*
X245033800Y-51684019D01*
X245033800Y-51684019D02*
X245509990Y-51684019D01*
X246033800Y-51684019D02*
X246033800Y-51922114D01*
X245795705Y-51826876D02*
X246033800Y-51922114D01*
X246033800Y-51922114D02*
X246271895Y-51826876D01*
X245890943Y-52112590D02*
X246033800Y-51922114D01*
X246033800Y-51922114D02*
X246176657Y-52112590D01*
X246795705Y-51684019D02*
X246795705Y-51922114D01*
X246557610Y-51826876D02*
X246795705Y-51922114D01*
X246795705Y-51922114D02*
X247033800Y-51826876D01*
X246652848Y-52112590D02*
X246795705Y-51922114D01*
X246795705Y-51922114D02*
X246938562Y-52112590D01*
D15*
%TO.C,REF\u002A\u002A*%
X243703800Y-53229200D02*
X245033800Y-53229200D01*
X243703800Y-54559200D02*
X243703800Y-53229200D01*
X243703800Y-55829200D02*
X243703800Y-66049200D01*
X243703800Y-55829200D02*
X246363800Y-55829200D01*
X243703800Y-66049200D02*
X246363800Y-66049200D01*
X246363800Y-55829200D02*
X246363800Y-66049200D01*
%TO.C,SW2*%
X160976000Y-71125000D02*
X160976000Y-68525000D01*
X163636000Y-68525000D02*
X160976000Y-68525000D01*
X163636000Y-71125000D02*
X160976000Y-71125000D01*
X163636000Y-71125000D02*
X163636000Y-68525000D01*
X163636000Y-72395000D02*
X163636000Y-73725000D01*
X163636000Y-73725000D02*
X162306000Y-73725000D01*
%TO.C,SW5*%
X236182358Y-67654474D02*
X236182358Y-52414474D01*
X242532358Y-67654474D02*
X242532358Y-52414474D01*
X243802358Y-52414474D02*
X236182358Y-52414474D01*
X243802358Y-67654474D02*
X236182358Y-67654474D01*
X243802358Y-67654474D02*
X243802358Y-52414474D01*
%TO.C,J1*%
X173676000Y-44644000D02*
X175006000Y-44644000D01*
X173676000Y-45974000D02*
X173676000Y-44644000D01*
X173676000Y-47244000D02*
X173676000Y-49844000D01*
X173676000Y-47244000D02*
X176336000Y-47244000D01*
X173676000Y-49844000D02*
X176336000Y-49844000D01*
X176336000Y-47244000D02*
X176336000Y-49844000D01*
%TO.C,R2*%
X113396500Y-67072742D02*
X113396500Y-67547258D01*
X114441500Y-67072742D02*
X114441500Y-67547258D01*
%TO.C,BT3*%
X107465000Y-68319000D02*
X107465000Y-69569000D01*
X107465000Y-69569000D02*
X108715000Y-69569000D01*
X107565000Y-67509000D02*
X107565000Y-67809000D01*
X107565000Y-67809000D02*
X107765000Y-67809000D01*
X107665000Y-67509000D02*
X107665000Y-67809000D01*
X107765000Y-63149000D02*
X107765000Y-69269000D01*
X107765000Y-66709000D02*
X108375000Y-66709000D01*
X107765000Y-67509000D02*
X107565000Y-67509000D01*
X107765000Y-69269000D02*
X112485000Y-69269000D01*
X108375000Y-63759000D02*
X108375000Y-65709000D01*
X108375000Y-65709000D02*
X107765000Y-65709000D01*
X108375000Y-66709000D02*
X108375000Y-68659000D01*
X108375000Y-68659000D02*
X111875000Y-68659000D01*
X109075000Y-63149000D02*
X109075000Y-63759000D01*
X109075000Y-69269000D02*
X109075000Y-68659000D01*
X110375000Y-63149000D02*
X110375000Y-63759000D01*
X110375000Y-69269000D02*
X110375000Y-68659000D01*
X111375000Y-66109000D02*
X111875000Y-66109000D01*
X111375000Y-66309000D02*
X111375000Y-66109000D01*
X111875000Y-63759000D02*
X108375000Y-63759000D01*
X111875000Y-66209000D02*
X111375000Y-66209000D01*
X111875000Y-66309000D02*
X111375000Y-66309000D01*
X111875000Y-68659000D02*
X111875000Y-63759000D01*
X112485000Y-63149000D02*
X107765000Y-63149000D01*
X112485000Y-69269000D02*
X112485000Y-63149000D01*
%TO.C,LYRA1*%
X155652000Y-55178000D02*
X155652000Y-53848000D01*
X156982000Y-55178000D02*
X155652000Y-55178000D01*
X158252000Y-52518000D02*
X165932000Y-52518000D01*
X158252000Y-55178000D02*
X158252000Y-52518000D01*
X158252000Y-55178000D02*
X165932000Y-55178000D01*
X165932000Y-55178000D02*
X165932000Y-52518000D01*
%TO.C,J2*%
X237120200Y-71185000D02*
X237120200Y-69855000D01*
X238450200Y-71185000D02*
X237120200Y-71185000D01*
X239720200Y-68525000D02*
X242320200Y-68525000D01*
X239720200Y-71185000D02*
X239720200Y-68525000D01*
X239720200Y-71185000D02*
X242320200Y-71185000D01*
X242320200Y-71185000D02*
X242320200Y-68525000D01*
%TO.C,SW1*%
X177359000Y-68647000D02*
X178689000Y-68647000D01*
X177359000Y-69977000D02*
X177359000Y-68647000D01*
X177359000Y-71247000D02*
X177359000Y-73847000D01*
X177359000Y-71247000D02*
X180019000Y-71247000D01*
X177359000Y-73847000D02*
X180019000Y-73847000D01*
X180019000Y-71247000D02*
X180019000Y-73847000D01*
%TO.C,D2*%
X113184000Y-62777000D02*
X113184000Y-65062000D01*
X114654000Y-62777000D02*
X113184000Y-62777000D01*
X114654000Y-65062000D02*
X114654000Y-62777000D01*
%TD*%
%LPC*%
D16*
%TO.C,REF\u002A\u002A*%
X245033800Y-54559200D03*
D17*
X245033800Y-57099200D03*
X245033800Y-59639200D03*
X245033800Y-62179200D03*
X245033800Y-64719200D03*
%TD*%
D16*
%TO.C,SW2*%
X162306000Y-72395000D03*
D17*
X162306000Y-69855000D03*
%TD*%
D18*
%TO.C,SW5*%
X239992358Y-65114474D03*
D19*
X239992358Y-60034474D03*
X239992358Y-54954474D03*
%TD*%
D16*
%TO.C,J1*%
X175006000Y-45974000D03*
D17*
X175006000Y-48514000D03*
%TD*%
D20*
%TO.C,H9*%
X234518200Y-72999600D03*
%TD*%
D21*
%TO.C,R2*%
X113919000Y-66485000D03*
X113919000Y-68135000D03*
%TD*%
D20*
%TO.C,H4*%
X240690400Y-44856400D03*
%TD*%
D22*
%TO.C,H5*%
X151685016Y-49637467D03*
%TD*%
%TO.C,H3*%
X119670447Y-69353650D03*
%TD*%
D23*
%TO.C,BT3*%
X109575000Y-67209000D03*
D24*
X109575000Y-65209000D03*
%TD*%
D16*
%TO.C,LYRA1*%
X156982000Y-53848000D03*
D17*
X159522000Y-53848000D03*
X162062000Y-53848000D03*
X164602000Y-53848000D03*
%TD*%
D16*
%TO.C,J2*%
X238450200Y-69855000D03*
D17*
X240990200Y-69855000D03*
%TD*%
D22*
%TO.C,H1*%
X119634000Y-49682400D03*
%TD*%
D16*
%TO.C,SW1*%
X178689000Y-69977000D03*
D17*
X178689000Y-72517000D03*
%TD*%
D22*
%TO.C,H2*%
X123706763Y-67109060D03*
%TD*%
D25*
%TO.C,J3*%
X166725600Y-72644000D03*
X169291000Y-72644000D03*
X171831000Y-72644000D03*
X174371000Y-72644000D03*
%TD*%
D26*
%TO.C,D2*%
X113919000Y-63474500D03*
X113919000Y-65049500D03*
%TD*%
D20*
%TO.C,H8*%
X240690400Y-74168000D03*
%TD*%
%TO.C,H11*%
X234619800Y-46126400D03*
%TD*%
D27*
%TO.C,BT2*%
X157891000Y-72390000D03*
D28*
X156621000Y-72390000D03*
%TD*%
%LPD*%
M02*
