%TF.GenerationSoftware,KiCad,Pcbnew,8.0.0*%
%TF.CreationDate,2024-09-10T23:58:07-07:00*%
%TF.ProjectId,sled,736c6564-2e6b-4696-9361-645f70636258,rev?*%
%TF.SameCoordinates,Original*%
%TF.FileFunction,Profile,NP*%
%FSLAX46Y46*%
G04 Gerber Fmt 4.6, Leading zero omitted, Abs format (unit mm)*
G04 Created by KiCad (PCBNEW 8.0.0) date 2024-09-10 23:58:07*
%MOMM*%
%LPD*%
G01*
G04 APERTURE LIST*
%TA.AperFunction,Profile*%
%ADD10C,0.100000*%
%TD*%
%TA.AperFunction,Profile*%
%ADD11C,0.050000*%
%TD*%
G04 APERTURE END LIST*
D10*
X173031252Y-44958000D02*
X173031252Y-42735500D01*
X246132274Y-53212974D02*
X246132274Y-59563000D01*
X173031252Y-42735500D02*
X242881252Y-42735500D01*
D11*
X180340000Y-47879000D02*
X183642000Y-47879000D01*
D10*
X180721000Y-68453000D02*
X167416328Y-68462956D01*
D11*
X183650712Y-70993000D02*
X180721000Y-70993000D01*
X180721000Y-70993000D02*
X180721000Y-68453000D01*
X183642000Y-47879000D02*
X183642000Y-49826773D01*
D10*
X167416328Y-49826773D02*
X167416328Y-68462956D01*
X192103330Y-46227974D02*
X227641247Y-46227974D01*
X153797000Y-74168000D02*
X73958095Y-67183000D01*
X113683314Y-62315064D02*
X73958095Y-65751202D01*
X237801252Y-62716027D02*
X237801252Y-59563000D01*
X173031252Y-74168000D02*
X173031252Y-76390500D01*
X153797000Y-44958000D02*
X112886236Y-48537215D01*
X184323940Y-49826774D02*
G75*
G02*
X192103330Y-46228018I7757460J-6561526D01*
G01*
X242881252Y-42735500D02*
X242881252Y-53212974D01*
D11*
X167416328Y-49826773D02*
X180340000Y-49834800D01*
X180340000Y-49834800D02*
X180340000Y-47879000D01*
D10*
X192081247Y-72898000D02*
G75*
G02*
X183687814Y-68462944I53J10160000D01*
G01*
X237801252Y-56388000D02*
X237801252Y-59563000D01*
X237801251Y-62716027D02*
G75*
G02*
X227641387Y-72897975I-10159851J-22073D01*
G01*
X173031252Y-76390500D02*
X242881252Y-76390500D01*
X227641247Y-46228000D02*
G75*
G02*
X237801300Y-56388000I-47J-10160100D01*
G01*
X242881252Y-76390500D02*
X242881252Y-65913000D01*
X242881252Y-65913000D02*
X246132274Y-65913000D01*
X153797000Y-44958000D02*
X173031252Y-44958000D01*
X242881252Y-53212974D02*
X246132274Y-53212974D01*
X112930991Y-49310823D02*
X113683314Y-62315064D01*
X183642000Y-49826773D02*
X184323939Y-49826773D01*
X246132274Y-65913000D02*
X246132274Y-59563000D01*
D11*
X192081247Y-72898000D02*
X227641387Y-72898000D01*
X183687796Y-68462956D02*
X183650712Y-70993000D01*
D10*
X153797000Y-74168000D02*
X173031252Y-74168000D01*
X112886236Y-48537215D02*
X112930991Y-49310823D01*
X73958095Y-67183000D02*
X73958095Y-65751202D01*
M02*
