  0
SECTION
  2
HEADER
  9
$ACADVER
  1
AC1015
  9
$ACADMAINTVER
 70
     6
  9
$DWGCODEPAGE
  3
ANSI_1252
  9
$INSBASE
 10
0.0
 20
0.0
 30
0.0
  9
$EXTMIN
 10
0.0
 20
0.0
 30
0.0
  9
$EXTMAX
 10
8.700567
 20
6.000876
 30
2.0
  9
$LIMMIN
 10
0.0
 20
0.0
  9
$LIMMAX
 10
17.0
 20
11.0
  9
$ORTHOMODE
 70
     0
  9
$REGENMODE
 70
     1
  9
$FILLMODE
 70
     1
  9
$QTEXTMODE
 70
     0
  9
$MIRRTEXT
 70
     1
  9
$LTSCALE
 40
1.0
  9
$ATTMODE
 70
     1
  9
$TEXTSIZE
 40
0.2
  9
$TRACEWID
 40
0.05
  9
$TEXTSTYLE
  7
Standard
  9
$CLAYER
  8
0
  9
$CELTYPE
  6
ByLayer
  9
$CECOLOR
 62
   256
  9
$CELTSCALE
 40
1.0
  9
$DISPSILH
 70
     0
  9
$DIMSCALE
 40
1.0
  9
$DIMASZ
 40
0.18
  9
$DIMEXO
 40
0.0625
  9
$DIMDLI
 40
0.38
  9
$DIMRND
 40
0.0
  9
$DIMDLE
 40
0.0
  9
$DIMEXE
 40
0.18
  9
$DIMTP
 40
0.0
  9
$DIMTM
 40
0.0
  9
$DIMTXT
 40
0.18
  9
$DIMCEN
 40
0.09
  9
$DIMTSZ
 40
0.0
  9
$DIMTOL
 70
     0
  9
$DIMLIM
 70
     0
  9
$DIMTIH
 70
     1
  9
$DIMTOH
 70
     1
  9
$DIMSE1
 70
     0
  9
$DIMSE2
 70
     0
  9
$DIMTAD
 70
     0
  9
$DIMZIN
 70
     0
  9
$DIMBLK
  1

  9
$DIMASO
 70
     1
  9
$DIMSHO
 70
     1
  9
$DIMPOST
  1

  9
$DIMAPOST
  1

  9
$DIMALT
 70
     0
  9
$DIMALTD
 70
     2
  9
$DIMALTF
 40
25.4
  9
$DIMLFAC
 40
1.0
  9
$DIMTOFL
 70
     0
  9
$DIMTVP
 40
0.0
  9
$DIMTIX
 70
     0
  9
$DIMSOXD
 70
     0
  9
$DIMSAH
 70
     0
  9
$DIMBLK1
  1

  9
$DIMBLK2
  1

  9
$DIMSTYLE
  2
Standard
  9
$DIMCLRD
 70
     0
  9
$DIMCLRE
 70
     0
  9
$DIMCLRT
 70
     0
  9
$DIMTFAC
 40
1.0
  9
$DIMGAP
 40
0.09
  9
$DIMJUST
 70
     0
  9
$DIMSD1
 70
     0
  9
$DIMSD2
 70
     0
  9
$DIMTOLJ
 70
     1
  9
$DIMTZIN
 70
     0
  9
$DIMALTZ
 70
     0
  9
$DIMALTTZ
 70
     0
  9
$DIMUPT
 70
     0
  9
$DIMDEC
 70
     4
  9
$DIMTDEC
 70
     4
  9
$DIMALTU
 70
     2
  9
$DIMALTTD
 70
     2
  9
$DIMTXSTY
  7
Standard
  9
$DIMAUNIT
 70
     0
  9
$DIMADEC
 70
     0
  9
$DIMALTRND
 40
0.0
  9
$DIMAZIN
 70
     0
  9
$DIMDSEP
 70
    46
  9
$DIMATFIT
 70
     0
  9
$DIMFRAC
 70
     0
  9
$DIMLDRBLK
  1

  9
$DIMLUNIT
 70
     2
  9
$DIMLWD
 70
    -2
  9
$DIMLWE
 70
    -2
  9
$DIMTMOVE
 70
     0
  9
$LUNITS
 70
     2
  9
$LUPREC
 70
     4
  9
$SKETCHINC
 40
0.1
  9
$FILLETRAD
 40
0.125
  9
$AUNITS
 70
     0
  9
$AUPREC
 70
     0
  9
$MENU
  1
.
  9
$ELEVATION
 40
0.0
  9
$PELEVATION
 40
0.0
  9
$THICKNESS
 40
0.0
  9
$LIMCHECK
 70
     0
  9
$CHAMFERA
 40
0.125
  9
$CHAMFERB
 40
0.125
  9
$CHAMFERC
 40
0.0
  9
$CHAMFERD
 40
0.0
  9
$SKPOLY
 70
     0
  9
$TDCREATE
 40
2447892.708333333
  9
$TDUCREATE
 40
0.0
  9
$TDUPDATE
 40
2460564.890049282
  9
$TDUUPDATE
 40
2460565.181715949
  9
$TDINDWG
 40
0.0
  9
$TDUSRTIMER
 40
0.0
  9
$USRTIMER
 70
     1
  9
$ANGBASE
 50
0.0
  9
$ANGDIR
 70
     0
  9
$PDMODE
 70
     0
  9
$PDSIZE
 40
0.0
  9
$PLINEWID
 40
0.0
  9
$SPLFRAME
 70
     0
  9
$SPLINETYPE
 70
     6
  9
$SPLINESEGS
 70
     8
  9
$HANDSEED
  5
DE
  9
$SURFTAB1
 70
     6
  9
$SURFTAB2
 70
     6
  9
$SURFTYPE
 70
     6
  9
$SURFU
 70
     6
  9
$SURFV
 70
     6
  9
$UCSBASE
  2

  9
$UCSNAME
  2

  9
$UCSORG
 10
0.0
 20
0.0
 30
0.0
  9
$UCSXDIR
 10
1.0
 20
0.0
 30
0.0
  9
$UCSYDIR
 10
0.0
 20
1.0
 30
0.0
  9
$UCSORTHOREF
  2

  9
$UCSORTHOVIEW
 70
     1
  9
$UCSORGTOP
 10
0.0
 20
0.0
 30
0.0
  9
$UCSORGBOTTOM
 10
0.0
 20
0.0
 30
0.0
  9
$UCSORGLEFT
 10
0.0
 20
0.0
 30
0.0
  9
$UCSORGRIGHT
 10
0.0
 20
0.0
 30
0.0
  9
$UCSORGFRONT
 10
0.0
 20
0.0
 30
0.0
  9
$UCSORGBACK
 10
0.0
 20
0.0
 30
0.0
  9
$PUCSBASE
  2

  9
$PUCSNAME
  2

  9
$PUCSORG
 10
0.0
 20
0.0
 30
0.0
  9
$PUCSXDIR
 10
1.0
 20
0.0
 30
0.0
  9
$PUCSYDIR
 10
0.0
 20
1.0
 30
0.0
  9
$PUCSORTHOREF
  2

  9
$PUCSORTHOVIEW
 70
     0
  9
$PUCSORGTOP
 10
0.0
 20
0.0
 30
0.0
  9
$PUCSORGBOTTOM
 10
0.0
 20
0.0
 30
0.0
  9
$PUCSORGLEFT
 10
0.0
 20
0.0
 30
0.0
  9
$PUCSORGRIGHT
 10
0.0
 20
0.0
 30
0.0
  9
$PUCSORGFRONT
 10
0.0
 20
0.0
 30
0.0
  9
$PUCSORGBACK
 10
0.0
 20
0.0
 30
0.0
  9
$USERI1
 70
     0
  9
$USERI2
 70
     0
  9
$USERI3
 70
     0
  9
$USERI4
 70
     0
  9
$USERI5
 70
     0
  9
$USERR1
 40
0.0
  9
$USERR2
 40
0.0
  9
$USERR3
 40
0.0
  9
$USERR4
 40
0.0
  9
$USERR5
 40
0.0
  9
$WORLDVIEW
 70
     1
  9
$SHADEDGE
 70
     3
  9
$SHADEDIF
 70
    70
  9
$TILEMODE
 70
     1
  9
$MAXACTVP
 70
    64
  9
$PINSBASE
 10
0.0
 20
0.0
 30
0.0
  9
$PLIMCHECK
 70
     0
  9
$PEXTMIN
 10
0.0
 20
0.0
 30
0.0
  9
$PEXTMAX
 10
8.700567
 20
6.000876
 30
2.0
  9
$PLIMMIN
 10
0.0
 20
0.0
  9
$PLIMMAX
 10
12.0
 20
9.0
  9
$UNITMODE
 70
     0
  9
$VISRETAIN
 70
     0
  9
$PLINEGEN
 70
     0
  9
$PSLTSCALE
 70
     1
  9
$TREEDEPTH
 70
  3020
  9
$CMLSTYLE
  2
Standard
  9
$CMLJUST
 70
     0
  9
$CMLSCALE
 40
1.0
  9
$PROXYGRAPHICS
 70
     1
  9
$MEASUREMENT
 70
     0
  9
$CELWEIGHT
370
    -1
  9
$ENDCAPS
280
     0
  9
$JOINSTYLE
280
     0
  9
$LWDISPLAY
290
     0
  9
$INSUNITS
 70
     0
  9
$HYPERLINKBASE
  1

  9
$STYLESHEET
  1

  9
$XEDIT
290
     1
  9
$CEPSNTYPE
380
     0
  9
$PSTYLEMODE
290
     0
  9
$FINGERPRINTGUID
  2
{EC13265D-B41A-4AB3-BD56-7F355DBC12D7}
  9
$VERSIONGUID
  2
{FAEB1C32-E019-11D5-929B-00C0DF256EC4}
  9
$EXTNAMES
290
     1
  9
$PSVPSCALE
 40
0.0
  9
$OLESTARTUP
290
     0
  0
ENDSEC
  0
SECTION
  2
CLASSES
  0
CLASS
  1
ACDBDICTIONARYWDFLT
  2
AcDbDictionaryWithDefault
  3
ObjectDBX Classes
 90
        0
280
     0
281
     0
  0
CLASS
  1
VISUALSTYLE
  2
AcDbVisualStyle
  3
ObjectDBX Classes
 90
     4095
280
     0
281
     0
  0
CLASS
  1
MATERIAL
  2
AcDbMaterial
  3
ObjectDBX Classes
 90
     1153
280
     0
281
     0
  0
CLASS
  1
SCALE
  2
AcDbScale
  3
ObjectDBX Classes
 90
     1153
280
     0
281
     0
  0
CLASS
  1
TABLESTYLE
  2
AcDbTableStyle
  3
ObjectDBX Classes
 90
     4095
280
     0
281
     0
  0
CLASS
  1
MLEADERSTYLE
  2
AcDbMLeaderStyle
  3
ACDB_MLEADERSTYLE_CLASS
 90
     4095
280
     0
281
     0
  0
CLASS
  1
SUN
  2
AcDbSun
  3
SCENEOE
 90
     1153
280
     0
281
     0
  0
CLASS
  1
ACDBPLACEHOLDER
  2
AcDbPlaceHolder
  3
ObjectDBX Classes
 90
        0
280
     0
281
     0
  0
CLASS
  1
LAYOUT
  2
AcDbLayout
  3
ObjectDBX Classes
 90
        0
280
     0
281
     0
  0
ENDSEC
  0
SECTION
  2
TABLES
  0
TABLE
  2
VPORT
  5
8
330
0
100
AcDbSymbolTable
 70
     1
  0
VPORT
  5
29
330
8
100
AcDbSymbolTableRecord
100
AcDbViewportTableRecord
  2
*Active
 70
     0
 10
0.0
 20
0.0
 11
1.0
 21
1.0
 12
10.429907
 22
4.5
 13
0.0
 23
0.0
 14
0.5
 24
0.5
 15
0.5
 25
0.5
 16
0.0
 26
0.0
 36
1.0
 17
0.0
 27
0.0
 37
0.0
 40
9.0
 41
1.972973
 42
50.0
 43
0.0
 44
0.0
 50
0.0
 51
0.0
 71
     0
 72
   100
 73
     1
 74
     3
 75
     0
 76
     0
 77
     0
 78
     0
281
     0
 65
     1
110
0.0
120
0.0
130
0.0
111
1.0
121
0.0
131
0.0
112
0.0
122
1.0
132
0.0
 79
     0
146
0.0
  0
ENDTAB
  0
TABLE
  2
LTYPE
  5
5
330
0
100
AcDbSymbolTable
 70
     1
  0
LTYPE
  5
14
330
5
100
AcDbSymbolTableRecord
100
AcDbLinetypeTableRecord
  2
ByBlock
 70
     0
  3

 72
    65
 73
     0
 40
0.0
  0
LTYPE
  5
15
330
5
100
AcDbSymbolTableRecord
100
AcDbLinetypeTableRecord
  2
ByLayer
 70
     0
  3

 72
    65
 73
     0
 40
0.0
  0
LTYPE
  5
16
330
5
100
AcDbSymbolTableRecord
100
AcDbLinetypeTableRecord
  2
Continuous
 70
     0
  3
Solid line
 72
    65
 73
     0
 40
0.0
  0
ENDTAB
  0
TABLE
  2
LAYER
  5
2
330
0
100
AcDbSymbolTable
 70
     1
  0
LAYER
  5
10
330
2
100
AcDbSymbolTableRecord
100
AcDbLayerTableRecord
  2
0
 70
     0
 62
     7
  6
Continuous
370
    -3
390
F
  0
ENDTAB
  0
TABLE
  2
STYLE
  5
3
330
0
100
AcDbSymbolTable
 70
     1
  0
STYLE
  5
11
330
3
100
AcDbSymbolTableRecord
100
AcDbTextStyleTableRecord
  2
Standard
 70
     0
 40
0.0
 41
1.0
 50
0.0
 71
     0
 42
0.2
  3
txt
  4

  0
ENDTAB
  0
TABLE
  2
VIEW
  5
6
330
0
100
AcDbSymbolTable
 70
     0
  0
ENDTAB
  0
TABLE
  2
UCS
  5
7
330
0
100
AcDbSymbolTable
 70
     0
  0
ENDTAB
  0
TABLE
  2
APPID
  5
9
330
0
100
AcDbSymbolTable
 70
     1
  0
APPID
  5
12
330
9
100
AcDbSymbolTableRecord
100
AcDbRegAppTableRecord
  2
ACAD
 70
     0
  0
ENDTAB
  0
TABLE
  2
DIMSTYLE
  5
A
330
0
100
AcDbSymbolTable
 70
     1
100
AcDbDimStyleTable
  0
DIMSTYLE
105
27
330
A
100
AcDbSymbolTableRecord
100
AcDbDimStyleTableRecord
  2
Standard
 70
     0
178
     0
340
11
  0
ENDTAB
  0
TABLE
  2
BLOCK_RECORD
  5
1
330
0
100
AcDbSymbolTable
 70
     1
  0
BLOCK_RECORD
  5
1F
330
1
100
AcDbSymbolTableRecord
100
AcDbBlockTableRecord
  2
*Model_Space
340
22
  0
BLOCK_RECORD
  5
1B
330
1
100
AcDbSymbolTableRecord
100
AcDbBlockTableRecord
  2
*Paper_Space
340
1E
  0
BLOCK_RECORD
  5
23
330
1
100
AcDbSymbolTableRecord
100
AcDbBlockTableRecord
  2
*Paper_Space0
340
26
  0
ENDTAB
  0
ENDSEC
  0
SECTION
  2
BLOCKS
  0
BLOCK
  5
20
330
1F
100
AcDbEntity
  8
0
100
AcDbBlockBegin
  2
*Model_Space
 70
     0
 10
0.0
 20
0.0
 30
0.0
  3
*Model_Space
  1

  0
ENDBLK
  5
21
330
1F
100
AcDbEntity
  8
0
100
AcDbBlockEnd
  0
BLOCK
  5
1C
330
1B
100
AcDbEntity
 67
     1
  8
0
100
AcDbBlockBegin
  2
*Paper_Space
 70
     0
 10
0.0
 20
0.0
 30
0.0
  3
*Paper_Space
  1

  0
ENDBLK
  5
1D
330
1B
100
AcDbEntity
 67
     1
  8
0
100
AcDbBlockEnd
  0
BLOCK
  5
24
330
23
100
AcDbEntity
  8
0
100
AcDbBlockBegin
  2
*Paper_Space0
 70
     0
 10
0.0
 20
0.0
 30
0.0
  3
*Paper_Space0
  1

  0
ENDBLK
  5
25
330
23
100
AcDbEntity
  8
0
100
AcDbBlockEnd
  0
ENDSEC
  0
SECTION
  2
ENTITIES
  0
LINE
  5
6E
330
1F
100
AcDbEntity
  8
0
 62
     7
370
    35
100
AcDbLine
 10
5.065321
 20
4.763376
 30
0.0
 11
1.922057
 21
5.038376
 31
0.0
  0
LINE
  5
6F
330
1F
100
AcDbEntity
  8
0
 62
     7
370
    35
100
AcDbLine
 10
5.065321
 20
4.763376
 30
0.0
 11
5.822575
 21
4.763376
 31
0.0
  0
LINE
  5
70
330
1F
100
AcDbEntity
  8
0
 62
     7
370
    35
100
AcDbLine
 10
5.822575
 20
4.763376
 30
0.0
 11
5.822575
 21
4.675876
 31
0.0
  0
LINE
  5
71
330
1F
100
AcDbEntity
  8
0
 62
     7
370
    35
100
AcDbLine
 10
5.822575
 20
4.675876
 30
0.0
 11
8.572575
 21
4.675876
 31
0.0
  0
LINE
  5
72
330
1F
100
AcDbEntity
  8
0
 62
     7
370
    35
100
AcDbLine
 10
8.572575
 20
4.675876
 30
0.0
 11
8.572575
 21
5.088376
 31
0.0
  0
LINE
  5
73
330
1F
100
AcDbEntity
  8
0
 62
     7
370
    35
100
AcDbLine
 10
8.572575
 20
5.088376
 30
0.0
 11
8.700568
 21
5.088376
 31
0.0
  0
LINE
  5
74
330
1F
100
AcDbEntity
  8
0
 62
     7
370
    35
100
AcDbLine
 10
8.700568
 20
5.088376
 30
0.0
 11
8.700568
 21
5.338376
 31
0.0
  0
LINE
  5
75
330
1F
100
AcDbEntity
  8
0
 62
     7
370
    35
100
AcDbLine
 10
8.700568
 20
5.588377
 30
0.0
 11
8.700568
 21
5.338376
 31
0.0
  0
LINE
  5
76
330
1F
100
AcDbEntity
  8
0
 62
     7
370
    35
100
AcDbLine
 10
8.572575
 20
5.588377
 30
0.0
 11
8.700568
 21
5.588377
 31
0.0
  0
LINE
  5
77
330
1F
100
AcDbEntity
  8
0
 62
     7
370
    35
100
AcDbLine
 10
8.572575
 20
6.000876
 30
0.0
 11
8.572575
 21
5.588377
 31
0.0
  0
LINE
  5
78
330
1F
100
AcDbEntity
  8
0
 62
     7
370
    35
100
AcDbLine
 10
5.822575
 20
6.000876
 30
0.0
 11
8.572575
 21
6.000876
 31
0.0
  0
LINE
  5
79
330
1F
100
AcDbEntity
  8
0
 62
     7
370
    35
100
AcDbLine
 10
5.822575
 20
5.913376
 30
0.0
 11
5.822575
 21
6.000876
 31
0.0
  0
LINE
  5
7A
330
1F
100
AcDbEntity
  8
0
 62
     7
370
    35
100
AcDbLine
 10
5.065321
 20
5.913376
 30
0.0
 11
5.822575
 21
5.913376
 31
0.0
  0
LINE
  5
7B
330
1F
100
AcDbEntity
  8
0
 62
     7
370
    35
100
AcDbLine
 10
6.572575
 20
5.863377
 30
0.0
 11
7.972576
 21
5.863377
 31
0.0
  0
ARC
  5
7C
330
1F
100
AcDbEntity
  8
0
 62
     7
370
    35
100
AcDbCircle
 10
7.972576
 20
5.463376
 30
0.0
 40
0.4
100
AcDbArc
 50
360.0
 51
90.000003
  0
LINE
  5
7D
330
1F
100
AcDbEntity
  8
0
 62
     7
370
    35
100
AcDbLine
 10
8.372575
 20
5.463376
 30
0.0
 11
8.372575
 21
5.338376
 31
0.0
  0
LINE
  5
7E
330
1F
100
AcDbEntity
  8
0
 62
     7
370
    35
100
AcDbLine
 10
8.372575
 20
5.213376
 30
0.0
 11
8.372575
 21
5.338376
 31
0.0
  0
ARC
  5
7F
330
1F
100
AcDbEntity
  8
0
 62
     7
370
    35
100
AcDbCircle
 10
7.972576
 20
5.213376
 30
0.0
 40
0.4
100
AcDbArc
 50
269.999997
 51
360.0
  0
LINE
  5
80
330
1F
100
AcDbEntity
  8
0
 62
     7
370
    35
100
AcDbLine
 10
6.572575
 20
4.813376
 30
0.0
 11
7.972576
 21
4.813376
 31
0.0
  0
LINE
  5
81
330
1F
100
AcDbEntity
  8
0
 62
     7
370
    35
100
AcDbLine
 10
5.065321
 20
5.913376
 30
0.0
 11
3.454661
 21
5.772462
 31
0.0
  0
LINE
  5
82
330
1F
100
AcDbEntity
  8
0
 62
     7
370
    35
100
AcDbLine
 10
1.922057
 20
5.038376
 30
0.0
 11
1.922057
 21
5.094746
 31
0.0
  0
LINE
  5
83
330
1F
100
AcDbEntity
  8
0
 62
     7
370
    35
100
AcDbLine
 10
3.456423
 20
5.742005
 30
0.0
 11
3.486042
 21
5.230027
 31
0.0
  0
LINE
  5
84
330
1F
100
AcDbEntity
  8
0
 62
     7
370
    35
100
AcDbLine
 10
3.454661
 20
5.772462
 30
0.0
 11
3.456423
 21
5.742005
 31
0.0
  0
LINE
  5
85
330
1F
100
AcDbEntity
  8
0
 62
     7
370
    35
100
AcDbLine
 10
3.486042
 20
5.230027
 30
0.0
 11
1.922057
 21
5.094746
 31
0.0
  0
CIRCLE
  5
86
330
1F
100
AcDbEntity
  8
0
 62
     7
370
    35
100
AcDbCircle
 10
4.982172
 20
5.729145
 30
0.0
 40
0.05
  0
CIRCLE
  5
87
330
1F
100
AcDbEntity
  8
0
 62
     7
370
    35
100
AcDbCircle
 10
3.880666
 20
5.041287
 30
0.0
 40
0.05
  0
ARC
  5
88
330
1F
100
AcDbEntity
  8
0
 62
     7
370
    35
100
AcDbCircle
 10
5.10871
 20
5.301343
 30
0.0
 40
0.0250039763687581
100
AcDbArc
 50
181.600978
 51
357.824558
  0
ARC
  5
89
330
1F
100
AcDbEntity
  8
0
 62
     7
370
    35
100
AcDbCircle
 10
5.108702
 20
5.299695
 30
0.0
 40
0.0250043209243195
100
AcDbArc
 50
179.709285
 51
359.709246
  0
ARC
  5
8A
330
1F
100
AcDbEntity
  8
0
 62
     7
370
    35
100
AcDbCircle
 10
5.108702
 20
5.299705
 30
0.0
 40
0.0250042158474435
100
AcDbArc
 50
359.70924
 51
89.988644
  0
ARC
  5
8B
330
1F
100
AcDbEntity
  8
0
 62
     7
370
    35
100
AcDbCircle
 10
5.108712
 20
5.299705
 30
0.0
 40
0.0250043171270571
100
AcDbArc
 50
90.011286
 51
179.731893
  0
ARC
  5
8C
330
1F
100
AcDbEntity
  8
0
 62
     7
370
    35
100
AcDbCircle
 10
5.190327
 20
5.564471
 30
0.0
 40
0.025003976368703
100
AcDbArc
 50
181.600978
 51
357.824558
  0
ARC
  5
8D
330
1F
100
AcDbEntity
  8
0
 62
     7
370
    35
100
AcDbCircle
 10
5.190319
 20
5.562823
 30
0.0
 40
0.0250043209243323
100
AcDbArc
 50
179.709285
 51
359.709246
  0
ARC
  5
8E
330
1F
100
AcDbEntity
  8
0
 62
     7
370
    35
100
AcDbCircle
 10
5.190319
 20
5.562832
 30
0.0
 40
0.0250042158474119
100
AcDbArc
 50
359.70924
 51
89.988644
  0
ARC
  5
8F
330
1F
100
AcDbEntity
  8
0
 62
     7
370
    35
100
AcDbCircle
 10
5.190329
 20
5.562832
 30
0.0
 40
0.0250043171270861
100
AcDbArc
 50
90.011286
 51
179.731893
  0
LINE
  5
90
330
1F
100
AcDbEntity
  8
0
 62
     7
370
    35
100
AcDbLine
 10
5.233379
 20
5.305655
 30
0.0
 11
5.233474
 21
5.307084
 31
0.0
  0
LINE
  5
91
330
1F
100
AcDbEntity
  8
0
 62
     7
370
    35
100
AcDbLine
 10
5.233371
 20
5.304006
 30
0.0
 11
5.233484
 21
5.306261
 31
0.0
  0
ARC
  5
92
330
1F
100
AcDbEntity
  8
0
 62
     7
370
    35
100
AcDbCircle
 10
5.208479
 20
5.306386
 30
0.0
 40
0.0250042151019096
100
AcDbArc
 50
359.713699
 51
89.988644
  0
LINE
  5
93
330
1F
100
AcDbEntity
  8
0
 62
     7
370
    35
100
AcDbLine
 10
5.233379
 20
5.305655
 30
0.0
 11
5.233371
 21
5.304006
 31
0.0
  0
ARC
  5
94
330
1F
100
AcDbEntity
  8
0
 62
     7
370
    35
100
AcDbCircle
 10
5.208489
 20
5.306385
 30
0.0
 40
0.0250043194325656
100
AcDbArc
 50
90.011279
 51
179.742944
  0
ARC
  5
95
330
1F
100
AcDbEntity
  8
0
 62
     7
370
    35
100
AcDbCircle
 10
5.208499
 20
5.30638
 30
0.0
 40
0.0250156924120139
100
AcDbArc
 50
179.731374
 51
189.400029
  0
ARC
  5
96
330
1F
100
AcDbEntity
  8
0
 62
     7
370
    35
100
AcDbCircle
 10
5.208508
 20
5.308029
 30
0.0
 40
0.0250157978391197
100
AcDbArc
 50
181.612166
 51
189.400016
  0
LINE
  5
97
330
1F
100
AcDbEntity
  8
0
 62
     7
370
    35
100
AcDbLine
 10
5.183828
 20
5.303943
 30
0.0
 11
5.18382
 21
5.302295
 31
0.0
  0
LINE
  5
98
330
1F
100
AcDbEntity
  8
0
 62
     7
370
    35
100
AcDbLine
 10
5.333379
 20
5.305875
 30
0.0
 11
5.333474
 21
5.307304
 31
0.0
  0
LINE
  5
99
330
1F
100
AcDbEntity
  8
0
 62
     7
370
    35
100
AcDbLine
 10
5.33337
 20
5.304227
 30
0.0
 11
5.333483
 21
5.306481
 31
0.0
  0
ARC
  5
9A
330
1F
100
AcDbEntity
  8
0
 62
     7
370
    35
100
AcDbCircle
 10
5.308479
 20
5.306606
 30
0.0
 40
0.0250042151019305
100
AcDbArc
 50
359.713699
 51
89.988644
  0
LINE
  5
9B
330
1F
100
AcDbEntity
  8
0
 62
     7
370
    35
100
AcDbLine
 10
5.333379
 20
5.305875
 30
0.0
 11
5.33337
 21
5.304227
 31
0.0
  0
ARC
  5
9C
330
1F
100
AcDbEntity
  8
0
 62
     7
370
    35
100
AcDbCircle
 10
5.308488
 20
5.306606
 30
0.0
 40
0.0250043194326025
100
AcDbArc
 50
90.011279
 51
179.742944
  0
ARC
  5
9D
330
1F
100
AcDbEntity
  8
0
 62
     7
370
    35
100
AcDbCircle
 10
5.308499
 20
5.306601
 30
0.0
 40
0.0250156924122427
100
AcDbArc
 50
179.731374
 51
189.400029
  0
ARC
  5
9E
330
1F
100
AcDbEntity
  8
0
 62
     7
370
    35
100
AcDbCircle
 10
5.308507
 20
5.308249
 30
0.0
 40
0.0250157978390843
100
AcDbArc
 50
181.612166
 51
189.400016
  0
LINE
  5
9F
330
1F
100
AcDbEntity
  8
0
 62
     7
370
    35
100
AcDbLine
 10
5.283827
 20
5.304164
 30
0.0
 11
5.283819
 21
5.302515
 31
0.0
  0
ARC
  5
A0
330
1F
100
AcDbEntity
  8
0
 62
     7
370
    35
100
AcDbCircle
 10
5.20871
 20
5.301564
 30
0.0
 40
0.0250039760552856
100
AcDbArc
 50
181.601114
 51
357.825722
  0
ARC
  5
A1
330
1F
100
AcDbEntity
  8
0
 62
     7
370
    35
100
AcDbCircle
 10
5.208702
 20
5.299916
 30
0.0
 40
0.0250043222100777
100
AcDbArc
 50
179.713806
 51
359.720265
  0
ARC
  5
A2
330
1F
100
AcDbEntity
  8
0
 62
     7
370
    35
100
AcDbCircle
 10
5.208688
 20
5.299921
 30
0.0
 40
0.0250186792719565
100
AcDbArc
 50
359.731812
 51
9.399149
  0
LINE
  5
A3
330
1F
100
AcDbEntity
  8
0
 62
     7
370
    35
100
AcDbLine
 10
5.18382
 20
5.302295
 30
0.0
 11
5.183707
 21
5.30004
 31
0.0
  0
ARC
  5
A4
330
1F
100
AcDbEntity
  8
0
 62
     7
370
    35
100
AcDbCircle
 10
5.290319
 20
5.563043
 30
0.0
 40
0.0250043209243319
100
AcDbArc
 50
179.709285
 51
359.709246
  0
ARC
  5
A5
330
1F
100
AcDbEntity
  8
0
 62
     7
370
    35
100
AcDbCircle
 10
5.290319
 20
5.563053
 30
0.0
 40
0.0250042158474081
100
AcDbArc
 50
359.70924
 51
89.988644
  0
ARC
  5
A6
330
1F
100
AcDbEntity
  8
0
 62
     7
370
    35
100
AcDbCircle
 10
5.290327
 20
5.564691
 30
0.0
 40
0.0250039763687215
100
AcDbArc
 50
181.600978
 51
357.824558
  0
ARC
  5
A7
330
1F
100
AcDbEntity
  8
0
 62
     7
370
    35
100
AcDbCircle
 10
5.290328
 20
5.563053
 30
0.0
 40
0.025004317127063
100
AcDbArc
 50
90.011286
 51
179.731893
  0
LINE
  5
A8
330
1F
100
AcDbEntity
  8
0
 62
     7
370
    35
100
AcDbLine
 10
5.433378
 20
5.306096
 30
0.0
 11
5.433473
 21
5.307525
 31
0.0
  0
LINE
  5
A9
330
1F
100
AcDbEntity
  8
0
 62
     7
370
    35
100
AcDbLine
 10
5.43337
 20
5.304447
 30
0.0
 11
5.433483
 21
5.306701
 31
0.0
  0
ARC
  5
AA
330
1F
100
AcDbEntity
  8
0
 62
     7
370
    35
100
AcDbCircle
 10
5.408478
 20
5.306826
 30
0.0
 40
0.025004215101913
100
AcDbArc
 50
359.713699
 51
89.988644
  0
LINE
  5
AB
330
1F
100
AcDbEntity
  8
0
 62
     7
370
    35
100
AcDbLine
 10
5.433378
 20
5.306096
 30
0.0
 11
5.43337
 21
5.304447
 31
0.0
  0
ARC
  5
AC
330
1F
100
AcDbEntity
  8
0
 62
     7
370
    35
100
AcDbCircle
 10
5.408488
 20
5.306826
 30
0.0
 40
0.0250043194325681
100
AcDbArc
 50
90.011279
 51
179.742944
  0
ARC
  5
AD
330
1F
100
AcDbEntity
  8
0
 62
     7
370
    35
100
AcDbCircle
 10
5.408499
 20
5.306821
 30
0.0
 40
0.0250156924121522
100
AcDbArc
 50
179.731374
 51
189.400029
  0
ARC
  5
AE
330
1F
100
AcDbEntity
  8
0
 62
     7
370
    35
100
AcDbCircle
 10
5.408507
 20
5.308469
 30
0.0
 40
0.0250157978392654
100
AcDbArc
 50
181.612166
 51
189.400016
  0
LINE
  5
AF
330
1F
100
AcDbEntity
  8
0
 62
     7
370
    35
100
AcDbLine
 10
5.383827
 20
5.304383
 30
0.0
 11
5.383819
 21
5.302736
 31
0.0
  0
ARC
  5
B0
330
1F
100
AcDbEntity
  8
0
 62
     7
370
    35
100
AcDbCircle
 10
5.308709
 20
5.301784
 30
0.0
 40
0.025003976055256
100
AcDbArc
 50
181.601114
 51
357.825722
  0
ARC
  5
B1
330
1F
100
AcDbEntity
  8
0
 62
     7
370
    35
100
AcDbCircle
 10
5.308702
 20
5.300136
 30
0.0
 40
0.0250043222100806
100
AcDbArc
 50
179.713806
 51
359.720265
  0
ARC
  5
B2
330
1F
100
AcDbEntity
  8
0
 62
     7
370
    35
100
AcDbCircle
 10
5.308688
 20
5.300141
 30
0.0
 40
0.0250186792714187
100
AcDbArc
 50
359.731812
 51
9.399149
  0
LINE
  5
B3
330
1F
100
AcDbEntity
  8
0
 62
     7
370
    35
100
AcDbLine
 10
5.283819
 20
5.302515
 30
0.0
 11
5.283707
 21
5.300261
 31
0.0
  0
ARC
  5
B4
330
1F
100
AcDbEntity
  8
0
 62
     7
370
    35
100
AcDbCircle
 10
5.390319
 20
5.563264
 30
0.0
 40
0.0250043209243534
100
AcDbArc
 50
179.709285
 51
359.709246
  0
ARC
  5
B5
330
1F
100
AcDbEntity
  8
0
 62
     7
370
    35
100
AcDbCircle
 10
5.390319
 20
5.563273
 30
0.0
 40
0.0250042158474229
100
AcDbArc
 50
359.70924
 51
89.988644
  0
ARC
  5
B6
330
1F
100
AcDbEntity
  8
0
 62
     7
370
    35
100
AcDbCircle
 10
5.390326
 20
5.564912
 30
0.0
 40
0.0250039763687208
100
AcDbArc
 50
181.600978
 51
357.824558
  0
ARC
  5
B7
330
1F
100
AcDbEntity
  8
0
 62
     7
370
    35
100
AcDbCircle
 10
5.390328
 20
5.563273
 30
0.0
 40
0.0250043171270493
100
AcDbArc
 50
90.011286
 51
179.731893
  0
ARC
  5
B8
330
1F
100
AcDbEntity
  8
0
 62
     7
370
    35
100
AcDbCircle
 10
5.508478
 20
5.307037
 30
0.0
 40
0.0250043209243319
100
AcDbArc
 50
179.709285
 51
359.709246
  0
ARC
  5
B9
330
1F
100
AcDbEntity
  8
0
 62
     7
370
    35
100
AcDbCircle
 10
5.508478
 20
5.307046
 30
0.0
 40
0.0250042158473965
100
AcDbArc
 50
359.70924
 51
89.988644
  0
ARC
  5
BA
330
1F
100
AcDbEntity
  8
0
 62
     7
370
    35
100
AcDbCircle
 10
5.508486
 20
5.308685
 30
0.0
 40
0.0250039763687273
100
AcDbArc
 50
181.600978
 51
357.824558
  0
ARC
  5
BB
330
1F
100
AcDbEntity
  8
0
 62
     7
370
    35
100
AcDbCircle
 10
5.508488
 20
5.307046
 30
0.0
 40
0.025004317127041
100
AcDbArc
 50
90.011286
 51
179.731893
  0
ARC
  5
BC
330
1F
100
AcDbEntity
  8
0
 62
     7
370
    35
100
AcDbCircle
 10
5.40871
 20
5.302004
 30
0.0
 40
0.0250039760552536
100
AcDbArc
 50
181.601114
 51
357.825722
  0
ARC
  5
BD
330
1F
100
AcDbEntity
  8
0
 62
     7
370
    35
100
AcDbCircle
 10
5.408701
 20
5.300356
 30
0.0
 40
0.0250043222100745
100
AcDbArc
 50
179.713806
 51
359.720265
  0
ARC
  5
BE
330
1F
100
AcDbEntity
  8
0
 62
     7
370
    35
100
AcDbCircle
 10
5.408687
 20
5.300361
 30
0.0
 40
0.0250186792714166
100
AcDbArc
 50
359.731812
 51
9.399149
  0
LINE
  5
BF
330
1F
100
AcDbEntity
  8
0
 62
     7
370
    35
100
AcDbLine
 10
5.383819
 20
5.302735
 30
0.0
 11
5.383706
 21
5.300481
 31
0.0
  0
ARC
  5
C0
330
1F
100
AcDbEntity
  8
0
 62
     7
370
    35
100
AcDbCircle
 10
5.490318
 20
5.563484
 30
0.0
 40
0.0250043209243753
100
AcDbArc
 50
179.709285
 51
359.709246
  0
ARC
  5
C1
330
1F
100
AcDbEntity
  8
0
 62
     7
370
    35
100
AcDbCircle
 10
5.490318
 20
5.563494
 30
0.0
 40
0.0250042158474425
100
AcDbArc
 50
359.70924
 51
89.988644
  0
ARC
  5
C2
330
1F
100
AcDbEntity
  8
0
 62
     7
370
    35
100
AcDbCircle
 10
5.490326
 20
5.565132
 30
0.0
 40
0.0250039763687338
100
AcDbArc
 50
181.600978
 51
357.824558
  0
ARC
  5
C3
330
1F
100
AcDbEntity
  8
0
 62
     7
370
    35
100
AcDbCircle
 10
5.490328
 20
5.563494
 30
0.0
 40
0.0250043171270628
100
AcDbArc
 50
90.011286
 51
179.731893
  0
CIRCLE
  5
C4
330
1F
100
AcDbEntity
  8
0
 62
     7
370
    35
100
AcDbCircle
 10
6.043603
 20
4.929805
 30
0.0
 40
0.025
  0
CIRCLE
  5
C5
330
1F
100
AcDbEntity
  8
0
 62
     7
370
    35
100
AcDbCircle
 10
5.400328
 20
4.929805
 30
0.0
 40
0.025
  0
CIRCLE
  5
C6
330
1F
100
AcDbEntity
  8
0
 62
     7
370
    35
100
AcDbCircle
 10
8.458839
 20
5.119815
 30
0.0
 40
0.025
  0
CIRCLE
  5
C7
330
1F
100
AcDbEntity
  8
0
 62
     7
370
    35
100
AcDbCircle
 10
8.458839
 20
5.319814
 30
0.0
 40
0.025
  0
CIRCLE
  5
C8
330
1F
100
AcDbEntity
  8
0
 62
     7
370
    35
100
AcDbCircle
 10
8.458839
 20
5.519814
 30
0.0
 40
0.025
  0
ARC
  5
C9
330
1F
100
AcDbEntity
  8
0
 62
     7
370
    35
100
AcDbCircle
 10
6.572575
 20
5.213376
 30
0.0
 40
0.4
100
AcDbArc
 50
214.296806
 51
269.999997
  0
ARC
  5
CA
330
1F
100
AcDbEntity
  8
0
 62
     7
370
    35
100
AcDbCircle
 10
6.572575
 20
5.463376
 30
0.0
 40
0.4
100
AcDbArc
 50
90.000003
 51
139.77515
  0
LINE
  5
CB
330
1F
100
AcDbEntity
  8
0
 62
     7
370
    35
100
AcDbLine
 10
5.601515
 20
5.721692
 30
0.0
 11
5.601515
 21
4.987984
 31
0.0
  0
LINE
  5
CC
330
1F
100
AcDbEntity
  8
0
 62
     7
370
    35
100
AcDbLine
 10
6.140154
 20
4.987984
 30
0.0
 11
5.601515
 21
4.987984
 31
0.0
  0
LINE
  5
CD
330
1F
100
AcDbEntity
  8
0
 62
     7
370
    35
100
AcDbLine
 10
6.242123
 20
4.987984
 30
0.0
 11
6.211438
 21
4.987984
 31
0.0
  0
LINE
  5
CE
330
1F
100
AcDbEntity
  8
0
 62
     7
370
    35
100
AcDbLine
 10
6.210884
 20
4.987984
 30
0.0
 11
6.211438
 21
4.987984
 31
0.0
  0
LINE
  5
CF
330
1F
100
AcDbEntity
  8
0
 62
     7
370
    35
100
AcDbLine
 10
5.601515
 20
5.721692
 30
0.0
 11
6.126281
 21
5.721692
 31
0.0
  0
LINE
  5
D0
330
1F
100
AcDbEntity
  8
0
 62
     7
370
    35
100
AcDbLine
 10
6.223731
 20
5.721692
 30
0.0
 11
6.267169
 21
5.721692
 31
0.0
  0
LINE
  5
D1
330
1F
100
AcDbEntity
  8
0
 62
     7
370
    35
100
AcDbLine
 10
6.223177
 20
5.721692
 30
0.0
 11
6.223731
 21
5.721692
 31
0.0
  0
ARC
  5
D2
330
1F
100
AcDbEntity
  8
0
 62
     7
370
    35
100
AcDbCircle
 10
6.175004
 20
5.732917
 30
0.0
 40
0.0500004109066824
100
AcDbArc
 50
89.998343
 51
192.974254
  0
ARC
  5
D3
330
1F
100
AcDbEntity
  8
0
 62
     7
370
    35
100
AcDbCircle
 10
6.175007
 20
5.732917
 30
0.0
 40
0.0500004008142588
100
AcDbArc
 50
347.025747
 51
90.001717
  0
ARC
  5
D4
330
1F
100
AcDbEntity
  8
0
 62
     7
370
    35
100
AcDbCircle
 10
6.175798
 20
4.952917
 30
0.0
 40
0.0499996487568123
100
AcDbArc
 50
269.997614
 51
44.536143
  0
ARC
  5
D5
330
1F
100
AcDbEntity
  8
0
 62
     7
370
    35
100
AcDbCircle
 10
6.175794
 20
4.952917
 30
0.0
 40
0.0499996179609552
100
AcDbArc
 50
135.463893
 51
270.002422
  0
ARC
  5
D6
330
1F
100
AcDbEntity
  8
0
 62
     7
370
    35
100
AcDbCircle
 10
3.722308
 20
4.952917
 30
0.0
 40
0.0499995939182583
100
AcDbArc
 50
269.99758
 51
90.002434
  0
ARC
  5
D7
330
1F
100
AcDbEntity
  8
0
 62
     7
370
    35
100
AcDbCircle
 10
3.722304
 20
4.952917
 30
0.0
 40
0.0499995896282892
100
AcDbArc
 50
89.997591
 51
270.002422
  0
ARC
  5
D8
330
1F
100
AcDbEntity
  8
0
 62
     7
370
    35
100
AcDbCircle
 10
3.721518
 20
5.732918
 30
0.0
 40
0.0499995939182556
100
AcDbArc
 50
269.99758
 51
90.002434
  0
ARC
  5
D9
330
1F
100
AcDbEntity
  8
0
 62
     7
370
    35
100
AcDbCircle
 10
3.721514
 20
5.732918
 30
0.0
 40
0.0499995896282874
100
AcDbArc
 50
89.997591
 51
270.002422
  0
ARC
  5
DA
330
1F
100
AcDbEntity
  8
0
 62
     7
370
    35
100
AcDbCircle
 10
6.174453
 20
5.732917
 30
0.0
 40
0.0500004008143387
100
AcDbArc
 50
347.025747
 51
90.001717
  0
ARC
  5
DB
330
1F
100
AcDbEntity
  8
0
 62
     7
370
    35
100
AcDbCircle
 10
6.175244
 20
4.952917
 30
0.0
 40
0.0499996487568075
100
AcDbArc
 50
269.997614
 51
44.536143
  0
ARC
  5
DC
330
1F
100
AcDbEntity
  8
0
 62
     7
370
    35
100
AcDbCircle
 10
3.721754
 20
4.952917
 30
0.0
 40
0.0499995939183048
100
AcDbArc
 50
269.99758
 51
90.002434
  0
ARC
  5
DD
330
1F
100
AcDbEntity
  8
0
 62
     7
370
    35
100
AcDbCircle
 10
3.720964
 20
5.732918
 30
0.0
 40
0.0499995939182717
100
AcDbArc
 50
269.99758
 51
90.002434
  0
ENDSEC
  0
SECTION
  2
OBJECTS
  0
DICTIONARY
  5
C
330
0
100
AcDbDictionary
281
     1
  3
ACAD_GROUP
350
D
  3
ACAD_LAYOUT
350
1A
  3
ACAD_MLINESTYLE
350
17
  3
ACAD_PLOTSETTINGS
350
19
  3
ACAD_PLOTSTYLENAME
350
E
  3
ACAD_SCALELIST
350
47
  0
DICTIONARY
  5
D
102
{ACAD_REACTORS
330
C
102
}
330
C
100
AcDbDictionary
281
     1
  0
DICTIONARY
  5
1A
102
{ACAD_REACTORS
330
C
102
}
330
C
100
AcDbDictionary
281
     1
  3
Layout1
350
1E
  3
Layout2
350
26
  3
Model
350
22
  0
DICTIONARY
  5
17
102
{ACAD_REACTORS
330
C
102
}
330
C
100
AcDbDictionary
281
     1
  3
Standard
350
18
  0
DICTIONARY
  5
19
102
{ACAD_REACTORS
330
C
102
}
330
C
100
AcDbDictionary
281
     1
  0
ACDBDICTIONARYWDFLT
  5
E
102
{ACAD_REACTORS
330
C
102
}
330
C
100
AcDbDictionary
281
     1
  3
Normal
350
F
100
AcDbDictionaryWithDefault
340
F
  0
DICTIONARY
  5
47
102
{ACAD_REACTORS
330
C
102
}
330
C
100
AcDbDictionary
281
     1
  3
A0
350
48
  3
A1
350
49
  3
A2
350
4A
  3
A3
350
4B
  3
A4
350
4C
  3
A5
350
4D
  3
A6
350
4E
  3
A7
350
4F
  3
A8
350
50
  3
A9
350
51
  3
B0
350
52
  3
B1
350
53
  3
B2
350
54
  3
B3
350
55
  3
B4
350
56
  3
B5
350
57
  3
B6
350
58
  3
B7
350
59
  3
B8
350
5A
  3
B9
350
5B
  3
C0
350
5C
  3
C1
350
5D
  3
C2
350
5E
  3
C3
350
5F
  3
C4
350
60
  3
C5
350
61
  3
C6
350
62
  3
C7
350
63
  3
C8
350
64
  3
C9
350
65
  3
D0
350
66
  3
D1
350
67
  3
D2
350
68
  0
LAYOUT
  5
1E
102
{ACAD_REACTORS
330
1A
102
}
330
1A
100
AcDbPlotSettings
  1

  2
none_device
  4

  6

 40
0.0
 41
0.0
 42
0.0
 43
0.0
 44
0.0
 45
0.0
 46
0.0
 47
0.0
 48
0.0
 49
0.0
140
0.0
141
0.0
142
1.0
143
1.0
 70
  4784
 72
     0
 73
     0
 74
     5
  7

 75
    16
147
1.0
148
0.0
149
0.0
100
AcDbLayout
  1
Layout1
 70
     1
 71
     1
 10
0.0
 20
0.0
 11
12.0
 21
9.0
 12
0.0
 22
0.0
 32
0.0
 14
0.0
 24
0.0
 34
0.0
 15
8.700567
 25
6.000876
 35
2.0
146
0.0
 13
0.0
 23
0.0
 33
0.0
 16
1.0
 26
0.0
 36
0.0
 17
0.0
 27
1.0
 37
0.0
 76
     0
330
1B
  0
LAYOUT
  5
26
102
{ACAD_REACTORS
330
1A
102
}
330
1A
100
AcDbPlotSettings
  1

  2
none_device
  4

  6

 40
0.0
 41
0.0
 42
0.0
 43
0.0
 44
0.0
 45
0.0
 46
0.0
 47
0.0
 48
0.0
 49
0.0
140
0.0
141
0.0
142
1.0
143
1.0
 70
  4784
 72
     0
 73
     0
 74
     5
  7

 75
    16
147
1.0
148
0.0
149
0.0
100
AcDbLayout
  1
Layout2
 70
     1
 71
     2
 10
0.0
 20
0.0
 11
0.0
 21
0.0
 12
0.0
 22
0.0
 32
0.0
 14
0.0
 24
0.0
 34
0.0
 15
0.0
 25
0.0
 35
0.0
146
0.0
 13
0.0
 23
0.0
 33
0.0
 16
1.0
 26
0.0
 36
0.0
 17
0.0
 27
1.0
 37
0.0
 76
     0
330
23
  0
LAYOUT
  5
22
102
{ACAD_REACTORS
330
1A
102
}
330
1A
100
AcDbPlotSettings
  1

  2
none_device
  4
Letter_(8.50_x_11.00_Inches)
  6

 40
6.35
 41
6.35
 42
6.350005
 43
6.350005
 44
215.9
 45
279.4
 46
0.0
 47
0.0
 48
0.0
 49
0.0
140
0.0
141
0.0
142
1.0
143
1.0
 70
  5808
 72
     0
 73
     0
 74
     0
  7

 75
     0
147
1.0
148
0.0
149
0.0
100
AcDbLayout
  1
Model
 70
     1
 71
     0
 10
0.0
 20
0.0
 11
17.0
 21
11.0
 12
0.0
 22
0.0
 32
0.0
 14
0.0
 24
0.0
 34
0.0
 15
8.700567
 25
6.000876
 35
2.0
146
0.0
 13
0.0
 23
0.0
 33
0.0
 16
1.0
 26
0.0
 36
0.0
 17
0.0
 27
1.0
 37
0.0
 76
     0
330
1F
331
29
  0
MLINESTYLE
  5
18
102
{ACAD_REACTORS
330
17
102
}
330
17
100
AcDbMlineStyle
  2
Standard
 70
     0
  3

 62
   256
 51
90.0
 52
90.0
 71
     2
 49
0.5
 62
   256
  6
BYLAYER
 49
-0.5
 62
   256
  6
BYLAYER
  0
ACDBPLACEHOLDER
  5
F
102
{ACAD_REACTORS
330
E
102
}
330
E
  0
SCALE
  5
48
102
{ACAD_REACTORS
330
47
102
}
330
47
100
AcDbScale
 70
     0
300
1:1
140
1.0
141
1.0
290
     1
  0
SCALE
  5
49
102
{ACAD_REACTORS
330
47
102
}
330
47
100
AcDbScale
 70
     0
300
1:2
140
1.0
141
2.0
290
     0
  0
SCALE
  5
4A
102
{ACAD_REACTORS
330
47
102
}
330
47
100
AcDbScale
 70
     0
300
1:4
140
1.0
141
4.0
290
     0
  0
SCALE
  5
4B
102
{ACAD_REACTORS
330
47
102
}
330
47
100
AcDbScale
 70
     0
300
1:5
140
1.0
141
5.0
290
     0
  0
SCALE
  5
4C
102
{ACAD_REACTORS
330
47
102
}
330
47
100
AcDbScale
 70
     0
300
1:8
140
1.0
141
8.0
290
     0
  0
SCALE
  5
4D
102
{ACAD_REACTORS
330
47
102
}
330
47
100
AcDbScale
 70
     0
300
1:10
140
1.0
141
10.0
290
     0
  0
SCALE
  5
4E
102
{ACAD_REACTORS
330
47
102
}
330
47
100
AcDbScale
 70
     0
300
1:16
140
1.0
141
16.0
290
     0
  0
SCALE
  5
4F
102
{ACAD_REACTORS
330
47
102
}
330
47
100
AcDbScale
 70
     0
300
1:20
140
1.0
141
20.0
290
     0
  0
SCALE
  5
50
102
{ACAD_REACTORS
330
47
102
}
330
47
100
AcDbScale
 70
     0
300
1:30
140
1.0
141
30.0
290
     0
  0
SCALE
  5
51
102
{ACAD_REACTORS
330
47
102
}
330
47
100
AcDbScale
 70
     0
300
1:40
140
1.0
141
40.0
290
     0
  0
SCALE
  5
52
102
{ACAD_REACTORS
330
47
102
}
330
47
100
AcDbScale
 70
     0
300
1:50
140
1.0
141
50.0
290
     0
  0
SCALE
  5
53
102
{ACAD_REACTORS
330
47
102
}
330
47
100
AcDbScale
 70
     0
300
1:100
140
1.0
141
100.0
290
     0
  0
SCALE
  5
54
102
{ACAD_REACTORS
330
47
102
}
330
47
100
AcDbScale
 70
     0
300
2:1
140
2.0
141
1.0
290
     0
  0
SCALE
  5
55
102
{ACAD_REACTORS
330
47
102
}
330
47
100
AcDbScale
 70
     0
300
4:1
140
4.0
141
1.0
290
     0
  0
SCALE
  5
56
102
{ACAD_REACTORS
330
47
102
}
330
47
100
AcDbScale
 70
     0
300
8:1
140
8.0
141
1.0
290
     0
  0
SCALE
  5
57
102
{ACAD_REACTORS
330
47
102
}
330
47
100
AcDbScale
 70
     0
300
10:1
140
10.0
141
1.0
290
     0
  0
SCALE
  5
58
102
{ACAD_REACTORS
330
47
102
}
330
47
100
AcDbScale
 70
     0
300
100:1
140
100.0
141
1.0
290
     0
  0
SCALE
  5
59
102
{ACAD_REACTORS
330
47
102
}
330
47
100
AcDbScale
 70
     0
300
1/128" = 1'-0"
140
0.007812
141
12.0
290
     0
  0
SCALE
  5
5A
102
{ACAD_REACTORS
330
47
102
}
330
47
100
AcDbScale
 70
     0
300
1/64" = 1'-0"
140
0.015625
141
12.0
290
     0
  0
SCALE
  5
5B
102
{ACAD_REACTORS
330
47
102
}
330
47
100
AcDbScale
 70
     0
300
1/32" = 1'-0"
140
0.03125
141
12.0
290
     0
  0
SCALE
  5
5C
102
{ACAD_REACTORS
330
47
102
}
330
47
100
AcDbScale
 70
     0
300
1/16" = 1'-0"
140
0.0625
141
12.0
290
     0
  0
SCALE
  5
5D
102
{ACAD_REACTORS
330
47
102
}
330
47
100
AcDbScale
 70
     0
300
3/32" = 1'-0"
140
0.09375
141
12.0
290
     0
  0
SCALE
  5
5E
102
{ACAD_REACTORS
330
47
102
}
330
47
100
AcDbScale
 70
     0
300
1/8" = 1'-0"
140
0.125
141
12.0
290
     0
  0
SCALE
  5
5F
102
{ACAD_REACTORS
330
47
102
}
330
47
100
AcDbScale
 70
     0
300
3/16" = 1'-0"
140
0.1875
141
12.0
290
     0
  0
SCALE
  5
60
102
{ACAD_REACTORS
330
47
102
}
330
47
100
AcDbScale
 70
     0
300
1/4" = 1'-0"
140
0.25
141
12.0
290
     0
  0
SCALE
  5
61
102
{ACAD_REACTORS
330
47
102
}
330
47
100
AcDbScale
 70
     0
300
3/8" = 1'-0"
140
0.375
141
12.0
290
     0
  0
SCALE
  5
62
102
{ACAD_REACTORS
330
47
102
}
330
47
100
AcDbScale
 70
     0
300
1/2" = 1'-0"
140
0.5
141
12.0
290
     0
  0
SCALE
  5
63
102
{ACAD_REACTORS
330
47
102
}
330
47
100
AcDbScale
 70
     0
300
3/4" = 1'-0"
140
0.75
141
12.0
290
     0
  0
SCALE
  5
64
102
{ACAD_REACTORS
330
47
102
}
330
47
100
AcDbScale
 70
     0
300
1" = 1'-0"
140
1.0
141
12.0
290
     0
  0
SCALE
  5
65
102
{ACAD_REACTORS
330
47
102
}
330
47
100
AcDbScale
 70
     0
300
1-1/2" = 1'-0"
140
1.5
141
12.0
290
     0
  0
SCALE
  5
66
102
{ACAD_REACTORS
330
47
102
}
330
47
100
AcDbScale
 70
     0
300
3" = 1'-0"
140
3.0
141
12.0
290
     0
  0
SCALE
  5
67
102
{ACAD_REACTORS
330
47
102
}
330
47
100
AcDbScale
 70
     0
300
6" = 1'-0"
140
6.0
141
12.0
290
     0
  0
SCALE
  5
68
102
{ACAD_REACTORS
330
47
102
}
330
47
100
AcDbScale
 70
     0
300
1'-0" = 1'-0"
140
12.0
141
12.0
290
     0
  0
ENDSEC
  0
EOF
