%TF.GenerationSoftware,KiCad,Pcbnew,8.0.0*%
%TF.CreationDate,2024-08-24T05:38:51-07:00*%
%TF.ProjectId,aftbulkhead,61667462-756c-46b6-9865-61642e6b6963,rev?*%
%TF.SameCoordinates,Original*%
%TF.FileFunction,Copper,L2,Bot*%
%TF.FilePolarity,Positive*%
%FSLAX46Y46*%
G04 Gerber Fmt 4.6, Leading zero omitted, Abs format (unit mm)*
G04 Created by KiCad (PCBNEW 8.0.0) date 2024-08-24 05:38:51*
%MOMM*%
%LPD*%
G01*
G04 APERTURE LIST*
%TA.AperFunction,ComponentPad*%
%ADD10R,2.500000X2.500000*%
%TD*%
%TA.AperFunction,ComponentPad*%
%ADD11C,3.000000*%
%TD*%
%TA.AperFunction,ComponentPad*%
%ADD12C,2.500000*%
%TD*%
%TA.AperFunction,ComponentPad*%
%ADD13R,1.700000X1.700000*%
%TD*%
%TA.AperFunction,ComponentPad*%
%ADD14O,1.700000X1.700000*%
%TD*%
%TA.AperFunction,Conductor*%
%ADD15C,0.400000*%
%TD*%
G04 APERTURE END LIST*
D10*
%TO.P,SW1,1,A*%
%TO.N,unconnected-(SW1-A-Pad1)*%
X176326800Y-89662000D03*
D11*
%TO.P,SW1,2,B*%
%TO.N,Net-(J1-Pin_1)*%
X176326800Y-84582000D03*
D12*
%TO.P,SW1,3,C*%
%TO.N,Net-(J1-Pin_2)*%
X176326800Y-79502000D03*
%TD*%
D13*
%TO.P,J1,1,Pin_1*%
%TO.N,Net-(J1-Pin_1)*%
X165557200Y-95107600D03*
D14*
%TO.P,J1,2,Pin_2*%
%TO.N,Net-(J1-Pin_2)*%
X165557200Y-92567600D03*
%TD*%
D15*
%TO.N,Net-(J1-Pin_2)*%
X165557200Y-90271600D02*
X165557200Y-92567600D01*
X176326800Y-79502000D02*
X165557200Y-90271600D01*
%TO.N,Net-(J1-Pin_1)*%
X165801200Y-95107600D02*
X165557200Y-95107600D01*
X176326800Y-84582000D02*
X165801200Y-95107600D01*
%TD*%
%TA.AperFunction,Conductor*%
%TO.N,Net-(J1-Pin_2)*%
G36*
X165757738Y-90871027D02*
G01*
X165760230Y-90874717D01*
X166337874Y-92231459D01*
X166337962Y-92240413D01*
X166331692Y-92246807D01*
X166331598Y-92246847D01*
X165561689Y-92566734D01*
X165552734Y-92566743D01*
X165552711Y-92566734D01*
X164782801Y-92246847D01*
X164776476Y-92240508D01*
X164776484Y-92231554D01*
X164889743Y-91965537D01*
X164892226Y-91961861D01*
X164967100Y-91886988D01*
X165032992Y-91772860D01*
X165067100Y-91645566D01*
X165067100Y-91551358D01*
X165068034Y-91546777D01*
X165354170Y-90874717D01*
X165360564Y-90868447D01*
X165364935Y-90867600D01*
X165749465Y-90867600D01*
X165757738Y-90871027D01*
G37*
%TD.AperFunction*%
%TD*%
%TA.AperFunction,Conductor*%
%TO.N,Net-(J1-Pin_2)*%
G36*
X176319072Y-79499914D02*
G01*
X176326684Y-79504631D01*
X176328759Y-79509746D01*
X176508524Y-80723022D01*
X176506346Y-80731708D01*
X176500340Y-80735935D01*
X174894041Y-81222278D01*
X174885130Y-81221396D01*
X174882378Y-81219353D01*
X174609481Y-80946456D01*
X174606054Y-80938183D01*
X174606576Y-80934730D01*
X175108941Y-79312359D01*
X175114660Y-79305472D01*
X175122001Y-79304275D01*
X176319072Y-79499914D01*
G37*
%TD.AperFunction*%
%TD*%
%TA.AperFunction,Conductor*%
%TO.N,Net-(J1-Pin_1)*%
G36*
X166868999Y-93762052D02*
G01*
X166871803Y-93764122D01*
X167143663Y-94035982D01*
X167147090Y-94044255D01*
X167145825Y-94049546D01*
X166412326Y-95496158D01*
X166405528Y-95501987D01*
X166396933Y-95501465D01*
X165560894Y-95110365D01*
X165554853Y-95103755D01*
X165554845Y-95103733D01*
X165254155Y-94269132D01*
X165254574Y-94260190D01*
X165261196Y-94254162D01*
X165261704Y-94253991D01*
X166860084Y-93761214D01*
X166868999Y-93762052D01*
G37*
%TD.AperFunction*%
%TD*%
%TA.AperFunction,Conductor*%
%TO.N,Net-(J1-Pin_1)*%
G36*
X176323021Y-84584948D02*
G01*
X176326858Y-84593039D01*
X176326858Y-84594213D01*
X176253171Y-86061735D01*
X176249334Y-86069826D01*
X176244483Y-86072458D01*
X174720021Y-86476405D01*
X174711146Y-86475211D01*
X174708751Y-86473368D01*
X174435431Y-86200048D01*
X174432004Y-86191775D01*
X174432393Y-86188783D01*
X174836340Y-84664314D01*
X174841772Y-84657197D01*
X174847060Y-84655628D01*
X176314587Y-84581941D01*
X176323021Y-84584948D01*
G37*
%TD.AperFunction*%
%TD*%
M02*
