solid CATIA STL
  facet normal -9.804692e-01  1.966667e-01 -1.607888e-03
    outer loop
      vertex  1.012502e-01  5.173243e-02  4.918189e-02
      vertex  1.023115e-01  5.701370e-02  4.800300e-02
      vertex  1.020365e-01  5.525035e-02  0.000000e+00
    endloop
  endfacet
  facet normal -3.786289e-01  9.255486e-01  0.000000e+00
    outer loop
      vertex  7.500000e-02  2.348405e-02  0.000000e+00
      vertex  7.500000e-02  2.348405e-02  1.250000e-01
      vertex  7.894628e-02  2.509842e-02  8.499999e-02
    endloop
  endfacet
  facet normal -4.122243e-01  9.110805e-01  1.834522e-03
    outer loop
      vertex  7.500000e-02  2.348405e-02  0.000000e+00
      vertex  7.894628e-02  2.509842e-02  8.499999e-02
      vertex  7.919565e-02  2.521725e-02  8.202102e-02
    endloop
  endfacet
  facet normal -4.286675e-01  9.034579e-01  2.836716e-03
    outer loop
      vertex  7.500000e-02  2.348405e-02  0.000000e+00
      vertex  7.919565e-02  2.521725e-02  8.202102e-02
      vertex  7.974620e-02  2.548598e-02  7.963043e-02
    endloop
  endfacet
  facet normal -4.456474e-01  8.951994e-01  4.056393e-03
    outer loop
      vertex  7.500000e-02  2.348405e-02  0.000000e+00
      vertex  7.974620e-02  2.548598e-02  7.963043e-02
      vertex  8.054350e-02  2.589331e-02  7.733007e-02
    endloop
  endfacet
  facet normal -4.662370e-01  8.846405e-01  5.861341e-03
    outer loop
      vertex  7.500000e-02  2.348405e-02  0.000000e+00
      vertex  8.054350e-02  2.589331e-02  7.733007e-02
      vertex  8.152196e-02  2.642355e-02  7.513273e-02
    endloop
  endfacet
  facet normal -4.122752e-01  9.110593e-01  1.435288e-04
    outer loop
      vertex  7.500000e-02  2.348405e-02  0.000000e+00
      vertex  8.152196e-02  2.642355e-02  7.513273e-02
      vertex  8.163060e-02  2.648455e-02  0.000000e+00
    endloop
  endfacet
  facet normal -4.122752e-01  9.110593e-01 -2.430545e-04
    outer loop
      vertex  7.500000e-02  2.348405e-02  1.700000e-01
      vertex  8.163060e-02  2.648455e-02  1.700000e-01
      vertex  8.144372e-02  2.637990e-02  9.470650e-02
    endloop
  endfacet
  facet normal -4.610528e-01  8.873568e-01 -5.329126e-03
    outer loop
      vertex  7.500000e-02  2.348405e-02  1.700000e-01
      vertex  8.144372e-02  2.637990e-02  9.470650e-02
      vertex  8.016470e-02  2.569707e-02  9.166299e-02
    endloop
  endfacet
  facet normal -4.400801e-01  8.979511e-01 -3.647127e-03
    outer loop
      vertex  7.500000e-02  2.348405e-02  1.700000e-01
      vertex  8.016470e-02  2.569707e-02  9.166299e-02
      vertex  7.966065e-02  2.544355e-02  9.006730e-02
    endloop
  endfacet
  facet normal -4.266033e-01  9.044349e-01 -2.702382e-03
    outer loop
      vertex  7.500000e-02  2.348405e-02  1.700000e-01
      vertex  7.966065e-02  2.544355e-02  9.006730e-02
      vertex  7.913782e-02  2.518961e-02  8.761008e-02
    endloop
  endfacet
  facet normal -4.104405e-01  9.118857e-01 -1.736409e-03
    outer loop
      vertex  7.500000e-02  2.348405e-02  1.700000e-01
      vertex  7.913782e-02  2.518961e-02  8.761008e-02
      vertex  7.894628e-02  2.509842e-02  8.499999e-02
    endloop
  endfacet
  facet normal -3.786289e-01  9.255486e-01  0.000000e+00
    outer loop
      vertex  7.500000e-02  2.348405e-02  1.700000e-01
      vertex  7.894628e-02  2.509842e-02  8.499999e-02
      vertex  7.500000e-02  2.348405e-02  1.250000e-01
    endloop
  endfacet
  facet normal -9.949875e-01  9.997923e-02  2.027010e-03
    outer loop
      vertex  1.023115e-01  5.701370e-02  4.800300e-02
      vertex  1.025851e-01  5.974325e-02  4.770016e-02
      vertex  1.020365e-01  5.525035e-02  0.000000e+00
    endloop
  endfacet
  facet normal -9.993984e-01  3.366905e-02  8.323519e-03
    outer loop
      vertex  1.020365e-01  5.525035e-02  0.000000e+00
      vertex  1.025851e-01  5.974325e-02  4.770016e-02
      vertex  1.026772e-01  6.250000e-02  4.759843e-02
    endloop
  endfacet
  facet normal -9.961180e-01  8.802824e-02  0.000000e+00
    outer loop
      vertex  1.020365e-01  5.525035e-02  0.000000e+00
      vertex  1.026772e-01  6.250000e-02  4.759843e-02
      vertex  1.026772e-01  6.250000e-02  0.000000e+00
    endloop
  endfacet
  facet normal -8.767825e-01  4.808867e-01 -5.582918e-04
    outer loop
      vertex  9.660938e-02  4.093965e-02  5.443814e-02
      vertex  9.846649e-02  4.432317e-02  5.231246e-02
      vertex  9.702978e-02  4.164293e-02  0.000000e+00
    endloop
  endfacet
  facet normal -9.169920e-01  3.988773e-01  4.747798e-03
    outer loop
      vertex  9.702978e-02  4.164293e-02  0.000000e+00
      vertex  9.846649e-02  4.432317e-02  5.231246e-02
      vertex  1.000116e-01  4.789613e-02  5.056742e-02
    endloop
  endfacet
  facet normal -9.044492e-01  4.265811e-01  5.823012e-04
    outer loop
      vertex  9.702978e-02  4.164293e-02  0.000000e+00
      vertex  1.000116e-01  4.789613e-02  5.056742e-02
      vertex  1.001344e-01  4.822541e-02  0.000000e+00
    endloop
  endfacet
  facet normal -9.516645e-01  3.071392e-01 -3.100809e-04
    outer loop
      vertex  1.001344e-01  4.822541e-02  0.000000e+00
      vertex  1.000116e-01  4.789613e-02  5.056742e-02
      vertex  1.012502e-01  5.173243e-02  4.918189e-02
    endloop
  endfacet
  facet normal -9.652374e-01  2.613543e-01  3.262651e-03
    outer loop
      vertex  1.001344e-01  4.822541e-02  0.000000e+00
      vertex  1.012502e-01  5.173243e-02  4.918189e-02
      vertex  1.020365e-01  5.525035e-02  0.000000e+00
    endloop
  endfacet
  facet normal -7.732675e-01  6.340795e-01 -7.465974e-04
    outer loop
      vertex  9.195394e-02  3.472271e-02  5.995415e-02
      vertex  9.454690e-02  3.788118e-02  5.684344e-02
      vertex  9.281888e-02  3.570691e-02  0.000000e+00
    endloop
  endfacet
  facet normal -8.277399e-01  5.610998e-01  3.700822e-03
    outer loop
      vertex  9.281888e-02  3.570691e-02  0.000000e+00
      vertex  9.454690e-02  3.788118e-02  5.684344e-02
      vertex  9.660938e-02  4.093965e-02  5.443814e-02
    endloop
  endfacet
  facet normal -8.156207e-01  5.785858e-01  1.176168e-03
    outer loop
      vertex  9.281888e-02  3.570691e-02  0.000000e+00
      vertex  9.660938e-02  4.093965e-02  5.443814e-02
      vertex  9.702978e-02  4.164293e-02  0.000000e+00
    endloop
  endfacet
  facet normal -6.427514e-01  7.660747e-01 -5.720871e-04
    outer loop
      vertex  8.649195e-02  2.969472e-02  6.703660e-02
      vertex  8.923896e-02  3.199676e-02  6.335675e-02
      vertex  8.763223e-02  3.060137e-02  0.000000e+00
    endloop
  endfacet
  facet normal -7.070557e-01  7.071539e-01  2.356356e-03
    outer loop
      vertex  8.763223e-02  3.060137e-02  0.000000e+00
      vertex  8.923896e-02  3.199676e-02  6.335675e-02
      vertex  9.195394e-02  3.472271e-02  5.995415e-02
    endloop
  endfacet
  facet normal -7.015118e-01  7.126560e-01  1.578502e-03
    outer loop
      vertex  8.763223e-02  3.060137e-02  0.000000e+00
      vertex  9.195394e-02  3.472271e-02  5.995415e-02
      vertex  9.281888e-02  3.570691e-02  0.000000e+00
    endloop
  endfacet
  facet normal -5.164927e-01  8.562917e-01 -5.163075e-05
    outer loop
      vertex  8.152196e-02  2.642355e-02  7.513273e-02
      vertex  8.382907e-02  2.781489e-02  7.100639e-02
      vertex  8.163060e-02  2.648455e-02  0.000000e+00
    endloop
  endfacet
  facet normal -5.742780e-01  8.186567e-01  2.442606e-03
    outer loop
      vertex  8.163060e-02  2.648455e-02  0.000000e+00
      vertex  8.382907e-02  2.781489e-02  7.100639e-02
      vertex  8.649195e-02  2.969472e-02  6.703660e-02
    endloop
  endfacet
  facet normal -5.656601e-01  8.246371e-01  1.531265e-03
    outer loop
      vertex  8.163060e-02  2.648455e-02  0.000000e+00
      vertex  8.649195e-02  2.969472e-02  6.703660e-02
      vertex  8.763223e-02  3.060137e-02  0.000000e+00
    endloop
  endfacet
  facet normal  9.954548e-01  9.523548e-02  0.000000e+00
    outer loop
      vertex  2.000000e-02  6.250000e-02  0.000000e+00
      vertex  2.074987e-02  5.466197e-02  1.250000e-01
      vertex  2.074987e-02  5.466197e-02  0.000000e+00
    endloop
  endfacet
  facet normal  9.593402e-01  2.822521e-01  -0.000000e+00
    outer loop
      vertex  2.074987e-02  5.466197e-02  0.000000e+00
      vertex  2.074987e-02  5.466197e-02  1.250000e-01
      vertex  2.297227e-02  4.710830e-02  1.250000e-01
    endloop
  endfacet
  facet normal  9.593402e-01  2.822521e-01  0.000000e+00
    outer loop
      vertex  2.074987e-02  5.466197e-02  0.000000e+00
      vertex  2.297227e-02  4.710830e-02  1.250000e-01
      vertex  2.297227e-02  4.710830e-02  0.000000e+00
    endloop
  endfacet
  facet normal  8.884217e-01  4.590283e-01  -0.000000e+00
    outer loop
      vertex  2.297227e-02  4.710830e-02  0.000000e+00
      vertex  2.297227e-02  4.710830e-02  1.250000e-01
      vertex  2.658657e-02  4.011304e-02  1.250000e-01
    endloop
  endfacet
  facet normal  8.884217e-01  4.590283e-01  0.000000e+00
    outer loop
      vertex  2.297227e-02  4.710830e-02  0.000000e+00
      vertex  2.658657e-02  4.011304e-02  1.250000e-01
      vertex  2.658657e-02  4.011304e-02  0.000000e+00
    endloop
  endfacet
  facet normal  7.852718e-01  6.191512e-01  -0.000000e+00
    outer loop
      vertex  2.658657e-02  4.011304e-02  0.000000e+00
      vertex  2.658657e-02  4.011304e-02  1.250000e-01
      vertex  3.146166e-02  3.392995e-02  1.250000e-01
    endloop
  endfacet
  facet normal  7.852718e-01  6.191512e-01  0.000000e+00
    outer loop
      vertex  2.658657e-02  4.011304e-02  0.000000e+00
      vertex  3.146166e-02  3.392995e-02  1.250000e-01
      vertex  3.146166e-02  3.392995e-02  0.000000e+00
    endloop
  endfacet
  facet normal  6.536326e-01  7.568120e-01  -0.000000e+00
    outer loop
      vertex  3.146166e-02  3.392995e-02  0.000000e+00
      vertex  3.146166e-02  3.392995e-02  1.250000e-01
      vertex  3.742065e-02  2.878337e-02  1.250000e-01
    endloop
  endfacet
  facet normal  6.536326e-01  7.568120e-01  0.000000e+00
    outer loop
      vertex  3.146166e-02  3.392995e-02  0.000000e+00
      vertex  3.742065e-02  2.878337e-02  1.250000e-01
      vertex  3.742065e-02  2.878337e-02  0.000000e+00
    endloop
  endfacet
  facet normal  4.982802e-01  8.670161e-01  -0.000000e+00
    outer loop
      vertex  3.742065e-02  2.878337e-02  0.000000e+00
      vertex  3.742065e-02  2.878337e-02  1.250000e-01
      vertex  4.424738e-02  2.486001e-02  1.250000e-01
    endloop
  endfacet
  facet normal  4.982802e-01  8.670161e-01  0.000000e+00
    outer loop
      vertex  3.742065e-02  2.878337e-02  0.000000e+00
      vertex  4.424738e-02  2.486001e-02  1.250000e-01
      vertex  4.424738e-02  2.486001e-02  0.000000e+00
    endloop
  endfacet
  facet normal  3.248502e-01  9.457654e-01  -0.000000e+00
    outer loop
      vertex  4.424738e-02  2.486001e-02  0.000000e+00
      vertex  4.424738e-02  2.486001e-02  1.250000e-01
      vertex  5.169416e-02  2.230220e-02  1.250000e-01
    endloop
  endfacet
  facet normal  3.248502e-01  9.457654e-01  0.000000e+00
    outer loop
      vertex  4.424738e-02  2.486001e-02  0.000000e+00
      vertex  5.169416e-02  2.230220e-02  1.250000e-01
      vertex  5.169416e-02  2.230220e-02  0.000000e+00
    endloop
  endfacet
  facet normal  1.396352e-01  9.902030e-01  -0.000000e+00
    outer loop
      vertex  5.169416e-02  2.230220e-02  0.000000e+00
      vertex  5.169416e-02  2.230220e-02  1.250000e-01
      vertex  5.949083e-02  2.120273e-02  1.250000e-01
    endloop
  endfacet
  facet normal  1.396352e-01  9.902030e-01  0.000000e+00
    outer loop
      vertex  5.169416e-02  2.230220e-02  0.000000e+00
      vertex  5.949083e-02  2.120273e-02  1.250000e-01
      vertex  5.949083e-02  2.120273e-02  0.000000e+00
    endloop
  endfacet
  facet normal -5.064586e-02  9.987166e-01  0.000000e+00
    outer loop
      vertex  5.949083e-02  2.120273e-02  0.000000e+00
      vertex  5.949083e-02  2.120273e-02  1.250000e-01
      vertex  6.735454e-02  2.160151e-02  1.250000e-01
    endloop
  endfacet
  facet normal -5.064586e-02  9.987166e-01  0.000000e+00
    outer loop
      vertex  5.949083e-02  2.120273e-02  0.000000e+00
      vertex  6.735454e-02  2.160151e-02  1.250000e-01
      vertex  6.735454e-02  2.160151e-02  0.000000e+00
    endloop
  endfacet
  facet normal -2.390893e-01  9.709976e-01  0.000000e+00
    outer loop
      vertex  6.735454e-02  2.160151e-02  0.000000e+00
      vertex  6.735454e-02  2.160151e-02  1.250000e-01
      vertex  7.500000e-02  2.348405e-02  1.250000e-01
    endloop
  endfacet
  facet normal -2.390893e-01  9.709976e-01  0.000000e+00
    outer loop
      vertex  6.735454e-02  2.160151e-02  0.000000e+00
      vertex  7.500000e-02  2.348405e-02  1.250000e-01
      vertex  7.500000e-02  2.348405e-02  0.000000e+00
    endloop
  endfacet
  facet normal  9.954548e-01  9.523548e-02  -0.000000e+00
    outer loop
      vertex  2.074987e-02  5.466197e-02  1.250000e-01
      vertex  2.000000e-02  6.250000e-02  0.000000e+00
      vertex  2.000000e-02  6.250000e-02  1.250000e-01
    endloop
  endfacet
  facet normal  9.954547e-01 -9.523541e-02  0.000000e+00
    outer loop
      vertex  2.000000e-02  6.250000e-02  1.250000e-01
      vertex  2.000000e-02  6.250000e-02  0.000000e+00
      vertex  2.074987e-02  7.033803e-02  0.000000e+00
    endloop
  endfacet
  facet normal  9.954547e-01 -9.523541e-02  0.000000e+00
    outer loop
      vertex  2.000000e-02  6.250000e-02  1.250000e-01
      vertex  2.074987e-02  7.033803e-02  0.000000e+00
      vertex  2.074987e-02  7.033803e-02  1.250000e-01
    endloop
  endfacet
  facet normal  9.593402e-01 -2.822521e-01  0.000000e+00
    outer loop
      vertex  2.074987e-02  7.033803e-02  1.250000e-01
      vertex  2.074987e-02  7.033803e-02  0.000000e+00
      vertex  2.297227e-02  7.789170e-02  0.000000e+00
    endloop
  endfacet
  facet normal  9.593402e-01 -2.822521e-01  0.000000e+00
    outer loop
      vertex  2.074987e-02  7.033803e-02  1.250000e-01
      vertex  2.297227e-02  7.789170e-02  0.000000e+00
      vertex  2.297227e-02  7.789170e-02  1.250000e-01
    endloop
  endfacet
  facet normal  8.884217e-01 -4.590283e-01  0.000000e+00
    outer loop
      vertex  2.297227e-02  7.789170e-02  1.250000e-01
      vertex  2.297227e-02  7.789170e-02  0.000000e+00
      vertex  2.658657e-02  8.488696e-02  0.000000e+00
    endloop
  endfacet
  facet normal  8.884217e-01 -4.590283e-01  0.000000e+00
    outer loop
      vertex  2.297227e-02  7.789170e-02  1.250000e-01
      vertex  2.658657e-02  8.488696e-02  0.000000e+00
      vertex  2.658657e-02  8.488696e-02  1.250000e-01
    endloop
  endfacet
  facet normal  7.852718e-01 -6.191512e-01  0.000000e+00
    outer loop
      vertex  2.658657e-02  8.488696e-02  1.250000e-01
      vertex  2.658657e-02  8.488696e-02  0.000000e+00
      vertex  3.146166e-02  9.107005e-02  0.000000e+00
    endloop
  endfacet
  facet normal  7.852718e-01 -6.191512e-01  0.000000e+00
    outer loop
      vertex  2.658657e-02  8.488696e-02  1.250000e-01
      vertex  3.146166e-02  9.107005e-02  0.000000e+00
      vertex  3.146166e-02  9.107005e-02  1.250000e-01
    endloop
  endfacet
  facet normal  6.536320e-01 -7.568125e-01  0.000000e+00
    outer loop
      vertex  3.146166e-02  9.107005e-02  1.250000e-01
      vertex  3.146166e-02  9.107005e-02  0.000000e+00
      vertex  3.742065e-02  9.621663e-02  0.000000e+00
    endloop
  endfacet
  facet normal  6.536320e-01 -7.568125e-01  0.000000e+00
    outer loop
      vertex  3.146166e-02  9.107005e-02  1.250000e-01
      vertex  3.742065e-02  9.621663e-02  0.000000e+00
      vertex  3.742065e-02  9.621663e-02  1.250000e-01
    endloop
  endfacet
  facet normal  4.982802e-01 -8.670161e-01  0.000000e+00
    outer loop
      vertex  3.742065e-02  9.621663e-02  1.250000e-01
      vertex  3.742065e-02  9.621663e-02  0.000000e+00
      vertex  4.424738e-02  1.001400e-01  0.000000e+00
    endloop
  endfacet
  facet normal  4.982802e-01 -8.670161e-01  0.000000e+00
    outer loop
      vertex  3.742065e-02  9.621663e-02  1.250000e-01
      vertex  4.424738e-02  1.001400e-01  0.000000e+00
      vertex  4.424738e-02  1.001400e-01  1.250000e-01
    endloop
  endfacet
  facet normal  3.248510e-01 -9.457651e-01  0.000000e+00
    outer loop
      vertex  4.424738e-02  1.001400e-01  1.250000e-01
      vertex  4.424738e-02  1.001400e-01  0.000000e+00
      vertex  5.169416e-02  1.026978e-01  0.000000e+00
    endloop
  endfacet
  facet normal  3.248510e-01 -9.457651e-01  0.000000e+00
    outer loop
      vertex  4.424738e-02  1.001400e-01  1.250000e-01
      vertex  5.169416e-02  1.026978e-01  0.000000e+00
      vertex  5.169416e-02  1.026978e-01  1.250000e-01
    endloop
  endfacet
  facet normal  1.396347e-01 -9.902031e-01  0.000000e+00
    outer loop
      vertex  5.169416e-02  1.026978e-01  1.250000e-01
      vertex  5.169416e-02  1.026978e-01  0.000000e+00
      vertex  5.949083e-02  1.037973e-01  0.000000e+00
    endloop
  endfacet
  facet normal  1.396347e-01 -9.902031e-01  0.000000e+00
    outer loop
      vertex  5.169416e-02  1.026978e-01  1.250000e-01
      vertex  5.949083e-02  1.037973e-01  0.000000e+00
      vertex  5.949083e-02  1.037973e-01  1.250000e-01
    endloop
  endfacet
  facet normal -5.064497e-02 -9.987168e-01  -0.000000e+00
    outer loop
      vertex  5.949083e-02  1.037973e-01  1.250000e-01
      vertex  5.949083e-02  1.037973e-01  0.000000e+00
      vertex  6.735454e-02  1.033985e-01  0.000000e+00
    endloop
  endfacet
  facet normal -5.064497e-02 -9.987168e-01  0.000000e+00
    outer loop
      vertex  5.949083e-02  1.037973e-01  1.250000e-01
      vertex  6.735454e-02  1.033985e-01  0.000000e+00
      vertex  6.735454e-02  1.033985e-01  1.250000e-01
    endloop
  endfacet
  facet normal -2.390898e-01 -9.709974e-01  -0.000000e+00
    outer loop
      vertex  6.735454e-02  1.033985e-01  1.250000e-01
      vertex  6.735454e-02  1.033985e-01  0.000000e+00
      vertex  7.500000e-02  1.015159e-01  0.000000e+00
    endloop
  endfacet
  facet normal -2.390898e-01 -9.709974e-01  0.000000e+00
    outer loop
      vertex  6.735454e-02  1.033985e-01  1.250000e-01
      vertex  7.500000e-02  1.015159e-01  0.000000e+00
      vertex  7.500000e-02  1.015159e-01  1.250000e-01
    endloop
  endfacet
  facet normal -9.838708e-01  1.788720e-01  1.768845e-03
    outer loop
      vertex  1.014459e-01  5.248583e-02  1.210360e-01
      vertex  1.020365e-01  5.525035e-02  1.700000e-01
      vertex  1.024008e-01  5.772768e-02  1.220959e-01
    endloop
  endfacet
  facet normal -9.961135e-01  8.802784e-02 -3.022181e-03
    outer loop
      vertex  1.024008e-01  5.772768e-02  1.220959e-01
      vertex  1.020365e-01  5.525035e-02  1.700000e-01
      vertex  1.026772e-01  6.250000e-02  1.700000e-01
    endloop
  endfacet
  facet normal -9.983270e-01  5.781968e-02  0.000000e+00
    outer loop
      vertex  1.024008e-01  5.772768e-02  1.220959e-01
      vertex  1.026772e-01  6.250000e-02  1.700000e-01
      vertex  1.026772e-01  6.250000e-02  1.224016e-01
    endloop
  endfacet
  facet normal -8.582739e-01  5.131910e-01  9.564534e-04
    outer loop
      vertex  9.567519e-02  3.948096e-02  1.144788e-01
      vertex  9.702978e-02  4.164293e-02  1.700000e-01
      vertex  9.784497e-02  4.310509e-02  1.169799e-01
    endloop
  endfacet
  facet normal -9.044473e-01  4.265802e-01 -2.141992e-03
    outer loop
      vertex  9.784497e-02  4.310509e-02  1.169799e-01
      vertex  9.702978e-02  4.164293e-02  1.700000e-01
      vertex  1.001344e-01  4.822541e-02  1.700000e-01
    endloop
  endfacet
  facet normal -9.092661e-01  4.162142e-01 -9.328296e-04
    outer loop
      vertex  9.784497e-02  4.310509e-02  1.169799e-01
      vertex  1.001344e-01  4.822541e-02  1.700000e-01
      vertex  9.988976e-02  4.757735e-02  1.192956e-01
    endloop
  endfacet
  facet normal -9.652417e-01  2.613555e-01  1.316527e-03
    outer loop
      vertex  9.988976e-02  4.757735e-02  1.192956e-01
      vertex  1.001344e-01  4.822541e-02  1.700000e-01
      vertex  1.020365e-01  5.525035e-02  1.700000e-01
    endloop
  endfacet
  facet normal -9.526468e-01  3.040263e-01 -5.674026e-03
    outer loop
      vertex  9.988976e-02  4.757735e-02  1.192956e-01
      vertex  1.020365e-01  5.525035e-02  1.700000e-01
      vertex  1.014459e-01  5.248583e-02  1.210360e-01
    endloop
  endfacet
  facet normal -6.544180e-01  7.561309e-01  1.837554e-03
    outer loop
      vertex  8.575862e-02  2.914524e-02  1.019215e-01
      vertex  8.763223e-02  3.060137e-02  1.700000e-01
      vertex  9.073734e-02  3.343814e-02  1.085432e-01
    endloop
  endfacet
  facet normal -7.015104e-01  7.126547e-01 -2.548595e-03
    outer loop
      vertex  9.073734e-02  3.343814e-02  1.085432e-01
      vertex  8.763223e-02  3.060137e-02  1.700000e-01
      vertex  9.281888e-02  3.570691e-02  1.700000e-01
    endloop
  endfacet
  facet normal -7.429687e-01  6.693260e-01  4.551418e-04
    outer loop
      vertex  9.073734e-02  3.343814e-02  1.085432e-01
      vertex  9.281888e-02  3.570691e-02  1.700000e-01
      vertex  9.328091e-02  3.625946e-02  1.116517e-01
    endloop
  endfacet
  facet normal -8.156208e-01  5.785859e-01 -9.794490e-04
    outer loop
      vertex  9.328091e-02  3.625946e-02  1.116517e-01
      vertex  9.281888e-02  3.570691e-02  1.700000e-01
      vertex  9.702978e-02  4.164293e-02  1.700000e-01
    endloop
  endfacet
  facet normal -8.010138e-01  5.986338e-01 -3.767654e-03
    outer loop
      vertex  9.328091e-02  3.625946e-02  1.116517e-01
      vertex  9.702978e-02  4.164293e-02  1.700000e-01
      vertex  9.567519e-02  3.948096e-02  1.144788e-01
    endloop
  endfacet
  facet normal -5.114232e-01  8.593289e-01  7.493105e-05
    outer loop
      vertex  8.144372e-02  2.637990e-02  9.470650e-02
      vertex  8.163060e-02  2.648455e-02  1.700000e-01
      vertex  8.349054e-02  2.759773e-02  9.844276e-02
    endloop
  endfacet
  facet normal -5.656598e-01  8.246367e-01 -1.874493e-03
    outer loop
      vertex  8.349054e-02  2.759773e-02  9.844276e-02
      vertex  8.163060e-02  2.648455e-02  1.700000e-01
      vertex  8.763223e-02  3.060137e-02  1.700000e-01
    endloop
  endfacet
  facet normal -5.612454e-01  8.276464e-01 -2.256328e-03
    outer loop
      vertex  8.349054e-02  2.759773e-02  9.844276e-02
      vertex  8.763223e-02  3.060137e-02  1.700000e-01
      vertex  8.575862e-02  2.914524e-02  1.019215e-01
    endloop
  endfacet
  facet normal  -0.000000e+00  0.000000e+00 -1.000000e+00
    outer loop
      vertex  2.797412e-16  1.250000e-01  0.000000e+00
      vertex  2.000000e-01  1.250000e-01  0.000000e+00
      vertex  6.735454e-02  1.033985e-01  0.000000e+00
    endloop
  endfacet
  facet normal  0.000000e+00  0.000000e+00 -1.000000e+00
    outer loop
      vertex  2.797412e-16  1.250000e-01  0.000000e+00
      vertex  6.735454e-02  1.033985e-01  0.000000e+00
      vertex  5.949083e-02  1.037973e-01  0.000000e+00
    endloop
  endfacet
  facet normal  -0.000000e+00  0.000000e+00 -1.000000e+00
    outer loop
      vertex  2.797412e-16  1.250000e-01  0.000000e+00
      vertex  5.949083e-02  1.037973e-01  0.000000e+00
      vertex  5.169416e-02  1.026978e-01  0.000000e+00
    endloop
  endfacet
  facet normal  -0.000000e+00  0.000000e+00 -9.999999e-01
    outer loop
      vertex  2.797412e-16  1.250000e-01  0.000000e+00
      vertex  5.169416e-02  1.026978e-01  0.000000e+00
      vertex  4.424738e-02  1.001400e-01  0.000000e+00
    endloop
  endfacet
  facet normal  -0.000000e+00  0.000000e+00 -9.999999e-01
    outer loop
      vertex  2.797412e-16  1.250000e-01  0.000000e+00
      vertex  4.424738e-02  1.001400e-01  0.000000e+00
      vertex  3.742065e-02  9.621663e-02  0.000000e+00
    endloop
  endfacet
  facet normal  -0.000000e+00  0.000000e+00 -9.999999e-01
    outer loop
      vertex  2.797412e-16  1.250000e-01  0.000000e+00
      vertex  3.742065e-02  9.621663e-02  0.000000e+00
      vertex  3.146166e-02  9.107005e-02  0.000000e+00
    endloop
  endfacet
  facet normal  -0.000000e+00  0.000000e+00 -1.000000e+00
    outer loop
      vertex  2.797412e-16  1.250000e-01  0.000000e+00
      vertex  3.146166e-02  9.107005e-02  0.000000e+00
      vertex  2.658657e-02  8.488696e-02  0.000000e+00
    endloop
  endfacet
  facet normal  -0.000000e+00  0.000000e+00 -1.000000e+00
    outer loop
      vertex  2.797412e-16  1.250000e-01  0.000000e+00
      vertex  2.658657e-02  8.488696e-02  0.000000e+00
      vertex  2.297227e-02  7.789170e-02  0.000000e+00
    endloop
  endfacet
  facet normal  -0.000000e+00  0.000000e+00 -1.000000e+00
    outer loop
      vertex  2.797412e-16  1.250000e-01  0.000000e+00
      vertex  2.297227e-02  7.789170e-02  0.000000e+00
      vertex  2.074987e-02  7.033803e-02  0.000000e+00
    endloop
  endfacet
  facet normal  -0.000000e+00  0.000000e+00 -1.000000e+00
    outer loop
      vertex  2.797412e-16  1.250000e-01  0.000000e+00
      vertex  2.074987e-02  7.033803e-02  0.000000e+00
      vertex  0.000000e+00  0.000000e+00  0.000000e+00
    endloop
  endfacet
  facet normal  0.000000e+00  0.000000e+00 -1.000000e+00
    outer loop
      vertex  0.000000e+00  0.000000e+00  0.000000e+00
      vertex  2.074987e-02  7.033803e-02  0.000000e+00
      vertex  2.000000e-02  6.250000e-02  0.000000e+00
    endloop
  endfacet
  facet normal  0.000000e+00  -0.000000e+00 -1.000000e+00
    outer loop
      vertex  0.000000e+00  0.000000e+00  0.000000e+00
      vertex  2.000000e-02  6.250000e-02  0.000000e+00
      vertex  2.074987e-02  5.466197e-02  0.000000e+00
    endloop
  endfacet
  facet normal  0.000000e+00  -0.000000e+00 -1.000000e+00
    outer loop
      vertex  0.000000e+00  0.000000e+00  0.000000e+00
      vertex  2.074987e-02  5.466197e-02  0.000000e+00
      vertex  2.297227e-02  4.710830e-02  0.000000e+00
    endloop
  endfacet
  facet normal  0.000000e+00  -0.000000e+00 -1.000000e+00
    outer loop
      vertex  0.000000e+00  0.000000e+00  0.000000e+00
      vertex  2.297227e-02  4.710830e-02  0.000000e+00
      vertex  2.658657e-02  4.011304e-02  0.000000e+00
    endloop
  endfacet
  facet normal  0.000000e+00  -0.000000e+00 -1.000000e+00
    outer loop
      vertex  0.000000e+00  0.000000e+00  0.000000e+00
      vertex  2.658657e-02  4.011304e-02  0.000000e+00
      vertex  3.146166e-02  3.392995e-02  0.000000e+00
    endloop
  endfacet
  facet normal  0.000000e+00  -0.000000e+00 -1.000000e+00
    outer loop
      vertex  0.000000e+00  0.000000e+00  0.000000e+00
      vertex  3.146166e-02  3.392995e-02  0.000000e+00
      vertex  3.742065e-02  2.878337e-02  0.000000e+00
    endloop
  endfacet
  facet normal  0.000000e+00  -0.000000e+00 -1.000000e+00
    outer loop
      vertex  0.000000e+00  0.000000e+00  0.000000e+00
      vertex  3.742065e-02  2.878337e-02  0.000000e+00
      vertex  4.424738e-02  2.486001e-02  0.000000e+00
    endloop
  endfacet
  facet normal  0.000000e+00  -0.000000e+00 -1.000000e+00
    outer loop
      vertex  0.000000e+00  0.000000e+00  0.000000e+00
      vertex  4.424738e-02  2.486001e-02  0.000000e+00
      vertex  5.169416e-02  2.230220e-02  0.000000e+00
    endloop
  endfacet
  facet normal  0.000000e+00  -0.000000e+00 -9.999999e-01
    outer loop
      vertex  0.000000e+00  0.000000e+00  0.000000e+00
      vertex  5.169416e-02  2.230220e-02  0.000000e+00
      vertex  5.949083e-02  2.120273e-02  0.000000e+00
    endloop
  endfacet
  facet normal  0.000000e+00  -0.000000e+00 -1.000000e+00
    outer loop
      vertex  0.000000e+00  0.000000e+00  0.000000e+00
      vertex  5.949083e-02  2.120273e-02  0.000000e+00
      vertex  6.735454e-02  2.160151e-02  0.000000e+00
    endloop
  endfacet
  facet normal  0.000000e+00  -0.000000e+00 -9.999999e-01
    outer loop
      vertex  0.000000e+00  0.000000e+00  0.000000e+00
      vertex  6.735454e-02  2.160151e-02  0.000000e+00
      vertex  2.000000e-01  0.000000e+00  0.000000e+00
    endloop
  endfacet
  facet normal  0.000000e+00  0.000000e+00 -1.000000e+00
    outer loop
      vertex  2.000000e-01  0.000000e+00  0.000000e+00
      vertex  6.735454e-02  2.160151e-02  0.000000e+00
      vertex  7.500000e-02  2.348405e-02  0.000000e+00
    endloop
  endfacet
  facet normal  0.000000e+00  0.000000e+00 -1.000000e+00
    outer loop
      vertex  2.000000e-01  0.000000e+00  0.000000e+00
      vertex  7.500000e-02  2.348405e-02  0.000000e+00
      vertex  8.163060e-02  2.648455e-02  0.000000e+00
    endloop
  endfacet
  facet normal  0.000000e+00  0.000000e+00 -1.000000e+00
    outer loop
      vertex  2.000000e-01  0.000000e+00  0.000000e+00
      vertex  8.163060e-02  2.648455e-02  0.000000e+00
      vertex  8.763223e-02  3.060137e-02  0.000000e+00
    endloop
  endfacet
  facet normal  0.000000e+00  0.000000e+00 -1.000000e+00
    outer loop
      vertex  2.000000e-01  0.000000e+00  0.000000e+00
      vertex  8.763223e-02  3.060137e-02  0.000000e+00
      vertex  9.281888e-02  3.570691e-02  0.000000e+00
    endloop
  endfacet
  facet normal  0.000000e+00  0.000000e+00 -1.000000e+00
    outer loop
      vertex  2.000000e-01  0.000000e+00  0.000000e+00
      vertex  9.281888e-02  3.570691e-02  0.000000e+00
      vertex  9.702978e-02  4.164293e-02  0.000000e+00
    endloop
  endfacet
  facet normal  0.000000e+00  0.000000e+00 -1.000000e+00
    outer loop
      vertex  2.000000e-01  0.000000e+00  0.000000e+00
      vertex  9.702978e-02  4.164293e-02  0.000000e+00
      vertex  1.001344e-01  4.822541e-02  0.000000e+00
    endloop
  endfacet
  facet normal  0.000000e+00  0.000000e+00 -1.000000e+00
    outer loop
      vertex  2.000000e-01  0.000000e+00  0.000000e+00
      vertex  1.001344e-01  4.822541e-02  0.000000e+00
      vertex  1.020365e-01  5.525035e-02  0.000000e+00
    endloop
  endfacet
  facet normal  0.000000e+00  0.000000e+00 -1.000000e+00
    outer loop
      vertex  2.000000e-01  0.000000e+00  0.000000e+00
      vertex  1.020365e-01  5.525035e-02  0.000000e+00
      vertex  1.026772e-01  6.250000e-02  0.000000e+00
    endloop
  endfacet
  facet normal  0.000000e+00  0.000000e+00 -9.999999e-01
    outer loop
      vertex  2.000000e-01  0.000000e+00  0.000000e+00
      vertex  1.026772e-01  6.250000e-02  0.000000e+00
      vertex  1.020365e-01  6.974965e-02  0.000000e+00
    endloop
  endfacet
  facet normal  0.000000e+00  0.000000e+00 -9.999999e-01
    outer loop
      vertex  2.000000e-01  0.000000e+00  0.000000e+00
      vertex  1.020365e-01  6.974965e-02  0.000000e+00
      vertex  1.001344e-01  7.677459e-02  0.000000e+00
    endloop
  endfacet
  facet normal  0.000000e+00  0.000000e+00 -1.000000e+00
    outer loop
      vertex  2.000000e-01  0.000000e+00  0.000000e+00
      vertex  1.001344e-01  7.677459e-02  0.000000e+00
      vertex  9.702978e-02  8.335707e-02  0.000000e+00
    endloop
  endfacet
  facet normal  0.000000e+00  0.000000e+00 -1.000000e+00
    outer loop
      vertex  2.000000e-01  0.000000e+00  0.000000e+00
      vertex  9.702978e-02  8.335707e-02  0.000000e+00
      vertex  9.281888e-02  8.929309e-02  0.000000e+00
    endloop
  endfacet
  facet normal  0.000000e+00  0.000000e+00 -1.000000e+00
    outer loop
      vertex  2.000000e-01  0.000000e+00  0.000000e+00
      vertex  9.281888e-02  8.929309e-02  0.000000e+00
      vertex  8.763223e-02  9.439863e-02  0.000000e+00
    endloop
  endfacet
  facet normal  0.000000e+00  0.000000e+00 -1.000000e+00
    outer loop
      vertex  2.000000e-01  1.250000e-01  0.000000e+00
      vertex  2.000000e-01  0.000000e+00  0.000000e+00
      vertex  8.763223e-02  9.439863e-02  0.000000e+00
    endloop
  endfacet
  facet normal  0.000000e+00  0.000000e+00 -1.000000e+00
    outer loop
      vertex  2.000000e-01  1.250000e-01  0.000000e+00
      vertex  8.763223e-02  9.439863e-02  0.000000e+00
      vertex  8.163060e-02  9.851545e-02  0.000000e+00
    endloop
  endfacet
  facet normal  0.000000e+00  0.000000e+00 -1.000000e+00
    outer loop
      vertex  2.000000e-01  1.250000e-01  0.000000e+00
      vertex  8.163060e-02  9.851545e-02  0.000000e+00
      vertex  7.500000e-02  1.015159e-01  0.000000e+00
    endloop
  endfacet
  facet normal  0.000000e+00  0.000000e+00 -9.999999e-01
    outer loop
      vertex  2.000000e-01  1.250000e-01  0.000000e+00
      vertex  7.500000e-02  1.015159e-01  0.000000e+00
      vertex  6.735454e-02  1.033985e-01  0.000000e+00
    endloop
  endfacet
  facet normal  0.000000e+00  0.000000e+00  9.999999e-01
    outer loop
      vertex  2.000000e-01  8.741914e-18  1.700000e-01
      vertex  2.000000e-01  1.250000e-01  1.700000e-01
      vertex  1.026772e-01  6.250000e-02  1.700000e-01
    endloop
  endfacet
  facet normal  0.000000e+00  0.000000e+00  1.000000e+00
    outer loop
      vertex  2.000000e-01  8.741914e-18  1.700000e-01
      vertex  1.026772e-01  6.250000e-02  1.700000e-01
      vertex  1.020365e-01  5.525035e-02  1.700000e-01
    endloop
  endfacet
  facet normal  0.000000e+00  0.000000e+00  1.000000e+00
    outer loop
      vertex  2.000000e-01  8.741914e-18  1.700000e-01
      vertex  1.020365e-01  5.525035e-02  1.700000e-01
      vertex  1.001344e-01  4.822541e-02  1.700000e-01
    endloop
  endfacet
  facet normal  0.000000e+00  0.000000e+00  1.000000e+00
    outer loop
      vertex  2.000000e-01  8.741914e-18  1.700000e-01
      vertex  1.001344e-01  4.822541e-02  1.700000e-01
      vertex  9.702978e-02  4.164293e-02  1.700000e-01
    endloop
  endfacet
  facet normal  0.000000e+00  0.000000e+00  1.000000e+00
    outer loop
      vertex  2.000000e-01  8.741914e-18  1.700000e-01
      vertex  9.702978e-02  4.164293e-02  1.700000e-01
      vertex  9.281888e-02  3.570691e-02  1.700000e-01
    endloop
  endfacet
  facet normal  0.000000e+00  0.000000e+00  1.000000e+00
    outer loop
      vertex  2.000000e-01  8.741914e-18  1.700000e-01
      vertex  9.281888e-02  3.570691e-02  1.700000e-01
      vertex  8.763223e-02  3.060137e-02  1.700000e-01
    endloop
  endfacet
  facet normal  0.000000e+00  0.000000e+00  1.000000e+00
    outer loop
      vertex  2.000000e-01  8.741914e-18  1.700000e-01
      vertex  8.763223e-02  3.060137e-02  1.700000e-01
      vertex  8.163060e-02  2.648455e-02  1.700000e-01
    endloop
  endfacet
  facet normal  0.000000e+00  0.000000e+00  1.000000e+00
    outer loop
      vertex  2.000000e-01  8.741914e-18  1.700000e-01
      vertex  8.163060e-02  2.648455e-02  1.700000e-01
      vertex  7.500000e-02  2.348405e-02  1.700000e-01
    endloop
  endfacet
  facet normal  0.000000e+00  0.000000e+00  9.999999e-01
    outer loop
      vertex  2.000000e-01  8.741914e-18  1.700000e-01
      vertex  7.500000e-02  2.348405e-02  1.700000e-01
      vertex  7.500000e-02  8.741914e-18  1.700000e-01
    endloop
  endfacet
  facet normal  -0.000000e+00  0.000000e+00  1.000000e+00
    outer loop
      vertex  2.000000e-01  1.250000e-01  1.700000e-01
      vertex  7.500000e-02  1.250000e-01  1.700000e-01
      vertex  7.500000e-02  1.015159e-01  1.700000e-01
    endloop
  endfacet
  facet normal  -0.000000e+00  0.000000e+00  1.000000e+00
    outer loop
      vertex  2.000000e-01  1.250000e-01  1.700000e-01
      vertex  7.500000e-02  1.015159e-01  1.700000e-01
      vertex  8.163060e-02  9.851545e-02  1.700000e-01
    endloop
  endfacet
  facet normal  -0.000000e+00  0.000000e+00  1.000000e+00
    outer loop
      vertex  2.000000e-01  1.250000e-01  1.700000e-01
      vertex  8.163060e-02  9.851545e-02  1.700000e-01
      vertex  8.763223e-02  9.439863e-02  1.700000e-01
    endloop
  endfacet
  facet normal  -0.000000e+00  0.000000e+00  1.000000e+00
    outer loop
      vertex  2.000000e-01  1.250000e-01  1.700000e-01
      vertex  8.763223e-02  9.439863e-02  1.700000e-01
      vertex  9.281888e-02  8.929309e-02  1.700000e-01
    endloop
  endfacet
  facet normal  -0.000000e+00  0.000000e+00  1.000000e+00
    outer loop
      vertex  2.000000e-01  1.250000e-01  1.700000e-01
      vertex  9.281888e-02  8.929309e-02  1.700000e-01
      vertex  9.702978e-02  8.335707e-02  1.700000e-01
    endloop
  endfacet
  facet normal  -0.000000e+00  0.000000e+00  1.000000e+00
    outer loop
      vertex  2.000000e-01  1.250000e-01  1.700000e-01
      vertex  9.702978e-02  8.335707e-02  1.700000e-01
      vertex  1.001344e-01  7.677459e-02  1.700000e-01
    endloop
  endfacet
  facet normal  -0.000000e+00  0.000000e+00  1.000000e+00
    outer loop
      vertex  2.000000e-01  1.250000e-01  1.700000e-01
      vertex  1.001344e-01  7.677459e-02  1.700000e-01
      vertex  1.020365e-01  6.974965e-02  1.700000e-01
    endloop
  endfacet
  facet normal  -0.000000e+00  0.000000e+00  1.000000e+00
    outer loop
      vertex  2.000000e-01  1.250000e-01  1.700000e-01
      vertex  1.020365e-01  6.974965e-02  1.700000e-01
      vertex  1.026772e-01  6.250000e-02  1.700000e-01
    endloop
  endfacet
  facet normal -1.000000e+00  0.000000e+00  -0.000000e+00
    outer loop
      vertex  7.500000e-02  0.000000e+00  1.250000e-01
      vertex  7.500000e-02  8.741914e-18  1.700000e-01
      vertex  7.500000e-02  2.348405e-02  1.250000e-01
    endloop
  endfacet
  facet normal -1.000000e+00  0.000000e+00  0.000000e+00
    outer loop
      vertex  7.500000e-02  2.348405e-02  1.250000e-01
      vertex  7.500000e-02  8.741914e-18  1.700000e-01
      vertex  7.500000e-02  2.348405e-02  1.700000e-01
    endloop
  endfacet
  facet normal -1.000000e+00  0.000000e+00  0.000000e+00
    outer loop
      vertex  7.500000e-02  1.015159e-01  1.250000e-01
      vertex  7.500000e-02  1.015159e-01  1.700000e-01
      vertex  7.500000e-02  1.250000e-01  1.250000e-01
    endloop
  endfacet
  facet normal -1.000000e+00  0.000000e+00  0.000000e+00
    outer loop
      vertex  7.500000e-02  1.250000e-01  1.250000e-01
      vertex  7.500000e-02  1.015159e-01  1.700000e-01
      vertex  7.500000e-02  1.250000e-01  1.700000e-01
    endloop
  endfacet
  facet normal  3.103647e-04  9.135971e-01 -4.066205e-01
    outer loop
      vertex  2.000000e-01  2.794545e-02  9.931296e-02
      vertex  8.349054e-02  2.759773e-02  9.844276e-02
      vertex  8.575862e-02  2.914524e-02  1.019215e-01
    endloop
  endfacet
  facet normal -1.501346e-03  8.819203e-01 -4.713961e-01
    outer loop
      vertex  8.575862e-02  2.914524e-02  1.019215e-01
      vertex  2.000000e-01  3.140173e-02  1.057792e-01
      vertex  2.000000e-01  2.794545e-02  9.931296e-02
    endloop
  endfacet
  facet normal  1.841251e-03  8.384595e-01 -5.449608e-01
    outer loop
      vertex  9.073734e-02  3.343814e-02  1.085432e-01
      vertex  2.000000e-01  3.140173e-02  1.057792e-01
      vertex  8.575862e-02  2.914524e-02  1.019215e-01
    endloop
  endfacet
  facet normal -1.640919e-03  7.730095e-01 -6.343923e-01
    outer loop
      vertex  2.000000e-01  3.605309e-02  1.114469e-01
      vertex  2.000000e-01  3.140173e-02  1.057792e-01
      vertex  9.073734e-02  3.343814e-02  1.085432e-01
    endloop
  endfacet
  facet normal  4.031623e-04  3.340627e-01 -9.425508e-01
    outer loop
      vertex  2.000000e-01  4.818704e-02  1.195545e-01
      vertex  9.988976e-02  4.757735e-02  1.192956e-01
      vertex  1.014459e-01  5.248583e-02  1.210360e-01
    endloop
  endfacet
  facet normal -1.722676e-03  2.902842e-01 -9.569389e-01
    outer loop
      vertex  1.014459e-01  5.248583e-02  1.210360e-01
      vertex  2.000000e-01  5.520331e-02  1.216829e-01
      vertex  2.000000e-01  4.818704e-02  1.195545e-01
    endloop
  endfacet
  facet normal  9.742185e-04  1.980138e-01 -9.801987e-01
    outer loop
      vertex  1.024008e-01  5.772768e-02  1.220959e-01
      vertex  2.000000e-01  5.520331e-02  1.216829e-01
      vertex  1.014459e-01  5.248583e-02  1.210360e-01
    endloop
  endfacet
  facet normal -1.791993e-03 -2.902843e-01 -9.569388e-01
    outer loop
      vertex  1.013529e-01  7.287960e-02  1.209324e-01
      vertex  2.000000e-01  7.681296e-02  1.195545e-01
      vertex  2.000000e-01  6.979669e-02  1.216829e-01
    endloop
  endfacet
  facet normal  2.822828e-04 -5.330148e-01 -8.461059e-01
    outer loop
      vertex  9.669276e-02  8.392335e-02  1.156580e-01
      vertex  2.000000e-01  8.327921e-02  1.160983e-01
      vertex  9.835122e-02  8.091041e-02  1.175566e-01
    endloop
  endfacet
  facet normal -6.613568e-04 -6.343939e-01 -7.730097e-01
    outer loop
      vertex  2.000000e-01  8.894690e-02  1.114469e-01
      vertex  2.000000e-01  8.327921e-02  1.160983e-01
      vertex  9.669276e-02  8.392335e-02  1.156580e-01
    endloop
  endfacet
  facet normal  1.605434e-04 -8.758579e-01 -4.825691e-01
    outer loop
      vertex  2.000000e-01  9.359827e-02  1.057792e-01
      vertex  8.870155e-02  9.348623e-02  1.059455e-01
      vertex  8.446489e-02  9.676445e-02  9.999418e-02
    endloop
  endfacet
  facet normal -5.650144e-04 -8.819210e-01 -4.713970e-01
    outer loop
      vertex  8.446489e-02  9.676445e-02  9.999418e-02
      vertex  2.000000e-01  9.705456e-02  9.931296e-02
      vertex  2.000000e-01  9.359827e-02  1.057792e-01
    endloop
  endfacet
  facet normal  8.557292e-05 -9.794579e-01 -2.016487e-01
    outer loop
      vertex  8.015841e-02  9.930614e-02  9.164728e-02
      vertex  2.000000e-01  9.918292e-02  9.229668e-02
      vertex  8.085994e-02  9.893892e-02  9.343126e-02
    endloop
  endfacet
  facet normal  0.000000e+00  9.951848e-01 -9.801710e-02
    outer loop
      vertex  2.000000e-01  2.581709e-02  9.229668e-02
      vertex  2.000000e-01  2.509842e-02  8.499999e-02
      vertex  7.894628e-02  2.509842e-02  8.499999e-02
    endloop
  endfacet
  facet normal -3.845633e-03  9.993927e-01 -3.463162e-02
    outer loop
      vertex  2.000000e-01  2.581709e-02  9.229668e-02
      vertex  7.894628e-02  2.509842e-02  8.499999e-02
      vertex  7.913782e-02  2.518961e-02  8.761008e-02
    endloop
  endfacet
  facet normal -1.187808e-03  9.947272e-01 -1.025492e-01
    outer loop
      vertex  2.000000e-01  2.581709e-02  9.229668e-02
      vertex  7.913782e-02  2.518961e-02  8.761008e-02
      vertex  7.966065e-02  2.544355e-02  9.006730e-02
    endloop
  endfacet
  facet normal -1.596690e-04  9.876214e-01 -1.568563e-01
    outer loop
      vertex  2.000000e-01  2.581709e-02  9.229668e-02
      vertex  7.966065e-02  2.544355e-02  9.006730e-02
      vertex  8.016470e-02  2.569707e-02  9.166299e-02
    endloop
  endfacet
  facet normal  1.807952e-04  9.757277e-01 -2.189873e-01
    outer loop
      vertex  2.000000e-01  2.581709e-02  9.229668e-02
      vertex  8.016470e-02  2.569707e-02  9.166299e-02
      vertex  8.144372e-02  2.637990e-02  9.470650e-02
    endloop
  endfacet
  facet normal -1.766487e-03  9.510521e-01 -3.090254e-01
    outer loop
      vertex  2.000000e-01  2.581709e-02  9.229668e-02
      vertex  8.144372e-02  2.637990e-02  9.470650e-02
      vertex  8.349054e-02  2.759773e-02  9.844276e-02
    endloop
  endfacet
  facet normal -6.878956e-04  9.569401e-01 -2.902847e-01
    outer loop
      vertex  2.000000e-01  2.581709e-02  9.229668e-02
      vertex  8.349054e-02  2.759773e-02  9.844276e-02
      vertex  2.000000e-01  2.794545e-02  9.931296e-02
    endloop
  endfacet
  facet normal -4.921641e-04 -9.951847e-01 -9.801613e-02
    outer loop
      vertex  2.000000e-01  9.990157e-02  8.499999e-02
      vertex  2.000000e-01  9.918292e-02  9.229668e-02
      vertex  8.015841e-02  9.930614e-02  9.164728e-02
    endloop
  endfacet
  facet normal -3.526446e-03 -9.883575e-01 -1.521086e-01
    outer loop
      vertex  2.000000e-01  9.990157e-02  8.499999e-02
      vertex  8.015841e-02  9.930614e-02  9.164728e-02
      vertex  7.958999e-02  9.959130e-02  8.980761e-02
    endloop
  endfacet
  facet normal -1.286689e-03 -9.953357e-01 -9.646269e-02
    outer loop
      vertex  2.000000e-01  9.990157e-02  8.499999e-02
      vertex  7.958999e-02  9.959130e-02  8.980761e-02
      vertex  7.911260e-02  9.982242e-02  8.742925e-02
    endloop
  endfacet
  facet normal  0.000000e+00 -9.994695e-01 -3.256759e-02
    outer loop
      vertex  2.000000e-01  9.990157e-02  8.499999e-02
      vertex  7.911260e-02  9.982242e-02  8.742925e-02
      vertex  7.894541e-02  9.990157e-02  8.499999e-02
    endloop
  endfacet
  facet normal  1.421227e-04  7.404237e-01 -6.721405e-01
    outer loop
      vertex  9.073734e-02  3.343814e-02  1.085432e-01
      vertex  9.328091e-02  3.625946e-02  1.116517e-01
      vertex  2.000000e-01  3.605309e-02  1.114469e-01
    endloop
  endfacet
  facet normal -1.663908e-04  6.596761e-01 -7.515501e-01
    outer loop
      vertex  2.000000e-01  3.605309e-02  1.114469e-01
      vertex  9.328091e-02  3.625946e-02  1.116517e-01
      vertex  9.567519e-02  3.948096e-02  1.144788e-01
    endloop
  endfacet
  facet normal -1.620798e-03  6.343927e-01 -7.730092e-01
    outer loop
      vertex  2.000000e-01  3.605309e-02  1.114469e-01
      vertex  9.567519e-02  3.948096e-02  1.144788e-01
      vertex  2.000000e-01  4.172080e-02  1.160983e-01
    endloop
  endfacet
  facet normal  5.889861e-04  5.677547e-01 -8.231975e-01
    outer loop
      vertex  9.567519e-02  3.948096e-02  1.144788e-01
      vertex  9.784497e-02  4.310509e-02  1.169799e-01
      vertex  2.000000e-01  4.172080e-02  1.160983e-01
    endloop
  endfacet
  facet normal -1.423929e-03  4.603236e-01 -8.877501e-01
    outer loop
      vertex  2.000000e-01  4.172080e-02  1.160983e-01
      vertex  9.784497e-02  4.310509e-02  1.169799e-01
      vertex  9.988976e-02  4.757735e-02  1.192956e-01
    endloop
  endfacet
  facet normal -5.900252e-04  4.713961e-01 -8.819215e-01
    outer loop
      vertex  2.000000e-01  4.172080e-02  1.160983e-01
      vertex  9.988976e-02  4.757735e-02  1.192956e-01
      vertex  2.000000e-01  4.818704e-02  1.195545e-01
    endloop
  endfacet
  facet normal  8.842957e-04 -2.097175e-01 -9.777617e-01
    outer loop
      vertex  1.013529e-01  7.287960e-02  1.209324e-01
      vertex  2.000000e-01  6.979669e-02  1.216829e-01
      vertex  1.023383e-01  6.778203e-02  1.220267e-01
    endloop
  endfacet
  facet normal -1.481288e-03 -9.801731e-02 -9.951836e-01
    outer loop
      vertex  1.023383e-01  6.778203e-02  1.220267e-01
      vertex  2.000000e-01  6.979669e-02  1.216829e-01
      vertex  2.000000e-01  6.250000e-02  1.224016e-01
    endloop
  endfacet
  facet normal  -0.000000e+00 -7.079291e-02 -9.974910e-01
    outer loop
      vertex  1.023383e-01  6.778203e-02  1.220267e-01
      vertex  2.000000e-01  6.250000e-02  1.224016e-01
      vertex  1.026772e-01  6.250000e-02  1.224016e-01
    endloop
  endfacet
  facet normal  0.000000e+00  9.801748e-02 -9.951847e-01
    outer loop
      vertex  1.026772e-01  6.250000e-02  1.224016e-01
      vertex  2.000000e-01  6.250000e-02  1.224016e-01
      vertex  2.000000e-01  5.520331e-02  1.216829e-01
    endloop
  endfacet
  facet normal -2.565101e-03  6.407584e-02 -9.979418e-01
    outer loop
      vertex  1.026772e-01  6.250000e-02  1.224016e-01
      vertex  2.000000e-01  5.520331e-02  1.216829e-01
      vertex  1.024008e-01  5.772768e-02  1.220959e-01
    endloop
  endfacet
  facet normal  5.077811e-04 -3.419316e-01 -9.397247e-01
    outer loop
      vertex  1.013529e-01  7.287960e-02  1.209324e-01
      vertex  9.980100e-02  7.764997e-02  1.191958e-01
      vertex  2.000000e-01  7.681296e-02  1.195545e-01
    endloop
  endfacet
  facet normal -5.558807e-04 -4.493851e-01 -8.933380e-01
    outer loop
      vertex  2.000000e-01  7.681296e-02  1.195545e-01
      vertex  9.980100e-02  7.764997e-02  1.191958e-01
      vertex  9.835122e-02  8.091041e-02  1.175566e-01
    endloop
  endfacet
  facet normal -1.667515e-03 -4.713952e-01 -8.819205e-01
    outer loop
      vertex  2.000000e-01  7.681296e-02  1.195545e-01
      vertex  9.835122e-02  8.091041e-02  1.175566e-01
      vertex  2.000000e-01  8.327921e-02  1.160983e-01
    endloop
  endfacet
  facet normal  2.680882e-04 -6.456486e-01 -7.636346e-01
    outer loop
      vertex  9.669276e-02  8.392335e-02  1.156580e-01
      vertex  9.291718e-02  8.917715e-02  1.112146e-01
      vertex  2.000000e-01  8.894690e-02  1.114469e-01
    endloop
  endfacet
  facet normal -2.918916e-04 -7.742169e-01 -6.329203e-01
    outer loop
      vertex  2.000000e-01  8.894690e-02  1.114469e-01
      vertex  9.291718e-02  8.917715e-02  1.112146e-01
      vertex  8.870155e-02  9.348623e-02  1.059455e-01
    endloop
  endfacet
  facet normal -1.698682e-04 -7.730103e-01 -6.343933e-01
    outer loop
      vertex  2.000000e-01  8.894690e-02  1.114469e-01
      vertex  8.870155e-02  9.348623e-02  1.059455e-01
      vertex  2.000000e-01  9.359827e-02  1.057792e-01
    endloop
  endfacet
  facet normal  3.254172e-04 -9.387558e-01 -3.445829e-01
    outer loop
      vertex  8.446489e-02  9.676445e-02  9.999418e-02
      vertex  8.195233e-02  9.833228e-02  9.572054e-02
      vertex  2.000000e-01  9.705456e-02  9.931296e-02
    endloop
  endfacet
  facet normal -2.707632e-03 -9.669518e-01 -2.549450e-01
    outer loop
      vertex  2.000000e-01  9.705456e-02  9.931296e-02
      vertex  8.195233e-02  9.833228e-02  9.572054e-02
      vertex  8.085994e-02  9.893892e-02  9.343126e-02
    endloop
  endfacet
  facet normal -8.046317e-04 -9.569399e-01 -2.902847e-01
    outer loop
      vertex  2.000000e-01  9.705456e-02  9.931296e-02
      vertex  8.085994e-02  9.893892e-02  9.343126e-02
      vertex  2.000000e-01  9.918292e-02  9.229668e-02
    endloop
  endfacet
  facet normal  3.254454e-04 -9.387558e-01  3.445830e-01
    outer loop
      vertex  8.446489e-02  9.676445e-02  7.000583e-02
      vertex  2.000000e-01  9.705456e-02  7.068703e-02
      vertex  8.195233e-02  9.833228e-02  7.427946e-02
    endloop
  endfacet
  facet normal -5.649781e-04 -8.819208e-01  4.713973e-01
    outer loop
      vertex  2.000000e-01  9.359827e-02  6.422080e-02
      vertex  2.000000e-01  9.705456e-02  7.068703e-02
      vertex  8.446489e-02  9.676445e-02  7.000583e-02
    endloop
  endfacet
  facet normal  2.680866e-04 -6.456490e-01  7.636342e-01
    outer loop
      vertex  2.000000e-01  8.894690e-02  5.855309e-02
      vertex  9.291718e-02  8.917715e-02  5.878536e-02
      vertex  9.669276e-02  8.392335e-02  5.434198e-02
    endloop
  endfacet
  facet normal -6.614231e-04 -6.343935e-01  7.730100e-01
    outer loop
      vertex  9.669276e-02  8.392335e-02  5.434198e-02
      vertex  2.000000e-01  8.327921e-02  5.390173e-02
      vertex  2.000000e-01  8.894690e-02  5.855309e-02
    endloop
  endfacet
  facet normal  5.077529e-04 -3.419300e-01  9.397253e-01
    outer loop
      vertex  2.000000e-01  7.681296e-02  5.044545e-02
      vertex  9.980100e-02  7.764997e-02  5.080415e-02
      vertex  1.013529e-01  7.287960e-02  4.906756e-02
    endloop
  endfacet
  facet normal -1.791948e-03 -2.902843e-01  9.569388e-01
    outer loop
      vertex  1.013529e-01  7.287960e-02  4.906756e-02
      vertex  2.000000e-01  6.979669e-02  4.831709e-02
      vertex  2.000000e-01  7.681296e-02  5.044545e-02
    endloop
  endfacet
  facet normal  4.146938e-04  8.476375e-01  5.305756e-01
    outer loop
      vertex  2.000000e-01  3.140173e-02  6.422080e-02
      vertex  8.923896e-02  3.199676e-02  6.335675e-02
      vertex  8.649195e-02  2.969472e-02  6.703660e-02
    endloop
  endfacet
  facet normal -1.568933e-03  8.819201e-01  4.713963e-01
    outer loop
      vertex  8.649195e-02  2.969472e-02  6.703660e-02
      vertex  2.000000e-01  2.794545e-02  7.068703e-02
      vertex  2.000000e-01  3.140173e-02  6.422080e-02
    endloop
  endfacet
  facet normal  1.610772e-04  9.037489e-01  4.280630e-01
    outer loop
      vertex  8.382907e-02  2.781489e-02  7.100639e-02
      vertex  2.000000e-01  2.794545e-02  7.068703e-02
      vertex  8.649195e-02  2.969472e-02  6.703660e-02
    endloop
  endfacet
  facet normal  0.000000e+00  9.992054e-01  3.985601e-02
    outer loop
      vertex  2.000000e-01  2.509842e-02  8.499999e-02
      vertex  7.919565e-02  2.521725e-02  8.202102e-02
      vertex  7.894628e-02  2.509842e-02  8.499999e-02
    endloop
  endfacet
  facet normal  0.000000e+00 -9.951848e-01  9.801621e-02
    outer loop
      vertex  2.000000e-01  9.918292e-02  7.770331e-02
      vertex  2.000000e-01  9.990157e-02  8.499999e-02
      vertex  7.894541e-02  9.990157e-02  8.499999e-02
    endloop
  endfacet
  facet normal -3.986951e-03 -9.994704e-01  3.229335e-02
    outer loop
      vertex  2.000000e-01  9.918292e-02  7.770331e-02
      vertex  7.894541e-02  9.990157e-02  8.499999e-02
      vertex  7.911260e-02  9.982242e-02  8.257075e-02
    endloop
  endfacet
  facet normal -1.382121e-03 -9.953374e-01  9.644371e-02
    outer loop
      vertex  2.000000e-01  9.918292e-02  7.770331e-02
      vertex  7.911260e-02  9.982242e-02  8.257075e-02
      vertex  7.958999e-02  9.959130e-02  8.019239e-02
    endloop
  endfacet
  facet normal -1.864005e-04 -9.882080e-01  1.531174e-01
    outer loop
      vertex  2.000000e-01  9.918292e-02  7.770331e-02
      vertex  7.958999e-02  9.959130e-02  8.019239e-02
      vertex  8.015841e-02  9.930614e-02  7.835272e-02
    endloop
  endfacet
  facet normal  8.557800e-05 -9.794580e-01  2.016482e-01
    outer loop
      vertex  2.000000e-01  9.918292e-02  7.770331e-02
      vertex  8.015841e-02  9.930614e-02  7.835272e-02
      vertex  8.085994e-02  9.893892e-02  7.656873e-02
    endloop
  endfacet
  facet normal -4.576889e-04 -9.666900e-01  2.559498e-01
    outer loop
      vertex  2.000000e-01  9.918292e-02  7.770331e-02
      vertex  8.085994e-02  9.893892e-02  7.656873e-02
      vertex  8.195233e-02  9.833228e-02  7.427946e-02
    endloop
  endfacet
  facet normal -1.523789e-03 -9.569393e-01  2.902843e-01
    outer loop
      vertex  2.000000e-01  9.918292e-02  7.770331e-02
      vertex  8.195233e-02  9.833228e-02  7.427946e-02
      vertex  2.000000e-01  9.705456e-02  7.068703e-02
    endloop
  endfacet
  facet normal  0.000000e+00  9.801748e-02  9.951847e-01
    outer loop
      vertex  2.000000e-01  5.520331e-02  4.831709e-02
      vertex  2.000000e-01  6.250000e-02  4.759843e-02
      vertex  1.026772e-01  6.250000e-02  4.759843e-02
    endloop
  endfacet
  facet normal -4.602716e-03  3.703231e-02  9.993035e-01
    outer loop
      vertex  2.000000e-01  5.520331e-02  4.831709e-02
      vertex  1.026772e-01  6.250000e-02  4.759843e-02
      vertex  1.025851e-01  5.974325e-02  4.770016e-02
    endloop
  endfacet
  facet normal -1.149862e-03  1.103855e-01  9.938881e-01
    outer loop
      vertex  2.000000e-01  5.520331e-02  4.831709e-02
      vertex  1.025851e-01  5.974325e-02  4.770016e-02
      vertex  1.023115e-01  5.701370e-02  4.800300e-02
    endloop
  endfacet
  facet normal  8.961285e-04  2.176870e-01  9.760182e-01
    outer loop
      vertex  2.000000e-01  5.520331e-02  4.831709e-02
      vertex  1.023115e-01  5.701370e-02  4.800300e-02
      vertex  1.012502e-01  5.173243e-02  4.918189e-02
    endloop
  endfacet
  facet normal -1.822622e-03  2.902842e-01  9.569387e-01
    outer loop
      vertex  2.000000e-01  5.520331e-02  4.831709e-02
      vertex  1.012502e-01  5.173243e-02  4.918189e-02
      vertex  2.000000e-01  4.818704e-02  5.044545e-02
    endloop
  endfacet
  facet normal -2.774479e-04  9.569404e-01  2.902846e-01
    outer loop
      vertex  2.000000e-01  2.581709e-02  7.770331e-02
      vertex  2.000000e-01  2.794545e-02  7.068703e-02
      vertex  8.382907e-02  2.781489e-02  7.100639e-02
    endloop
  endfacet
  facet normal -2.057642e-03  9.479283e-01  3.184770e-01
    outer loop
      vertex  2.000000e-01  2.581709e-02  7.770331e-02
      vertex  8.382907e-02  2.781489e-02  7.100639e-02
      vertex  8.152196e-02  2.642355e-02  7.513273e-02
    endloop
  endfacet
  facet normal -1.125136e-04  9.721086e-01  2.345311e-01
    outer loop
      vertex  2.000000e-01  2.581709e-02  7.770331e-02
      vertex  8.152196e-02  2.642355e-02  7.513273e-02
      vertex  8.054350e-02  2.589331e-02  7.733007e-02
    endloop
  endfacet
  facet normal  8.342534e-05  9.846770e-01  1.743882e-01
    outer loop
      vertex  2.000000e-01  2.581709e-02  7.770331e-02
      vertex  8.054350e-02  2.589331e-02  7.733007e-02
      vertex  7.974620e-02  2.548598e-02  7.963043e-02
    endloop
  endfacet
  facet normal -9.495495e-04  9.937649e-01  1.114912e-01
    outer loop
      vertex  2.000000e-01  2.581709e-02  7.770331e-02
      vertex  7.974620e-02  2.548598e-02  7.963043e-02
      vertex  7.919565e-02  2.521725e-02  8.202102e-02
    endloop
  endfacet
  facet normal -1.438178e-03  9.951837e-01  9.801705e-02
    outer loop
      vertex  2.000000e-01  2.581709e-02  7.770331e-02
      vertex  7.919565e-02  2.521725e-02  8.202102e-02
      vertex  2.000000e-01  2.509842e-02  8.499999e-02
    endloop
  endfacet
  facet normal  1.605440e-04 -8.758581e-01  4.825688e-01
    outer loop
      vertex  8.446489e-02  9.676445e-02  7.000583e-02
      vertex  8.870155e-02  9.348623e-02  6.405448e-02
      vertex  2.000000e-01  9.359827e-02  6.422080e-02
    endloop
  endfacet
  facet normal -1.665916e-04 -7.741678e-01  6.329803e-01
    outer loop
      vertex  2.000000e-01  9.359827e-02  6.422080e-02
      vertex  8.870155e-02  9.348623e-02  6.405448e-02
      vertex  9.291718e-02  8.917715e-02  5.878536e-02
    endloop
  endfacet
  facet normal -2.861020e-04 -7.730104e-01  6.343933e-01
    outer loop
      vertex  2.000000e-01  9.359827e-02  6.422080e-02
      vertex  9.291718e-02  8.917715e-02  5.878536e-02
      vertex  2.000000e-01  8.894690e-02  5.855309e-02
    endloop
  endfacet
  facet normal  2.822222e-04 -5.330129e-01  8.461071e-01
    outer loop
      vertex  9.669276e-02  8.392335e-02  5.434198e-02
      vertex  9.835122e-02  8.091041e-02  5.244339e-02
      vertex  2.000000e-01  8.327921e-02  5.390173e-02
    endloop
  endfacet
  facet normal -2.325004e-03 -4.500138e-01  8.930185e-01
    outer loop
      vertex  2.000000e-01  8.327921e-02  5.390173e-02
      vertex  9.835122e-02  8.091041e-02  5.244339e-02
      vertex  9.980100e-02  7.764997e-02  5.080415e-02
    endloop
  endfacet
  facet normal -7.806603e-04 -4.713962e-01  8.819212e-01
    outer loop
      vertex  2.000000e-01  8.327921e-02  5.390173e-02
      vertex  9.980100e-02  7.764997e-02  5.080415e-02
      vertex  2.000000e-01  7.681296e-02  5.044545e-02
    endloop
  endfacet
  facet normal  8.843423e-04 -2.097175e-01  9.777617e-01
    outer loop
      vertex  1.013529e-01  7.287960e-02  4.906756e-02
      vertex  1.023383e-01  6.778203e-02  4.797330e-02
      vertex  2.000000e-01  6.979669e-02  4.831709e-02
    endloop
  endfacet
  facet normal -2.048221e-03 -7.092439e-02  9.974796e-01
    outer loop
      vertex  2.000000e-01  6.979669e-02  4.831709e-02
      vertex  1.023383e-01  6.778203e-02  4.797330e-02
      vertex  1.026772e-01  6.250000e-02  4.759843e-02
    endloop
  endfacet
  facet normal  0.000000e+00 -9.801742e-02  9.951847e-01
    outer loop
      vertex  2.000000e-01  6.979669e-02  4.831709e-02
      vertex  1.026772e-01  6.250000e-02  4.759843e-02
      vertex  2.000000e-01  6.250000e-02  4.759843e-02
    endloop
  endfacet
  facet normal  1.591269e-04  3.396425e-01  9.405546e-01
    outer loop
      vertex  1.012502e-01  5.173243e-02  4.918189e-02
      vertex  1.000116e-01  4.789613e-02  5.056742e-02
      vertex  2.000000e-01  4.818704e-02  5.044545e-02
    endloop
  endfacet
  facet normal -1.809730e-04  4.389197e-01  8.985262e-01
    outer loop
      vertex  2.000000e-01  4.818704e-02  5.044545e-02
      vertex  1.000116e-01  4.789613e-02  5.056742e-02
      vertex  9.846649e-02  4.432317e-02  5.231246e-02
    endloop
  endfacet
  facet normal -1.722216e-03  4.713959e-01  8.819200e-01
    outer loop
      vertex  2.000000e-01  4.818704e-02  5.044545e-02
      vertex  9.846649e-02  4.432317e-02  5.231246e-02
      vertex  2.000000e-01  4.172080e-02  5.390173e-02
    endloop
  endfacet
  facet normal  3.755635e-04  5.318270e-01  8.468530e-01
    outer loop
      vertex  9.846649e-02  4.432317e-02  5.231246e-02
      vertex  9.660938e-02  4.093965e-02  5.443814e-02
      vertex  2.000000e-01  4.172080e-02  5.390173e-02
    endloop
  endfacet
  facet normal -5.952023e-04  6.184217e-01  7.858462e-01
    outer loop
      vertex  2.000000e-01  4.172080e-02  5.390173e-02
      vertex  9.660938e-02  4.093965e-02  5.443814e-02
      vertex  9.454690e-02  3.788118e-02  5.684344e-02
    endloop
  endfacet
  facet normal -1.534789e-03  6.343924e-01  7.730096e-01
    outer loop
      vertex  2.000000e-01  4.172080e-02  5.390173e-02
      vertex  9.454690e-02  3.788118e-02  5.684344e-02
      vertex  2.000000e-01  3.605309e-02  5.855309e-02
    endloop
  endfacet
  facet normal  6.050370e-04  7.014462e-01  7.127221e-01
    outer loop
      vertex  9.454690e-02  3.788118e-02  5.684344e-02
      vertex  9.195394e-02  3.472271e-02  5.995415e-02
      vertex  2.000000e-01  3.605309e-02  5.855309e-02
    endloop
  endfacet
  facet normal -1.518884e-03  7.810263e-01  6.244962e-01
    outer loop
      vertex  2.000000e-01  3.605309e-02  5.855309e-02
      vertex  9.195394e-02  3.472271e-02  5.995415e-02
      vertex  8.923896e-02  3.199676e-02  6.335675e-02
    endloop
  endfacet
  facet normal -7.961011e-04  7.730103e-01  6.343930e-01
    outer loop
      vertex  2.000000e-01  3.605309e-02  5.855309e-02
      vertex  8.923896e-02  3.199676e-02  6.335675e-02
      vertex  2.000000e-01  3.140173e-02  6.422080e-02
    endloop
  endfacet
  facet normal  0.000000e+00  0.000000e+00  1.000000e+00
    outer loop
      vertex  7.500000e-02  1.250000e-01  1.250000e-01
      vertex  3.742065e-02  9.621663e-02  1.250000e-01
      vertex  4.424738e-02  1.001400e-01  1.250000e-01
    endloop
  endfacet
  facet normal  0.000000e+00  0.000000e+00  1.000000e+00
    outer loop
      vertex  7.500000e-02  1.250000e-01  1.250000e-01
      vertex  4.424738e-02  1.001400e-01  1.250000e-01
      vertex  5.169416e-02  1.026978e-01  1.250000e-01
    endloop
  endfacet
  facet normal  0.000000e+00  0.000000e+00  1.000000e+00
    outer loop
      vertex  7.500000e-02  1.250000e-01  1.250000e-01
      vertex  5.169416e-02  1.026978e-01  1.250000e-01
      vertex  5.949083e-02  1.037973e-01  1.250000e-01
    endloop
  endfacet
  facet normal  -0.000000e+00  0.000000e+00  1.000000e+00
    outer loop
      vertex  7.500000e-02  1.250000e-01  1.250000e-01
      vertex  5.949083e-02  1.037973e-01  1.250000e-01
      vertex  6.735454e-02  1.033985e-01  1.250000e-01
    endloop
  endfacet
  facet normal  -0.000000e+00  0.000000e+00  1.000000e+00
    outer loop
      vertex  7.500000e-02  1.250000e-01  1.250000e-01
      vertex  6.735454e-02  1.033985e-01  1.250000e-01
      vertex  7.500000e-02  1.015159e-01  1.250000e-01
    endloop
  endfacet
  facet normal  0.000000e+00  0.000000e+00  9.999999e-01
    outer loop
      vertex  7.500000e-02  0.000000e+00  1.250000e-01
      vertex  7.500000e-02  2.348405e-02  1.250000e-01
      vertex  6.735454e-02  2.160151e-02  1.250000e-01
    endloop
  endfacet
  facet normal  0.000000e+00  0.000000e+00  1.000000e+00
    outer loop
      vertex  7.500000e-02  0.000000e+00  1.250000e-01
      vertex  6.735454e-02  2.160151e-02  1.250000e-01
      vertex  5.949083e-02  2.120273e-02  1.250000e-01
    endloop
  endfacet
  facet normal  0.000000e+00  0.000000e+00  1.000000e+00
    outer loop
      vertex  7.500000e-02  0.000000e+00  1.250000e-01
      vertex  5.949083e-02  2.120273e-02  1.250000e-01
      vertex  0.000000e+00  0.000000e+00  1.250000e-01
    endloop
  endfacet
  facet normal  0.000000e+00  0.000000e+00  9.999999e-01
    outer loop
      vertex  0.000000e+00  0.000000e+00  1.250000e-01
      vertex  5.949083e-02  2.120273e-02  1.250000e-01
      vertex  5.169416e-02  2.230220e-02  1.250000e-01
    endloop
  endfacet
  facet normal  0.000000e+00  0.000000e+00  1.000000e+00
    outer loop
      vertex  0.000000e+00  0.000000e+00  1.250000e-01
      vertex  5.169416e-02  2.230220e-02  1.250000e-01
      vertex  4.424738e-02  2.486001e-02  1.250000e-01
    endloop
  endfacet
  facet normal  0.000000e+00  0.000000e+00  1.000000e+00
    outer loop
      vertex  0.000000e+00  0.000000e+00  1.250000e-01
      vertex  4.424738e-02  2.486001e-02  1.250000e-01
      vertex  3.742065e-02  2.878337e-02  1.250000e-01
    endloop
  endfacet
  facet normal  0.000000e+00  0.000000e+00  9.999999e-01
    outer loop
      vertex  0.000000e+00  0.000000e+00  1.250000e-01
      vertex  3.742065e-02  2.878337e-02  1.250000e-01
      vertex  3.146166e-02  3.392995e-02  1.250000e-01
    endloop
  endfacet
  facet normal  0.000000e+00  0.000000e+00  1.000000e+00
    outer loop
      vertex  0.000000e+00  0.000000e+00  1.250000e-01
      vertex  3.146166e-02  3.392995e-02  1.250000e-01
      vertex  2.658657e-02  4.011304e-02  1.250000e-01
    endloop
  endfacet
  facet normal  0.000000e+00  0.000000e+00  1.000000e+00
    outer loop
      vertex  0.000000e+00  0.000000e+00  1.250000e-01
      vertex  2.658657e-02  4.011304e-02  1.250000e-01
      vertex  2.297227e-02  4.710830e-02  1.250000e-01
    endloop
  endfacet
  facet normal  0.000000e+00  0.000000e+00  1.000000e+00
    outer loop
      vertex  0.000000e+00  0.000000e+00  1.250000e-01
      vertex  2.297227e-02  4.710830e-02  1.250000e-01
      vertex  2.074987e-02  5.466197e-02  1.250000e-01
    endloop
  endfacet
  facet normal  0.000000e+00  0.000000e+00  1.000000e+00
    outer loop
      vertex  0.000000e+00  0.000000e+00  1.250000e-01
      vertex  2.074987e-02  5.466197e-02  1.250000e-01
      vertex  2.000000e-02  6.250000e-02  1.250000e-01
    endloop
  endfacet
  facet normal  0.000000e+00  -0.000000e+00  1.000000e+00
    outer loop
      vertex  0.000000e+00  0.000000e+00  1.250000e-01
      vertex  2.000000e-02  6.250000e-02  1.250000e-01
      vertex  2.074987e-02  7.033803e-02  1.250000e-01
    endloop
  endfacet
  facet normal  0.000000e+00  0.000000e+00  1.000000e+00
    outer loop
      vertex  2.797412e-16  1.250000e-01  1.250000e-01
      vertex  0.000000e+00  0.000000e+00  1.250000e-01
      vertex  2.074987e-02  7.033803e-02  1.250000e-01
    endloop
  endfacet
  facet normal  0.000000e+00  -0.000000e+00  1.000000e+00
    outer loop
      vertex  2.797412e-16  1.250000e-01  1.250000e-01
      vertex  2.074987e-02  7.033803e-02  1.250000e-01
      vertex  2.297227e-02  7.789170e-02  1.250000e-01
    endloop
  endfacet
  facet normal  0.000000e+00  -0.000000e+00  1.000000e+00
    outer loop
      vertex  2.797412e-16  1.250000e-01  1.250000e-01
      vertex  2.297227e-02  7.789170e-02  1.250000e-01
      vertex  2.658657e-02  8.488696e-02  1.250000e-01
    endloop
  endfacet
  facet normal  0.000000e+00  -0.000000e+00  9.999999e-01
    outer loop
      vertex  2.797412e-16  1.250000e-01  1.250000e-01
      vertex  2.658657e-02  8.488696e-02  1.250000e-01
      vertex  3.146166e-02  9.107005e-02  1.250000e-01
    endloop
  endfacet
  facet normal  0.000000e+00  -0.000000e+00  9.999999e-01
    outer loop
      vertex  2.797412e-16  1.250000e-01  1.250000e-01
      vertex  3.146166e-02  9.107005e-02  1.250000e-01
      vertex  3.742065e-02  9.621663e-02  1.250000e-01
    endloop
  endfacet
  facet normal  0.000000e+00  -0.000000e+00  9.999999e-01
    outer loop
      vertex  2.797412e-16  1.250000e-01  1.250000e-01
      vertex  3.742065e-02  9.621663e-02  1.250000e-01
      vertex  7.500000e-02  1.250000e-01  1.250000e-01
    endloop
  endfacet
  facet normal -6.128650e-01 -7.901869e-01  1.024341e-03
    outer loop
      vertex  8.870155e-02  9.348623e-02  1.059455e-01
      vertex  8.763223e-02  9.439863e-02  1.700000e-01
      vertex  8.446489e-02  9.676445e-02  9.999418e-02
    endloop
  endfacet
  facet normal -9.510441e-01 -3.090539e-01  9.159051e-04
    outer loop
      vertex  1.001344e-01  7.677459e-02  1.700000e-01
      vertex  9.980100e-02  7.764997e-02  1.191958e-01
      vertex  1.013529e-01  7.287960e-02  1.209324e-01
    endloop
  endfacet
  facet normal -9.652376e-01 -2.613541e-01 -3.222961e-03
    outer loop
      vertex  1.013529e-01  7.287960e-02  1.209324e-01
      vertex  1.020365e-01  6.974965e-02  1.700000e-01
      vertex  1.001344e-01  7.677459e-02  1.700000e-01
    endloop
  endfacet
  facet normal -6.128650e-01 -7.901870e-01 -1.024341e-03
    outer loop
      vertex  8.763223e-02  9.439863e-02  0.000000e+00
      vertex  8.870155e-02  9.348623e-02  6.405448e-02
      vertex  8.446489e-02  9.676445e-02  7.000583e-02
    endloop
  endfacet
  facet normal -9.510441e-01 -3.090540e-01 -9.159051e-04
    outer loop
      vertex  1.013529e-01  7.287960e-02  4.906756e-02
      vertex  9.980100e-02  7.764997e-02  5.080415e-02
      vertex  1.001344e-01  7.677459e-02  0.000000e+00
    endloop
  endfacet
  facet normal -9.652376e-01 -2.613542e-01  3.222960e-03
    outer loop
      vertex  1.020365e-01  6.974965e-02  0.000000e+00
      vertex  1.013529e-01  7.287960e-02  4.906756e-02
      vertex  1.001344e-01  7.677459e-02  0.000000e+00
    endloop
  endfacet
  facet normal -4.085109e-01 -9.127520e-01 -1.626122e-03
    outer loop
      vertex  7.894541e-02  9.990157e-02  8.499999e-02
      vertex  7.911260e-02  9.982242e-02  8.742925e-02
      vertex  7.500000e-02  1.015159e-01  1.700000e-01
    endloop
  endfacet
  facet normal -3.787016e-01 -9.255189e-01  -0.000000e+00
    outer loop
      vertex  7.894541e-02  9.990157e-02  8.499999e-02
      vertex  7.500000e-02  1.015159e-01  1.700000e-01
      vertex  7.500000e-02  1.015159e-01  1.250000e-01
    endloop
  endfacet
  facet normal -3.787016e-01 -9.255188e-01  -0.000000e+00
    outer loop
      vertex  7.894541e-02  9.990157e-02  8.499999e-02
      vertex  7.500000e-02  1.015159e-01  1.250000e-01
      vertex  7.500000e-02  1.015159e-01  0.000000e+00
    endloop
  endfacet
  facet normal -4.085112e-01 -9.127518e-01  1.626118e-03
    outer loop
      vertex  7.894541e-02  9.990157e-02  8.499999e-02
      vertex  7.500000e-02  1.015159e-01  0.000000e+00
      vertex  7.911260e-02  9.982242e-02  8.257075e-02
    endloop
  endfacet
  facet normal -4.122745e-01 -9.110578e-01 -1.848326e-03
    outer loop
      vertex  8.163060e-02  9.851545e-02  1.700000e-01
      vertex  7.500000e-02  1.015159e-01  1.700000e-01
      vertex  7.911260e-02  9.982242e-02  8.742925e-02
    endloop
  endfacet
  facet normal -4.311731e-01 -9.022685e-01 -1.132892e-03
    outer loop
      vertex  8.163060e-02  9.851545e-02  1.700000e-01
      vertex  7.911260e-02  9.982242e-02  8.742925e-02
      vertex  7.958999e-02  9.959130e-02  8.980761e-02
    endloop
  endfacet
  facet normal -4.467594e-01 -8.946540e-01 -6.341207e-04
    outer loop
      vertex  8.163060e-02  9.851545e-02  1.700000e-01
      vertex  7.958999e-02  9.959130e-02  8.980761e-02
      vertex  8.015841e-02  9.930614e-02  9.164728e-02
    endloop
  endfacet
  facet normal -4.632848e-01 -8.862094e-01 -2.384052e-04
    outer loop
      vertex  8.163060e-02  9.851545e-02  1.700000e-01
      vertex  8.015841e-02  9.930614e-02  9.164728e-02
      vertex  8.085994e-02  9.893892e-02  9.343126e-02
    endloop
  endfacet
  facet normal -4.855809e-01 -8.741917e-01  5.246896e-05
    outer loop
      vertex  8.163060e-02  9.851545e-02  1.700000e-01
      vertex  8.085994e-02  9.893892e-02  9.343126e-02
      vertex  8.195233e-02  9.833228e-02  9.572054e-02
    endloop
  endfacet
  facet normal -5.291426e-01 -8.485329e-01 -1.994874e-04
    outer loop
      vertex  8.163060e-02  9.851545e-02  1.700000e-01
      vertex  8.195233e-02  9.833228e-02  9.572054e-02
      vertex  8.446489e-02  9.676445e-02  9.999418e-02
    endloop
  endfacet
  facet normal -5.656592e-01 -8.246359e-01 -2.275632e-03
    outer loop
      vertex  8.163060e-02  9.851545e-02  1.700000e-01
      vertex  8.446489e-02  9.676445e-02  9.999418e-02
      vertex  8.763223e-02  9.439863e-02  1.700000e-01
    endloop
  endfacet
  facet normal -5.656592e-01 -8.246359e-01  2.275632e-03
    outer loop
      vertex  8.163060e-02  9.851545e-02  0.000000e+00
      vertex  8.763223e-02  9.439863e-02  0.000000e+00
      vertex  8.446489e-02  9.676445e-02  7.000583e-02
    endloop
  endfacet
  facet normal -5.291426e-01 -8.485329e-01  1.994878e-04
    outer loop
      vertex  8.163060e-02  9.851545e-02  0.000000e+00
      vertex  8.446489e-02  9.676445e-02  7.000583e-02
      vertex  8.195233e-02  9.833228e-02  7.427946e-02
    endloop
  endfacet
  facet normal -4.855809e-01 -8.741918e-01 -5.246895e-05
    outer loop
      vertex  8.163060e-02  9.851545e-02  0.000000e+00
      vertex  8.195233e-02  9.833228e-02  7.427946e-02
      vertex  8.085994e-02  9.893892e-02  7.656873e-02
    endloop
  endfacet
  facet normal -4.632848e-01 -8.862094e-01  2.384052e-04
    outer loop
      vertex  8.163060e-02  9.851545e-02  0.000000e+00
      vertex  8.085994e-02  9.893892e-02  7.656873e-02
      vertex  8.015841e-02  9.930614e-02  7.835272e-02
    endloop
  endfacet
  facet normal -4.467594e-01 -8.946540e-01  6.341207e-04
    outer loop
      vertex  8.163060e-02  9.851545e-02  0.000000e+00
      vertex  8.015841e-02  9.930614e-02  7.835272e-02
      vertex  7.958999e-02  9.959130e-02  8.019239e-02
    endloop
  endfacet
  facet normal -4.311731e-01 -9.022685e-01  1.132892e-03
    outer loop
      vertex  8.163060e-02  9.851545e-02  0.000000e+00
      vertex  7.958999e-02  9.959130e-02  8.019239e-02
      vertex  7.911260e-02  9.982242e-02  8.257075e-02
    endloop
  endfacet
  facet normal -4.122746e-01 -9.110578e-01  1.848326e-03
    outer loop
      vertex  8.163060e-02  9.851545e-02  0.000000e+00
      vertex  7.911260e-02  9.982242e-02  8.257075e-02
      vertex  7.500000e-02  1.015159e-01  0.000000e+00
    endloop
  endfacet
  facet normal -9.135503e-01 -4.067246e-01 -1.013046e-03
    outer loop
      vertex  9.980100e-02  7.764997e-02  1.191958e-01
      vertex  1.001344e-01  7.677459e-02  1.700000e-01
      vertex  9.835122e-02  8.091041e-02  1.175566e-01
    endloop
  endfacet
  facet normal -9.044455e-01 -4.265794e-01 -2.888425e-03
    outer loop
      vertex  9.835122e-02  8.091041e-02  1.175566e-01
      vertex  1.001344e-01  7.677459e-02  1.700000e-01
      vertex  9.702978e-02  8.335707e-02  1.700000e-01
    endloop
  endfacet
  facet normal -8.761617e-01 -4.820170e-01  4.106226e-04
    outer loop
      vertex  9.835122e-02  8.091041e-02  1.175566e-01
      vertex  9.702978e-02  8.335707e-02  1.700000e-01
      vertex  9.669276e-02  8.392335e-02  1.156580e-01
    endloop
  endfacet
  facet normal -8.156209e-01 -5.785859e-01 -9.711427e-04
    outer loop
      vertex  9.669276e-02  8.392335e-02  1.156580e-01
      vertex  9.702978e-02  8.335707e-02  1.700000e-01
      vertex  9.281888e-02  8.929309e-02  1.700000e-01
    endloop
  endfacet
  facet normal -8.119752e-01 -5.836918e-01 -2.067216e-04
    outer loop
      vertex  9.669276e-02  8.392335e-02  1.156580e-01
      vertex  9.281888e-02  8.929309e-02  1.700000e-01
      vertex  9.291718e-02  8.917715e-02  1.112146e-01
    endloop
  endfacet
  facet normal -7.015125e-01 -7.126571e-01  2.323412e-04
    outer loop
      vertex  9.291718e-02  8.917715e-02  1.112146e-01
      vertex  9.281888e-02  8.929309e-02  1.700000e-01
      vertex  8.763223e-02  9.439863e-02  1.700000e-01
    endloop
  endfacet
  facet normal -7.136296e-01 -7.005206e-01 -1.935018e-03
    outer loop
      vertex  9.291718e-02  8.917715e-02  1.112146e-01
      vertex  8.763223e-02  9.439863e-02  1.700000e-01
      vertex  8.870155e-02  9.348623e-02  1.059455e-01
    endloop
  endfacet
  facet normal -9.818840e-01 -1.894763e-01  1.593982e-03
    outer loop
      vertex  1.013529e-01  7.287960e-02  1.209324e-01
      vertex  1.023383e-01  6.778203e-02  1.220267e-01
      vertex  1.020365e-01  6.974965e-02  1.700000e-01
    endloop
  endfacet
  facet normal -9.979255e-01 -6.427597e-02 -3.642004e-03
    outer loop
      vertex  1.020365e-01  6.974965e-02  1.700000e-01
      vertex  1.023383e-01  6.778203e-02  1.220267e-01
      vertex  1.026772e-01  6.250000e-02  1.224016e-01
    endloop
  endfacet
  facet normal -9.961179e-01 -8.802824e-02  0.000000e+00
    outer loop
      vertex  1.020365e-01  6.974965e-02  1.700000e-01
      vertex  1.026772e-01  6.250000e-02  1.224016e-01
      vertex  1.026772e-01  6.250000e-02  1.700000e-01
    endloop
  endfacet
  facet normal -9.135503e-01 -4.067246e-01  1.013046e-03
    outer loop
      vertex  9.980100e-02  7.764997e-02  5.080415e-02
      vertex  9.835122e-02  8.091041e-02  5.244339e-02
      vertex  1.001344e-01  7.677459e-02  0.000000e+00
    endloop
  endfacet
  facet normal -8.737073e-01 -4.863750e-01  8.649203e-03
    outer loop
      vertex  1.001344e-01  7.677459e-02  0.000000e+00
      vertex  9.835122e-02  8.091041e-02  5.244339e-02
      vertex  9.669276e-02  8.392335e-02  5.434198e-02
    endloop
  endfacet
  facet normal -9.044486e-01 -4.265809e-01 -1.163729e-03
    outer loop
      vertex  1.001344e-01  7.677459e-02  0.000000e+00
      vertex  9.669276e-02  8.392335e-02  5.434198e-02
      vertex  9.702978e-02  8.335707e-02  0.000000e+00
    endloop
  endfacet
  facet normal -8.116350e-01 -5.841639e-01  1.053988e-03
    outer loop
      vertex  9.702978e-02  8.335707e-02  0.000000e+00
      vertex  9.669276e-02  8.392335e-02  5.434198e-02
      vertex  9.291718e-02  8.917715e-02  5.878536e-02
    endloop
  endfacet
  facet normal -8.156212e-01 -5.785862e-01  2.228877e-04
    outer loop
      vertex  9.702978e-02  8.335707e-02  0.000000e+00
      vertex  9.291718e-02  8.917715e-02  5.878536e-02
      vertex  9.281888e-02  8.929309e-02  0.000000e+00
    endloop
  endfacet
  facet normal -7.149269e-01 -6.991993e-01 -1.833679e-04
    outer loop
      vertex  9.281888e-02  8.929309e-02  0.000000e+00
      vertex  9.291718e-02  8.917715e-02  5.878536e-02
      vertex  8.870155e-02  9.348623e-02  6.405448e-02
    endloop
  endfacet
  facet normal -7.015116e-01 -7.126562e-01  1.559861e-03
    outer loop
      vertex  9.281888e-02  8.929309e-02  0.000000e+00
      vertex  8.870155e-02  9.348623e-02  6.405448e-02
      vertex  8.763223e-02  9.439863e-02  0.000000e+00
    endloop
  endfacet
  facet normal -9.818839e-01 -1.894762e-01 -1.593982e-03
    outer loop
      vertex  1.013529e-01  7.287960e-02  4.906756e-02
      vertex  1.020365e-01  6.974965e-02  0.000000e+00
      vertex  1.023383e-01  6.778203e-02  4.797330e-02
    endloop
  endfacet
  facet normal -9.961145e-01 -8.802793e-02  2.656428e-03
    outer loop
      vertex  1.023383e-01  6.778203e-02  4.797330e-02
      vertex  1.020365e-01  6.974965e-02  0.000000e+00
      vertex  1.026772e-01  6.250000e-02  0.000000e+00
    endloop
  endfacet
  facet normal -9.979487e-01 -6.401898e-02  0.000000e+00
    outer loop
      vertex  1.023383e-01  6.778203e-02  4.797330e-02
      vertex  1.026772e-01  6.250000e-02  0.000000e+00
      vertex  1.026772e-01  6.250000e-02  4.759843e-02
    endloop
  endfacet
  facet normal  1.000000e+00  0.000000e+00  0.000000e+00
    outer loop
      vertex  2.000000e-01  8.741914e-18  1.700000e-01
      vertex  2.000000e-01  0.000000e+00  0.000000e+00
      vertex  2.000000e-01  2.581709e-02  9.229668e-02
    endloop
  endfacet
  facet normal  9.999999e-01  0.000000e+00  -0.000000e+00
    outer loop
      vertex  2.000000e-01  8.741914e-18  1.700000e-01
      vertex  2.000000e-01  2.581709e-02  9.229668e-02
      vertex  2.000000e-01  2.794545e-02  9.931296e-02
    endloop
  endfacet
  facet normal  1.000000e+00  0.000000e+00  -0.000000e+00
    outer loop
      vertex  2.000000e-01  8.741914e-18  1.700000e-01
      vertex  2.000000e-01  2.794545e-02  9.931296e-02
      vertex  2.000000e-01  3.140173e-02  1.057792e-01
    endloop
  endfacet
  facet normal  1.000000e+00  0.000000e+00  -0.000000e+00
    outer loop
      vertex  2.000000e-01  8.741914e-18  1.700000e-01
      vertex  2.000000e-01  3.140173e-02  1.057792e-01
      vertex  2.000000e-01  3.605309e-02  1.114469e-01
    endloop
  endfacet
  facet normal  1.000000e+00  0.000000e+00  -0.000000e+00
    outer loop
      vertex  2.000000e-01  8.741914e-18  1.700000e-01
      vertex  2.000000e-01  3.605309e-02  1.114469e-01
      vertex  2.000000e-01  4.172080e-02  1.160983e-01
    endloop
  endfacet
  facet normal  9.999999e-01  0.000000e+00  -0.000000e+00
    outer loop
      vertex  2.000000e-01  8.741914e-18  1.700000e-01
      vertex  2.000000e-01  4.172080e-02  1.160983e-01
      vertex  2.000000e-01  4.818704e-02  1.195545e-01
    endloop
  endfacet
  facet normal  9.999999e-01  0.000000e+00  -0.000000e+00
    outer loop
      vertex  2.000000e-01  8.741914e-18  1.700000e-01
      vertex  2.000000e-01  4.818704e-02  1.195545e-01
      vertex  2.000000e-01  5.520331e-02  1.216829e-01
    endloop
  endfacet
  facet normal  1.000000e+00  0.000000e+00  -0.000000e+00
    outer loop
      vertex  2.000000e-01  8.741914e-18  1.700000e-01
      vertex  2.000000e-01  5.520331e-02  1.216829e-01
      vertex  2.000000e-01  6.250000e-02  1.224016e-01
    endloop
  endfacet
  facet normal  1.000000e+00  0.000000e+00  -0.000000e+00
    outer loop
      vertex  2.000000e-01  8.741914e-18  1.700000e-01
      vertex  2.000000e-01  6.250000e-02  1.224016e-01
      vertex  2.000000e-01  1.250000e-01  1.700000e-01
    endloop
  endfacet
  facet normal  9.999999e-01  0.000000e+00  0.000000e+00
    outer loop
      vertex  2.000000e-01  0.000000e+00  0.000000e+00
      vertex  2.000000e-01  1.250000e-01  0.000000e+00
      vertex  2.000000e-01  6.250000e-02  4.759843e-02
    endloop
  endfacet
  facet normal  1.000000e+00  0.000000e+00  0.000000e+00
    outer loop
      vertex  2.000000e-01  0.000000e+00  0.000000e+00
      vertex  2.000000e-01  6.250000e-02  4.759843e-02
      vertex  2.000000e-01  5.520331e-02  4.831709e-02
    endloop
  endfacet
  facet normal  9.999999e-01  0.000000e+00  0.000000e+00
    outer loop
      vertex  2.000000e-01  0.000000e+00  0.000000e+00
      vertex  2.000000e-01  5.520331e-02  4.831709e-02
      vertex  2.000000e-01  4.818704e-02  5.044545e-02
    endloop
  endfacet
  facet normal  1.000000e+00  0.000000e+00  0.000000e+00
    outer loop
      vertex  2.000000e-01  0.000000e+00  0.000000e+00
      vertex  2.000000e-01  4.818704e-02  5.044545e-02
      vertex  2.000000e-01  4.172080e-02  5.390173e-02
    endloop
  endfacet
  facet normal  1.000000e+00  0.000000e+00  0.000000e+00
    outer loop
      vertex  2.000000e-01  0.000000e+00  0.000000e+00
      vertex  2.000000e-01  4.172080e-02  5.390173e-02
      vertex  2.000000e-01  3.605309e-02  5.855309e-02
    endloop
  endfacet
  facet normal  1.000000e+00  0.000000e+00  0.000000e+00
    outer loop
      vertex  2.000000e-01  0.000000e+00  0.000000e+00
      vertex  2.000000e-01  3.605309e-02  5.855309e-02
      vertex  2.000000e-01  3.140173e-02  6.422080e-02
    endloop
  endfacet
  facet normal  1.000000e+00  0.000000e+00  0.000000e+00
    outer loop
      vertex  2.000000e-01  0.000000e+00  0.000000e+00
      vertex  2.000000e-01  3.140173e-02  6.422080e-02
      vertex  2.000000e-01  2.794545e-02  7.068703e-02
    endloop
  endfacet
  facet normal  9.999999e-01  0.000000e+00  0.000000e+00
    outer loop
      vertex  2.000000e-01  0.000000e+00  0.000000e+00
      vertex  2.000000e-01  2.794545e-02  7.068703e-02
      vertex  2.000000e-01  2.581709e-02  7.770331e-02
    endloop
  endfacet
  facet normal  1.000000e+00  0.000000e+00  0.000000e+00
    outer loop
      vertex  2.000000e-01  0.000000e+00  0.000000e+00
      vertex  2.000000e-01  2.581709e-02  7.770331e-02
      vertex  2.000000e-01  2.509842e-02  8.499999e-02
    endloop
  endfacet
  facet normal  1.000000e+00  0.000000e+00  -0.000000e+00
    outer loop
      vertex  2.000000e-01  0.000000e+00  0.000000e+00
      vertex  2.000000e-01  2.509842e-02  8.499999e-02
      vertex  2.000000e-01  2.581709e-02  9.229668e-02
    endloop
  endfacet
  facet normal  9.999999e-01  0.000000e+00  0.000000e+00
    outer loop
      vertex  2.000000e-01  1.250000e-01  0.000000e+00
      vertex  2.000000e-01  9.918292e-02  9.229668e-02
      vertex  2.000000e-01  9.990157e-02  8.499999e-02
    endloop
  endfacet
  facet normal  1.000000e+00  0.000000e+00  0.000000e+00
    outer loop
      vertex  2.000000e-01  1.250000e-01  0.000000e+00
      vertex  2.000000e-01  9.990157e-02  8.499999e-02
      vertex  2.000000e-01  9.918292e-02  7.770331e-02
    endloop
  endfacet
  facet normal  9.999999e-01  0.000000e+00  0.000000e+00
    outer loop
      vertex  2.000000e-01  1.250000e-01  0.000000e+00
      vertex  2.000000e-01  9.918292e-02  7.770331e-02
      vertex  2.000000e-01  9.705456e-02  7.068703e-02
    endloop
  endfacet
  facet normal  1.000000e+00  0.000000e+00  0.000000e+00
    outer loop
      vertex  2.000000e-01  1.250000e-01  0.000000e+00
      vertex  2.000000e-01  9.705456e-02  7.068703e-02
      vertex  2.000000e-01  9.359827e-02  6.422080e-02
    endloop
  endfacet
  facet normal  1.000000e+00  0.000000e+00  0.000000e+00
    outer loop
      vertex  2.000000e-01  1.250000e-01  0.000000e+00
      vertex  2.000000e-01  9.359827e-02  6.422080e-02
      vertex  2.000000e-01  8.894690e-02  5.855309e-02
    endloop
  endfacet
  facet normal  1.000000e+00  0.000000e+00  0.000000e+00
    outer loop
      vertex  2.000000e-01  1.250000e-01  0.000000e+00
      vertex  2.000000e-01  8.894690e-02  5.855309e-02
      vertex  2.000000e-01  8.327921e-02  5.390173e-02
    endloop
  endfacet
  facet normal  1.000000e+00  0.000000e+00  0.000000e+00
    outer loop
      vertex  2.000000e-01  1.250000e-01  0.000000e+00
      vertex  2.000000e-01  8.327921e-02  5.390173e-02
      vertex  2.000000e-01  7.681296e-02  5.044545e-02
    endloop
  endfacet
  facet normal  1.000000e+00  0.000000e+00  0.000000e+00
    outer loop
      vertex  2.000000e-01  1.250000e-01  0.000000e+00
      vertex  2.000000e-01  7.681296e-02  5.044545e-02
      vertex  2.000000e-01  6.979669e-02  4.831709e-02
    endloop
  endfacet
  facet normal  1.000000e+00  0.000000e+00  0.000000e+00
    outer loop
      vertex  2.000000e-01  1.250000e-01  0.000000e+00
      vertex  2.000000e-01  6.979669e-02  4.831709e-02
      vertex  2.000000e-01  6.250000e-02  4.759843e-02
    endloop
  endfacet
  facet normal  1.000000e+00  -0.000000e+00  0.000000e+00
    outer loop
      vertex  2.000000e-01  1.250000e-01  1.700000e-01
      vertex  2.000000e-01  6.250000e-02  1.224016e-01
      vertex  2.000000e-01  6.979669e-02  1.216829e-01
    endloop
  endfacet
  facet normal  1.000000e+00  -0.000000e+00  0.000000e+00
    outer loop
      vertex  2.000000e-01  1.250000e-01  1.700000e-01
      vertex  2.000000e-01  6.979669e-02  1.216829e-01
      vertex  2.000000e-01  7.681296e-02  1.195545e-01
    endloop
  endfacet
  facet normal  1.000000e+00  -0.000000e+00  0.000000e+00
    outer loop
      vertex  2.000000e-01  1.250000e-01  1.700000e-01
      vertex  2.000000e-01  7.681296e-02  1.195545e-01
      vertex  2.000000e-01  8.327921e-02  1.160983e-01
    endloop
  endfacet
  facet normal  9.999999e-01  -0.000000e+00  0.000000e+00
    outer loop
      vertex  2.000000e-01  1.250000e-01  1.700000e-01
      vertex  2.000000e-01  8.327921e-02  1.160983e-01
      vertex  2.000000e-01  8.894690e-02  1.114469e-01
    endloop
  endfacet
  facet normal  1.000000e+00  -0.000000e+00  0.000000e+00
    outer loop
      vertex  2.000000e-01  1.250000e-01  1.700000e-01
      vertex  2.000000e-01  8.894690e-02  1.114469e-01
      vertex  2.000000e-01  9.359827e-02  1.057792e-01
    endloop
  endfacet
  facet normal  1.000000e+00  -0.000000e+00  0.000000e+00
    outer loop
      vertex  2.000000e-01  1.250000e-01  1.700000e-01
      vertex  2.000000e-01  9.359827e-02  1.057792e-01
      vertex  2.000000e-01  9.705456e-02  9.931296e-02
    endloop
  endfacet
  facet normal  1.000000e+00  -0.000000e+00  0.000000e+00
    outer loop
      vertex  2.000000e-01  1.250000e-01  1.700000e-01
      vertex  2.000000e-01  9.705456e-02  9.931296e-02
      vertex  2.000000e-01  9.918292e-02  9.229668e-02
    endloop
  endfacet
  facet normal  1.000000e+00  -0.000000e+00  0.000000e+00
    outer loop
      vertex  2.000000e-01  1.250000e-01  1.700000e-01
      vertex  2.000000e-01  9.918292e-02  9.229668e-02
      vertex  2.000000e-01  1.250000e-01  0.000000e+00
    endloop
  endfacet
  facet normal -1.000000e+00  2.237930e-15  0.000000e+00
    outer loop
      vertex  2.797412e-16  1.250000e-01  0.000000e+00
      vertex  0.000000e+00  0.000000e+00  0.000000e+00
      vertex  2.797412e-16  1.250000e-01  1.250000e-01
    endloop
  endfacet
  facet normal -1.000000e+00  2.237930e-15  0.000000e+00
    outer loop
      vertex  2.797412e-16  1.250000e-01  1.250000e-01
      vertex  0.000000e+00  0.000000e+00  0.000000e+00
      vertex  0.000000e+00  0.000000e+00  1.250000e-01
    endloop
  endfacet
  facet normal  0.000000e+00 -1.000000e+00  5.142302e-17
    outer loop
      vertex  2.000000e-01  8.741914e-18  1.700000e-01
      vertex  7.500000e-02  8.741914e-18  1.700000e-01
      vertex  2.000000e-01  0.000000e+00  0.000000e+00
    endloop
  endfacet
  facet normal  1.942648e-16 -1.000000e+00  1.942648e-16
    outer loop
      vertex  2.000000e-01  0.000000e+00  0.000000e+00
      vertex  7.500000e-02  8.741914e-18  1.700000e-01
      vertex  7.500000e-02  0.000000e+00  1.250000e-01
    endloop
  endfacet
  facet normal  0.000000e+00 -1.000000e+00  -0.000000e+00
    outer loop
      vertex  2.000000e-01  0.000000e+00  0.000000e+00
      vertex  7.500000e-02  0.000000e+00  1.250000e-01
      vertex  0.000000e+00  0.000000e+00  0.000000e+00
    endloop
  endfacet
  facet normal  0.000000e+00 -1.000000e+00  0.000000e+00
    outer loop
      vertex  0.000000e+00  0.000000e+00  0.000000e+00
      vertex  7.500000e-02  0.000000e+00  1.250000e-01
      vertex  0.000000e+00  0.000000e+00  1.250000e-01
    endloop
  endfacet
  facet normal  0.000000e+00  1.000000e+00  0.000000e+00
    outer loop
      vertex  2.797412e-16  1.250000e-01  0.000000e+00
      vertex  2.797412e-16  1.250000e-01  1.250000e-01
      vertex  2.000000e-01  1.250000e-01  0.000000e+00
    endloop
  endfacet
  facet normal  0.000000e+00  1.000000e+00  0.000000e+00
    outer loop
      vertex  2.000000e-01  1.250000e-01  0.000000e+00
      vertex  2.797412e-16  1.250000e-01  1.250000e-01
      vertex  7.500000e-02  1.250000e-01  1.250000e-01
    endloop
  endfacet
  facet normal  -0.000000e+00  1.000000e+00  0.000000e+00
    outer loop
      vertex  2.000000e-01  1.250000e-01  0.000000e+00
      vertex  7.500000e-02  1.250000e-01  1.250000e-01
      vertex  2.000000e-01  1.250000e-01  1.700000e-01
    endloop
  endfacet
  facet normal  0.000000e+00  1.000000e+00  0.000000e+00
    outer loop
      vertex  2.000000e-01  1.250000e-01  1.700000e-01
      vertex  7.500000e-02  1.250000e-01  1.250000e-01
      vertex  7.500000e-02  1.250000e-01  1.700000e-01
    endloop
  endfacet
endsolid CATIA STL
